<?xml version="1.0" encoding="utf-8"?>
<!-- Generator: Adobe Illustrator 27.2.0, SVG Export Plug-In . SVG Version: 6.00 Build 0)  -->
<svg version="1.1" id="Слой_1" xmlns="http://www.w3.org/2000/svg" xmlns:xlink="http://www.w3.org/1999/xlink" x="0px" y="0px"
	 viewBox="0 0 2436 1125" style="enable-background:new 0 0 2436 1125;" xml:space="preserve">
<style type="text/css">
	.st0{fill:#0066CC;stroke:#FFFFFF;stroke-miterlimit:10;}
</style>
<g>
	<path class="st0" d="M602.3,722.5c-84.7,0-169.3-0.1-254,0.2c-7.2,0-9.1-2-9-9.1c0.4-22.3,0.4-44.6,0-66.9c-0.1-7,1.6-9.2,8.9-9.1
		c92.6,0.3,185.3,0.2,277.9,0.2c76.7,0,153.4,0.1,230-0.2c7.2,0,9.1,2,9,9.1c-0.4,22.3-0.4,44.6,0,66.9c0.1,7-1.6,9.2-8.9,9.1
		C771.6,722.4,687,722.5,602.3,722.5z M575,676.6c0.3,5.1,0.4,9.1,0.8,13.1c0.7,7.3,5,11,12,12.7c2.7,0.6,4.9,3.7,7.6,4.2
		c4.5,0.8,9.3,0.9,13.8,0.1c2.9-0.5,5.4-3.2,8.2-4.6c2.2-1.2,5-1.6,6.9-3.2c6.9-5.5,7.5-35.9,0-40.7c-6.1-4-13.8-8-20.7-7.9
		c-7.9,0.2-15.9,4.6-23.5,7.9c-1.8,0.8-3.1,4.1-3.6,6.4C575.5,668.8,575.3,673.3,575,676.6z M376.2,684.4c1.6,0,3.1,0,4.7,0
		c0,5.1,0.2,10.2-0.1,15.4c-0.3,5.4,0.7,8.7,7.5,8.6c6.3,0,8.8-1.7,8.6-8.3c-0.4-14.1-0.3-28.1,0-42.2c0.1-5.8-1.7-8.5-8-8.5
		c-6.1,0-8.6,2.1-8.1,8.2c0.3,3.5,0.2,7-0.1,10.5c-0.1,1.3-1.3,2.4-1.9,3.6c-0.9-0.1-1.7-0.3-2.6-0.4c0-4.7-0.3-9.4,0.1-14.1
		c0.5-5.7-1.5-7.9-7.5-7.9c-6.2,0-8.1,2.1-8,8.2c0.4,14.3,0.4,28.6,0,42.9c-0.2,6.5,2.3,7.7,8.2,7.8c6.2,0.1,7.7-2.4,7.3-7.9
		C375.9,695.1,376.2,689.7,376.2,684.4z M807.6,679c0,7.7,0,15.5,0,23.2c0,4,1.4,6.1,5.8,6c5.4-0.2,10.8,0.2,16.2-0.2
		c6.5-0.5,12.3-2.9,13.4-10.1c0.8-5.2,0.5-10.7-0.1-16c-0.6-5.1-4.1-9.1-9.3-9.1c-10.4,0.1-10.7-6.2-9.9-13.7c0.1-1.2-0.1-2.3,0-3.5
		c0.2-5.9-3.9-6-8.1-6c-4.4,0-8,0.5-7.9,6.3C807.7,663.6,807.6,671.3,807.6,679z M490,708.1c3.5,0,7-0.2,10.5,0
		c4.5,0.3,6.8-0.7,6.8-6c0.1-5.6-2.3-6.9-7.1-6.4c-2.1,0.2-4.5,0.7-6.2-0.1c-2-0.9-4.5-2.9-4.9-4.8c-1.5-8.5,5-6.6,9.5-6.5
		c4.8,0.1,7.4-0.9,7.3-6.5c-0.1-5.4-2.6-6.3-7-6c-1.9,0.1-4,0.5-5.6-0.1c-1.7-0.7-4.3-3-4.1-3.9c0.5-1.9,2.4-4.1,4.2-4.7
		c2.6-0.8,5.6-0.4,8.4-0.3c4.4,0.1,5.6-2.1,5.5-6.1c-0.1-3.8-0.2-7.1-5.3-7c-7.5,0.1-15,0.1-22.5,0c-4.7-0.1-5.9,2.2-5.9,6.6
		c0.2,12,0.1,23.9,0.1,35.9C473.6,708.1,473.6,708.1,490,708.1z M707.3,685.3c0,5.4,0.3,10.8-0.1,16.2c-0.4,5.3,1.6,6.9,6.8,6.8
		c4.9-0.1,8.1-0.8,7.9-6.7c-0.2-9.9,0-19.7,0-29.6c0-4.8-0.6-9.5,6.6-9.9c1.3-0.1,3.2-4.6,3.3-7.1c0-1.7-2.5-5-4.1-5.1
		c-9.1-0.5-18.3-0.5-27.4,0c-1.5,0.1-3.9,3.3-3.9,5c0,2.5,2,7.2,3,7.1c8.8-0.3,8.3,5.3,8,11.2C707.1,677.3,707.3,681.3,707.3,685.3z
		"/>
	<path class="st0" d="M207.3,631.4c0-11.4,0.1-21.8-0.1-32.1c-0.1-4,1.7-5.3,5.5-5.3c27.9,0.1,55.8,0.1,83.8,0
		c3.9,0,5.4,1.5,5.4,5.4c-0.1,26.1,0.1,52.1-0.2,78.2c0,2.8-2.1,6.2-4.2,8.2c-21.6,20.5-47,32.8-76.9,35.5
		c-49.4,4.4-90-12.6-120.1-51.9c-43.4-56.7-29.9-137.9,29.1-179.6c20-14.1,42.1-22.3,66.5-23.9c9.1-0.6,9.2-0.2,9.2,8.6
		c0,25.8-0.3,51.6,0.2,77.4c0.1,7.3-3,9.2-9.2,9.9c-32.7,4-57.5,27.3-63.5,59.5c-7.3,39,19.5,78.1,58.5,85.2
		c24.5,4.5,46.5-0.9,65.4-17.5c15.7-13.7,18.9-33.8,8-49.8c-11.3-16.6-32.1-21.5-50.4-11.9C212.2,628.5,210.2,629.7,207.3,631.4z"/>
	<path class="st0" d="M817.9,553.7c4.3-23.9,8.9-47.7,12.9-71.6c3-17.6,2.7-17.6,20.2-17.6c14,0,14,0,14,14.3
		c0,35.4-0.1,70.9,0.1,106.3c0,6.2-1.8,8.1-8,7.9c-15.1-0.3-15.1,0-15.1-15.4c0-19.2,0-38.5,0-57.7c0-2.4-0.4-4.8-0.5-7.1
		c-0.8-0.1-1.6-0.1-2.3-0.2c-1.1,5.9-2.3,11.8-3.3,17.8c-3,18.5-6.2,36.9-8.7,55.4c-0.8,5.8-3.2,7.4-8.6,7.2
		c-11.6-0.2-11.3-0.1-13-11.7c-3.2-21.5-6.7-43-10.1-64.4c-0.2-1.5-1.2-2.8-3.3-4c-0.1,2.4-0.3,4.8-0.3,7.2
		c0,21.8-0.2,43.7,0.1,65.5c0.1,6-1.9,7.7-7.7,7.5c-18-0.6-15.5,2.8-15.6-15.7c-0.1-34.7,0.1-69.5-0.2-104.2
		c-0.1-6.7,1.9-9.5,8.7-8.7c3.7,0.4,7.5,0.1,11.3,0.1c11.2,0,11.2,0,13.1,11.1c4.3,24.6,8.6,49.3,13,73.9c0.3,1.5,1.2,2.9,1.8,4.4
		C816.8,553.8,817.3,553.8,817.9,553.7z"/>
	<path class="st0" d="M256.3,583.9c-49.1-63.2-48.1-167.2-0.2-229.9c26,38.3,37.9,80.5,35.6,126.2
		C289.9,517.8,277.9,552.4,256.3,583.9z M255.6,409.9c16.8,32.6,24.3,65.4,24.5,100c13.8-29.8-2.3-118.9-24.7-140.1
		c-22.2,24.1-38.9,119.5-23.3,142C231.4,475.4,238.8,442.5,255.6,409.9z M255.6,577.6c15.8-20.4,14.3-66.7,0.2-84.4
		C240.7,509.2,240.4,557.4,255.6,577.6z"/>
	<path class="st0" d="M543.8,528.6c0-19,0.2-38-0.1-57c-0.1-5.5,1.6-7.4,7.2-7.3c14.3,0.4,28.6,0.3,42.9,0c5.4-0.1,6.8,1.9,6.8,7
		c-0.2,38.2-0.2,76.5,0,114.7c0,5.1-1.4,7.1-6.8,6.9c-17.4-0.5-14.7,2.1-14.7-14.3c-0.1-29.6,0.1-59.1-0.2-88.7
		c0-4.5,3.3-11.3-6.4-11.3c-10.1,0-6.9,7-6.9,11.8c-0.2,31.4-0.3,62.9,0,94.3c0.1,6.5-1.9,8.5-8.4,8.3c-15.4-0.6-13.2,1.8-13.3-13.7
		C543.7,562.4,543.8,545.5,543.8,528.6z"/>
	<path class="st0" d="M751,529c0,14.5,0.1,29.1,0,43.6c-0.1,13.1-4.6,18.6-17.4,20c-7.4,0.8-15,0.6-22.4-0.3
		c-12-1.5-16.5-6.3-16.6-18.5c-0.4-30.2-0.4-60.5,0-90.7c0.2-12.8,6.8-18.5,19.7-18.5c6.1,0,12.2,0,18.3,0
		c12.2,0.1,18.2,5.8,18.4,18.1C751.1,498,751,513.5,751,529C751,529,751,529,751,529z M729.6,529.3c0-13.6-0.1-27.2,0-40.7
		c0-4.9-0.8-9.3-6.8-9.5c-5.8-0.2-6.7,4.4-6.7,8.8c-0.1,27.2-0.1,54.3,0,81.5c0,4.6,1.6,8.9,6.9,8.8c5.2,0,6.7-4.1,6.6-8.9
		C729.5,555.9,729.6,542.6,729.6,529.3z"/>
	<path class="st0" d="M444.2,592.9c-2.1,0-4.2-0.1-6.3,0c-3.9,0.3-5.3-1.4-5.5-5.3c-0.2-7.7-1.2-15.4-1.3-23.1
		c-0.1-5.3-2.5-6.8-7.4-6.7c-4.7,0-7.6,1-7.7,6.5c-0.2,7.7-1.2,15.4-1.3,23.1c-0.1,4.3-1.7,5.6-5.9,5.7
		c-16.3,0.5-16.9,0.6-15.5-15.4c2.2-25.8,5.2-51.6,7.9-77.4c1-10,2.4-20,3-30c0.3-4.8,2.4-5.8,6.6-5.7c8.7,0.2,17.3,0.2,26,0
		c4-0.1,5.8,1.1,6.2,5.5c1.6,16.5,3.6,33,5.3,49.5c2.1,20.7,3.9,41.4,6.1,62.1C455.5,592.9,455.8,592.9,444.2,592.9z M424.7,479.9
		c-0.6,0-1.1,0-1.7,0.1c-0.4,0.5-1.1,1-1.1,1.6c-1.5,19.8-3,39.6-4.4,59.5c-0.4,4.8,2.8,5.1,6.4,5.2c4.2,0.1,6-1.7,5.7-5.9
		c-1.2-16.1-2.3-32.2-3.5-48.3C425.7,487.9,425.2,483.9,424.7,479.9z"/>
	<path class="st0" d="M507.6,527.2c18.8,0.6,18.1,13.3,18,25.6c-0.1,7.5,0.3,15.1-0.7,22.4c-1.8,13-5,16.3-17.8,17.3
		c-8.1,0.7-16.4,0.1-24.5-0.9c-9-1.1-13.1-6.1-13.5-15.1c-0.3-7.3-0.2-14.5-0.2-21.8c0-0.9-0.3-2.1,0.2-2.8c5-6.6,12.1-1.8,18.1-2.8
		c1.3-0.2,4.3,3.1,4.5,5c0.6,5.6-0.2,11.3,0.5,16.8c0.3,2.3,3,4.3,4.7,6.5c1.6-2.2,4.3-4.3,4.5-6.6c0.6-7.5,0.2-15,0.2-22.5
		c0-13.9-0.5-14.5-14.2-15.7c-3.6-0.3-5.5-1.1-5.7-5.2c-0.2-5.2,1.5-7,6.8-6.9c11.8,0.1,13.1-1.6,13.1-13.5c0-7.3,0.3-14.6-0.2-21.8
		c-0.2-2.2-2.7-4.1-4.1-6.2c-1.7,2.1-3.7,4-5.1,6.3c-0.6,1,0,2.8-0.2,4.2c-0.5,4.7,0.1,12.7-2,13.5c-5.3,2.1-11.9,1.1-17.9,0.8
		c-1.1-0.1-2.8-2.9-2.9-4.5c-0.3-6.3-0.3-12.7,0-19c0.6-9.9,6.3-15.5,16.2-15.8c7.7-0.2,15.5-0.3,23.2,0c9.4,0.3,15.1,5.3,15.8,14.5
		c0.7,10.5,0.9,21,0.5,31.5c-0.3,8.1-5.3,12.7-13.5,13.5c-0.8,0.1-1.5,0.7-2.3,1.1C508.5,525.9,508.1,526.5,507.6,527.2z"/>
	<path class="st0" d="M679.2,507.2c0,7.3,0.2,14.6,0,21.8c-0.3,12-6.9,18.5-18.8,19.1c-16.3,0.7-16.3,0.7-16.3,16.8
		c0,7.3-0.2,14.6,0.1,21.8c0.1,4.4-1.2,6.4-6,6.3c-20.7-0.5-16.8,2.8-17-16.3c-0.2-34.7,0.1-69.5-0.2-104.2c0-6,1.3-8.4,7.8-8.1
		c10.1,0.5,20.2,0.1,30.3,0.2c12.7,0.1,19.7,6.8,20.1,19.4C679.4,491.7,679.2,499.4,679.2,507.2
		C679.2,507.2,679.2,507.2,679.2,507.2z M644.1,507.3c0,7.5,0.2,15-0.1,22.5c-0.2,6.3,3.8,7.7,8.1,5.8c2.6-1.2,5.3-5.4,5.4-8.3
		c0.6-13.1,0.3-26.3,0.2-39.4c0-1.2,0-2.4-0.3-3.5c-1.1-4.9-4.9-6.6-9-5.2c-1.9,0.6-3.9,4.1-4.1,6.4
		C643.8,492.8,644.1,500.1,644.1,507.3z"/>
	<path class="st0" d="M1979.4,697.1c-12.9,0-25.8-0.1-38.7,0.1c-4.5,0.1-6.2-1.4-6.2-6.1c0.2-21.6,0.2-43.1,0-64.7
		c-0.1-5.8,3.2-5.7,7.2-5.7c4,0,7.4-0.1,7.3,5.7c-0.3,17.3,0.1,34.7-0.2,52.1c-0.1,5.7,2,7.3,7.4,7.2c19.5-0.4,16.1,2.2,16.4-16.4
		c0.2-14.1,0.3-28.1-0.1-42.2c-0.1-5.9,2.8-6.3,7.4-6.4c4.8-0.1,7.3,0.9,7.2,6.5c-0.3,16.9,0.1,33.8-0.2,50.6
		c-0.1,5.6,1.3,8,7.4,7.8c18.8-0.5,16.2,2.1,16.3-15.9c0.1-14.3,0.2-28.6-0.1-42.9c-0.1-5.3,2.3-6.2,6.8-6.2c4.5,0,7,1,6.9,6.2
		c-0.2,21.3-0.2,42.7,0,64c0,5-2.1,6.4-6.8,6.3C2004.8,696.9,1992.1,697.1,1979.4,697.1z"/>
	<path class="st0" d="M1788.3,527.9c0.1-18.6,7.7-27.5,25.8-31c2.5-0.5,4.9-2.3,6.8-4c2.7-2.5,11.4-2.2,14,0.6
		c1.3,1.5,3.2,3,5.1,3.3c20.8,3.5,30,16.5,26.8,37.5c-1.4,9.1-3.2,17.7-11.9,22.6c-3.4,1.9-7.4,2.6-11.1,3.7c-3.5,1-7.7-0.1-9.5,5.2
		c-1.1,3.2-11.2,2.1-13.6-0.7c-1.5-1.7-3.7-3.7-5.7-3.8C1792.2,559.3,1788.7,544.9,1788.3,527.9z M1820.6,509.3
		c-10.6-1.2-15.2,1.9-17.3,11c-3.2,13.4,0.7,25.9,9,28.8c1.1,0.4,2.6,1.3,3.3,0.9c1.8-1,4.8-2.5,4.8-3.9
		C1820.7,534,1820.6,521.8,1820.6,509.3z M1834.9,509.3c0,11.1-0.1,21.8,0.1,32.5c0.1,2.7,1,7.5,2.2,7.7c2.8,0.5,6.5-0.4,9.1-2.1
		c2.3-1.5,4.8-4.5,5-7.1c0.7-7.1,1.2-14.4,0.2-21.3C1850.1,510.8,1845,508.1,1834.9,509.3z"/>
	<path class="st0" d="M339.5,528.7c0-18.7,0.2-37.5-0.1-56.2c-0.1-6,1.3-8.4,7.8-8.1c10.7,0.5,21.5,0.4,32.3,0.1
		c5.5-0.2,6,2.9,5.9,7.1c-0.1,3.9,0.2,7.9-5.6,7.3c-0.5,0-0.9,0-1.4,0c-15.9,0.3-15.9,0.3-15.9,16c0,30-0.2,60,0.1,90
		c0.1,6.6-2,8.4-8.4,8.2c-14.7-0.4-14.7-0.1-14.7-15.1C339.5,561.5,339.5,545.1,339.5,528.7z"/>
	<path class="st0" d="M1299.7,658.1c0-20.9,6.7-28.6,27.3-31.8c1.5-0.2,3.2-0.9,4.2-1.9c5-5.1,9.9-5.1,14.8-0.1
		c1.3,1.3,3.6,1.9,5.5,2.1c17.2,2,25.8,11.4,26,28.9c0,5.1,0,10.4-1.1,15.3c-2.7,12.2-10,18-22.3,19.9c-3.2,0.5-5.9,3.9-9.2,4.5
		c-4.1,0.8-8.6,0.7-12.7-0.1c-2.5-0.5-4.6-3.8-7.1-4.2c-18.6-3.4-25.3-11.1-25.4-29.8C1299.7,660,1299.7,659.1,1299.7,658.1z
		 M1345.3,658.7C1345.3,658.7,1345.3,658.7,1345.3,658.7c0,4-0.3,8,0.1,11.9c0.3,3,1.6,5.9,2.4,8.9c3.3-0.9,7.2-1,9.6-3
		c2.6-2.2,4.8-5.9,5.3-9.3c0.9-5.5,0.5-11.2,0.2-16.7c-0.4-6.2-4-10.3-10.1-12c-4.7-1.3-7.8-0.3-7.6,5.5
		C1345.5,648.9,1345.3,653.8,1345.3,658.7z M1331.8,659C1331.8,659,1331.8,659,1331.8,659c0-4.9-0.1-9.8,0.1-14.8
		c0.3-6.3-3-7.1-8-5.6c-7.7,2.2-10.8,8.5-10.3,20.7c0.5,13.1,3.8,18.5,12.1,20.2c4.3,0.9,6.2-0.8,6.2-5.1
		C1331.8,669.3,1331.8,664.1,1331.8,659z"/>
	<path class="st0" d="M1613.9,520.8c-3.6,7-7.1,13.9-10.7,20.9c-1.4,2.7-2.6,5.5-4.1,8.2c-3.1,5.3-9.2,5.3-12.1-0.1
		c-3.8-7.2-7.3-14.7-10.9-22c-1.1-2.2-2.4-4.4-5.3-6.3c-0.2,2.1-0.5,4.2-0.5,6.3c-0.1,11-0.3,22.1,0.1,33.1c0.2,5.3-1.7,6.9-6.9,6.9
		c-5.1,0-6.4-2-6.3-6.7c0.2-20.9,0-41.8,0.2-62.7c0-2.3,1.7-6.5,2.8-6.6c4.3-0.4,9.4-2.5,12.3,3.4c5.2,10.5,10.8,20.8,16.2,31.2
		c1.2,2.2,2.4,4.3,4.4,7.8c2-3.2,3.4-5.2,4.6-7.4c5.3-10.2,10.9-20.2,15.7-30.6c2.9-6.3,7.9-5,12.6-4.6c5.6,0.5,3.4,5.4,3.4,8.4
		c0.2,19.7,0.1,39.4,0.1,59.1c0,4.4,1,8.7-6.4,8.8c-7.9,0.1-6.7-4.5-6.7-9.2c0-12.4,0-24.7,0-37.1
		C1615.6,521.3,1614.8,521,1613.9,520.8z"/>
	<path class="st0" d="M1030.9,457.1c-2.2,10.8-4.4,21.5-6.5,32.2c-12.8,63.1-25.5,126.2-38.3,189.2c-3.1,15.1-6.2,30.3-9.4,45.4
		c-1.6,7.7-2.2,7.8-11.6,6c1.9-9.7,3.6-19.5,5.6-29.2c15.7-76.8,31.4-153.7,47.1-230.5c0.4-2.1,0.9-4.1,1-6.2
		C1019.1,456.8,1022.7,454.5,1030.9,457.1z"/>
	<path class="st0" d="M2202.2,667.9c1.3-1.7,2.8-3.4,4-5.1c8.4-12.4,16.6-25,25.5-37.1c1.8-2.5,5.8-3.8,9-4.7c3.7-1,5.4,1.1,5.4,5.1
		c-0.1,21.8-0.2,43.6,0,65.5c0.1,5.7-3.1,5.7-7.2,5.7c-4,0-7.4,0.2-7.3-5.6c0.3-11.3,0.1-22.5,0.1-33.8c0-2.5,0-5.1-1.5-8.3
		c-1.4,1.9-3,3.7-4.3,5.6c-8.4,12.4-16.6,25-25.2,37.3c-1.6,2.3-4.9,3.9-7.7,4.6c-4.7,1.2-6.6-1.2-6.6-6.1c0.2-21.3,0.2-42.7,0-64
		c-0.1-5.3,2.5-6.1,6.9-6.1c4.7-0.1,6.8,1.3,6.7,6.4c-0.2,11-0.1,22.1,0,33.1c0,2.4,0.4,4.8,0.6,7.3
		C2201.1,667.5,2201.7,667.7,2202.2,667.9z"/>
	<path class="st0" d="M1583.9,657.4c6.4,4.1,12,8.1,12,16.4c0,12.2-6.7,20.7-19,21.8c-10.2,0.9-20.5,0.9-30.8,1.3
		c-4.3,0.2-5.7-1.7-5.7-5.9c0.1-21.5,0-43.1,0.2-64.6c0-1.9,2.2-5.5,3.3-5.5c11.2,0,22.4,0.1,33.5,1.1c7,0.7,13.3,4.1,15,11.7
		c1.8,8.2,0.9,15.9-7.1,21.1C1584.9,655.4,1584.7,656.1,1583.9,657.4z M1554.3,662.6c0,7.3-0.3,13.1,0.2,18.9
		c0.1,1.4,2.5,3.8,3.8,3.8c5.8-0.1,11.9,0,17.2-1.8c2.8-1,6.1-5.9,5.9-9c-0.1-3.3-3.3-8.3-6.3-9.3
		C1569.1,663.2,1562.4,663.4,1554.3,662.6z M1564.1,631.9c-10.1,0.4-10.2,0.4-10.1,10.3c0,1.9-0.3,4,0.4,5.5c0.7,1.6,2.6,3.7,4,3.7
		c5.1,0,10.5,0.1,15.1-1.7c2.7-1,5.5-5.4,5.6-8.4c0.1-2.5-3-6-5.6-7.6C1570.9,632.1,1567.2,632.4,1564.1,631.9z"/>
	<path class="st0" d="M1236.7,669.7c2.9-3.8,4.4-5.6,5.8-7.7c8.3-12.2,16.7-24.3,24.7-36.7c2.6-4.1,5.9-5.4,10-4.3
		c1.8,0.5,4.3,3,4.3,4.6c0.3,22.3,0.1,44.5,0.2,66.8c0,5.7-3.9,4.7-7.3,4.8c-3.6,0.1-7.2,0.4-7.1-5.1c0.2-11.3,0.1-22.5,0-33.8
		c0-2.5,0-5.1-1.6-8.4c-1.6,2-3.4,3.9-4.8,6.1c-8.1,12-16.1,24.2-24.4,36.1c-1.4,2.1-3.8,4.3-6.2,4.8c-5.4,1.3-8.6-0.1-8.4-7.1
		c0.4-20.6,0.2-41.3,0.1-61.9c0-4.7,0.6-7.4,6.4-7.4c5.6,0,7.4,1.9,7.3,7.3c-0.3,10.8-0.1,21.6,0,32.4
		C1235.7,662.7,1236.2,665.1,1236.7,669.7z"/>
	<path class="st0" d="M1137.4,658.5c0-10.5,0.2-21.1-0.1-31.6c-0.1-5.2,2.4-6.1,6.9-6.2c4.6,0,6.8,1.1,6.7,6.3
		c-0.2,16.9,0.1,33.8-0.2,50.6c-0.1,6.1,2,8.5,8.1,8.1c5.4-0.4,10.8-0.3,16.2,0c4.8,0.2,6.6-1.5,6.5-6.5
		c-0.2-16.9,0.1-33.8-0.2-50.6c-0.1-5.5,1.1-7.9,7.3-7.9c6.2,0,7.3,2.5,7.3,8c-0.3,16.4,0,32.8-0.2,49.2c0,4.9,0.6,8.1,6.7,8.1
		c1.5,0,4.2,3.1,4.5,5.1c0.7,4.3,0.1,8.9,0.3,13.3c0.1,4.2-0.1,7.2-5.8,7.2c-5.2,0-6.8-2.2-6.2-6.8c0.8-6.5-2.4-7.8-8.3-7.6
		c-13.6,0.4-27.2-0.3-40.8,0.3c-7.5,0.3-9.2-2.4-8.9-9.3C1137.8,678.2,1137.4,668.3,1137.4,658.5z"/>
	<path class="st0" d="M2305,667.3c-8.3-2.7-13.5-0.9-16.6,6.7c-1.8,4.5-4.5,8.7-6.9,13c-6,11.2-6,11.2-20.3,9.4
		c5.8-10.5,11.4-20.5,17.6-31.8c-1-0.4-1.9-0.7-2.7-1.2c-10.8-6.6-14.4-14.9-11.8-26.6c1.9-8.4,10.8-15.3,21.7-15.9
		c9.3-0.5,18.7-0.1,28.1-0.2c4.1-0.1,5.2,1.8,5.2,5.6c-0.1,21.8-0.2,43.6,0,65.4c0.1,5.9-3.5,5.4-7.4,5.5c-4.2,0.1-7.4-0.2-7.1-5.8
		C2305.2,683.4,2305,675.5,2305,667.3z M2304.9,643.7c0-2.6,0.3-5.2-0.1-7.7c-0.2-1.3-1.6-3.4-2.5-3.4c-6.2,0.2-12.8-0.2-18.5,1.6
		c-2.8,0.9-6,6.3-5.9,9.5c0.1,3.2,3.6,8,6.7,9.1c5.3,1.8,11.4,1.4,17.2,1.4c1,0,2.6-2.2,3-3.6
		C2305.3,648.5,2304.9,646.1,2304.9,643.7z"/>
	<path class="st0" d="M2165.8,659.7c0,9.8-0.2,19.7,0.1,29.5c0.1,5.2-0.5,8.1-7,8.2c-6.8,0-7.7-2.9-7.4-8.5
		c0.3-6.5-0.2-13.1,0.1-19.7c0.2-4.7-1.7-6.2-6.1-5.9c-6.1,0.3-12.2,0.2-18.3,0c-3.6-0.1-5,1.3-5,4.9c0.1,7.7-0.2,15.5,0.1,23.2
		c0.2,5.7-3.1,5.8-7.2,5.7c-4-0.1-7.4,0.2-7.3-5.6c0.2-21.8,0.2-43.6,0-65.4c-0.1-6,3.6-5.3,7.4-5.5c4.2-0.2,7.3,0.3,7,5.9
		c-0.4,6.5,0,13.1-0.1,19.7c-0.1,3.9,1.6,5.5,5.4,5.5c6.3-0.1,12.7,0.3,18.9-0.3c1.8-0.2,4.5-3.1,4.7-4.9c0.6-6.5,0.5-13.1,0.2-19.7
		c-0.3-5.3,2.3-6.3,6.8-6.2c4.2,0.2,7.9-0.3,7.7,5.9C2165.5,637.6,2165.8,648.6,2165.8,659.7z"/>
	<path class="st0" d="M1650.2,528.9c0-10.6,0.2-21.1-0.1-31.7c-0.2-5.4,2.5-6.1,6.9-6.1c4.5,0,7.9,0.2,7.6,6.2
		c-0.4,6.1,0.1,12.2-0.1,18.3c-0.2,4.6,1,6.6,6.2,6.7c23.1,0.5,23.1,0.7,23.2-22.3c0-8.8,0.5-9.1,8.3-8.8c4,0.1,5.4,1.9,5.3,5.6
		c0,21.8-0.1,43.6,0,65.5c0,5.9-3.9,5.2-7.7,5.4c-4.1,0.2-6.1-1-6-5.5c0.2-7.5-0.1-15,0.1-22.5c0.1-4.2-1.6-6-5.8-5.8
		c-6.1,0.2-12.2,0.2-18.3,0c-4.1-0.1-5.3,1.6-5.2,5.5c0.2,7.3-0.2,14.6,0.1,21.8c0.3,5.5-2.2,6.7-7.1,6.6c-4.6-0.1-7.6-0.5-7.3-6.4
		C1650.5,550.5,1650.2,539.7,1650.2,528.9z"/>
	<path class="st0" d="M1391.6,530.1c0,10.6-0.2,21.1,0.1,31.7c0.1,4.9-2.1,5.9-6.4,5.8c-4.1-0.1-7.4-0.2-7.4-5.8
		c0.1-16.4,0.1-32.8,0-49.2c0-9.8-0.1-9.8-9.5-9.8c-4.9,0-9.9,0.3-14.8-0.1c-5.3-0.4-7,1.9-6.9,7c0.2,16.6-0.3,33.3,0.2,49.9
		c0.2,6.9-2.5,9.2-8.6,7.7c-1.9-0.5-4.8-3.1-4.8-4.8c-0.3-22-0.2-44.1-0.3-66.1c0-4.1,1.9-5.2,5.6-5.2c15.7,0.1,31.4,0.2,47.1,0
		c4.4,0,5.7,1.7,5.6,5.9C1391.5,508.1,1391.6,519.1,1391.6,530.1z"/>
	<path class="st0" d="M1523.2,657.7c-1.2,7.2-1.6,14.3-3.5,21c-3.9,13.7-14.3,19.5-31.4,18.4c-12-0.7-22.3-9.5-23.6-22
		c-1.1-10.8-1.2-21.9-0.1-32.7c1.3-12.8,12-21.9,24.7-22.9c14.5-1.1,25.9,5.2,30,17.8C1521.6,643.8,1522,651,1523.2,657.7z
		 M1508.7,658.8c-0.3,0-0.6,0-0.9-0.1c0-4.2,0.1-8.4-0.1-12.6c-0.1-1.6-0.7-3.2-1.2-4.8c-2.2-6.7-7.4-10.5-14.1-10.4
		c-6.8,0.1-12.7,3.9-13.3,11c-1,11-1,22.3-0.1,33.3c0.6,7.3,6.5,11.1,13.2,11.1c7.4,0,12.5-3.5,14.2-11
		C1507.8,670,1508,664.4,1508.7,658.8z"/>
	<path class="st0" d="M1539.9,530.5c-0.9,5.4-1.3,12-3.1,18.2c-4,14.4-13.4,19.8-30.9,18.9c-13-0.7-22.7-8.8-24.2-22.1
		c-1.2-10.6-1.2-21.5-0.1-32.1c1.5-14.2,13.3-23.4,28-23.5c14.6-0.1,25.9,9.1,28.3,23.3C1538.8,518.5,1539.1,523.9,1539.9,530.5z
		 M1525.6,529.1c-0.7-5.7-0.9-11.6-2.3-17.2c-1.7-6.6-6.7-10-13.5-10.3c-6.6-0.3-13,3.8-13.7,10.7c-1,11-1.1,22.3-0.2,33.4
		c0.6,7.4,6.4,11.2,13.2,11.2c7.4,0,12.6-3.5,14.3-11C1524.7,540.5,1524.9,534.8,1525.6,529.1z"/>
	<path class="st0" d="M1249.4,566.9c-12.8,1.6-12.6,1.5-17.5-9.7c-1-2.3-4.4-4-7.1-4.8c-2.8-0.8-6-0.2-9.1-0.2
		c-12.1,0-12,0-16.7,11.2c-3.4,8.2-9.9,2.5-16.5,4.7c4.8-13.6,8.9-25.4,13.1-37.2c4.1-11.7,8.5-23.3,12.4-35
		c1.5-4.5,4.4-4.8,8.2-4.6c3.6,0.1,7.3-0.7,9.1,4.3c7.9,22.7,16,45.4,24,68.1C1249.5,564.6,1249.3,565.8,1249.4,566.9z
		 M1217.8,513.5c-0.8,0-1.6,0-2.4,0c-2.6,7.9-5.4,15.7-7.7,23.6c-0.3,1.1,1.7,4,2.8,4.1c4.9,0.5,9.9,0.2,16.2,0.2
		C1223.4,531,1220.6,522.2,1217.8,513.5z"/>
	<path class="st0" d="M2044.5,658.5c0-10.6,0.2-21.1-0.1-31.7c-0.1-4.6,1.5-6.2,6.1-6.1c12.2,0.2,24.4,0.2,36.6,0
		c4.5-0.1,5.5,1.9,5.5,6c0,4.3-1.5,5.9-5.8,5.7c-7.3-0.2-14.5,0.1-21.8-0.1c-4.4-0.1-6.2,1.3-6.3,6c-0.4,13.5-0.6,13.4,13,13.4
		c3.3,0,6.6,0.2,9.8,0c4.4-0.3,7,0.5,7,6c0,5.8-3.2,5.7-7.3,5.7c-5.6-0.1-11.3,0.2-16.9-0.1c-4.4-0.2-5.7,1.6-5.7,5.8
		c0.3,19.5-2.1,16.2,15.6,16.5c4,0.1,8,0.2,12,0c4.3-0.2,6.4,1,6.4,5.9c0,4.9-2.2,5.9-6.5,5.8c-11.7-0.2-23.5-0.3-35.2,0
		c-5.5,0.2-6.8-2-6.7-7.1C2044.7,679.6,2044.5,669,2044.5,658.5z"/>
	<path class="st0" d="M1727.7,529.5c0-10.6,0.2-21.1-0.1-31.7c-0.1-4.7,1.1-6.8,6.3-6.7c11.9,0.3,23.9,0.2,35.9,0
		c4.6-0.1,6.2,1.5,6.1,6.1c0,4.5-2,5.6-6,5.5c-7.3-0.2-14.5,0.1-21.8-0.1c-4-0.1-5.9,1.1-6.1,5.5c-0.8,14-0.9,14,13.1,14
		c3.3,0,6.6,0.2,9.8,0c4.4-0.3,7,0.6,7,6c-0.1,5.1-2.6,5.7-6.7,5.6c-5.9-0.2-11.7,0.1-17.6-0.1c-3.8-0.1-5.3,1.3-5.6,5.3
		c-1.3,17-1.4,17,15.6,17c4.2,0,8.4,0.2,12.7,0c4.5-0.3,5.5,1.9,5.6,5.9c0,4.4-1.7,5.7-5.9,5.7c-12-0.2-23.9-0.2-35.9,0
		c-4.9,0.1-6.7-1.5-6.5-6.5C1727.9,550.6,1727.7,540.1,1727.7,529.5z"/>
	<path class="st0" d="M1395.4,658.9c0-10.8,0.1-21.6-0.1-32.4c-0.1-4.2,1.4-5.9,5.7-5.8c8.9,0.2,17.8-0.2,26.7,0.2
		c14.1,0.6,22.9,9.6,23.1,23.1c0.2,14.5-8.4,24-22.8,25c-4.4,0.3-9-0.4-13.3,0.4c-1.9,0.3-4.5,3-4.7,4.8c-0.6,5.6-0.5,11.2-0.2,16.9
		c0.3,5.3-2.2,6.3-6.8,6.2c-4.2-0.2-7.9,0.3-7.7-5.9C1395.7,680.5,1395.4,669.7,1395.4,658.9z M1409.8,657.4
		c6.4,0,11.5,0.3,16.6-0.1c6.6-0.5,10-4.9,10.7-11c0.7-5.9-1.7-11-7.8-12.4c-5.3-1.2-11-1.2-16.6-1.2c-1,0-2.7,2.4-2.8,3.8
		C1409.6,643.1,1409.8,649.8,1409.8,657.4z"/>
	<path class="st0" d="M1800.9,658.6c0-10.6,0.2-21.1-0.1-31.7c-0.1-4.5,1.3-6.4,6-6.3c8.7,0.3,17.4-0.1,26,0.2
		c14.7,0.5,23.7,9.8,23.7,24c-0.1,14.1-9.3,23.5-23.8,24.1c-1.2,0.1-2.3,0-3.5,0c-16.1,0.2-13.8-1.8-14,13.7c0,2.1,0,4.2,0,6.3
		c0,7.3-5.1,10.8-11.8,7.6c-1.4-0.7-2.4-3.8-2.4-5.8C1800.8,680.2,1800.9,669.4,1800.9,658.6z M1815.3,657.3c6.4,0,12,0.5,17.5-0.1
		c6.2-0.6,9.3-5.2,10-11c0.6-5.6-1.6-10.7-7.3-12.1c-5.5-1.4-11.5-1.4-17.3-1.4c-1,0-2.7,2.9-2.8,4.5
		C1815.1,643.5,1815.3,649.8,1815.3,657.3z"/>
	<path class="st0" d="M1871.3,659.1c0-10.6,0.2-21.1-0.1-31.7c-0.1-4.6,1-6.9,6.2-6.8c11.7,0.3,23.4,0.2,35.2,0
		c4.1-0.1,6,1.3,6.1,5.6c0.1,4.6-1.8,6.2-6.3,6.1c-7-0.2-14.1,0.1-21.1-0.1c-4.3-0.1-5.6,1.6-5.7,5.8c-0.5,13.6-0.6,13.6,12.8,13.6
		c3.5,0,7,0.2,10.5,0c4.2-0.2,6.5,0.8,6.5,5.7c0,4.8-1.9,6.1-6.3,5.9c-6.1-0.3-12.2,0-18.3-0.1c-3.4-0.1-5.2,1-5.1,4.8
		c0.2,21.3-2.4,17,15.9,17.5c3.7,0.1,7.5,0.2,11.3,0c4.2-0.2,5.9,1.5,5.9,5.7c0,4.1-1.4,6-5.8,5.9c-12-0.2-23.9-0.2-35.9,0
		c-4.9,0.1-5.9-2.2-5.8-6.4C1871.4,680.2,1871.3,669.6,1871.3,659.1z"/>
	<path class="st0" d="M1412.3,528.7c0-10.5-0.2-21.1,0.2-31.6c0.1-2,2.6-5.5,4-5.5c11.2,0,22.6-0.5,33.5,1.3
		c13.5,2.2,18.8,11.5,17.6,26.7c-0.9,10.7-10,19.2-21.9,19.9c-4.4,0.3-8.9,0.2-13.3,0c-4.2-0.2-6,1.4-5.8,5.8
		c0.2,4.9-0.3,9.9,0.1,14.8c0.5,5.7-1.4,7.7-7.4,7.8c-6.5,0.1-7.2-2.9-7.1-8.1C1412.5,549.3,1412.3,539,1412.3,528.7z M1435.1,502.1
		c-2.4,0.8-7.6,1.5-7.8,2.7c-0.7,7.4-0.3,14.8-0.2,22.3c5.4,0.2,10.7,0.5,16.1,0.7c0.5,0,0.9-0.1,1.4-0.2c5.7-1.4,8.9-5.1,9.4-10.8
		c0.5-5.6-1.8-10.2-7.2-12.3C1443.4,503.2,1439.6,503,1435.1,502.1z"/>
	<path class="st0" d="M1612.3,658.4c0-10.5,0.2-21.1-0.1-31.6c-0.2-5.3,2.3-6.3,6.8-6.1c4.2,0.1,8.1-0.3,7.7,6
		c-0.4,5.6,0.1,11.2-0.1,16.8c-0.2,4.3,1.6,5.7,5.8,5.6c4.6,0,9.3,0.5,13.9,1.1c13,1.7,20.7,9.8,21.2,22
		c0.5,11.9-7.1,21.4-19.9,23.2c-9.9,1.4-20,1.2-30,1.7c-4,0.2-5.2-1.8-5.2-5.6C1612.4,680.4,1612.3,669.4,1612.3,658.4z
		 M1626.6,672.7c0,12.8,0,12.8,8.5,12.8c12.3,0,18.1-4.2,17.9-12.7c-0.2-8.6-5.4-12.2-17.5-12.3
		C1626.6,660.5,1626.6,660.5,1626.6,672.7z"/>
	<path class="st0" d="M1709.2,659c0-10.6,0.2-21.1-0.1-31.7c-0.1-4.7,1.3-6.8,6.4-6.7c11.5,0.3,23,0.2,34.5,0c4.4-0.1,6.3,1.2,6.3,6
		c0,5-2.3,5.9-6.5,5.8c-6.8-0.2-13.6,0.2-20.4-0.1c-4.9-0.2-6.9,1.8-6.7,6.5c0.1,1.6,0.1,3.3,0,4.9c-0.6,6.1,1.9,8.5,8.1,8.1
		c5.8-0.4,11.7,0.1,17.6-0.1c4.3-0.1,4.9,2.3,4.9,5.8c0,3.5-0.6,5.9-4.9,5.8c-6.6-0.2-13.1,0.2-19.7-0.1c-4.3-0.2-5.7,1.6-6,5.7
		c-1.2,16.3-1.1,16.6,15,16.6c4,0,8,0.1,12,0c4-0.2,6.6,0.5,6.7,5.6c0.1,5.4-2.4,6.2-6.9,6.1c-11.3-0.2-22.5-0.3-33.8,0
		c-5,0.1-6.6-1.7-6.5-6.5C1709.4,680.1,1709.2,669.5,1709.2,659z"/>
	<path class="st0" d="M1258.2,546.8c6.8-1.1,12.3-1.5,16.9,5.2c4.2,6,16.9,7.1,22.5,2.1c2.7-2.4,5.2-7.7,4.3-10.7
		c-1.1-3.7-5.5-6.8-9.1-9.2c-1.8-1.2-5-0.6-7.6-0.5c-4.1,0.2-6.7-0.5-6.6-5.6c0-4.7,1.8-6.2,6.2-6c5.8,0.2,12.1-0.5,14.1-6.7
		c1-3.1-0.2-8.4-2.4-10.7c-4.7-4.8-11.1-4-17.1-1.6c-1.5,0.6-3.1,1.7-3.8,3c-3.4,6.9-9,5-14.9,4.7c0.1-7.4,3.9-12,9.2-15.3
		c9-5.5,18.8-6.7,29-3.6c16.4,5,20.3,20.3,8.1,32.5c-0.8,0.8-1.5,1.6-2.3,2.5c0.6,0.9,0.9,1.6,1.4,1.9c7.5,4.6,11.4,11.1,10.2,19.9
		c-1.5,10.4-8.4,16.1-18.2,17.9c-9.2,1.7-18.7,2.4-27.4-2.3C1263.7,560.8,1259.3,555.1,1258.2,546.8z"/>
	<path class="st0" d="M1946.9,529.4c0-10.5,0.2-21.1-0.1-31.6c-0.1-5.4,2.2-6.7,7.2-6.7c4.9,0,6.7,1.6,6.5,6.5
		c-0.3,5.4,0.1,10.8-0.1,16.2c-0.1,4.2,1.5,5.8,5.8,5.8c5.3,0,10.8,0.4,16,1.3c13.2,2.3,20.7,11.2,20.4,23.6
		c-0.3,12-8.2,20.5-21.3,21.9c-9.5,1-19.1,0.8-28.7,1.3c-4.4,0.2-5.8-1.8-5.7-5.9c0.1-5.4,0-10.8,0-16.2
		C1946.8,540.2,1946.8,534.8,1946.9,529.4z M1960.3,543.5c0,12.6,0,12.6,9.5,12.6c12.9,0,18.2-3.5,18.3-12.2
		c0.1-8.8-5.7-12.8-18.7-12.8C1960.3,531,1960.3,531,1960.3,543.5z"/>
	<path class="st0" d="M1896.7,534.5c0-8.7-0.2-17.4,0.1-26c0.1-4.2-1.2-6.1-5.6-5.8c-3,0.2-6.1-0.1-9.1,0.1c-4,0.2-6.6-0.4-6.7-5.5
		c-0.1-5.3,2.4-6.1,6.9-6.1c15,0.2,30,0.2,45,0c4.5-0.1,6.3,1.4,6.3,6.1c-0.1,4.3-1.9,5.5-6,5.6c-16.4,0.5-16.4,0.6-16.4,16.8
		c0,13.8-0.2,27.7,0.1,41.5c0.1,5.7-2.5,6.5-7.2,6.5c-4.6,0-7.6-0.5-7.3-6.4C1897,552.4,1896.7,543.4,1896.7,534.5z"/>
	<path class="st0" d="M1137.4,529.3c0-10.5,0.1-21.1-0.1-31.6c-0.1-4.8,1.5-6.7,6.5-6.6c11,0.3,22,0.2,33,0c4.1-0.1,6.6,0.6,6.6,5.6
		c0.1,5.4-2.6,6.1-7,6c-6.1-0.2-12.2,0.2-18.3-0.1c-5.5-0.3-7.5,1.7-7.4,7.2c0.2,16.6,0,33.3,0.1,49.9c0,4.7-0.1,7.9-6.5,8
		c-6.6,0.1-7.2-3.1-7.1-8.2C1137.6,549.5,1137.4,539.4,1137.4,529.3z"/>
	<path class="st0" d="M1688.6,659c0,10.8-0.2,21.5,0.1,32.3c0.2,5.7-3.1,5.8-7.2,5.8c-4,0-7.3,0.1-7.3-5.7c0.2-21.8,0.2-43.5,0-65.3
		c0-5.4,3-5.4,6.8-5.3c3.7,0.1,7.7-0.9,7.6,5.2C1688.4,637,1688.6,648,1688.6,659z"/>
	<path class="st0" d="M594,666c0,8.2,0,15.8,0,23.8C588.9,686,588.8,670.8,594,666z"/>
	<path class="st0" d="M610.7,665.1c4.8,6.9,4.7,19.7,0,25.3C610.7,681.9,610.7,674.3,610.7,665.1z"/>
	<path class="st0" d="M826.9,684.5c0,3.6,0,7.2,0,10.9c-0.8,0-1.6,0-2.4,0c0-3.6,0-7.2,0-10.9C825.3,684.5,826.1,684.5,826.9,684.5z
		"/>
</g>
</svg>
