<?xml version="1.0" encoding="utf-8"?>
<!-- Generator: Adobe Illustrator 27.2.0, SVG Export Plug-In . SVG Version: 6.00 Build 0)  -->
<svg version="1.1" id="Слой_1" xmlns="http://www.w3.org/2000/svg" xmlns:xlink="http://www.w3.org/1999/xlink" x="0px" y="0px"
	 viewBox="0 0 930.9 945.6" style="enable-background:new 0 0 930.9 945.6;" xml:space="preserve">
<style type="text/css">
	.st0{fill:#4E7094;}
	.st1{fill:#42B18C;}
	.st2{fill:#FAC10D;}
	.st3{fill:#EC7C0A;}
	.st4{fill:#2B2F85;}
	.st5{fill:#A83D8F;}
	.st6{fill:#E1191A;}
	.st7{fill:#015EAA;}
</style>
<g>
	<path class="st0" d="M434.1,243.8c0-27.9-22.6-50.5-50.5-50.5c-13.3,0-25.3,5.2-34.3,13.5l-7.6-13.1c-0.7,0.3-1.3,0.7-2,1.1
		c-24.1,13.9-32.4,44.8-18.5,69c6.6,11.5,17.1,19.3,28.8,22.9l-7.6,13.2c0.6,0.4,1.3,0.8,1.9,1.2c24.1,14,55,5.7,69-18.5
		c6.6-11.5,8.2-24.5,5.5-36.5h15.2C434.1,245.3,434.1,244.5,434.1,243.8"/>
	<path class="st1" d="M539.9,233c-22.5,21.2-31.9,51.1-28.1,79.6c28.2,5.5,58.6-2.1,81.1-23.3c22.5-21.2,31.9-51.1,28.1-79.6
		C592.8,204.2,562.4,211.8,539.9,233"/>
	<path class="st2" d="M421.4,720.9l-11.4-88.3c-0.3-3.1-3-5.5-6-5.5h-3.7v-5.2c0-1.8-1.4-3.2-3.2-3.2h-43.3c-1.8,0-3.2,1.4-3.2,3.2
		v5.2h-3.7c-3,0-5.7,2.4-6,5.5l-11.3,88.3c-0.6,6,2.4,8.4,6.7,8.4h14.3v5.2c0,1.8,1.4,3.2,3.2,3.2h43.3c1.8,0,3.2-1.4,3.2-3.2v-5.2
		h14.3C419,729.3,422,726.9,421.4,720.9"/>
	<path class="st3" d="M730.9,535.7l-27.4-33.9c-4.6-6.1-12-7.3-20.9-0.6c-8.9,6.7-53.4,42.1-66.7,51.9c20,1.1,25.9,10.7,32.8,18.1
		l15.2,18.7c14.9,18.5,42,21.4,60.6,6.5C742.9,581.3,745.8,554.2,730.9,535.7"/>
	<path class="st4" d="M500.1,668.1h60.3v-60.3C527.1,607.8,500.1,634.8,500.1,668.1"/>
	<path class="st4" d="M620.9,668.5h-60.3v60.3C593.8,728.8,620.9,701.8,620.9,668.5"/>
	<g>
		<path class="st5" d="M263.6,348.7c0,0-0.1-0.1-0.1-0.1c-20.7-20.7-54.2-20.7-74.8,0s-20.7,54.2,0,74.8c0,0,0.1,0.1,0.1,0.1
			L263.6,348.7z"/>
		<path class="st5" d="M283.9,337.1c0,0,0.1,0.1,0.1,0.1c20.7,20.7,20.7,54.2,0,74.8c-20.7,20.7-54.2,20.7-74.8,0
			c0,0-0.1-0.1-0.1-0.1L283.9,337.1z"/>
	</g>
	<rect x="455" y="377.9" width="5.9" height="169.6"/>
	<rect x="455.2" y="378.7" transform="matrix(0.7071 -0.7071 0.7071 0.7071 -192.7804 459.3705)" width="5.9" height="167.4"/>
	<rect x="373.2" y="459.7" width="169.6" height="5.9"/>
	<rect x="374.4" y="459.4" transform="matrix(0.7071 -0.7071 0.7071 0.7071 -192.7855 459.3726)" width="167.4" height="5.9"/>
	<polygon class="st6" points="670.8,337.6 732.5,337.6 658.5,436.3 596.8,436.3 	"/>
	<path d="M83,243.2c10.8,5.2,21,9.7,30.7,13.7l-11.7,24.5l-43.7-20.9l-16.9,35.3l43.8,20.9l-11.7,24.6
		c-10.5-5.7-20.5-10.8-29.9-15.3c-9.4-4.5-19.6-9-30.7-13.6L53,228.1C62.2,233,72.2,238.1,83,243.2"/>
	<path d="M125.1,188.9c4.2-4.8,7.2-8.6,9-11.2c1.8-2.7,2.7-4.8,2.8-6.5c0-1.7-0.7-3.1-2.2-4.5c-1.6-1.3-3.1-1.9-4.7-1.6
		c-1.5,0.2-3.5,1.4-5.9,3.6c-2.4,2.2-5.7,5.7-10,10.6l-10.5,12l11,9.6L125.1,188.9z M105.6,161.1c10.1-11.5,18.7-18.2,26-19.8
		c7.2-1.7,13.8,0.1,19.8,5.3c4.1,3.6,6.8,7.5,8.1,11.8s0.7,9.4-1.6,15.4c-2.4,5.9-7,12.8-14,20.8L128,212.7l12.3,10.7l-18.7,21.4
		c-8.6-8.3-16.8-15.9-24.7-22.8c-7.8-6.8-16.5-14-25.9-21.4l18.7-21.4l0.1,0L105.6,161.1z"/>
	<path d="M240.8,108.2c1.7-4.2,1.2-8.7-1.9-13.4c-2.9-4.6-6.7-6.9-11.3-7.1c-4.6-0.2-10.5,2-17.7,6.6c-7.1,4.6-11.6,9-13.3,13.3
		c-1.7,4.3-1.2,8.7,1.8,13.2c3,4.6,6.7,7,11.4,7.2c4.6,0.2,10.5-2,17.6-6.6C234.5,116.9,239,112.5,240.8,108.2 M199.7,150.7
		c-10.3-0.7-18.5-5.7-24.5-15c-5.9-9.3-7.1-18.7-3.4-28.4c3.6-9.7,12.9-19.3,27.9-28.9c15-9.6,27.6-14.1,37.9-13.4
		C247.9,65.8,256,70.8,262,80c6,9.4,7.2,18.9,3.6,28.5c-3.6,9.6-13,19.2-28.1,28.9C222.6,146.9,210,151.3,199.7,150.7"/>
	<path d="M355.5,53.9c1.2-2,1.5-4.1,0.9-6.4c-1.3-4.5-5.5-6.5-12.7-5.9l2.1,7.8c0.5,2.2,1.5,5.6,2.7,10
		C352,57.7,354.3,55.8,355.5,53.9 M314.1,65.6c2.1,1,5,1.4,8.7,1.1l-2.8-9.9l-2.2-7.8c-6.4,3.3-9,7.2-7.7,11.7
		C310.7,63,312,64.6,314.1,65.6 M353.6,77.2l2.5,7.8l-26.3,7.5l-2.2-8c-12.8,2.3-22.8,2.1-30-0.8c-7.2-2.9-11.8-8.1-14-15.5
		c-2.1-7.4-0.9-14.2,3.7-20.4c4.5-6.3,12.9-11.8,25.1-16.5l-2.5-8.1l26.3-7.5c0.4,1.7,1.2,4.5,2.2,8.2c12.9-2.4,23-2.1,30.3,0.8
		c7.3,2.9,11.9,8,14,15.4C387.2,55.5,377.5,67.9,353.6,77.2"/>
	<path d="M434.5,56.6c29.3,0,50.5-0.3,63.7-0.8c-0.6,2.5-0.9,5.1-1,7.8c-0.1,2.7-0.2,6.1-0.2,10.1l-89.8-0.3c0.7-12,1-23.2,1-33.6
		c0-10.4-0.2-21.6-0.8-33.6l89.9,0.3l-0.1,16.7l-62.6-0.2l0,8.9c3.7,0.1,9.2,0.1,16.4,0.1c12.3,0.1,25-0.1,38.1-0.4l0,15.9
		c-13.1-0.4-25.8-0.6-38.1-0.7c-7.3,0-12.7,0-16.4,0L434.5,56.6z"/>
	<path d="M526.7,70.9c-6.3-7.9-7.9-17.2-4.9-27.7c3.1-10.6,9.4-17.9,19.1-21.7c9.7-3.9,22.9-3.5,39.7,1.3
		c23.4,6.7,37.2,17.6,41.4,32.7c-7.2-0.1-15.8,0.5-25.8,1.6c-1.2-3.9-3.9-7.4-8-10.3c-4.2-2.9-8.7-5.1-13.5-6.4
		c-7.1-2-12.9-2-17.2-0.1c-4.3,2-7.1,5.2-8.4,9.6c-1.4,4.7-0.6,9.1,2.3,13.2c2.9,4,8.1,7.2,15.8,9.4c6.1,1.7,11.3,2.3,15.4,1.8
		c4.1-0.6,7.5-2.4,10.2-5.5c5.3,4.3,12.3,9.5,20.8,15.4c-5.8,6.1-13.4,9.4-22.9,9.7c-9.5,0.3-19.3-0.9-29.5-3.8
		C544.5,85.2,532.9,78.8,526.7,70.9"/>
	<path d="M636.5,108.6c-3.8-9.4-2.8-18.7,3.1-28c5.9-9.3,14.1-14.5,24.5-15.5c10.4-1,23,3.1,37.7,12.4c20.6,13,30.7,27.3,30.5,43
		c-6.9-2.1-15.3-4-25.2-5.8c0-4.1-1.7-8.1-4.8-12.1c-3.2-4-6.9-7.3-11.1-10c-6.3-4-11.8-5.6-16.5-4.9c-4.7,0.7-8.3,3-10.8,6.8
		c-2.6,4.2-3.1,8.6-1.5,13.3c1.6,4.7,5.8,9.2,12.6,13.5c5.4,3.4,10.1,5.4,14.2,6c4.1,0.6,7.9-0.2,11.3-2.4
		c3.9,5.7,9.1,12.5,15.6,20.7c-7.3,4.2-15.5,5.2-24.7,2.9c-9.2-2.3-18.3-6.3-27.3-12C649.6,127.3,640.3,118,636.5,108.6"/>
	<path d="M786,148.4l-40.3,32.8l57.5-13.2l28.1,31.9c-8.2,6.5-16.7,13.7-25.7,21.5c-9,7.9-17.2,15.5-24.7,22.8L761.4,222l39.3-31.8
		l-56.4,12.4l-27.4-31.1c9.4-7.4,18-14.6,25.8-21.5c7.8-6.8,16-14.5,24.5-22.9L786,148.4z"/>
	<path d="M838.7,310.4c4,2.3,8.5,2.3,13.5,0c4.9-2.3,7.8-5.7,8.6-10.3c0.8-4.5-0.6-10.7-4.2-18.5c-3.6-7.7-7.4-12.7-11.4-15
		c-4-2.3-8.4-2.3-13.4,0c-5,2.3-7.9,5.7-8.7,10.3c-0.8,4.5,0.6,10.7,4.1,18.4C830.9,303,834.7,308,838.7,310.4 M802.1,264
		c2-10.1,8.1-17.6,18.2-22.2c9.9-4.7,19.5-4.5,28.5,0.4c9.1,4.9,17.4,15.4,24.9,31.5c7.5,16.1,10.2,29.3,8.1,39.4
		c-2.1,10.1-8.1,17.5-18.1,22.1c-10.1,4.7-19.7,4.7-28.7-0.3c-9-4.9-17.3-15.5-24.9-31.7C802.8,287.2,800.1,274.2,802.1,264"/>
	<path d="M917.5,449.4c-10.4,1-21.5,2.4-33.3,4.2c-11.8,1.8-22.9,3.7-33.1,5.8l-4.1-26.9l24.9-3.8l-6.4-42.1l-24.9,3.8l-4.1-26.9
		c11.9-1.2,23.1-2.5,33.4-4.1c10.3-1.5,21.3-3.5,33.1-5.9l4.1,26.9l-24.9,3.8l6.4,42.1l24.9-3.7L917.5,449.4z"/>
	<path d="M870.7,537.5c6.8-2,13.6-4.2,20.5-6.3l6.3-1.9c-5.2-3.4-13.1-8.5-23.6-15.2L870.7,537.5z M841.6,546.2
		c3.7-1,8.3-2.3,13.9-4.1l4.9-36.6l-12.3-7.5l3.9-28.8l62.2,41.1l-5.7,42.2l-70.9,23.3L841.6,546.2z"/>
	<path d="M795.4,674l11.8-26.8l44.9,19.7l10.4-23.7l-4.8-2.3c-4.3-1.9-8-3.6-11.2-5.3c-3.1-1.7-6.2-3.7-9.3-5.9
		c-5.5-4.1-8.9-9.9-10.1-17.2c-1.2-7.4,0.4-16.3,5-26.6l16.5,7.3c-0.8,3-0.7,5.6,0.1,7.8c0.9,2.3,2.8,4.6,5.9,6.9
		c2.5,1.9,8.6,4.9,18.5,9.3l17.3,7.5l-33.6,76.3L795.4,674z"/>
	<path d="M821.4,751l-38.7-34.7l22,54.8l-27.2,32.8c-7.7-7.1-16.1-14.4-25.3-22c-9.2-7.7-18-14.6-26.4-20.8l19-22.9l37.5,33.9
		l-21-53.8l26.4-31.8c8.8,8.1,17.2,15.5,25.3,22.2c8,6.6,16.8,13.5,26.4,20.7L821.4,751z"/>
	<path d="M659.8,866.1c10.2-6.5,20-13,29.5-19.3l-27.1-40l23.9-16.2l27.1,40c9.5-6.5,19.1-13.2,28.8-20.2l10.9,16.1l-82.3,55.7
		L659.8,866.1z"/>
	<path d="M599.2,857.3c-27.8,9.4-47.8,16.4-60.1,21.1c-0.3-2.6-0.8-5.1-1.5-7.7c-0.7-2.6-1.7-5.8-3-9.7l85.2-28.4
		c3.2,11.5,6.4,22.3,9.7,32.2c3.3,9.9,7.1,20.4,11.5,31.5l-85.2,28.4l-5.3-15.9l59.4-19.8l-2.8-8.4c-3.5,1.1-8.7,2.8-15.6,5.1
		c-11.6,3.8-23.6,8-35.9,12.5l-5-15.1c12.5-3.8,24.6-7.6,36.3-11.5c6.8-2.3,12.1-4,15.5-5.2L599.2,857.3z"/>
	<path d="M422.2,916.8c12.1-0.2,23.8-0.6,35.3-1l-2.2-48.2l28.9-1.3l2.2,48.2c11.5-0.6,23.2-1.3,35.1-2.2l0.9,19.4l-99.2,4.6
		L422.2,916.8z"/>
	<path d="M49.7,633.5c-20.3-50.5-30.5-103.8-30.5-158.7c0-32.3,3.6-64.5,10.8-95.8l8.3,1.9c-7,30.6-10.6,62.2-10.6,93.8
		c0,53.7,10.1,106,29.9,155.5L49.7,633.5z"/>
	<path d="M387.5,896.9c-82.7-11.2-159.8-46.3-222.8-101.5l5.6-6.4c61.8,54.1,137.3,88.5,218.3,99.5L387.5,896.9z"/>
	<g>
		<path class="st7" d="M237.2,609.4c-30.1,0-54.6-24.5-54.6-54.6c0-30.1,24.5-54.6,54.6-54.6s54.6,24.5,54.6,54.6
			C291.8,585,267.3,609.4,237.2,609.4z M237.2,521.4c-18.4,0-33.4,15-33.4,33.4s15,33.4,33.4,33.4s33.4-15,33.4-33.4
			S255.6,521.4,237.2,521.4z"/>
		<circle class="st7" cx="237" cy="554.7" r="14.5"/>
	</g>
	<g>
		<path d="M54.6,767.2c-0.2-13.7,0.6-20.6,3.3-28.4c2-5.8,4.6-10.5,7.3-15.6c2-3.8,2.9-5.5,4.7-9.9c2-5,3.5-8.8,3.5-16.7V678
			c0-2-0.5-5.8-1.2-7.6c-1.2-2.9-3.3-3.6-5.2-3.6c-3,0-3.9,1.7-4.7,3.5c-1.1,2.9-1.2,5.5-1.2,8.8v23.1h-5.8v-17.9
			c0-6.4,0.3-9.6,0.6-11.1c1.4-8.5,6.4-12.1,10.9-12.1c5,0,9.9,3.5,11.4,9.6c0.5,2,0.9,6.1,0.9,8v15c0,9.6-1.4,15.3-2.4,18.4
			c-1.1,3.3-4.1,10-6.2,14.1c-2.4,4.6-5.3,9.4-7.3,15.5c-2.1,6.4-3,13.3-2.9,19.9h18.5v5.8H54.6z"/>
		<path d="M89.5,762.5c-1.4-2.9-1.7-6.7-1.7-14.1v-68.6c0-7.4,0.3-11.2,1.7-14.1c2.4-5.2,6.4-6.2,10.2-6.2c3.8,0,7.7,1.1,10.2,6.2
			c1.4,2.9,1.7,6.7,1.7,14.1v68.6c0,7.4-0.3,11.2-1.7,14.1c-2.4,5.2-6.4,6.2-10.2,6.2C95.9,768.7,91.9,767.6,89.5,762.5z M105,759.6
			c0.5-1.2,0.8-2.9,0.8-10.2v-70.7c0-7.3-0.3-8.9-0.8-10.2c-1.2-3-3.5-3.3-5.3-3.3c-2,0-3.9,0.3-5.2,3.3c-0.5,1.2-0.9,3-0.9,10.2
			v70.7c0,7.1,0.5,8.9,0.9,10.2c1.2,3,3.2,3.3,5.2,3.3C101.5,762.9,103.8,762.6,105,759.6z"/>
		<path d="M119.4,767.2c-0.2-13.7,0.6-20.6,3.3-28.4c2-5.8,4.6-10.5,7.3-15.6c2-3.8,2.9-5.5,4.7-9.9c2-5,3.5-8.8,3.5-16.7V678
			c0-2-0.5-5.8-1.2-7.6c-1.2-2.9-3.3-3.6-5.2-3.6c-3,0-3.9,1.7-4.7,3.5c-1.1,2.9-1.2,5.5-1.2,8.8v23.1h-5.8v-17.9
			c0-6.4,0.3-9.6,0.6-11.1c1.4-8.5,6.4-12.1,10.9-12.1c5,0,9.9,3.5,11.4,9.6c0.5,2,0.9,6.1,0.9,8v15c0,9.6-1.4,15.3-2.4,18.4
			c-1.1,3.3-4.1,10-6.2,14.1c-2.4,4.6-5.3,9.4-7.3,15.5c-2.1,6.4-3,13.3-2.9,19.9h18.5v5.8H119.4z"/>
		<path d="M153.2,762.8c-1.5-2.7-2.4-6.5-2.4-13.5V732h5.8v17.9c0,5.9,0.3,7.7,0.9,9.1c1.1,2.7,3,3.6,5.3,3.6c2.6,0,4.2-0.6,5.3-3.3
			c0.6-1.4,0.9-3.2,0.9-9.4v-22.6c0-9.9-3.5-11.7-5.9-11.7h-3.9v-5.8h3c6.7,0,6.5-9.1,6.5-13.2v-18.2c0-6.1-0.5-8.3-0.9-9.6
			c-1.1-2.7-3-3.6-5.2-3.6c-2.6,0-4.1,1.1-5.2,3.6c-0.9,2.6-0.9,5.3-0.9,9.1v11.7h-5.8v-11.5c0-4.5,0.2-8.6,2.1-12.6
			c2-3.8,5-6.1,9.7-6.1c3.8,0,7.4,1.5,9.7,6.2c1.1,2.1,2.1,5.8,2.1,14.6v16.8c0,3.6,0.3,6.7-1.7,10c-1.1,1.8-2.9,3.8-5.8,4.9
			c3.9,1.7,6.1,4.4,7,7.7c0.3,1.2,0.8,3.5,0.8,9.7v19.9c0,4.9-0.2,10.2-2.3,13.8c-1.7,2.7-4.6,5.3-9.7,5.3
			C158.3,768.4,155.3,766.5,153.2,762.8z"/>
	</g>
</g>
</svg>
