<?xml version="1.0" encoding="utf-8"?>
<!-- Generator: Adobe Illustrator 27.2.0, SVG Export Plug-In . SVG Version: 6.00 Build 0)  -->
<svg version="1.1" id="Слой_1" xmlns="http://www.w3.org/2000/svg" xmlns:xlink="http://www.w3.org/1999/xlink" x="0px" y="0px"
	 viewBox="0 0 188.3 134.5" style="enable-background:new 0 0 188.3 134.5;" xml:space="preserve">
<g>
	<path d="M7.3,129.2c0-36.1,0-72,0-108.1c0.4,0,0.9-0.1,1.3-0.1c13.5,0.2,26.3-2.9,38.5-8.5c3.2-1.5,6.2-3.5,9.5-4.8
		c12-4.8,23.2-2.9,33.5,4.8c0.5,0.4,1.1,0.8,1.6,1.2c1.8-1.2,3.4-2.4,5.2-3.4c5.8-3.5,12.1-5,18.8-5.1c8-0.1,15.6,2,22.9,5
		c7.4,3,15,5.6,22.9,7c5.4,0.9,10.8,1.5,16.2,1.6c1.1,0,2.1,0.2,3.3,0.3c0,36.9,0,73.7,0,110.5c-5.3-0.5-10.6-0.9-15.9-1.4
		c-2.8-0.2-5.5-0.5-8.3-0.6c-7.6-0.4-15.2-0.9-22.8-1.2c-8.7-0.3-17.3-0.6-26-0.8c-5.4-0.1-10.7-0.2-16.1-0.2
		c-6.4,0-12.9,0.1-19.3,0.3c-5.1,0.1-10.2,0.2-15.3,0.5c-7.4,0.3-14.8,0.6-22.2,1.1c-7.7,0.5-15.3,1-22.9,1.6
		C10.6,128.8,9,129,7.3,129.2z M88.1,109.4c0.1-0.2,0.2-0.2,0.2-0.3c0-1.1,0-2.2,0-3.3c0-2.6,0.1-2.1-2.2-2.1
		c-12.7-0.2-22.7-5.8-30-16.1c-1-1.4-1.8-3.1-2.7-4.6c0.1-0.1,0.2-0.1,0.3-0.2c14.2,6.3,28.5,12.7,42.7,19c-1,2.2-0.5,4.4-0.6,6.8
		c0.6-0.3,0.9-0.3,1.1-0.5c7.5-4.4,15.5-5.6,23.9-3.7c8.2,1.8,16.1,4.7,23.8,7.8c9.7,3.9,19.7,6.8,30.1,7.9c1.1,0.1,1.5-0.1,1.5-1.3
		c-0.1-5.4,0-10.8,0-16.2c0-25.3,0-50.5,0-75.8c0-1.3-0.3-1.7-1.7-1.7c-3.8-0.1-7.6-0.1-11.3-0.6c-9.6-1.2-18.5-4.7-27.2-8.7
		c-4.9-2.3-9.8-4.5-15-5.9c-3.4-0.9-6.7-1.3-10.2-0.4c-5.1,1.2-9.1,4.2-12.8,7.6c-1.9,1.8-3.1,3.7-2.6,6.4c0.2,0.9-0.3,1.3-1,1.8
		c-2.6,1.8-5.2,3.6-7.7,5.5c-2.4,1.8-4.7,3.8-7,5.8c-3.6-2.3-6.7-5.1-9.8-8.5c3-1.1,5.8-2.4,8.6-3c3-0.7,6.1-0.8,9.1-1.2
		c0.4-0.1,1.2-0.3,1.2-0.6c0.1-1.1,0.3-2.2-0.5-3.2c-4.5-5.4-10-8.8-17-9.9c-4.7-0.7-8.9,0.7-13.1,2.4c-5.6,2.2-11.2,4.6-16.7,7
		c-8.4,3.7-17.1,5.9-26.2,6.7c-2.3,0.2-2.3,0.3-2.3,2.6c0,29.9,0,59.8,0,89.7c0,0.5,0,1,0.1,1.6c0.4,0,0.6,0.1,0.9,0.1
		c3.5-0.6,7.1-0.7,10.5-1.8c6-1.8,11.9-4.2,17.8-6.4c8.4-3.1,16.7-6.7,25.8-7.5c5.3-0.5,10.5-0.1,15.4,2.2
		C85,107.6,86.5,108.5,88.1,109.4z"/>
	<path d="M122.7,76.3c-3.9,11.9-11.7,20.2-23.7,24.9c-1.3-5.2-3.2-10-6.2-14.3c1.1-1.3,2.3-2.5,3.3-3.7c2.9-3.5,5.2-7.5,6.8-11.7
		c0.1-0.4,0.8-0.8,1.1-0.8c6.2,1.8,12.4,3.6,18.5,5.4C122.5,76.1,122.5,76.1,122.7,76.3z"/>
	<path d="M50,54.3c2.9,1.8,5.7,3.4,8.4,5.2c1.1,0.7,2,1,3.3,0.4c1.7-0.8,3.5-1.3,5.6-2c-0.7,1.6-1.4,3-2,4.4c-0.2,0.5,0,1.1,0,1.7
		c0,0.3,0.1,0.6,0.1,0.9c-0.2,3.9-0.4,7.8-0.5,11.8c0,0.1,0,0.3,0,0.1c-4.1,1.3-8.1,2.5-12.4,3.8C48.6,72.4,47.6,63.6,50,54.3z"/>
	<path d="M53,46.4c2-5.7,8.7-13.5,14.5-17c3.6,3,7.2,6,10.6,8.7c-2.3,3.1-4.6,6.4-6.9,9.5c-0.2,0.3-0.8,0.6-1.2,0.5
		c-3.8-0.3-7.5-0.7-11.3-1.1c-1.5-0.2-2.9-0.3-4.4-0.5C53.9,46.6,53.4,46.5,53,46.4z"/>
	<path d="M155.3,36c-0.7,3.4-1.4,6.6-2.1,9.9c-1.6-0.2-3.1-0.3-4.7-0.5c-0.6,2.8-1.3,5.4-1.8,8.1c-0.2,1.1-0.6,1.6-1.7,1.4
		c-3.5-0.5-7-1-10.6-1.5c-2.6-0.4-5.3-0.8-8.1-1.2c1.2-2.2,2.2-4.2,3.4-6.2c1.7-3,3.5-6,5.3-9c0.4-0.8,0.9-1.1,1.9-1.1
		c5.7,0,11.3,0,17,0C154.3,36,154.8,36,155.3,36z M132.5,42.6c2.2,0.3,4,0.5,5.8,0.7c4.5,0.6,9.1,1.3,13.6,2c0.3,0,0.9-0.3,1-0.6
		c0.6-2.7,1.2-5.3,1.7-8c-0.2-0.1-0.3-0.2-0.4-0.2c-5.8,0-11.6,0-17.4,0c-0.3,0-0.7,0.1-0.8,0.3C134.8,38.7,133.7,40.5,132.5,42.6z"
		/>
	<path d="M119.6,43.3c-4.8,0.1-9.2,0.3-13.7,0.4c-0.7,0-1.2-0.2-1.4-0.9c-1.7-5.4-3.4-10.8-5-16.3C108.1,29.4,114.7,35,119.6,43.3z"
		/>
	<path d="M101.3,69.3c-2.4,6.2-5.7,11.3-10.1,15.9c-1.2-1-2.3-2-3.5-2.9c-1.6-1.2-3.2-2.2-4.8-3.3c-0.5-0.4-1.4-1-1.3-1.4
		c0.2-1.1,0.2-2.4,1.6-2.9c3.6-1.3,7.1-2.6,10.6-3.9c1.3-0.5,2.7-0.9,4.1-1.2C98.9,69.5,100,69.5,101.3,69.3z"/>
	<path d="M140.8,57.2c-1.4,3.4-2.8,6.5-4.2,9.6c-0.1,0.3-0.6,0.6-1,0.6c-3.4-0.1-6.7-0.3-10.4-0.5c0-3.9,0-7.7,0-11.7
		C130.3,55.9,135.4,56.6,140.8,57.2z"/>
	<path d="M123.9,54.3c-6.3-0.7-12.2-1.3-18.3-2c-0.2-2-0.4-4-0.6-6.1c1.7,0,3.5,0.1,5.2,0c2.9-0.2,5.8-0.4,8.7-0.7
		c1.1-0.1,1.8,0.1,2.2,1.3C122,49.1,122.9,51.5,123.9,54.3z"/>
	<path d="M80.1,39.6c3.4,1.4,6.6,2.7,10.1,4.1c-0.7,2-1.4,4.1-2.2,6.2c-0.1,0.2-0.5,0.4-0.7,0.4c-4.6-0.5-9.3-1-14.2-1.5
		C75.1,45.2,77.5,42.3,80.1,39.6z"/>
	<path d="M67.5,65.1c3.7,1.3,6.9,3.2,9.7,5.8c0.6,0.5,1.1,1.1,1.7,1.7c1.7,1.7,1.7,2.3,0.4,4.5c-2-0.4-4-0.9-6-1.1
		c-2-0.1-4,0.1-6.1,0.2C66.5,72.6,67.3,69,67.5,65.1z"/>
	<path d="M92.6,41.9c1.5-5.1,2.9-10,4.4-14.9c2.6,5,4.5,10.4,5.3,16.3C98.8,43.6,95.6,43.1,92.6,41.9z"/>
	<path d="M89.8,50.7c0.7-2.2,1.2-4.3,1.9-6.3c0.1-0.2,0.7-0.5,1-0.5c3.4,0.7,6.7,1.5,10.3,2.3c0.1,1.8,0.2,3.8,0.3,6
		C98.8,51.7,94.4,51.2,89.8,50.7z"/>
	<path d="M95.5,26.2c-1.7,4.9-3.4,9.7-5.1,14.8c-2.7-1.1-5.5-2.2-8.7-3.5C86.5,33.6,91,30,95.5,26.2z"/>
	<path d="M123.5,74.1c-6-1.9-11.6-3.7-17.3-5.4c0-0.1,0-0.3,0-0.4c5.7-0.1,11.4-0.1,17.1-0.2c0.8,0,1,0.4,0.9,1.1
		C124,70.7,123.8,72.3,123.5,74.1z"/>
	<path d="M34.3,45.6c5.6,0.6,11.2,1.2,16.9,1.8c-0.6,1.6-1.1,3.1-1.7,4.5c-0.1,0.2-0.8,0.5-1.1,0.3c-3.3-1.4-6.6-3-9.9-4.4
		c-1.4-0.7-2.9-1.3-4.3-2C34.3,45.8,34.3,45.7,34.3,45.6z"/>
	<path d="M91.5,56.5c-3-0.5-5.6-0.9-8.3-1.4c-1.3-0.2-2.6-0.5-3.9-0.7c-1.1-0.1-1.2-0.8-1.1-1.6c0.1-0.9,0.6-1,1.4-0.8
		c3.9,0.7,7.8,1.3,11.7,2c0.5,0.1,1.2,0.8,1.2,1.2C92.4,55.7,91.7,56.2,91.5,56.5z"/>
</g>
</svg>
