<?xml version="1.0" encoding="utf-8"?>
<!-- Generator: Adobe Illustrator 27.2.0, SVG Export Plug-In . SVG Version: 6.00 Build 0)  -->
<svg version="1.1" id="Слой_1" xmlns="http://www.w3.org/2000/svg" xmlns:xlink="http://www.w3.org/1999/xlink" x="0px" y="0px"
	 viewBox="0 0 2436 449.4" style="enable-background:new 0 0 2436 449.4;" xml:space="preserve">
<style type="text/css">
	.st0{fill:#0066CC;stroke:#FFFFFF;stroke-miterlimit:10;}
</style>
<g>
	<path class="st0" d="M623.1,404.8c-84.7,0-169.3-0.1-254,0.2c-7.2,0-9.1-2-9-9.1c0.4-22.3,0.4-44.6,0-66.9c-0.1-7,1.6-9.2,8.9-9.1
		c92.6,0.3,185.3,0.2,277.9,0.2c76.7,0,153.4,0.1,230-0.2c7.2,0,9.1,2,9,9.1c-0.4,22.3-0.4,44.6,0,66.9c0.1,7-1.6,9.2-8.9,9.1
		C792.4,404.7,707.8,404.8,623.1,404.8z M595.8,358.9c0.3,5.1,0.4,9.1,0.8,13.1c0.7,7.3,5,11,12,12.7c2.7,0.6,4.9,3.7,7.6,4.2
		c4.5,0.8,9.3,0.9,13.8,0.1c2.9-0.5,5.4-3.2,8.2-4.6c2.2-1.2,5-1.6,6.9-3.2c6.9-5.5,7.5-35.9,0-40.7c-6.1-4-13.8-8-20.7-7.9
		c-7.9,0.2-15.9,4.6-23.5,7.9c-1.8,0.8-3.1,4.1-3.6,6.4C596.3,351.1,596.1,355.6,595.8,358.9z M397,366.7c1.6,0,3.1,0,4.7,0
		c0,5.1,0.2,10.2-0.1,15.4c-0.3,5.4,0.7,8.7,7.5,8.6c6.3,0,8.8-1.7,8.6-8.3c-0.4-14.1-0.3-28.1,0-42.2c0.1-5.8-1.7-8.5-8-8.5
		c-6.1,0-8.6,2.1-8.1,8.2c0.3,3.5,0.2,7-0.1,10.5c-0.1,1.3-1.3,2.4-1.9,3.6c-0.9-0.1-1.7-0.3-2.6-0.4c0-4.7-0.3-9.4,0.1-14.1
		c0.5-5.7-1.5-7.9-7.5-7.9c-6.2,0-8.1,2.1-8,8.2c0.4,14.3,0.4,28.6,0,42.9c-0.2,6.5,2.3,7.7,8.2,7.8c6.2,0.1,7.7-2.4,7.3-7.9
		C396.7,377.4,397,372,397,366.7z M828.4,361.3c0,7.7,0,15.5,0,23.2c0,4,1.4,6.1,5.8,6c5.4-0.2,10.8,0.2,16.2-0.2
		c6.5-0.5,12.3-2.9,13.4-10.1c0.8-5.2,0.5-10.7-0.1-16c-0.6-5.1-4.1-9.1-9.3-9.1c-10.4,0.1-10.7-6.2-9.9-13.7c0.1-1.2-0.1-2.3,0-3.5
		c0.2-5.9-3.9-6-8.1-6c-4.4,0-8,0.5-7.9,6.3C828.5,345.9,828.4,353.6,828.4,361.3z M510.8,390.4c3.5,0,7-0.2,10.5,0
		c4.5,0.3,6.8-0.7,6.8-6c0.1-5.6-2.3-6.9-7.1-6.4c-2.1,0.2-4.5,0.7-6.2-0.1c-2-0.9-4.5-2.9-4.9-4.8c-1.5-8.5,5-6.6,9.5-6.5
		c4.8,0.1,7.4-0.9,7.3-6.5c-0.1-5.4-2.6-6.3-7-6c-1.9,0.1-4,0.5-5.6-0.1c-1.7-0.7-4.3-3-4.1-3.9c0.5-1.9,2.4-4.1,4.2-4.7
		c2.6-0.8,5.6-0.4,8.4-0.3c4.4,0.1,5.6-2.1,5.5-6.1c-0.1-3.8-0.2-7.1-5.3-7c-7.5,0.1-15,0.1-22.5,0c-4.7-0.1-5.9,2.2-5.9,6.6
		c0.2,12,0.1,23.9,0.1,35.9C494.4,390.4,494.4,390.4,510.8,390.4z M728.1,367.6c0,5.4,0.3,10.8-0.1,16.2c-0.4,5.3,1.6,6.9,6.8,6.8
		c4.9-0.1,8.1-0.8,7.9-6.7c-0.2-9.9,0-19.7,0-29.6c0-4.8-0.6-9.5,6.6-9.9c1.3-0.1,3.2-4.6,3.3-7.1c0-1.7-2.5-5-4.1-5.1
		c-9.1-0.5-18.3-0.5-27.4,0c-1.5,0.1-3.9,3.3-3.9,5c0,2.5,2,7.2,3,7.1c8.8-0.3,8.3,5.3,8,11.2C727.9,359.6,728.1,363.6,728.1,367.6z
		"/>
	<path class="st0" d="M228.1,313.7c0-11.4,0.1-21.8-0.1-32.1c-0.1-4,1.7-5.3,5.5-5.3c27.9,0.1,55.8,0.1,83.8,0
		c3.9,0,5.4,1.5,5.4,5.4c-0.1,26.1,0.1,52.1-0.2,78.2c0,2.8-2.1,6.2-4.2,8.2c-21.6,20.5-47,32.8-76.9,35.5
		c-49.4,4.4-90-12.6-120.1-51.9C77.9,295,91.4,213.8,150.4,172.1c20-14.1,42.1-22.3,66.5-23.9c9.1-0.6,9.2-0.2,9.2,8.6
		c0,25.8-0.3,51.6,0.2,77.4c0.1,7.3-3,9.2-9.2,9.9c-32.7,4-57.5,27.3-63.5,59.5c-7.3,39,19.5,78.1,58.5,85.2
		c24.5,4.5,46.5-0.9,65.4-17.5c15.7-13.7,18.9-33.8,8-49.8c-11.3-16.6-32.1-21.5-50.4-11.9C233,310.8,231,312,228.1,313.7z"/>
	<path class="st0" d="M838.7,236c4.3-23.9,8.9-47.7,12.9-71.6c3-17.6,2.7-17.6,20.2-17.6c14,0,14,0,14,14.3
		c0,35.4-0.1,70.9,0.1,106.3c0,6.2-1.8,8.1-8,7.9c-15.1-0.3-15.1,0-15.1-15.4c0-19.2,0-38.5,0-57.7c0-2.4-0.4-4.8-0.5-7.1
		c-0.8-0.1-1.6-0.1-2.3-0.2c-1.1,5.9-2.3,11.8-3.3,17.8c-3,18.5-6.2,36.9-8.7,55.4c-0.8,5.8-3.2,7.4-8.6,7.2
		c-11.6-0.2-11.3-0.1-13-11.7c-3.2-21.5-6.7-43-10.1-64.4c-0.2-1.5-1.2-2.8-3.3-4c-0.1,2.4-0.3,4.8-0.3,7.2
		c0,21.8-0.2,43.7,0.1,65.5c0.1,6-1.9,7.7-7.7,7.5c-18-0.6-15.5,2.8-15.6-15.7c-0.1-34.7,0.1-69.5-0.2-104.2
		c-0.1-6.7,1.9-9.5,8.7-8.7c3.7,0.4,7.5,0.1,11.3,0.1c11.2,0,11.2,0,13.1,11.1c4.3,24.6,8.6,49.3,13,73.9c0.3,1.5,1.2,2.9,1.8,4.4
		C837.6,236.1,838.1,236.1,838.7,236z"/>
	<path class="st0" d="M277.1,266.2C228,203,229,99,276.9,36.3c26,38.3,37.9,80.5,35.6,126.2C310.7,200.1,298.7,234.7,277.1,266.2z
		 M276.4,92.2c16.8,32.6,24.3,65.4,24.5,100c13.8-29.8-2.3-118.9-24.7-140.1c-22.2,24.1-38.9,119.5-23.3,142
		C252.2,157.7,259.6,124.8,276.4,92.2z M276.4,259.9c15.8-20.4,14.3-66.7,0.2-84.4C261.5,191.5,261.2,239.7,276.4,259.9z"/>
	<path class="st0" d="M564.6,210.9c0-19,0.2-38-0.1-57c-0.1-5.5,1.6-7.4,7.2-7.3c14.3,0.4,28.6,0.3,42.9,0c5.4-0.1,6.8,1.9,6.8,7
		c-0.2,38.2-0.2,76.5,0,114.7c0,5.1-1.4,7.1-6.8,6.9c-17.4-0.5-14.7,2.1-14.7-14.3c-0.1-29.6,0.1-59.1-0.2-88.7
		c0-4.5,3.3-11.3-6.4-11.3c-10.1,0-6.9,7-6.9,11.8c-0.2,31.4-0.3,62.9,0,94.3c0.1,6.5-1.9,8.5-8.4,8.3c-15.4-0.6-13.2,1.8-13.3-13.7
		C564.5,244.7,564.6,227.8,564.6,210.9z"/>
	<path class="st0" d="M771.8,211.3c0,14.5,0.1,29.1,0,43.6c-0.1,13.1-4.6,18.6-17.4,20c-7.4,0.8-15,0.6-22.4-0.3
		c-12-1.5-16.5-6.3-16.6-18.5c-0.4-30.2-0.4-60.5,0-90.7c0.2-12.8,6.8-18.5,19.7-18.5c6.1,0,12.2,0,18.3,0
		c12.2,0.1,18.2,5.8,18.4,18.1C771.9,180.3,771.8,195.8,771.8,211.3L771.8,211.3z M750.4,211.6c0-13.6-0.1-27.2,0-40.7
		c0-4.9-0.8-9.3-6.8-9.5c-5.8-0.2-6.7,4.4-6.7,8.8c-0.1,27.2-0.1,54.3,0,81.5c0,4.6,1.6,8.9,6.9,8.8c5.2,0,6.7-4.1,6.6-8.9
		C750.3,238.2,750.4,224.9,750.4,211.6z"/>
	<path class="st0" d="M465,275.2c-2.1,0-4.2-0.1-6.3,0c-3.9,0.3-5.3-1.4-5.5-5.3c-0.2-7.7-1.2-15.4-1.3-23.1
		c-0.1-5.3-2.5-6.8-7.4-6.7c-4.7,0-7.6,1-7.7,6.5c-0.2,7.7-1.2,15.4-1.3,23.1c-0.1,4.3-1.7,5.6-5.9,5.7
		c-16.3,0.5-16.9,0.6-15.5-15.4c2.2-25.8,5.2-51.6,7.9-77.4c1-10,2.4-20,3-30c0.3-4.8,2.4-5.8,6.6-5.7c8.7,0.2,17.3,0.2,26,0
		c4-0.1,5.8,1.1,6.2,5.5c1.6,16.5,3.6,33,5.3,49.5c2.1,20.7,3.9,41.4,6.1,62.1C476.3,275.2,476.6,275.2,465,275.2z M445.5,162.2
		c-0.6,0-1.1,0-1.7,0.1c-0.4,0.5-1.1,1-1.1,1.6c-1.5,19.8-3,39.6-4.4,59.5c-0.4,4.8,2.8,5.1,6.4,5.2c4.2,0.1,6-1.7,5.7-5.9
		c-1.2-16.1-2.3-32.2-3.5-48.3C446.5,170.2,446,166.2,445.5,162.2z"/>
	<path class="st0" d="M528.4,209.5c18.8,0.6,18.1,13.3,18,25.6c-0.1,7.5,0.3,15.1-0.7,22.4c-1.8,13-5,16.3-17.8,17.3
		c-8.1,0.7-16.4,0.1-24.5-0.9c-9-1.1-13.1-6.1-13.5-15.1c-0.3-7.3-0.2-14.5-0.2-21.8c0-0.9-0.3-2.1,0.2-2.8c5-6.6,12.1-1.8,18.1-2.8
		c1.3-0.2,4.3,3.1,4.5,5c0.6,5.6-0.2,11.3,0.5,16.8c0.3,2.3,3,4.3,4.7,6.5c1.6-2.2,4.3-4.3,4.5-6.6c0.6-7.5,0.2-15,0.2-22.5
		c0-13.9-0.5-14.5-14.2-15.7c-3.6-0.3-5.5-1.1-5.7-5.2c-0.2-5.2,1.5-7,6.8-6.9c11.8,0.1,13.1-1.6,13.1-13.5c0-7.3,0.3-14.6-0.2-21.8
		c-0.2-2.2-2.7-4.1-4.1-6.2c-1.7,2.1-3.7,4-5.1,6.3c-0.6,1,0,2.8-0.2,4.2c-0.5,4.7,0.1,12.7-2,13.5c-5.3,2.1-11.9,1.1-17.9,0.8
		c-1.1-0.1-2.8-2.9-2.9-4.5c-0.3-6.3-0.3-12.7,0-19c0.6-9.9,6.3-15.5,16.2-15.8c7.7-0.2,15.5-0.3,23.2,0c9.4,0.3,15.1,5.3,15.8,14.5
		c0.7,10.5,0.9,21,0.5,31.5c-0.3,8.1-5.3,12.7-13.5,13.5c-0.8,0.1-1.5,0.7-2.3,1.1C529.3,208.2,528.9,208.8,528.4,209.5z"/>
	<path class="st0" d="M700,189.5c0,7.3,0.2,14.6,0,21.8c-0.3,12-6.9,18.5-18.8,19.1c-16.3,0.7-16.3,0.7-16.3,16.8
		c0,7.3-0.2,14.6,0.1,21.8c0.1,4.4-1.2,6.4-6,6.3c-20.7-0.5-16.8,2.8-17-16.3c-0.2-34.7,0.1-69.5-0.2-104.2c0-6,1.3-8.4,7.8-8.1
		c10.1,0.5,20.2,0.1,30.3,0.2c12.7,0.1,19.7,6.8,20.1,19.4C700.2,174,700,181.7,700,189.5L700,189.5z M664.9,189.6
		c0,7.5,0.2,15-0.1,22.5c-0.2,6.3,3.8,7.7,8.1,5.8c2.6-1.2,5.3-5.4,5.4-8.3c0.6-13.1,0.3-26.3,0.2-39.4c0-1.2,0-2.4-0.3-3.5
		c-1.1-4.9-4.9-6.6-9-5.2c-1.9,0.6-3.9,4.1-4.1,6.4C664.6,175.1,664.9,182.4,664.9,189.6z"/>
	<path class="st0" d="M2000.2,379.4c-12.9,0-25.8-0.1-38.7,0.1c-4.5,0.1-6.2-1.4-6.2-6.1c0.2-21.6,0.2-43.1,0-64.7
		c-0.1-5.8,3.2-5.7,7.2-5.7s7.4-0.1,7.3,5.7c-0.3,17.3,0.1,34.7-0.2,52.1c-0.1,5.7,2,7.3,7.4,7.2c19.5-0.4,16.1,2.2,16.4-16.4
		c0.2-14.1,0.3-28.1-0.1-42.2c-0.1-5.9,2.8-6.3,7.4-6.4c4.8-0.1,7.3,0.9,7.2,6.5c-0.3,16.9,0.1,33.8-0.2,50.6
		c-0.1,5.6,1.3,8,7.4,7.8c18.8-0.5,16.2,2.1,16.3-15.9c0.1-14.3,0.2-28.6-0.1-42.9c-0.1-5.3,2.3-6.2,6.8-6.2s7,1,6.9,6.2
		c-0.2,21.3-0.2,42.7,0,64c0,5-2.1,6.4-6.8,6.3C2025.6,379.2,2012.9,379.4,2000.2,379.4z"/>
	<path class="st0" d="M1809.1,210.2c0.1-18.6,7.7-27.5,25.8-31c2.5-0.5,4.9-2.3,6.8-4c2.7-2.5,11.4-2.2,14,0.6
		c1.3,1.5,3.2,3,5.1,3.3c20.8,3.5,30,16.5,26.8,37.5c-1.4,9.1-3.2,17.7-11.9,22.6c-3.4,1.9-7.4,2.6-11.1,3.7c-3.5,1-7.7-0.1-9.5,5.2
		c-1.1,3.2-11.2,2.1-13.6-0.7c-1.5-1.7-3.7-3.7-5.7-3.8C1813,241.6,1809.5,227.2,1809.1,210.2z M1841.4,191.6
		c-10.6-1.2-15.2,1.9-17.3,11c-3.2,13.4,0.7,25.9,9,28.8c1.1,0.4,2.6,1.3,3.3,0.9c1.8-1,4.8-2.5,4.8-3.9
		C1841.5,216.3,1841.4,204.1,1841.4,191.6z M1855.7,191.6c0,11.1-0.1,21.8,0.1,32.5c0.1,2.7,1,7.5,2.2,7.7c2.8,0.5,6.5-0.4,9.1-2.1
		c2.3-1.5,4.8-4.5,5-7.1c0.7-7.1,1.2-14.4,0.2-21.3C1870.9,193.1,1865.8,190.4,1855.7,191.6z"/>
	<path class="st0" d="M360.3,211c0-18.7,0.2-37.5-0.1-56.2c-0.1-6,1.3-8.4,7.8-8.1c10.7,0.5,21.5,0.4,32.3,0.1
		c5.5-0.2,6,2.9,5.9,7.1c-0.1,3.9,0.2,7.9-5.6,7.3c-0.5,0-0.9,0-1.4,0c-15.9,0.3-15.9,0.3-15.9,16c0,30-0.2,60,0.1,90
		c0.1,6.6-2,8.4-8.4,8.2c-14.7-0.4-14.7-0.1-14.7-15.1C360.3,243.8,360.3,227.4,360.3,211z"/>
	<path class="st0" d="M1320.5,340.4c0-20.9,6.7-28.6,27.3-31.8c1.5-0.2,3.2-0.9,4.2-1.9c5-5.1,9.9-5.1,14.8-0.1
		c1.3,1.3,3.6,1.9,5.5,2.1c17.2,2,25.8,11.4,26,28.9c0,5.1,0,10.4-1.1,15.3c-2.7,12.2-10,18-22.3,19.9c-3.2,0.5-5.9,3.9-9.2,4.5
		c-4.1,0.8-8.6,0.7-12.7-0.1c-2.5-0.5-4.6-3.8-7.1-4.2c-18.6-3.4-25.3-11.1-25.4-29.8C1320.5,342.3,1320.5,341.4,1320.5,340.4z
		 M1366.1,341L1366.1,341c0,4-0.3,8,0.1,11.9c0.3,3,1.6,5.9,2.4,8.9c3.3-0.9,7.2-1,9.6-3c2.6-2.2,4.8-5.9,5.3-9.3
		c0.9-5.5,0.5-11.2,0.2-16.7c-0.4-6.2-4-10.3-10.1-12c-4.7-1.3-7.8-0.3-7.6,5.5C1366.3,331.2,1366.1,336.1,1366.1,341z
		 M1352.6,341.3L1352.6,341.3c0-4.9-0.1-9.8,0.1-14.8c0.3-6.3-3-7.1-8-5.6c-7.7,2.2-10.8,8.5-10.3,20.7c0.5,13.1,3.8,18.5,12.1,20.2
		c4.3,0.9,6.2-0.8,6.2-5.1C1352.6,351.6,1352.6,346.4,1352.6,341.3z"/>
	<path class="st0" d="M1634.7,203.1c-3.6,7-7.1,13.9-10.7,20.9c-1.4,2.7-2.6,5.5-4.1,8.2c-3.1,5.3-9.2,5.3-12.1-0.1
		c-3.8-7.2-7.3-14.7-10.9-22c-1.1-2.2-2.4-4.4-5.3-6.3c-0.2,2.1-0.5,4.2-0.5,6.3c-0.1,11-0.3,22.1,0.1,33.1c0.2,5.3-1.7,6.9-6.9,6.9
		c-5.1,0-6.4-2-6.3-6.7c0.2-20.9,0-41.8,0.2-62.7c0-2.3,1.7-6.5,2.8-6.6c4.3-0.4,9.4-2.5,12.3,3.4c5.2,10.5,10.8,20.8,16.2,31.2
		c1.2,2.2,2.4,4.3,4.4,7.8c2-3.2,3.4-5.2,4.6-7.4c5.3-10.2,10.9-20.2,15.7-30.6c2.9-6.3,7.9-5,12.6-4.6c5.6,0.5,3.4,5.4,3.4,8.4
		c0.2,19.7,0.1,39.4,0.1,59.1c0,4.4,1,8.7-6.4,8.8c-7.9,0.1-6.7-4.5-6.7-9.2c0-12.4,0-24.7,0-37.1
		C1636.4,203.6,1635.6,203.3,1634.7,203.1z"/>
	<path class="st0" d="M1051.7,139.4c-2.2,10.8-4.4,21.5-6.5,32.2c-12.8,63.1-25.5,126.2-38.3,189.2c-3.1,15.1-6.2,30.3-9.4,45.4
		c-1.6,7.7-2.2,7.8-11.6,6c1.9-9.7,3.6-19.5,5.6-29.2c15.7-76.8,31.4-153.7,47.1-230.5c0.4-2.1,0.9-4.1,1-6.2
		C1039.9,139.1,1043.5,136.8,1051.7,139.4z"/>
	<path class="st0" d="M2223,350.2c1.3-1.7,2.8-3.4,4-5.1c8.4-12.4,16.6-25,25.5-37.1c1.8-2.5,5.8-3.8,9-4.7c3.7-1,5.4,1.1,5.4,5.1
		c-0.1,21.8-0.2,43.6,0,65.5c0.1,5.7-3.1,5.7-7.2,5.7c-4,0-7.4,0.2-7.3-5.6c0.3-11.3,0.1-22.5,0.1-33.8c0-2.5,0-5.1-1.5-8.3
		c-1.4,1.9-3,3.7-4.3,5.6c-8.4,12.4-16.6,25-25.2,37.3c-1.6,2.3-4.9,3.9-7.7,4.6c-4.7,1.2-6.6-1.2-6.6-6.1c0.2-21.3,0.2-42.7,0-64
		c-0.1-5.3,2.5-6.1,6.9-6.1c4.7-0.1,6.8,1.3,6.7,6.4c-0.2,11-0.1,22.1,0,33.1c0,2.4,0.4,4.8,0.6,7.3
		C2221.9,349.8,2222.5,350,2223,350.2z"/>
	<path class="st0" d="M1604.7,339.7c6.4,4.1,12,8.1,12,16.4c0,12.2-6.7,20.7-19,21.8c-10.2,0.9-20.5,0.9-30.8,1.3
		c-4.3,0.2-5.7-1.7-5.7-5.9c0.1-21.5,0-43.1,0.2-64.6c0-1.9,2.2-5.5,3.3-5.5c11.2,0,22.4,0.1,33.5,1.1c7,0.7,13.3,4.1,15,11.7
		c1.8,8.2,0.9,15.9-7.1,21.1C1605.7,337.7,1605.5,338.4,1604.7,339.7z M1575.1,344.9c0,7.3-0.3,13.1,0.2,18.9
		c0.1,1.4,2.5,3.8,3.8,3.8c5.8-0.1,11.9,0,17.2-1.8c2.8-1,6.1-5.9,5.9-9c-0.1-3.3-3.3-8.3-6.3-9.3
		C1589.9,345.5,1583.2,345.7,1575.1,344.9z M1584.9,314.2c-10.1,0.4-10.2,0.4-10.1,10.3c0,1.9-0.3,4,0.4,5.5c0.7,1.6,2.6,3.7,4,3.7
		c5.1,0,10.5,0.1,15.1-1.7c2.7-1,5.5-5.4,5.6-8.4c0.1-2.5-3-6-5.6-7.6C1591.7,314.4,1588,314.7,1584.9,314.2z"/>
	<path class="st0" d="M1257.5,352c2.9-3.8,4.4-5.6,5.8-7.7c8.3-12.2,16.7-24.3,24.7-36.7c2.6-4.1,5.9-5.4,10-4.3
		c1.8,0.5,4.3,3,4.3,4.6c0.3,22.3,0.1,44.5,0.2,66.8c0,5.7-3.9,4.7-7.3,4.8c-3.6,0.1-7.2,0.4-7.1-5.1c0.2-11.3,0.1-22.5,0-33.8
		c0-2.5,0-5.1-1.6-8.4c-1.6,2-3.4,3.9-4.8,6.1c-8.1,12-16.1,24.2-24.4,36.1c-1.4,2.1-3.8,4.3-6.2,4.8c-5.4,1.3-8.6-0.1-8.4-7.1
		c0.4-20.6,0.2-41.3,0.1-61.9c0-4.7,0.6-7.4,6.4-7.4c5.6,0,7.4,1.9,7.3,7.3c-0.3,10.8-0.1,21.6,0,32.4
		C1256.5,345,1257,347.4,1257.5,352z"/>
	<path class="st0" d="M1158.2,340.8c0-10.5,0.2-21.1-0.1-31.6c-0.1-5.2,2.4-6.1,6.9-6.2c4.6,0,6.8,1.1,6.7,6.3
		c-0.2,16.9,0.1,33.8-0.2,50.6c-0.1,6.1,2,8.5,8.1,8.1c5.4-0.4,10.8-0.3,16.2,0c4.8,0.2,6.6-1.5,6.5-6.5
		c-0.2-16.9,0.1-33.8-0.2-50.6c-0.1-5.5,1.1-7.9,7.3-7.9c6.2,0,7.3,2.5,7.3,8c-0.3,16.4,0,32.8-0.2,49.2c0,4.9,0.6,8.1,6.7,8.1
		c1.5,0,4.2,3.1,4.5,5.1c0.7,4.3,0.1,8.9,0.3,13.3c0.1,4.2-0.1,7.2-5.8,7.2c-5.2,0-6.8-2.2-6.2-6.8c0.8-6.5-2.4-7.8-8.3-7.6
		c-13.6,0.4-27.2-0.3-40.8,0.3c-7.5,0.3-9.2-2.4-8.9-9.3C1158.6,360.5,1158.2,350.6,1158.2,340.8z"/>
	<path class="st0" d="M2325.8,349.6c-8.3-2.7-13.5-0.9-16.6,6.7c-1.8,4.5-4.5,8.7-6.9,13c-6,11.2-6,11.2-20.3,9.4
		c5.8-10.5,11.4-20.5,17.6-31.8c-1-0.4-1.9-0.7-2.7-1.2c-10.8-6.6-14.4-14.9-11.8-26.6c1.9-8.4,10.8-15.3,21.7-15.9
		c9.3-0.5,18.7-0.1,28.1-0.2c4.1-0.1,5.2,1.8,5.2,5.6c-0.1,21.8-0.2,43.6,0,65.4c0.1,5.9-3.5,5.4-7.4,5.5c-4.2,0.1-7.4-0.2-7.1-5.8
		C2326,365.7,2325.8,357.8,2325.8,349.6z M2325.7,326c0-2.6,0.3-5.2-0.1-7.7c-0.2-1.3-1.6-3.4-2.5-3.4c-6.2,0.2-12.8-0.2-18.5,1.6
		c-2.8,0.9-6,6.3-5.9,9.5s3.6,8,6.7,9.1c5.3,1.8,11.4,1.4,17.2,1.4c1,0,2.6-2.2,3-3.6C2326.1,330.8,2325.7,328.4,2325.7,326z"/>
	<path class="st0" d="M2186.6,342c0,9.8-0.2,19.7,0.1,29.5c0.1,5.2-0.5,8.1-7,8.2c-6.8,0-7.7-2.9-7.4-8.5c0.3-6.5-0.2-13.1,0.1-19.7
		c0.2-4.7-1.7-6.2-6.1-5.9c-6.1,0.3-12.2,0.2-18.3,0c-3.6-0.1-5,1.3-5,4.9c0.1,7.7-0.2,15.5,0.1,23.2c0.2,5.7-3.1,5.8-7.2,5.7
		c-4-0.1-7.4,0.2-7.3-5.6c0.2-21.8,0.2-43.6,0-65.4c-0.1-6,3.6-5.3,7.4-5.5c4.2-0.2,7.3,0.3,7,5.9c-0.4,6.5,0,13.1-0.1,19.7
		c-0.1,3.9,1.6,5.5,5.4,5.5c6.3-0.1,12.7,0.3,18.9-0.3c1.8-0.2,4.5-3.1,4.7-4.9c0.6-6.5,0.5-13.1,0.2-19.7c-0.3-5.3,2.3-6.3,6.8-6.2
		c4.2,0.2,7.9-0.3,7.7,5.9C2186.3,319.9,2186.6,330.9,2186.6,342z"/>
	<path class="st0" d="M1671,211.2c0-10.6,0.2-21.1-0.1-31.7c-0.2-5.4,2.5-6.1,6.9-6.1c4.5,0,7.9,0.2,7.6,6.2
		c-0.4,6.1,0.1,12.2-0.1,18.3c-0.2,4.6,1,6.6,6.2,6.7c23.1,0.5,23.1,0.7,23.2-22.3c0-8.8,0.5-9.1,8.3-8.8c4,0.1,5.4,1.9,5.3,5.6
		c0,21.8-0.1,43.6,0,65.5c0,5.9-3.9,5.2-7.7,5.4c-4.1,0.2-6.1-1-6-5.5c0.2-7.5-0.1-15,0.1-22.5c0.1-4.2-1.6-6-5.8-5.8
		c-6.1,0.2-12.2,0.2-18.3,0c-4.1-0.1-5.3,1.6-5.2,5.5c0.2,7.3-0.2,14.6,0.1,21.8c0.3,5.5-2.2,6.7-7.1,6.6c-4.6-0.1-7.6-0.5-7.3-6.4
		C1671.3,232.8,1671,222,1671,211.2z"/>
	<path class="st0" d="M1412.4,212.4c0,10.6-0.2,21.1,0.1,31.7c0.1,4.9-2.1,5.9-6.4,5.8c-4.1-0.1-7.4-0.2-7.4-5.8
		c0.1-16.4,0.1-32.8,0-49.2c0-9.8-0.1-9.8-9.5-9.8c-4.9,0-9.9,0.3-14.8-0.1c-5.3-0.4-7,1.9-6.9,7c0.2,16.6-0.3,33.3,0.2,49.9
		c0.2,6.9-2.5,9.2-8.6,7.7c-1.9-0.5-4.8-3.1-4.8-4.8c-0.3-22-0.2-44.1-0.3-66.1c0-4.1,1.9-5.2,5.6-5.2c15.7,0.1,31.4,0.2,47.1,0
		c4.4,0,5.7,1.7,5.6,5.9C1412.3,190.4,1412.4,201.4,1412.4,212.4z"/>
	<path class="st0" d="M1544,340c-1.2,7.2-1.6,14.3-3.5,21c-3.9,13.7-14.3,19.5-31.4,18.4c-12-0.7-22.3-9.5-23.6-22
		c-1.1-10.8-1.2-21.9-0.1-32.7c1.3-12.8,12-21.9,24.7-22.9c14.5-1.1,25.9,5.2,30,17.8C1542.4,326.1,1542.8,333.3,1544,340z
		 M1529.5,341.1c-0.3,0-0.6,0-0.9-0.1c0-4.2,0.1-8.4-0.1-12.6c-0.1-1.6-0.7-3.2-1.2-4.8c-2.2-6.7-7.4-10.5-14.1-10.4
		c-6.8,0.1-12.7,3.9-13.3,11c-1,11-1,22.3-0.1,33.3c0.6,7.3,6.5,11.1,13.2,11.1c7.4,0,12.5-3.5,14.2-11
		C1528.6,352.3,1528.8,346.7,1529.5,341.1z"/>
	<path class="st0" d="M1560.7,212.8c-0.9,5.4-1.3,12-3.1,18.2c-4,14.4-13.4,19.8-30.9,18.9c-13-0.7-22.7-8.8-24.2-22.1
		c-1.2-10.6-1.2-21.5-0.1-32.1c1.5-14.2,13.3-23.4,28-23.5c14.6-0.1,25.9,9.1,28.3,23.3C1559.6,200.8,1559.9,206.2,1560.7,212.8z
		 M1546.4,211.4c-0.7-5.7-0.9-11.6-2.3-17.2c-1.7-6.6-6.7-10-13.5-10.3c-6.6-0.3-13,3.8-13.7,10.7c-1,11-1.1,22.3-0.2,33.4
		c0.6,7.4,6.4,11.2,13.2,11.2c7.4,0,12.6-3.5,14.3-11C1545.5,222.8,1545.7,217.1,1546.4,211.4z"/>
	<path class="st0" d="M1270.2,249.2c-12.8,1.6-12.6,1.5-17.5-9.7c-1-2.3-4.4-4-7.1-4.8c-2.8-0.8-6-0.2-9.1-0.2
		c-12.1,0-12,0-16.7,11.2c-3.4,8.2-9.9,2.5-16.5,4.7c4.8-13.6,8.9-25.4,13.1-37.2c4.1-11.7,8.5-23.3,12.4-35
		c1.5-4.5,4.4-4.8,8.2-4.6c3.6,0.1,7.3-0.7,9.1,4.3c7.9,22.7,16,45.4,24,68.1C1270.3,246.9,1270.1,248.1,1270.2,249.2z
		 M1238.6,195.8c-0.8,0-1.6,0-2.4,0c-2.6,7.9-5.4,15.7-7.7,23.6c-0.3,1.1,1.7,4,2.8,4.1c4.9,0.5,9.9,0.2,16.2,0.2
		C1244.2,213.3,1241.4,204.5,1238.6,195.8z"/>
	<path class="st0" d="M2065.3,340.8c0-10.6,0.2-21.1-0.1-31.7c-0.1-4.6,1.5-6.2,6.1-6.1c12.2,0.2,24.4,0.2,36.6,0
		c4.5-0.1,5.5,1.9,5.5,6c0,4.3-1.5,5.9-5.8,5.7c-7.3-0.2-14.5,0.1-21.8-0.1c-4.4-0.1-6.2,1.3-6.3,6c-0.4,13.5-0.6,13.4,13,13.4
		c3.3,0,6.6,0.2,9.8,0c4.4-0.3,7,0.5,7,6c0,5.8-3.2,5.7-7.3,5.7c-5.6-0.1-11.3,0.2-16.9-0.1c-4.4-0.2-5.7,1.6-5.7,5.8
		c0.3,19.5-2.1,16.2,15.6,16.5c4,0.1,8,0.2,12,0c4.3-0.2,6.4,1,6.4,5.9s-2.2,5.9-6.5,5.8c-11.7-0.2-23.5-0.3-35.2,0
		c-5.5,0.2-6.8-2-6.7-7.1C2065.5,361.9,2065.3,351.3,2065.3,340.8z"/>
	<path class="st0" d="M1748.5,211.8c0-10.6,0.2-21.1-0.1-31.7c-0.1-4.7,1.1-6.8,6.3-6.7c11.9,0.3,23.9,0.2,35.9,0
		c4.6-0.1,6.2,1.5,6.1,6.1c0,4.5-2,5.6-6,5.5c-7.3-0.2-14.5,0.1-21.8-0.1c-4-0.1-5.9,1.1-6.1,5.5c-0.8,14-0.9,14,13.1,14
		c3.3,0,6.6,0.2,9.8,0c4.4-0.3,7,0.6,7,6c-0.1,5.1-2.6,5.7-6.7,5.6c-5.9-0.2-11.7,0.1-17.6-0.1c-3.8-0.1-5.3,1.3-5.6,5.3
		c-1.3,17-1.4,17,15.6,17c4.2,0,8.4,0.2,12.7,0c4.5-0.3,5.5,1.9,5.6,5.9c0,4.4-1.7,5.7-5.9,5.7c-12-0.2-23.9-0.2-35.9,0
		c-4.9,0.1-6.7-1.5-6.5-6.5C1748.7,232.9,1748.5,222.4,1748.5,211.8z"/>
	<path class="st0" d="M1416.2,341.2c0-10.8,0.1-21.6-0.1-32.4c-0.1-4.2,1.4-5.9,5.7-5.8c8.9,0.2,17.8-0.2,26.7,0.2
		c14.1,0.6,22.9,9.6,23.1,23.1c0.2,14.5-8.4,24-22.8,25c-4.4,0.3-9-0.4-13.3,0.4c-1.9,0.3-4.5,3-4.7,4.8c-0.6,5.6-0.5,11.2-0.2,16.9
		c0.3,5.3-2.2,6.3-6.8,6.2c-4.2-0.2-7.9,0.3-7.7-5.9C1416.5,362.8,1416.2,352,1416.2,341.2z M1430.6,339.7c6.4,0,11.5,0.3,16.6-0.1
		c6.6-0.5,10-4.9,10.7-11c0.7-5.9-1.7-11-7.8-12.4c-5.3-1.2-11-1.2-16.6-1.2c-1,0-2.7,2.4-2.8,3.8
		C1430.4,325.4,1430.6,332.1,1430.6,339.7z"/>
	<path class="st0" d="M1821.7,340.9c0-10.6,0.2-21.1-0.1-31.7c-0.1-4.5,1.3-6.4,6-6.3c8.7,0.3,17.4-0.1,26,0.2
		c14.7,0.5,23.7,9.8,23.7,24c-0.1,14.1-9.3,23.5-23.8,24.1c-1.2,0.1-2.3,0-3.5,0c-16.1,0.2-13.8-1.8-14,13.7c0,2.1,0,4.2,0,6.3
		c0,7.3-5.1,10.8-11.8,7.6c-1.4-0.7-2.4-3.8-2.4-5.8C1821.6,362.5,1821.7,351.7,1821.7,340.9z M1836.1,339.6c6.4,0,12,0.5,17.5-0.1
		c6.2-0.6,9.3-5.2,10-11c0.6-5.6-1.6-10.7-7.3-12.1c-5.5-1.4-11.5-1.4-17.3-1.4c-1,0-2.7,2.9-2.8,4.5
		C1835.9,325.8,1836.1,332.1,1836.1,339.6z"/>
	<path class="st0" d="M1892.1,341.4c0-10.6,0.2-21.1-0.1-31.7c-0.1-4.6,1-6.9,6.2-6.8c11.7,0.3,23.4,0.2,35.2,0
		c4.1-0.1,6,1.3,6.1,5.6c0.1,4.6-1.8,6.2-6.3,6.1c-7-0.2-14.1,0.1-21.1-0.1c-4.3-0.1-5.6,1.6-5.7,5.8c-0.5,13.6-0.6,13.6,12.8,13.6
		c3.5,0,7,0.2,10.5,0c4.2-0.2,6.5,0.8,6.5,5.7c0,4.8-1.9,6.1-6.3,5.9c-6.1-0.3-12.2,0-18.3-0.1c-3.4-0.1-5.2,1-5.1,4.8
		c0.2,21.3-2.4,17,15.9,17.5c3.7,0.1,7.5,0.2,11.3,0c4.2-0.2,5.9,1.5,5.9,5.7c0,4.1-1.4,6-5.8,5.9c-12-0.2-23.9-0.2-35.9,0
		c-4.9,0.1-5.9-2.2-5.8-6.4C1892.2,362.5,1892.1,351.9,1892.1,341.4z"/>
	<path class="st0" d="M1433.1,211c0-10.5-0.2-21.1,0.2-31.6c0.1-2,2.6-5.5,4-5.5c11.2,0,22.6-0.5,33.5,1.3
		c13.5,2.2,18.8,11.5,17.6,26.7c-0.9,10.7-10,19.2-21.9,19.9c-4.4,0.3-8.9,0.2-13.3,0c-4.2-0.2-6,1.4-5.8,5.8
		c0.2,4.9-0.3,9.9,0.1,14.8c0.5,5.7-1.4,7.7-7.4,7.8c-6.5,0.1-7.2-2.9-7.1-8.1C1433.3,231.6,1433.1,221.3,1433.1,211z M1455.9,184.4
		c-2.4,0.8-7.6,1.5-7.8,2.7c-0.7,7.4-0.3,14.8-0.2,22.3c5.4,0.2,10.7,0.5,16.1,0.7c0.5,0,0.9-0.1,1.4-0.2c5.7-1.4,8.9-5.1,9.4-10.8
		c0.5-5.6-1.8-10.2-7.2-12.3C1464.2,185.5,1460.4,185.3,1455.9,184.4z"/>
	<path class="st0" d="M1633.1,340.7c0-10.5,0.2-21.1-0.1-31.6c-0.2-5.3,2.3-6.3,6.8-6.1c4.2,0.1,8.1-0.3,7.7,6
		c-0.4,5.6,0.1,11.2-0.1,16.8c-0.2,4.3,1.6,5.7,5.8,5.6c4.6,0,9.3,0.5,13.9,1.1c13,1.7,20.7,9.8,21.2,22
		c0.5,11.9-7.1,21.4-19.9,23.2c-9.9,1.4-20,1.2-30,1.7c-4,0.2-5.2-1.8-5.2-5.6C1633.2,362.7,1633.1,351.7,1633.1,340.7z M1647.4,355
		c0,12.8,0,12.8,8.5,12.8c12.3,0,18.1-4.2,17.9-12.7c-0.2-8.6-5.4-12.2-17.5-12.3C1647.4,342.8,1647.4,342.8,1647.4,355z"/>
	<path class="st0" d="M1730,341.3c0-10.6,0.2-21.1-0.1-31.7c-0.1-4.7,1.3-6.8,6.4-6.7c11.5,0.3,23,0.2,34.5,0c4.4-0.1,6.3,1.2,6.3,6
		c0,5-2.3,5.9-6.5,5.8c-6.8-0.2-13.6,0.2-20.4-0.1c-4.9-0.2-6.9,1.8-6.7,6.5c0.1,1.6,0.1,3.3,0,4.9c-0.6,6.1,1.9,8.5,8.1,8.1
		c5.8-0.4,11.7,0.1,17.6-0.1c4.3-0.1,4.9,2.3,4.9,5.8s-0.6,5.9-4.9,5.8c-6.6-0.2-13.1,0.2-19.7-0.1c-4.3-0.2-5.7,1.6-6,5.7
		c-1.2,16.3-1.1,16.6,15,16.6c4,0,8,0.1,12,0c4-0.2,6.6,0.5,6.7,5.6c0.1,5.4-2.4,6.2-6.9,6.1c-11.3-0.2-22.5-0.3-33.8,0
		c-5,0.1-6.6-1.7-6.5-6.5C1730.2,362.4,1730,351.8,1730,341.3z"/>
	<path class="st0" d="M1279,229.1c6.8-1.1,12.3-1.5,16.9,5.2c4.2,6,16.9,7.1,22.5,2.1c2.7-2.4,5.2-7.7,4.3-10.7
		c-1.1-3.7-5.5-6.8-9.1-9.2c-1.8-1.2-5-0.6-7.6-0.5c-4.1,0.2-6.7-0.5-6.6-5.6c0-4.7,1.8-6.2,6.2-6c5.8,0.2,12.1-0.5,14.1-6.7
		c1-3.1-0.2-8.4-2.4-10.7c-4.7-4.8-11.1-4-17.1-1.6c-1.5,0.6-3.1,1.7-3.8,3c-3.4,6.9-9,5-14.9,4.7c0.1-7.4,3.9-12,9.2-15.3
		c9-5.5,18.8-6.7,29-3.6c16.4,5,20.3,20.3,8.1,32.5c-0.8,0.8-1.5,1.6-2.3,2.5c0.6,0.9,0.9,1.6,1.4,1.9c7.5,4.6,11.4,11.1,10.2,19.9
		c-1.5,10.4-8.4,16.1-18.2,17.9c-9.2,1.7-18.7,2.4-27.4-2.3C1284.5,243.1,1280.1,237.4,1279,229.1z"/>
	<path class="st0" d="M1967.7,211.7c0-10.5,0.2-21.1-0.1-31.6c-0.1-5.4,2.2-6.7,7.2-6.7c4.9,0,6.7,1.6,6.5,6.5
		c-0.3,5.4,0.1,10.8-0.1,16.2c-0.1,4.2,1.5,5.8,5.8,5.8c5.3,0,10.8,0.4,16,1.3c13.2,2.3,20.7,11.2,20.4,23.6
		c-0.3,12-8.2,20.5-21.3,21.9c-9.5,1-19.1,0.8-28.7,1.3c-4.4,0.2-5.8-1.8-5.7-5.9c0.1-5.4,0-10.8,0-16.2
		C1967.6,222.5,1967.6,217.1,1967.7,211.7z M1981.1,225.8c0,12.6,0,12.6,9.5,12.6c12.9,0,18.2-3.5,18.3-12.2
		c0.1-8.8-5.7-12.8-18.7-12.8C1981.1,213.3,1981.1,213.3,1981.1,225.8z"/>
	<path class="st0" d="M1917.5,216.8c0-8.7-0.2-17.4,0.1-26c0.1-4.2-1.2-6.1-5.6-5.8c-3,0.2-6.1-0.1-9.1,0.1c-4,0.2-6.6-0.4-6.7-5.5
		c-0.1-5.3,2.4-6.1,6.9-6.1c15,0.2,30,0.2,45,0c4.5-0.1,6.3,1.4,6.3,6.1c-0.1,4.3-1.9,5.5-6,5.6c-16.4,0.5-16.4,0.6-16.4,16.8
		c0,13.8-0.2,27.7,0.1,41.5c0.1,5.7-2.5,6.5-7.2,6.5c-4.6,0-7.6-0.5-7.3-6.4C1917.8,234.7,1917.5,225.7,1917.5,216.8z"/>
	<path class="st0" d="M1158.2,211.6c0-10.5,0.1-21.1-0.1-31.6c-0.1-4.8,1.5-6.7,6.5-6.6c11,0.3,22,0.2,33,0c4.1-0.1,6.6,0.6,6.6,5.6
		c0.1,5.4-2.6,6.1-7,6c-6.1-0.2-12.2,0.2-18.3-0.1c-5.5-0.3-7.5,1.7-7.4,7.2c0.2,16.6,0,33.3,0.1,49.9c0,4.7-0.1,7.9-6.5,8
		c-6.6,0.1-7.2-3.1-7.1-8.2C1158.4,231.8,1158.2,221.7,1158.2,211.6z"/>
	<path class="st0" d="M1709.4,341.3c0,10.8-0.2,21.5,0.1,32.3c0.2,5.7-3.1,5.8-7.2,5.8c-4,0-7.3,0.1-7.3-5.7
		c0.2-21.8,0.2-43.5,0-65.3c0-5.4,3-5.4,6.8-5.3c3.7,0.1,7.7-0.9,7.6,5.2C1709.2,319.3,1709.4,330.3,1709.4,341.3z"/>
	<path class="st0" d="M614.8,348.3c0,8.2,0,15.8,0,23.8C609.7,368.3,609.6,353.1,614.8,348.3z"/>
	<path class="st0" d="M631.5,347.4c4.8,6.9,4.7,19.7,0,25.3C631.5,364.2,631.5,356.6,631.5,347.4z"/>
	<path class="st0" d="M847.7,366.8c0,3.6,0,7.2,0,10.9c-0.8,0-1.6,0-2.4,0c0-3.6,0-7.2,0-10.9C846.1,366.8,846.9,366.8,847.7,366.8z
		"/>
</g>
</svg>
