<svg width="110" height="34" viewBox="0 0 110 34" fill="none" xmlns="http://www.w3.org/2000/svg">
<path d="M109.731 10.2053C109.425 10.8122 108.96 11.2021 108.305 11.395L103.761 12.8139C103.521 12.8983 103.342 13.0832 103.265 13.3324C103.222 13.465 103.211 13.5936 103.238 13.7223C103.261 13.8509 103.319 13.9674 103.397 14.0478L106.279 17.9426C106.682 18.4893 106.833 19.1002 106.74 19.8117C106.647 20.5191 106.33 21.0698 105.772 21.4878C105.206 21.9098 104.598 22.0666 103.92 21.9741C103.238 21.8415 102.726 21.4998 102.354 20.921L99.6656 16.8252L99.6269 16.777C99.4719 16.6162 99.251 16.5278 98.9876 16.5278C98.7241 16.5278 98.5033 16.6564 98.3987 16.8534L95.737 20.913C95.3302 21.4958 94.7955 21.8415 94.1214 21.9701C93.4317 22.0666 92.8234 21.9098 92.2655 21.4918C91.7347 21.0697 91.4132 20.5151 91.2892 19.8076C91.1962 19.1043 91.3628 18.5013 91.8045 17.9426L94.7103 14.0197L94.7413 13.9634C94.8304 13.7785 94.8381 13.5615 94.7645 13.3324C94.6909 13.1033 94.5592 12.9345 94.3616 12.8299L89.7821 11.395H89.7704C89.0847 11.1981 88.6042 10.8122 88.2981 10.2093C87.9843 9.55815 87.9223 8.90701 88.1083 8.23577C88.3253 7.55649 88.736 7.07013 89.3597 6.74858C89.9835 6.42301 90.6034 6.37478 91.2504 6.59987L95.737 8.3041C95.8648 8.34831 95.9927 8.35635 96.1128 8.33223C96.2329 8.30812 96.3453 8.24782 96.415 8.17547C96.632 8.01872 96.7521 7.7856 96.7521 7.52032L96.6436 2.58448C96.6126 1.84089 96.8218 1.25003 97.2906 0.763685C97.7517 0.249201 98.3096 0 98.9876 0C99.7043 0 100.278 0.249203 100.75 0.771727C101.215 1.25406 101.44 1.85295 101.44 2.59252L101.332 7.52836C101.332 7.7655 101.413 7.97451 101.587 8.15137L101.638 8.19156C101.859 8.34429 102.11 8.38449 102.358 8.29606L106.829 6.59987C107.449 6.3788 108.05 6.42703 108.67 6.74858C109.29 7.07013 109.677 7.55247 109.871 8.23979C110.088 8.91907 110.041 9.56217 109.731 10.2053Z" fill="#3E74ED"/>
<path fill-rule="evenodd" clip-rule="evenodd" d="M5.7676 18.4688L5.76937 18.4701C5.70483 18.5719 5.64234 18.6759 5.58189 18.7818C4.99316 19.8701 4.69511 21.0999 4.69511 22.4385C4.69511 23.7771 4.99316 25.0287 5.57821 26.0807C6.18902 27.1363 7.01692 27.9779 8.03616 28.5838C9.0738 29.2077 10.2476 29.5233 11.5207 29.5233C12.7938 29.5233 13.9934 29.2077 15.0089 28.5801C16.0282 27.9779 16.8377 27.1363 17.4191 26.0879C18.0078 25.0359 18.3058 23.8061 18.3058 22.4385C18.3058 22.2335 18.2991 22.032 18.2858 21.8341V15.3704H12.4991H10.9255C9.71866 15.3704 8.74036 14.3922 8.74036 13.1855C8.74036 11.9787 9.71866 11.0005 10.9255 11.0005H11.5207H12.1905H19.0908H20.2408C21.7652 11.0005 23.0009 12.2362 23.0009 13.7605V22.4385V22.7303V31.606C23.0009 32.3133 22.7728 32.8938 22.3276 33.3363C21.8787 33.7753 21.29 34.0002 20.5724 34.0002C19.8549 34.0002 19.303 33.7789 18.8173 33.3363C18.3721 32.8938 18.1439 32.3133 18.1439 31.606V30.7966C17.327 31.6165 16.3667 32.2876 15.2849 32.7991C13.8903 33.4884 12.3523 33.8366 10.7149 33.8366C8.68746 33.8366 6.8403 33.3215 5.22499 32.3057C3.62069 31.3263 2.32549 29.955 1.37984 28.2246C0.463627 26.5341 0 24.5861 0 22.4385C0 20.2909 0.507784 18.3211 1.50862 16.5943C1.66478 16.3324 1.82952 16.0781 2.00269 15.8317L1.99767 15.8282L1.9854 15.8454C1.98942 15.8397 1.99359 15.8339 1.99767 15.8282C2.73466 14.7926 4.17152 14.5505 5.20716 15.2875C6.23342 16.0178 6.48043 17.4355 5.7676 18.4688Z" fill="white"/>
<path d="M47.8296 2.66435C47.3806 2.2254 46.7919 2.00049 46.0744 2.00049C45.3569 2.00049 44.8049 2.22178 44.3192 2.66435C43.874 3.10693 43.6459 3.68734 43.6459 4.39474V14.204C42.829 13.3841 41.8687 12.713 40.7869 12.2015C39.3923 11.5122 37.8543 11.164 36.2169 11.164C34.1894 11.164 32.3423 11.6791 30.7269 12.6948C29.1227 13.6743 27.8274 15.0456 26.8818 16.776C25.9656 18.4664 25.502 20.4145 25.502 22.5621C25.502 24.7097 26.0097 26.6795 27.0106 28.4063C28.0335 30.1221 29.4244 31.5079 31.1427 32.52C32.8905 33.5031 34.8701 34.0001 37.0227 34.0001C39.1752 34.0001 41.1438 33.5031 42.8695 32.5164C44.5842 31.5079 45.9603 30.1221 46.9575 28.4063C47.9841 26.6831 48.5029 24.7169 48.5029 22.5621V4.39474C48.5029 3.68734 48.2748 3.10693 47.8296 2.66435ZM37.0227 29.6905C35.7495 29.6905 34.5757 29.3857 33.5418 28.7872C32.5262 28.1632 31.6983 27.2962 31.0839 26.2188C30.4951 25.1305 30.1971 23.9007 30.1971 22.5621C30.1971 21.2235 30.4951 19.9719 31.0802 18.9199C31.691 17.8643 32.5189 17.0227 33.5381 16.4168C34.5758 15.7929 35.7495 15.4773 37.0227 15.4773C38.2958 15.4773 39.4953 15.7929 40.5109 16.4204C41.5301 17.0226 42.3396 17.8643 42.921 18.9127C43.5097 19.9647 43.8078 21.1945 43.8078 22.5621C43.8078 23.9297 43.5097 25.1377 42.921 26.2188C42.3359 27.2962 41.5228 28.1596 40.5109 28.7835C39.499 29.3857 38.3252 29.6905 37.0227 29.6905Z" fill="white"/>
<path d="M82.5033 20.064V31.5804C82.5033 32.266 82.281 32.8526 81.8438 33.3219C81.3956 33.7766 80.8089 34.0002 80.0984 34.0002C79.3878 34.0002 78.8339 33.7766 78.3711 33.3403C77.9157 32.8526 77.6934 32.266 77.6934 31.5804V20.064C77.6934 18.4874 77.3144 17.3178 76.5602 16.5845C75.7949 15.8146 74.822 15.4406 73.5758 15.4406C72.3296 15.4406 71.2401 15.8769 70.3983 16.7752C69.5785 17.6771 69.1776 18.8064 69.1776 20.2253V31.5804C69.1776 32.266 68.9554 32.8526 68.5181 33.3219C68.0699 33.7766 67.4832 34.0002 66.7727 34.0002C66.0621 34.0002 65.5082 33.7766 65.0455 33.3403C64.59 32.8526 64.3677 32.266 64.3677 31.5804V20.064C64.3677 18.4874 63.9851 17.3141 63.2345 16.5845C62.4692 15.8146 61.4964 15.4406 60.2501 15.4406C59.0039 15.4406 57.9144 15.8769 57.0727 16.7752C56.2237 17.6771 55.8119 18.8064 55.8119 20.2253V31.5804C55.8119 32.266 55.5896 32.8526 55.1523 33.3219C54.7041 33.7766 54.1175 34.0002 53.4069 34.0002C52.6964 34.0002 52.1425 33.7766 51.6797 33.3403C51.2242 32.8526 51.002 32.266 51.002 31.5804V13.6624C51.002 12.9437 51.2279 12.3571 51.6724 11.9134C52.1425 11.4661 52.7219 11.2425 53.4069 11.2425C54.092 11.2425 54.7042 11.4698 55.1451 11.9171C55.4111 12.1811 55.5969 12.4964 55.7026 12.8667C56.0014 12.6211 56.3184 12.3901 56.6573 12.1848C57.9399 11.4002 59.4157 11.0005 61.0482 11.0005C62.6806 11.0005 64.0434 11.3561 65.2714 12.0564C66.0949 12.5257 66.7982 13.1564 67.3739 13.93C67.9861 13.237 68.7185 12.6504 69.5566 12.1774C70.9704 11.3965 72.5883 11.0005 74.3738 11.0005C75.948 11.0005 77.3691 11.3561 78.5971 12.0564C79.8323 12.7604 80.7943 13.8164 81.4611 15.1876C82.1535 16.5259 82.5033 18.1684 82.5033 20.064Z" fill="white"/>
</svg>
