<svg xmlns="http://www.w3.org/2000/svg" xmlns:xlink="http://www.w3.org/1999/xlink" width="320" height="55">

 <g>
  <title>Layer 1</title>
  <g stroke="null" id="svg_1" data-name="Layer 1">
   <path stroke="null" id="svg_2" fill="#0079c1" d="m134.27367,14.75624l-7.9769,39.30476l1.84402,0l7.9769,-39.30476l-1.84402,0z"/>
   <clipPath stroke="null" transform="translate(-104.615 -80.682) translate(0.00000213623 7.93457e-7) scale(1.48352 1.4587) translate(-0.00000213623 -7.93457e-7)" id="a">
    <path stroke="null" id="svg_3" d="m-104.615,-80.682l425.197,0l0,198.425l-425.197,0l0,-198.425z"/>
   </clipPath>
   <g stroke="null" id="svg_4" fill="#0079c1" clip-path="url(#a)">
    <path stroke="null" id="svg_5" d="m93.63256,15.9728l-2.98188,0c-2.52199,0 -2.67034,2.0028 -2.67034,3.29667l0,11.84467c0,1.29387 0.14835,3.29667 2.67034,3.29667l2.98188,0c2.52199,0 2.67776,-2.0028 2.67776,-3.29667l0,-11.84467c0,-1.29387 -0.15429,-3.29667 -2.67628,-3.29667m-1.48946,16.15805c-0.44209,0 -0.8011,-0.32675 -0.8011,-0.73227c0,-0.00875 0.00445,-0.0175 0.00445,-0.02772l0,-12.41065l0.00445,-0.05251a0.77588,0.7629 0 0 1 0.78923,-0.65204c0.41094,0 0.75215,0.28882 0.7922,0.65204l0.00445,0.05251l0,12.41211l0.00297,0.02917c0,0.40406 -0.35901,0.73081 -0.79665,0.73081m-54.64854,-16.15951l6.8702,0l0,2.29016l-3.26968,0l0,16.14784l-3.60051,0l0,-18.43801zm11.38901,11.51063l0.62011,-9.22338l0.20324,0l0.61715,9.22338l-1.4405,0zm-3.98474,6.92884l3.5204,0l0.33824,-4.90124l1.69863,0l0.33231,4.90124l3.52633,0l-1.88111,-18.43801l-5.65667,0l-1.87814,18.43801zm14.57116,-6.45622l0,3.47025c0,0.47408 0.35605,0.60828 0.56374,0.60828c0.33379,0 0.56522,-0.29174 0.56522,-0.60828l0,-4.28859c0,-0.57765 -0.10088,-1.20781 -1.44347,-1.20781l-1.45979,0l0,-2.02906l1.51319,0c1.02808,0 1.39006,-0.24069 1.39006,-1.36535l0,-3.6701c0,-0.31362 -0.23143,-0.60244 -0.56374,-0.60244c-0.21066,0 -0.56374,0.13128 -0.56374,0.60244l0,3.00785l-3.60496,0l0,-2.6067c0,-1.29095 0.15725,-3.29375 2.67479,-3.29375l2.98633,0c2.52199,0 2.67479,2.0028 2.67479,3.29375l0,2.95242c0,1.99696 -1.36484,2.54981 -2.44633,2.4973l0,0.18671c2.41814,-0.05835 2.44781,1.84088 2.44781,2.50168l0,3.70948c0,1.29387 -0.15429,3.29667 -2.67628,3.29667l-2.98633,0c-2.51754,0 -2.67479,-2.0028 -2.67479,-3.29667l0,-3.15955l3.60348,0.00146zm7.10162,-11.98325l8.33443,0l0,18.43801l-3.36018,0l0,-16.14784l-1.61704,0l0,16.14784l-3.35721,0l0,-18.43801zm14.54298,10.13799l0,-7.84782l0.94649,0c0.39017,0 0.67352,0.3428 0.67352,0.91898l0,6.00986c0,0.58056 -0.28335,0.91898 -0.67352,0.91898l-0.94649,0zm-3.59903,8.30002l3.59903,0l0,-6.26805l2.05765,0c2.52199,0 2.92402,-1.99988 2.92402,-3.29667l0,-5.57954c0,-1.29095 -0.40203,-3.29667 -2.92402,-3.29667l-5.65667,0l0,18.44093zm30.28464,-18.43801l4.68497,0l0,18.43801l-3.60348,0l0,-11.56314l-0.12907,0l-1.8544,11.56314l-2.87803,0l-1.85292,-11.56314l-0.1261,0l0,11.56314l-3.60348,0l0,-18.43801l4.67755,0l2.33803,12.95766l2.34693,-12.95766zm-77.65798,-6.43872c-1.13638,-4.90124 -3.99216,-8.88496 -4.38233,-9.53408c-0.62308,0.91461 -2.89584,4.43008 -4.05298,8.33357a30.75046,30.236 0 0 0 -1.01325,12.0168c0.43467,3.79992 2.06951,7.70195 2.06951,7.70195c0.86786,2.05094 2.16891,4.24337 3.016,5.32135c1.23874,-1.58561 4.09749,-6.31618 4.98464,-12.49525c0.49401,-3.43525 0.5133,-6.44747 -0.62308,-11.34433m-4.38084,22.62011c-0.5578,-1.03568 -1.43012,-3.00493 -1.51319,-6.04924c-0.02077,-2.9495 1.18088,-5.47305 1.53248,-6.0011c0.31451,0.52805 1.34259,2.72632 1.4672,5.7327a13.11879,12.89931 0 0 1 -1.48649,6.31618m4.05447,-14.3055c-0.04451,1.87006 -0.27,3.84222 -0.55929,5.01794c0.10385,-2.0276 -0.14539,-4.89395 -0.62308,-7.13306c-0.47176,-2.23911 -1.82028,-5.97193 -2.89435,-7.70341c-0.98803,1.64542 -2.21193,4.8779 -2.85133,7.68591c-0.64385,2.80509 -0.66313,6.19949 -0.66313,7.22058c-0.17061,-0.86501 -0.59786,-3.91954 -0.47473,-6.99594c0.10088,-2.5396 0.70319,-5.14485 1.03402,-6.34682c1.26099,-4.00414 2.68963,-6.56416 2.95518,-6.9726c0.26703,0.40844 2.06951,3.55924 3.00117,6.87049a31.22816,30.7057 0 0 1 1.07555,8.35691"/>
    <path stroke="null" id="svg_6" d="m18.77844,34.40789l0,5.79543l0.0267,-0.02334a5.28876,5.20028 0 0 1 7.46064,0a5.23684,5.14922 0 0 1 -0.02522,7.33436l0,0.00146a10.55675,10.38013 0 0 1 -7.46212,3.02681a10.55675,10.38013 0 0 1 -7.45322,-3.02243a10.47367,10.29844 0 0 1 0,-14.60162a10.53005,10.35388 0 0 1 7.45322,-3.02243l0,-13.82413c-10.36538,0 -18.77843,8.23292 -18.77843,18.38112c0,10.15695 8.41306,18.38987 18.77843,18.38987a18.75173,18.43801 0 0 0 13.7033,-5.82314l0,-12.61195l-13.7033,0zm57.43608,10.1482l-0.29225,0l0,3.7299l0.29225,0c0.4228,0 0.57561,-0.11815 0.57561,-0.58786l0,-2.57461c0,-0.47116 -0.1528,-0.56889 -0.57561,-0.56889m30.45376,2.49438l-0.4228,0l0,2.08886l0.4228,0c0.42577,0 0.55484,-0.10649 0.55484,-0.56306l0,-0.9642c0,-0.45803 -0.12907,-0.5616 -0.55484,-0.5616m-33.47421,-1.90361l0,2.56294c0,0.4697 0.1528,0.57765 0.57264,0.57765l0.30709,0l0,-3.7299l-0.30709,0c-0.41984,0 -0.57264,0.11961 -0.57264,0.58932m39.29407,-4.59491l-74.99209,0l0,12.29249l74.99209,0l0,-12.29249zm-66.85051,10.00233l-1.90188,0l0,-3.5038l-0.97616,0l0,3.5038l-1.90188,0l0,-8.00536l1.90188,0l0,3.08953l0.97616,0l0,-3.08953l1.90188,0l0,8.00536zm15.7654,-6.49269l-2.60062,0l0,1.57394l2.32765,0l0,1.51705l-2.32913,0l0,1.88756l2.6021,0l0,1.51997l-4.56183,0l0,-8.01849l4.56183,0l0,1.51997zm17.23112,3.63801c0,1.625 -0.83967,2.06261 -2.71188,2.06261l0,0.79208l-1.84847,0l0,-0.79208c-1.87814,0 -2.72968,-0.43761 -2.72968,-2.06261l0,-2.50168c0,-1.63375 0.81594,-2.04948 2.72968,-2.04948l0,-0.59953l1.84847,0l0,0.59807c1.89891,0 2.71188,0.41719 2.71188,2.05094l0,2.50168zm14.62605,-3.63801l-1.4405,0l0,6.49852l-1.8099,0l0,-6.49852l-1.54286,0l0,-1.51997l4.79178,0l0.00148,1.51997zm15.86183,4.42862c0,1.75044 -0.81149,2.06406 -2.87803,2.06406l-1.90039,0l0,-8.00536l1.90188,0l0,3.08953l0.31747,0c1.86776,0 2.55908,0.42886 2.55908,2.0276l0,0.82417z"/>
   </g>
   <symbol stroke="null" id="b">
    <path stroke="null" id="svg_7" d="m0.423,0.571l-0.283,0l0,-0.571l-0.14,0l0,0.69l0.423,0l0,-0.119z"/>
   </symbol>
   <symbol stroke="null" id="c">
    <path stroke="null" id="svg_8" d="m0,0l0.24,0.69l0.134,0l0.24,-0.69l-0.149,0l-0.042,0.131l-0.231,0l-0.042,-0.131l-0.15,0m0.229,0.249l0.156,0l-0.078,0.243l-0.078,-0.243z"/>
   </symbol>
   <symbol stroke="null" id="d">
    <path stroke="null" id="svg_9" d="m0.185,0.426l0.075,0c0.04,0 0.068,0.008 0.085,0.023a0.079,0.079 0 0 1 0.025,0.061a0.077,0.077 0 0 1 -0.023,0.058c-0.015,0.015 -0.042,0.023 -0.08,0.023c-0.037,0 -0.065,-0.008 -0.083,-0.024a0.136,0.136 0 0 1 -0.04,-0.06l-0.123,0a0.201,0.201 0 0 0 0.081,0.147c0.023,0.017 0.048,0.03 0.077,0.04a0.333,0.333 0 0 0 0.183,0.002a0.232,0.232 0 0 0 0.076,-0.034a0.167,0.167 0 0 0 0.072,-0.139a0.159,0.159 0 0 0 -0.024,-0.09a0.201,0.201 0 0 0 -0.066,-0.061a0.182,0.182 0 0 0 0.081,-0.063a0.164,0.164 0 0 0 0.031,-0.102a0.196,0.196 0 0 0 -0.018,-0.085a0.172,0.172 0 0 0 -0.051,-0.065a0.238,0.238 0 0 0 -0.082,-0.042a0.369,0.369 0 0 0 -0.11,-0.015a0.304,0.304 0 0 0 -0.181,0.05a0.241,0.241 0 0 0 -0.09,0.159l0.134,0a0.159,0.159 0 0 1 0.048,-0.069a0.14,0.14 0 0 1 0.084,-0.022c0.084,0 0.126,0.032 0.126,0.095s-0.045,0.095 -0.134,0.095l-0.073,0l0,0.118z"/>
   </symbol>
   <symbol stroke="null" id="e">
    <path stroke="null" id="svg_10" d="m0.53,0.69l0,-0.69l-0.14,0l0,0.571l-0.25,0l0,-0.571l-0.14,0l0,0.69l0.53,0z"/>
   </symbol>
   <symbol stroke="null" id="f">
    <path stroke="null" id="svg_11" d="m0.14,0.243l0,-0.243l-0.14,0l0,0.69l0.247,0c0.08,0 0.142,-0.018 0.188,-0.055c0.047,-0.037 0.07,-0.092 0.07,-0.166c0,-0.073 -0.023,-0.13 -0.069,-0.168a0.282,0.282 0 0 0 -0.189,-0.058l-0.107,0m0.087,0.118c0.049,0 0.084,0.009 0.105,0.026c0.022,0.017 0.033,0.045 0.033,0.082c0,0.033 -0.011,0.059 -0.033,0.076c-0.021,0.017 -0.056,0.026 -0.105,0.026l-0.087,0l0,-0.21l0.087,0z"/>
   </symbol>
   <symbol stroke="null" id="g">
    <path stroke="null" id="svg_12" d="m0.529,0.305a0.421,0.421 0 0 0 -0.02,-0.137a0.259,0.259 0 0 0 -0.054,-0.095a0.217,0.217 0 0 0 -0.084,-0.055a0.308,0.308 0 0 0 -0.107,-0.018a0.308,0.308 0 0 0 -0.107,0.018a0.218,0.218 0 0 0 -0.083,0.055a0.27,0.27 0 0 0 -0.055,0.095a0.442,0.442 0 0 0 -0.019,0.137l0,0.098c0,0.053 0.006,0.099 0.019,0.137c0.013,0.039 0.032,0.07 0.055,0.095a0.204,0.204 0 0 0 0.083,0.055a0.308,0.308 0 0 0 0.107,0.018a0.308,0.308 0 0 0 0.107,-0.018a0.203,0.203 0 0 0 0.084,-0.055a0.248,0.248 0 0 0 0.054,-0.095a0.415,0.415 0 0 0 0.02,-0.137l0,-0.098m-0.389,0c0,-0.066 0.01,-0.114 0.031,-0.143a0.108,0.108 0 0 1 0.093,-0.044c0.04,0 0.072,0.015 0.093,0.044c0.021,0.03 0.032,0.077 0.032,0.143l0,0.098c0,0.066 -0.01,0.114 -0.032,0.143a0.108,0.108 0 0 1 -0.093,0.044a0.108,0.108 0 0 1 -0.093,-0.044c-0.02,-0.03 -0.031,-0.077 -0.031,-0.143l0,-0.098z"/>
   </symbol>
   <symbol stroke="null" id="h">
    <path stroke="null" id="svg_13" d="m0.325,0.314l0.192,0.376l0.133,0l0,-0.69l-0.134,0l0,0.428l-0.15,-0.304l-0.085,0l-0.148,0.301l0,-0.425l-0.133,0l0,0.69l0.131,0l0.194,-0.376z"/>
   </symbol>
   <symbol stroke="null" id="i">
    <path stroke="null" id="svg_14" d="m0.14,0.416l0.239,0l0,0.274l0.14,0l0,-0.69l-0.14,0l0,0.298l-0.239,0l0,-0.298l-0.14,0l0,0.69l0.14,0l0,-0.274z"/>
   </symbol>
   <symbol stroke="null" id="j">
    <path stroke="null" id="svg_15" d="m0.43,0.69l0,-0.119l-0.29,0l0,-0.155l0.26,0l0,-0.118l-0.26,0l0,-0.18l0.29,0l0,-0.118l-0.43,0l0,0.69l0.43,0z"/>
   </symbol>
   <symbol stroke="null" id="k">
    <path stroke="null" id="svg_16" d="m0.28,0.69l0.14,0l0,-0.05c0.04,0 0.077,-0.005 0.111,-0.014a0.207,0.207 0 0 0 0.147,-0.132a0.349,0.349 0 0 0 0.022,-0.133l0,-0.032a0.357,0.357 0 0 0 -0.022,-0.134a0.218,0.218 0 0 0 -0.059,-0.086a0.222,0.222 0 0 0 -0.088,-0.046a0.449,0.449 0 0 0 -0.111,-0.013l0,-0.05l-0.14,0l0,0.05a0.46,0.46 0 0 0 -0.112,0.013a0.231,0.231 0 0 0 -0.089,0.046a0.223,0.223 0 0 0 -0.058,0.086a0.372,0.372 0 0 0 -0.021,0.134l0,0.032c0,0.053 0.007,0.098 0.021,0.133a0.213,0.213 0 0 0 0.058,0.086a0.214,0.214 0 0 0 0.089,0.046a0.43,0.43 0 0 0 0.112,0.014l0,0.05m0.14,-0.522c0.023,0 0.044,0.002 0.061,0.007a0.097,0.097 0 0 1 0.043,0.026a0.112,0.112 0 0 1 0.027,0.049a0.29,0.29 0 0 1 0.009,0.079l0,0.032a0.29,0.29 0 0 1 -0.009,0.079a0.112,0.112 0 0 1 -0.027,0.049a0.09,0.09 0 0 1 -0.043,0.025a0.208,0.208 0 0 1 -0.061,0.008l0,-0.354m-0.14,0.354a0.208,0.208 0 0 1 -0.061,-0.008a0.096,0.096 0 0 1 -0.044,-0.025a0.118,0.118 0 0 1 -0.026,-0.049a0.29,0.29 0 0 1 -0.009,-0.079l0,-0.032a0.29,0.29 0 0 1 0.009,-0.079a0.118,0.118 0 0 1 0.026,-0.049a0.105,0.105 0 0 1 0.044,-0.026a0.236,0.236 0 0 1 0.061,-0.007l0,0.354z"/>
   </symbol>
   <symbol stroke="null" id="l">
    <path stroke="null" id="svg_17" d="m0.52,0.69l0,-0.119l-0.19,0l0,-0.571l-0.14,0l0,0.571l-0.19,0l0,0.119l0.52,0z"/>
   </symbol>
   <symbol stroke="null" id="m">
    <path stroke="null" id="svg_18" d="m0.14,0.69l0,-0.253l0.107,0a0.353,0.353 0 0 0 0.117,-0.017a0.214,0.214 0 0 0 0.08,-0.047a0.173,0.173 0 0 0 0.046,-0.07a0.24,0.24 0 0 0 0,-0.17a0.175,0.175 0 0 0 -0.046,-0.069a0.233,0.233 0 0 0 -0.08,-0.047a0.353,0.353 0 0 0 -0.117,-0.017l-0.247,0l0,0.69l0.14,0m0,-0.371l0,-0.201l0.099,0c0.046,0 0.078,0.009 0.097,0.027c0.02,0.018 0.029,0.042 0.029,0.073c0,0.031 -0.01,0.056 -0.029,0.074c-0.019,0.018 -0.051,0.027 -0.097,0.027l-0.099,0z"/>
   </symbol>
   <symbol stroke="null" id="n">
    <path stroke="null" id="svg_19" d="m0.14,0.248l0.25,0l0,0.572l0.14,0l0,-0.572l0.1,0l0,-0.248l-0.127,0l0,0.13l-0.503,0l0,0.69l0.14,0l0,-0.572z"/>
   </symbol>
   <symbol stroke="null" id="o">
    <path stroke="null" id="svg_20" d="m0.14,0.69l0,-0.433l0.288,0.433l0.112,0l0,-0.69l-0.14,0l0,0.428l-0.285,-0.428l-0.115,0l0,0.69l0.14,0z"/>
   </symbol>
   <symbol stroke="null" id="p">
    <path stroke="null" id="svg_21" d="m0.231,0.69a0.33,0.33 0 0 0 0.187,-0.044c0.043,-0.03 0.065,-0.075 0.065,-0.137a0.159,0.159 0 0 0 -0.025,-0.091a0.16,0.16 0 0 0 -0.066,-0.056a0.174,0.174 0 0 0 0.083,-0.06c0.02,-0.026 0.03,-0.06 0.03,-0.104a0.208,0.208 0 0 0 -0.014,-0.076a0.164,0.164 0 0 0 -0.044,-0.063a0.218,0.218 0 0 0 -0.078,-0.043a0.37,0.37 0 0 0 -0.116,-0.016l-0.253,0l0,0.69l0.231,0m-0.091,-0.572l0.101,0c0.083,0 0.124,0.03 0.124,0.091c0,0.033 -0.011,0.056 -0.033,0.069a0.2,0.2 0 0 1 -0.104,0.021l-0.088,0l0,-0.181m0,0.299l0.093,0c0.039,0 0.067,0.007 0.084,0.021a0.07,0.07 0 0 1 0.026,0.058a0.08,0.08 0 0 1 -0.006,0.032a0.05,0.05 0 0 1 -0.019,0.024a0.1,0.1 0 0 1 -0.038,0.015a0.314,0.314 0 0 1 -0.062,0.005l-0.078,0l0,-0.155z"/>
   </symbol>
   <symbol stroke="null" id="q">
    <path stroke="null" id="svg_22" d="m0.14,0.69l0,-0.253l0.097,0a0.362,0.362 0 0 0 0.118,-0.017a0.214,0.214 0 0 0 0.08,-0.047a0.178,0.178 0 0 0 0.045,-0.07a0.24,0.24 0 0 0 0,-0.17a0.17,0.17 0 0 0 -0.047,-0.069a0.24,0.24 0 0 0 -0.084,-0.047a0.409,0.409 0 0 0 -0.126,-0.017l-0.223,0l0,0.69l0.14,0m0.54,-0.69l-0.14,0l0,0.69l0.14,0l0,-0.69m-0.54,0.319l0,-0.201l0.089,0c0.046,0 0.078,0.009 0.097,0.027c0.02,0.018 0.029,0.042 0.029,0.073c0,0.031 -0.01,0.056 -0.029,0.074c-0.019,0.018 -0.051,0.027 -0.097,0.027l-0.089,0z"/>
   </symbol>
   <symbol stroke="null" id="r">
    <path stroke="null" id="svg_23" d="m0,0z"/>
   </symbol>
   <symbol stroke="null" id="s">
    <path stroke="null" id="svg_24" d="m0.14,0.118l0.189,0l0,0.572l0.14,0l0,-0.572l0.189,0l0,0.572l0.14,0l0,-0.69l-0.798,0l0,0.69l0.14,0l0,-0.572z"/>
   </symbol>
   <symbol stroke="null" id="t">
    <path stroke="null" id="svg_25" d="m0,0l0.16,0.289a0.2,0.2 0 0 0 -0.098,0.069a0.205,0.205 0 0 0 -0.034,0.123c0,0.07 0.023,0.122 0.07,0.157a0.317,0.317 0 0 0 0.191,0.052l0.244,0l0,-0.69l-0.14,0l0,0.271l-0.096,0l-0.143,-0.271l-0.154,0m0.393,0.389l0,0.182l-0.094,0a0.196,0.196 0 0 1 -0.098,-0.02c-0.022,-0.013 -0.033,-0.036 -0.033,-0.07a0.12,0.12 0 0 1 0.006,-0.04a0.064,0.064 0 0 1 0.021,-0.029a0.111,0.111 0 0 1 0.04,-0.017a0.282,0.282 0 0 1 0.064,-0.006l0.094,0z"/>
   </symbol>
   <use stroke="null" x="-9.5121" y="7.33599" id="svg_26" fill="#0079c1" transform="matrix(16.3159 0 0 -16.043 306.037 148.511)" xlink:href="#b"/>
   <use stroke="null" x="-9.5121" y="7.33599" id="svg_27" fill="#0079c1" transform="matrix(16.3159 0 0 -16.043 312.449 148.511)" xlink:href="#c"/>
   <use stroke="null" x="-9.5121" y="7.33599" id="svg_28" fill="#0079c1" transform="matrix(16.3159 0 0 -16.043 323.137 148.655)" xlink:href="#d"/>
   <use stroke="null" x="-9.5121" y="7.33599" id="svg_29" fill="#0079c1" transform="matrix(16.3159 0 0 -16.043 333.856 148.511)" xlink:href="#e"/>
   <use stroke="null" x="-9.5121" y="7.33599" id="svg_30" fill="#0079c1" transform="matrix(16.3159 0 0 -16.043 345.113 148.511)" xlink:href="#f"/>
   <use stroke="null" x="-9.5121" y="7.33599" id="svg_31" fill="#0079c1" transform="matrix(16.3159 0 0 -16.043 354.789 148.655)" xlink:href="#g"/>
   <use stroke="null" x="-9.5121" y="7.33599" id="svg_32" fill="#0079c1" transform="matrix(16.3159 0 0 -16.043 365.688 148.511)" xlink:href="#h"/>
   <use stroke="null" x="-9.5121" y="7.33599" id="svg_33" fill="#0079c1" transform="matrix(16.3159 0 0 -16.043 378.904 148.511)" xlink:href="#i"/>
   <use stroke="null" x="-9.5121" y="7.33599" id="svg_34" fill="#0079c1" transform="matrix(16.3159 0 0 -16.043 389.999 148.511)" xlink:href="#j"/>
   <use stroke="null" x="-9.5121" y="7.33599" id="svg_35" fill="#0079c1" transform="matrix(16.3159 0 0 -16.043 398.581 148.511)" xlink:href="#k"/>
   <use stroke="null" x="-9.5121" y="7.33599" id="svg_36" fill="#0079c1" transform="matrix(16.3159 0 0 -16.043 410.9 148.511)" xlink:href="#l"/>
   <use stroke="null" x="-9.5121" y="7.33599" id="svg_37" fill="#0079c1" transform="matrix(16.3159 0 0 -16.043 421.016 148.511)" xlink:href="#m"/>
   <use stroke="null" x="-9.5121" y="7.33599" id="svg_38" fill="#0079c1" transform="matrix(16.3159 0 0 -16.043 306.037 168.965)" xlink:href="#n"/>
   <use stroke="null" x="-9.5121" y="7.33599" id="svg_39" fill="#0079c1" transform="matrix(16.3159 0 0 -16.043 318.079 166.88)" xlink:href="#o"/>
   <use stroke="null" x="-9.5121" y="7.33599" id="svg_40" fill="#0079c1" transform="matrix(16.3159 0 0 -16.043 329.091 166.88)" xlink:href="#k"/>
   <use stroke="null" x="-9.5121" y="7.33599" id="svg_41" fill="#0079c1" transform="matrix(16.3159 0 0 -16.043 342.716 166.88)" xlink:href="#f"/>
   <use stroke="null" x="-9.5121" y="7.33599" id="svg_42" fill="#0079c1" transform="matrix(16.3159 0 0 -16.043 352.392 167.024)" xlink:href="#g"/>
   <use stroke="null" x="-9.5121" y="7.33599" id="svg_43" fill="#0079c1" transform="matrix(16.3159 0 0 -16.043 363.29 166.88)" xlink:href="#p"/>
   <use stroke="null" x="-9.5121" y="7.33599" id="svg_44" fill="#0079c1" transform="matrix(16.3159 0 0 -16.043 373.569 166.88)" xlink:href="#q"/>
   <use stroke="null" x="-9.5121" y="7.33599" id="svg_45" fill="#0079c1" transform="matrix(16.3159 0 0 -16.043 387.274 166.88)" xlink:href="#j"/>
   <use stroke="null" x="-9.5121" y="7.33599" id="svg_46" fill="#0079c1" transform="matrix(16.3159 0 0 -16.043 394.958 166.88)" xlink:href="#r"/>
   <use stroke="null" x="-9.5121" y="7.33599" id="svg_47" fill="#0079c1" transform="matrix(16.3159 0 0 -16.043 400.343 166.88)" xlink:href="#f"/>
   <use stroke="null" x="-9.5121" y="7.33599" id="svg_48" fill="#0079c1" transform="matrix(16.3159 0 0 -16.043 410.362 166.88)" xlink:href="#j"/>
   <use stroke="null" x="-9.5121" y="7.33599" id="svg_49" fill="#0079c1" transform="matrix(16.3159 0 0 -16.043 419.352 166.88)" xlink:href="#s"/>
   <use stroke="null" x="-9.5121" y="7.33599" id="svg_50" fill="#0079c1" transform="matrix(16.3159 0 0 -16.043 434.982 166.88)" xlink:href="#j"/>
   <use stroke="null" x="-9.5121" y="7.33599" id="svg_51" fill="#0079c1" transform="matrix(16.3159 0 0 -16.043 443.972 166.88)" xlink:href="#i"/>
   <use stroke="null" x="-9.5121" y="7.33599" id="svg_52" fill="#0079c1" transform="matrix(16.3159 0 0 -16.043 455.068 166.88)" xlink:href="#o"/>
   <use stroke="null" x="-9.5121" y="7.33599" id="svg_53" fill="#0079c1" transform="matrix(16.3159 0 0 -16.043 465.59 166.88)" xlink:href="#t"/>
  </g>
 </g>
</svg>