<svg width="120" height="38" viewBox="0 0 120 38" fill="none" xmlns="http://www.w3.org/2000/svg">
						<path d="M107.078 21.5779L109.587 15.7461L112.034 21.5779H107.078ZM109.795 8.0606H109.268L99.2308 29.9394H103.48L105.555 25.1184H113.62L115.694 29.9394H120L109.795 8.0606Z" fill="#202020"></path>
						<path d="M85.3996 19.5254L75.6103 8.0606H75V29.9394H79.3278V18.5022L85.3846 25.3082L91.5008 18.2685V29.9394H95.7692V8.0606H95.2946L85.3996 19.5254Z" fill="#202020"></path>
						<path d="M54.2308 29.9394H58.508V12.0212H69.2308V8.0606H54.2308V29.9394Z" fill="#202020"></path>
						<path d="M35.2602 20.8983L35.2599 8.70261H31.1538V29.9394H31.5311L44.3847 17.063V29.0682H48.4615V8.06235L48.0915 8.0606L35.2602 20.8983Z" fill="#202020"></path>
						<path d="M12.7271 23.8049L17.1864 18.9996L12.6783 14.1424L9.82198 11.0648L0 0.482296L0.215166 0H29.3544V4.12889H9.54693L13.8287 8.89341L16.9253 12.3396L22.9091 18.9996L16.9917 25.5857L13.8804 29.0485L9.54657 33.8715H29.3544V38H0.215524L0.000716827 37.5177L9.87075 26.8828L12.7271 23.8049Z" fill="#0050D7"></path>
						<path d="M12.3639 23.2592C12.383 23.2771 12.4038 23.2915 12.4228 23.3091C13.1635 23.8988 15.0551 25.0783 16.6967 25.0783C16.9274 25.0952 17.1628 25.105 17.4036 25.105C19.6434 25.105 21.5291 24.5309 23.0619 23.3454V27.5288C21.3821 28.5103 19.4367 29.0014 17.1966 29.0014C15.8996 29.0014 14.6953 28.8382 13.5786 28.5184C11.8527 28.132 10.1806 26.9231 9.56029 26.3669C9.44241 26.2666 9.32561 26.1649 9.21097 26.0591C7.0884 24.0679 6.02748 21.5579 6.02748 18.5012C6.02748 15.4139 7.0884 12.9039 9.18114 10.9434C9.28931 10.8432 9.40001 10.7475 9.51142 10.6525C9.94614 10.2293 11.3578 9.20535 13.5269 8.49533C14.6608 8.16781 15.8834 8.00142 17.1966 8.00142C19.2301 8.00142 21.0277 8.43341 22.649 9.26997V13.4534C21.0579 12.4135 19.2599 11.8947 17.2272 11.8947C17.0234 11.8947 16.8261 11.9056 16.6302 11.9189C14.5338 11.9189 12.9192 13.1129 12.374 13.7099C12.3513 13.7303 12.3276 13.7475 12.3053 13.7683C11.0086 15.0097 10.3607 16.5689 10.3607 18.5012C10.3607 20.4336 11.0377 22.0209 12.3639 23.2592Z" fill="#202020"></path>
					</svg>