<?xml version="1.0" encoding="utf-8"?>
<!-- Generator: Adobe Illustrator 27.2.0, SVG Export Plug-In . SVG Version: 6.00 Build 0)  -->
<svg version="1.1" id="Слой_1" xmlns="http://www.w3.org/2000/svg" x="0px"
	 y="0px"
	 viewBox="0 0 256 256" style="enable-background:new 0 0 256 256;" xml:space="preserve">
<style type="text/css">
	.st0{fill:#FFFFFF;}
</style>
	<g>
	<path class="st0" d="M22,114.2c0.1-14,4.6-23.9,12.8-32.1c7.3-7.3,16.1-10.4,26.3-8.6c7.7,1.3,15.4,2.6,22.8,4.7
		c7.1,2,14.1,2.5,21.3,1.1c5.5-1,11.1-2.3,16.4-4c7.6-2.4,13.2-7.5,16.8-14.7c2-4.1,4.2-8.2,5.7-12.5c2.9-8.2,8.8-12,17-12.7
		c3.5-0.3,7.1-0.2,10.5,0.5c6.5,1.3,11.3,5.3,13.1,11.8c1.6,5.6,2.7,11.4,3.7,17.2c1.1,6.6,3.1,12.8,6.2,18.6
		c3.8,7.2,10,11.5,17.7,13.5c2,0.5,4.4,0.1,6.5-0.5c4.7-1.4,8.9-1,12.2,2.7c3.4,3.8,3.9,8.3,1.9,13c-5.2,12.4-17.5,19.6-30.7,17.9
		c-2.4-0.3-4.8-1.4-7.1-2.5c-5.7-2.9-11.3-6.1-17-9c-8.1-4.2-16.4-7.9-25.4-9.5c-10.2-1.7-20.2-0.3-30.2,1.6
		c-6.5,1.3-13,2.7-19.5,3.8c-9.4,1.6-18.6-0.2-27.7-2c-4.6-0.9-9.1-1.9-13.7-2.6c-4.3-0.7-8.7,2.1-10.3,6.3
		c-1.8,4.9-0.7,9.7,3.4,11.9c11.5,6.2,23.6,9.7,36.7,5.4c7-2.3,13.9-4.8,20.7-7.3c5.1-1.9,10.3-2,15.6-1.1c6.2,1,10.7,4.4,13.4,10.1
		c4.1,8.5,5.3,17.2,3,26.5c-3,12.1-5.6,24.4-8.3,36.6c-0.4,1.9-0.5,3.8-0.8,5.7c-1.2,6.2,0.7,11.5,4.9,16c3.7,3.9,7.4,7.7,11.6,11.1
		c6.2,5,5.2,13.5-1.6,17.3c-7.8,4.3-16,4.6-23.6,0c-9.6-5.8-17.2-13.9-22.2-23.9c-2.7-5.3-3.3-11.7-4.7-17.6
		c-1.3-5.4-2.2-10.9-3.7-16.3c-2.3-8.1-7-14.7-14.2-19.1c-6.4-3.9-13-7.3-19.7-10.7c-4.2-2.1-8.6-3.9-13-5.8
		c-13.5-5.8-21.7-16-24.9-30.2C22.7,120.7,22.3,116.4,22,114.2z"/>
		<path class="st0" d="M155,196.6c0.6-10.6,2.8-22.4,5.3-34.2c1-4.7,2.1-9.4,3.5-14c2.2-7.5,10.1-12.2,17.7-10.7
		c8.6,1.7,16.7,4.5,23,11.2c6.8,7.3,8.6,16.9,3.9,25.7c-2.6,4.9-5.6,9.6-8.6,14.3c-4.7,7.2-8.4,14.8-10.9,23.1
		c-0.8,2.8-2,5.6-3.3,8.2c-2.9,5.4-7.3,6.8-12.9,4.5C162.8,220.7,154.9,208.8,155,196.6z"/>
		<path class="st0" d="M66.9,31.3c0.8-3.6,1.2-7.4,2.4-10.9c2.7-7.6,8.1-12.6,16-14.7c6.8-1.8,13.6-1.8,20.3,0.3
		c12.6,3.9,19,14.7,18.3,28c-0.9,17.1-18.6,28.3-34.7,24.4c-0.7-0.2-1.3-0.3-2-0.4C73.9,54.7,67.4,46,66.9,31.3z"/>
</g>
</svg>
