<svg width="72" height="99" viewBox="0 0 72 99" fill="none" xmlns="http://www.w3.org/2000/svg">
<g clip-path="url(#clip0_1680_5014)">
<mask id="mask0_1680_5014" style="mask-type:luminance" maskUnits="userSpaceOnUse" x="0" y="0" width="72" height="99">
<path d="M72 0H0V98.2588H72V0Z" fill="white"/>
</mask>
<g mask="url(#mask0_1680_5014)">
<path d="M8.80941 87.7553C8.80941 86.5694 7.79294 85.7223 6.60706 85.7223H3.21882V89.7882H6.60706C7.96235 89.7882 8.80941 88.9412 8.80941 87.7553ZM0 82.8423H7.11529C10.3341 82.8423 12.1976 85.0447 12.1976 87.7553C12.1976 90.2965 10.3341 92.6682 7.11529 92.6682H3.21882V98.0894H0V82.8423Z" fill="black"/>
<path d="M21.8541 92.4988C21.8541 90.8047 20.8377 89.28 18.9741 89.28C17.1106 89.28 16.2636 90.8047 16.2636 92.4988C16.2636 94.1929 17.28 95.7177 18.9741 95.7177C20.6683 95.7177 21.8541 94.1929 21.8541 92.4988ZM13.3835 92.4988C13.3835 89.4494 15.5859 86.7388 19.1436 86.7388C22.7012 86.7388 24.9036 89.28 24.9036 92.4988C24.9036 95.5482 22.7012 98.2588 19.1436 98.2588C15.5859 98.2588 13.3835 95.5482 13.3835 92.4988Z" fill="black"/>
<path d="M26.7671 92.4988C26.7671 89.1106 29.1389 86.7388 32.5272 86.7388C34.7295 86.7388 36.0848 87.7553 36.9319 88.7718L35.0683 90.4659C34.5601 89.6188 33.713 89.28 32.6966 89.28C31.0024 89.28 29.6471 90.4659 29.6471 92.4988C29.6471 94.5318 30.833 95.7177 32.6966 95.7177C33.713 95.7177 34.5601 95.2094 35.0683 94.5318L36.9319 96.2259C36.2542 97.2424 34.8989 98.2588 32.5272 98.2588C29.1389 98.2588 26.7671 95.8871 26.7671 92.4988Z" fill="black"/>
<path d="M41.6754 97.92V89.4494H38.626V87.0776H47.6048V89.4494H44.5554V97.92H41.6754Z" fill="black"/>
<path d="M54.3811 89.1106C52.5175 89.1106 51.8399 90.4659 51.6705 91.4824H57.0917C57.0917 90.4659 56.2446 89.1106 54.3811 89.1106ZM48.7905 92.4988C48.7905 89.28 51.1622 86.7388 54.3811 86.7388C57.5999 86.7388 59.8022 89.1106 59.8022 92.8377V93.5153H51.6705C51.8399 94.8706 53.0258 96.0565 54.8893 96.0565C55.7364 96.0565 57.0917 95.7177 57.7693 95.04L58.9552 96.9035C57.9387 97.92 56.0752 98.4282 54.3811 98.4282C51.3317 98.2588 48.7905 96.0565 48.7905 92.4988Z" fill="black"/>
<path d="M68.7812 97.92L66.24 94.1929L63.6988 97.92H60.48L64.3765 92.3294L60.8188 87.0776H64.0377L66.24 90.4659L68.4424 87.0776H71.6612L68.1035 92.3294L72 97.92H68.7812Z" fill="black"/>
<path d="M62.3436 33.5435V9.31765H38.2871L47.6048 0H71.6613V24.0565L62.3436 33.5435Z" fill="black"/>
<path d="M71.6613 71.6612H47.6048L38.2871 62.3435H62.3436V38.2871L71.6613 47.6047V71.6612Z" fill="black"/>
<path d="M0 24.0565V0H24.0565L33.5435 9.31765H9.48706V33.5435L0 24.0565Z" fill="black"/>
<path d="M0 47.6047L9.48706 38.2871V62.3435H33.3741L24.0565 71.6612H0V47.6047Z" fill="black"/>
</g>
</g>
<defs>
<clipPath id="clip0_1680_5014">
<rect width="72" height="99" fill="white"/>
</clipPath>
</defs>
</svg>
