<?xml version="1.0" encoding="utf-8"?>
<!-- Generator: Adobe Illustrator 25.4.1, SVG Export Plug-In . SVG Version: 6.00 Build 0)  -->
<svg version="1.1" id="Layer_1" xmlns="http://www.w3.org/2000/svg" xmlns:xlink="http://www.w3.org/1999/xlink" x="0px" y="0px"
	 viewBox="0 0 585.4 560.4" style="enable-background:new 0 0 585.4 560.4;" xml:space="preserve">
<style type="text/css">
	.st0{fill:#456DB1;}
	.st1{fill:#4F6DB1;}
	.st2{fill-rule:evenodd;clip-rule:evenodd;fill:#456DB1;}
</style>
<g>
	<g>
		<path class="st0" d="M154.3,290.4c0.2-5.3,1-9.7,2.4-13.3c1.6-3.7,3.7-6.9,6.5-9.4l10.9-10l-9.1-9.4c-4.3-4.9-6.5-12.4-6.5-22.4
			v-35.1c0.2-7.7,1.7-14.5,4.4-20.4c2.8-6.1,6.7-11.1,11.8-15l2.5-1.7c5.1-3.3,7.7-4.4,13.2-6.5c5.5-2.2,10.8-3.2,15.9-3.2h31
			c4.9,0,10.1,1.1,15.6,3.2c5.5,2.2,8.4,3.4,13.5,6.8l2.1,1.5c5.1,3.7,9,8.7,11.8,14.7c2.8,5.9,4.1,12.8,4.1,20.6v35.1
			c0,9.6-2.2,17.1-6.5,22.4l-8.8,9.7l10.9,10c5.9,4.7,8.8,12.2,8.8,22.4v40.4c0,15.9-5.3,27.8-15.9,35.7c-5.1,3.7-10.4,6.7-15.9,8.8
			c-5.3,2-10.5,2.9-15.6,2.9h-39.8c-5.1,0-10.4-1-15.9-2.9c-5.3-2.2-10.5-5.1-15.6-8.8c-10.4-7.7-15.6-19.6-15.6-35.7v-40.4H154.3z
			 M193.2,223.4c0,5.1,1.5,9.7,4.4,13.9c2.9,3.9,8.2,5.9,15.6,5.9h16.2c7.5,0,12.7-2,15.6-5.9c2.9-4.1,4.4-8.8,4.4-13.9v-30.1
			c0-4.9-1.6-9.4-4.7-13.6c-2.9-4.1-8.1-6.2-15.3-6.2h-16.2c-7.3,0-12.5,2.1-15.6,6.2c-3,4.1-4.4,8.7-4.4,13.6V223.4z M189.1,328.4
			c0,5.1,1.5,9.7,4.4,13.9c2.9,4.1,8.1,6.2,15.3,6.2h25.1c7.3,0,12.4-2.1,15.3-6.2c2.9-4.1,4.4-8.8,4.4-13.9v-35.7
			c0-2.4-0.3-4.7-0.9-7.1c-0.6-2.6-1.7-4.7-3.2-6.5c-1.4-2-3.3-3.5-5.9-4.7c-2.6-1.2-5.8-1.8-9.7-1.8h-25.1c-3.9,0-7.2,0.6-9.7,1.8
			c-2.6,1.2-4.6,2.8-6.2,4.7c-1.4,1.8-2.4,3.9-2.9,6.5c-0.6,2.4-0.9,4.7-0.9,7.1L189.1,328.4L189.1,328.4z"/>
		<path class="st0" d="M349.3,378.4c-5.1,0-10.4-1-15.9-3c-5.3-2.2-10.5-5.1-15.6-8.9c-10.4-7.7-15.6-19.6-15.6-35.7v-20.1
			c0-9.2,5.8-13.9,17.4-13.9c11.4,0,17.1,4.6,17.1,13.9v17.7c0,5.1,1.5,9.7,4.4,13.9c3.1,4.1,8.4,6.2,15.6,6.2h19.2
			c7.3,0,12.4-2.1,15.3-6.2c3.1-4.1,4.7-8.8,4.7-13.9v-43.6c0-7.5-0.5-12.3-4.4-16.3c-2.9-4.3-8.2-6.5-15.6-6.5h-52.5
			c-5.9,0-10.5-1.3-13.9-3.8c-3.1-2.6-4.7-7-4.7-13.3v-83.5c0-11.9,10.1-17.7,18.6-17.7h94.4c7.3,0,11.5,2.3,11.5,14.8
			s-3.4,15.1-11.5,15.1h-77.9v59h43.7c10.2,0,21.8,1.1,32.9,11.3c9.1,8.4,14.3,19.2,14.3,35.9v51.1c0,8.3-1.4,15.3-4.1,21.2
			c-2.8,5.7-6.7,10.5-11.8,14.5c-5.1,3.7-10.4,6.7-15.9,8.9c-5.3,2-10.4,3-15.3,3h-34.4V378.4z"/>
	</g>
</g>
<g>
	<g>
		<path class="st0" d="M329.5,410.3c-2.5,0-3.6-1.5-3.5-4.5c0-3,1.1-4.5,3.5-4.5h40.6c2.4,0,3.5,1.5,3.5,4.5c0.1,3-1,4.5-3.5,4.5
			h-12.9c-1.2,0-2.2,1-2.2,2.2c0,0,0,40,0,42.8s-2.5,4-5.2,4c-2.9,0-5.2-1.3-5.2-4c0-1.5,0-42.8,0-42.8c0-1.2-1-2.2-2.2-2.2H329.5z"
			/>
		<path class="st0" d="M272.1,416.5c0-7.7,4-12.7,11.2-14.6c1.4-0.4,2.9-0.6,4.1-0.6h15.3c3.1,0,6.6,1.1,9.2,2.9
			c4.1,2.8,6.1,6.8,6.1,12.2v12.3c0,3.8-2.4,5.6-6,5.6h-20.6c-2.3,0-3.5-1.5-3.6-4.5c0-3,1.2-4.5,3.6-4.5h16l0.1-5.5V416
			c-0.3-3.6-3-5.7-6.5-5.7h-11.8c-3.5,0-6.5,2.2-6.5,5.7s0,28,0,28c0.3,3.6,3,5.7,6.5,5.7H301c3.5,0,6.2-2.1,6.5-5.7v-1.8
			c0.3-2.6,2-3.8,5.2-3.8s5.2,1.7,5.2,3.8c0,1.2,0,2,0,2c-0.4,8.5-7,14.5-15.3,14.5h-15.2c-8.7,0-15.3-6.3-15.3-15.2V416.5z"/>
		<path class="st0" d="M259.8,406.6v47.5c0,3.1-1.7,4.6-5.2,4.6s-5.2-1.5-5.2-4.6v-44.4h-13.3l-14.9,45.9c-0.7,2.1-2,3.1-3.9,3.1
			c-0.8,0-1.5-0.2-2.5-0.5c-2.7-0.9-3.9-2.2-3.9-4.2c0-0.5,0.1-1,0.3-1.7l14.2-43.7c1.1-3.1,2.2-5.1,3.1-5.8c1.4-1.4,4-2.1,7.6-2.1
			h18.1C257.3,400.7,259.8,402.2,259.8,406.6z"/>
	</g>
</g>
<g>
	<g>
		<path class="st1" d="M331.1,543.9v-47.3c0-12.8,8.3-15.8,16-15.8h21.7c12.9,0,16,9.1,16,15.8v47.3c0,5.4-1.8,9.4-5.4,12
			c-3.4,2.6-7.2,4-10.6,4h-21.7c-3.5,0-7.2-1.5-10.6-4C332.9,553.2,331.1,549.5,331.1,543.9z M349.6,490.9c-4.9,0-6.7,3.4-6.7,6.7
			v45.5c0,3.5,1.8,6.8,6.7,6.8h16.7c4.9,0,6.7-3.3,6.7-6.8v-45.6c0-3.3-1.8-6.7-6.7-6.7h-16.7V490.9z"/>
		<path class="st1" d="M263,486.8c0-4.1,2.2-6,6.3-6h41.1c4.1,0,6.3,1.9,6.3,6v68.8c0,3.2-2,4.8-5.9,4.8s-5.9-1.6-5.9-4.8v-64.8
			h-30.2v64.8c0,3.2-2,4.8-5.9,4.8s-5.9-1.6-5.9-4.8v-68.8H263z"/>
		<path class="st1" d="M200.2,555.9c-3.5-2.7-5.4-6.5-5.4-12v-47.3c0-5.3,1.7-15.8,16-15.8h21.7c5.9,0,16-0.2,16,15.8v6.9
			c0,3.2-2,4.8-6,4.8c-3.9,0-5.9-1.6-5.9-4.8v-6c0-3.3-1.8-6.7-6.7-6.7h-16.5c-4.9,0-6.7,3.4-6.7,6.7v45.6c0,3.5,1.8,6.8,6.7,6.8
			h16.7c4.9,0,6.7-3.3,6.7-6.8v-5.8c0-3.1,2-4.7,5.9-4.7c4,0,6,1.6,6,4.7v6.6c0,5.4-1.8,9.4-5.4,12c-3.4,2.6-7.2,4-10.6,4H211
			C207.4,559.9,203.7,558.4,200.2,555.9z"/>
	</g>
</g>
<g>
	<g>
		<path class="st0" d="M467.9,526.8c-11.8-17.7-31.6-16.5-46.2-10c8.5-13.7,12.2-33.1-3.8-47.3l-0.9,0.6c-1.5,1.2-2.9,2.4-4.3,3.6
			c-7.2,6.9-11.4,16.4-11.7,26.4c-0.3,10,3.3,19.7,10.1,27.1c6.8,7.4,16.2,11.8,26.1,12.3c10,0.5,19.8-2.9,27.3-9.5l0.2-0.2l0.3-0.3
			C466.1,528.7,467,527.8,467.9,526.8z"/>
		<path class="st0" d="M506,492c-14.7-15.4-34.1-10.8-47.3-1.7c6-14.9,6.3-34.7-11.9-45.9l-0.7,0.7c-1.3,1.4-2.5,2.8-3.6,4.3
			c-5.6,8.1-7.9,18-6.4,27.8c1.5,9.7,6.8,18.5,14.6,24.5c7.8,6,17.7,8.7,27.5,7.6c9.8-1.1,18.8-5.9,25.1-13.4l0.2-0.2l0.3-0.4
			C504.5,494.2,505.3,493.1,506,492z"/>
		<path class="st0" d="M537.6,450.2c-17.2-12.6-35.4-4.7-46.9,6.5c3.3-15.8,0.2-35.3-19.7-43.1c-0.2,0.3-0.4,0.6-0.6,0.9
			c-1,1.6-1.9,3.2-2.8,4.8c-4.4,9-5.1,19.3-2,28.8s9.9,17.4,18.7,22c8.9,4.6,19.2,5.6,28.8,2.6c9.6-2.9,17.6-9.5,22.4-18.2l0.1-0.3
			l0.2-0.4C536.6,452.7,537.1,451.5,537.6,450.2z"/>
		<path class="st0" d="M561.9,404.5c-19.1-9.4-35.7,1.5-45.1,14.5c0.5-16.1-5.9-34.8-26.8-39c-0.2,0.3-0.3,0.7-0.5,1
			c-0.7,1.8-1.4,3.5-1.9,5.2c-2.7,9.6-1.6,19.9,3.1,28.7c4.7,8.8,12.7,15.4,22.2,18.3c9.5,3,19.8,2.1,28.7-2.4s15.7-12.3,18.9-21.8
			l0.1-0.3l0.2-0.4C561.2,407.1,561.6,405.8,561.9,404.5z"/>
		<path class="st0" d="M578.3,356.1c-20.3-6.5-35.1,6.7-42.5,20.9c-1.9-16-11-33.5-32.2-34.7c-0.1,0.3-0.2,0.7-0.3,1
			c-0.4,1.9-0.8,3.7-1.1,5.4c-1.3,9.9,1.4,19.9,7.3,27.8c6,8,14.8,13.3,24.7,14.9c9.8,1.6,19.9-0.8,28-6.5s13.7-14.4,15.6-24.2
			l0.1-0.3l0.1-0.5C578.1,358.7,578.3,357.4,578.3,356.1z"/>
		<path class="st0" d="M585.1,305.1c-21.1-2.8-33.3,12.8-38.1,28.1c-4.7-15.4-16.8-31.1-37.9-28.4c0,0.4-0.1,0.7-0.1,1.1
			c-0.1,1.9-0.2,3.8-0.2,5.6c0.4,10,4.7,19.5,12,26.3c7.3,6.9,17,10.6,27,10.4s19.5-4.3,26.6-11.5c7-7.2,10.9-16.8,10.9-26.8v-0.7
			C585.4,307.7,585.3,306.4,585.1,305.1z"/>
		<path class="st0" d="M583.1,253.1c-21.3,1.1-30.4,18.6-32.3,34.6c-7.4-14.3-22.1-27.5-42.4-21.1c0,0.4,0,0.7,0,1.1
			c0.3,1.9,0.5,3.7,0.9,5.5c2.3,9.7,8.2,18.2,16.6,23.6c8.4,5.4,18.6,7.3,28.4,5.3c9.8-2,18.4-7.8,24-16c5.6-8.3,7.7-18.4,6-28.2
			v-0.3l-0.1-0.5C583.9,255.6,583.5,254.4,583.1,253.1z"/>
		<path class="st0" d="M572.3,203.8c-20.9,4.3-27.2,23-26.7,39.1c-9.5-13-26.1-23.8-45.2-14.4c0.1,0.3,0.2,0.7,0.2,1
			c0.5,1.8,1.1,3.6,1.7,5.3c3.8,9.2,10.9,16.6,20.1,20.6c9.1,4,19.4,4.3,28.8,0.8c9.3-3.5,17-10.5,21.2-19.5
			c4.3-9,4.9-19.3,1.7-28.7l-0.1-0.3l-0.2-0.4C573.4,206.2,572.9,205,572.3,203.8z"/>
		<path class="st0" d="M552.2,157c-19.5,8.6-21.8,28.3-17.9,43.8c-12-10.7-30.5-17.8-47.2-4.5l0.4,1c0.9,1.7,1.8,3.3,2.8,4.8
			c5.6,8.3,14.2,14.1,24,16.1s20,0.2,28.4-5.2s14.4-13.8,16.7-23.6c2.3-9.7,0.6-20-4.5-28.5l-0.1-0.3l-0.3-0.4
			C553.7,159.1,552.9,158.1,552.2,157z"/>
		<path class="st0" d="M524.2,113.9c-17.7,11.8-16.5,31.6-10,46.2c-13.7-8.5-33.1-12.2-47.2,3.8c0.2,0.3,0.4,0.6,0.6,0.9
			c1.2,1.5,2.4,2.9,3.6,4.3c7,7.1,16.4,11.3,26.4,11.5c9.9,0.3,19.6-3.3,26.9-10.1c7.3-6.7,11.7-16.1,12.3-26s-2.7-19.7-9.3-27.2
			l-0.2-0.2l-0.3-0.4C526.2,115.7,525.2,114.8,524.2,113.9z"/>
		<path class="st0" d="M489.5,76c-15.4,14.8-10.8,34.1-1.7,47.3c-14.9-6-34.7-6.3-45.9,11.9c0.3,0.2,0.5,0.5,0.7,0.7
			c1.4,1.2,2.8,2.4,4.3,3.6c8.1,5.9,18.2,8.5,28.1,7.1s18.9-6.7,25-14.6c6.1-8,8.8-18,7.6-28c-1.2-10-6.3-19-14.2-25.3l-0.2-0.2
			l-0.4-0.3C491.7,77.5,490.6,76.7,489.5,76z"/>
		<path class="st0" d="M449.1,45.1c-12.6,17.2-4.7,35.4,6.5,46.9c-15.8-3.3-35.3-0.2-43.1,19.7c0.3,0.2,0.6,0.4,0.9,0.6
			c1.6,1,3.2,1.9,4.8,2.8c9,4.3,19.3,5,28.7,1.8s17.3-9.9,21.9-18.7s5.5-19.1,2.7-28.7c-2.9-9.5-9.4-17.6-18.1-22.4l-0.2-0.1
			l-0.4-0.2C451.5,46.2,450.3,45.6,449.1,45.1z"/>
		<path class="st0" d="M403.4,21.3c-9.4,19.1,1.5,35.6,14.5,45.1c-16.1-0.5-34.8,5.9-39,26.8c0.3,0.2,0.6,0.3,1,0.5
			c1.8,0.7,3.5,1.3,5.2,1.9c9.6,2.7,19.9,1.6,28.7-3.1c8.8-4.7,15.4-12.7,18.3-22.2c3-9.5,2.1-19.8-2.4-28.7s-12.3-15.7-21.8-18.9
			l-0.3-0.1l-0.4-0.2C405.9,21.9,404.6,21.6,403.4,21.3z"/>
		<path class="st0" d="M353.9,6c-5.9,20.4,7.6,34.9,22.1,41.9c-15.9,2.3-33.2,11.9-33.8,33.2l1,0.3c1.9,0.4,3.7,0.7,5.4,1
			c9.9,1,19.8-1.9,27.6-8.1c7.8-6.2,12.9-15.2,14.1-25c1.3-9.9-1.3-19.8-7.3-27.8c-5.9-8-14.8-13.3-24.6-14.9h-0.3l-0.5-0.1
			C356.5,6.1,355.2,6,353.9,6z"/>
		<path class="st0" d="M303,0.8c-2.3,21.2,13.6,33,29,37.4c-15.3,5-30.7,17.5-27.5,38.6c0.4,0,0.7,0.1,1.1,0.1c1.9,0,3.8,0.1,5.5,0
			c9.9-0.7,19.2-5.3,25.8-12.8c6.6-7.5,10.1-17.2,9.6-27.2s-4.8-19.3-12-26.2c-7.3-6.8-16.9-10.6-26.9-10.4h-0.8
			C305.6,0.4,304.3,0.6,303,0.8z"/>
	</g>
</g>
<path class="st2" d="M158.5,549.3C110.4,524.8,70,487.2,42,441S-0.5,341.6,0,287.5C1.7,128.4,131,0.4,289.8,0v76.7
	c-8.7,0-18.3,0.2-27.4,0.7c-0.3,0-0.6,0-0.8-0.1c-0.5-0.1-1-0.3-1.5-0.6c-0.6-0.4-1.1-0.8-1.5-1.4c-8.4-10.9-12.2-15-20.1-25.6
	c-1.5-2.1-2.8-2.9-5.3-2.4c-24.6,5.8-48.2,15.3-69.9,28.2c-1.8,1.4-2.2,2.8-1.9,5.2c1.8,13.2,1.9,18.8,3.3,32.4c0,0.3,0,0.8,0,1.2
	c0,0.7-0.2,1.5-0.6,2.1c-0.2,0.3-0.4,0.5-0.7,0.8c-15.6,13.3-30.2,27.5-43.9,42.8c-0.5,0.4-1.2,0.7-1.8,0.9s-1.4,0.2-2.1,0.1
	c-13.6-1.8-19.2-1.9-32.4-4c-2.4-0.4-3.9,0-5.3,1.9c-13.3,21.4-23.2,44.6-29.5,69c-0.5,2.6,0.1,4,2.2,5.6
	c10.6,8.1,14.6,11.9,25.3,20.6c1.2,0.8,2,2.1,1.9,3.6c-1.6,20.5-1.7,40.9-0.6,61.4c-0.1,0.7-0.3,1.3-0.7,1.9
	c-0.4,0.6-0.8,1.1-1.4,1.5c-10.9,8.4-15,12.2-25.7,20.1c-2.1,1.5-2.9,2.9-2.4,5.4c5.8,24.5,15.3,48,28.2,69.7
	c1.4,1.8,2.8,2.2,5.2,1.9c13.2-1.8,18.8-1.9,32.4-3.3c0.7-0.1,1.4-0.1,2,0.1c0.7,0.1,1.3,0.5,1.8,1c13.4,15.6,27.8,30.3,43.1,44
	c0.4,0.5,0.7,1.2,0.9,1.8c0.2,0.7,0.2,1.4,0.1,2c-1.8,13.6-1.9,19.2-4,32.4c-0.4,2.4,0,3.9,1.8,5.2c5.9,3.7,11.9,7.1,18.1,10.2
	L158.5,549.3z"/>
</svg>
