<?xml version="1.0" encoding="utf-8"?>
<!-- Generator: Adobe Illustrator 27.2.0, SVG Export Plug-In . SVG Version: 6.00 Build 0)  -->
<svg version="1.1" id="Layer_1" xmlns="http://www.w3.org/2000/svg" xmlns:xlink="http://www.w3.org/1999/xlink" x="0px" y="0px"
	 viewBox="0 0 800 800" style="enable-background:new 0 0 800 800;" xml:space="preserve">
<style type="text/css">
	.st0{fill:#FFFFFF;}
</style>
<g id="SVGRepo_bgCarrier">
</g>
<g id="SVGRepo_tracerCarrier">
</g>
<g id="SVGRepo_iconCarrier">
	<g>
		<path class="st0" d="M716.2,369.3l-56.1-123.3c-5.2-11.5-18.8-16.6-30.3-11.3c-11.5,5.2-16.6,18.8-11.3,30.3l38.5,84.5H508.4
			c-12.6,0-22.9,10.2-22.9,22.9c0,12.6,10.2,22.9,22.9,22.9h156.5l-46.3,101.9c-5.2,11.5-0.2,25,11.3,30.3c3.1,1.4,6.3,2.1,9.5,2.1
			c8.7,0,17-5,20.8-13.4L716.5,392c1.2-2.2,2-4.7,2.4-7.1C719.9,379.5,718.9,374,716.2,369.3z"/>
		<path class="st0" d="M589.5,543.7c-12.6,0-22.9,10.2-22.9,22.9v91.5H440.9V174.5c0-19.7-9.3-37.1-27.9-43.4L280.4,86.7h286.3
			v114.2c0,12.6,10.2,22.9,22.9,22.9s22.9-10.2,22.9-22.9V63.7c0-12.6,0-22.8-12.6-22.8H144.1l-3.7-1.2c-4.7-1.6-7.9-2.3-12.8-2.3
			c-9.5,0-22.2,2.9-30.1,8.6c-11.9,8.6-22.3,22.4-22.3,37.1v543.7c0,19.7,15.9,37.1,34.6,43.4l276,91.4c4.7,1.6,10.4,2.3,15.3,2.3
			c9.5,0,15.9-2.9,23.8-8.6c11.9-8.6,16.1-22.4,16.1-37.1v-14.4h158.8c12.6,0,12.6-10.3,12.6-22.9V566.6
			C612.4,554,602.1,543.7,589.5,543.7z M395.2,718.2l-274.3-91.4V86.7v-0.9l2.5-1.8l271.8,90.6V718.2z"/>
		<path class="st0" d="M349.5,543.7c6.3,0,11.4-5.1,11.4-11.4v-68.6c0-6.3-5.1-11.4-11.4-11.4c-6.3,0-11.4,5.1-11.4,11.4v68.6
			C338.1,538.6,343.2,543.7,349.5,543.7z"/>
	</g>
</g>
</svg>
