<?xml version="1.0" encoding="utf-8"?>
<!-- Generator: Adobe Illustrator 27.2.0, SVG Export Plug-In . SVG Version: 6.00 Build 0)  -->
<svg version="1.1" id="more-circle-horizontal" xmlns="http://www.w3.org/2000/svg" xmlns:xlink="http://www.w3.org/1999/xlink"
	 x="0px" y="0px" viewBox="0 0 800 800" style="enable-background:new 0 0 800 800;" xml:space="preserve">
<style type="text/css">
	.st0{fill:#3E517C;}
</style>
<path class="st0" d="M400,16.5C188.2,16.5,16.5,188.2,16.5,400S188.2,783.5,400,783.5S783.5,611.8,783.5,400S611.8,16.5,400,16.5z
	 M213.9,464.5c-35.6,0-64.5-28.9-64.5-64.5s28.9-64.5,64.5-64.5s64.5,28.9,64.5,64.5S249.5,464.5,213.9,464.5z M398.9,464.5
	c-35.6,0-64.5-28.9-64.5-64.5s28.9-64.5,64.5-64.5s64.5,28.9,64.5,64.5S434.5,464.5,398.9,464.5z M586.1,464.5
	c-35.6,0-64.5-28.9-64.5-64.5s28.9-64.5,64.5-64.5s64.5,28.9,64.5,64.5S621.7,464.5,586.1,464.5z"/>
</svg>
