<?xml version="1.0" encoding="utf-8"?>
<!-- Generator: Adobe Illustrator 27.2.0, SVG Export Plug-In . SVG Version: 6.00 Build 0)  -->
<svg version="1.1" id="Слой_1" xmlns="http://www.w3.org/2000/svg" xmlns:xlink="http://www.w3.org/1999/xlink" x="0px"
	 y="0px"
	 viewBox="0 0 476.5 476.6" style="enable-background:new 0 0 476.5 476.6;" xml:space="preserve">
<style type="text/css">
	.st0{fill:#333399;}
</style>
	<g>
	<path class="st0" d="M238.5,4.2c127.6,0.6,230.9,102.6,233.7,227.6c3.2,139.2-107.8,239.8-231.8,240.8
		C109.4,473.5,5.4,368.1,4.2,241.1C2.9,107.3,109.8,5.4,238.5,4.2z M135,305.9c-1.2,2.7-1.8,4.5-2.9,6.1c-2.6,4.1-5.5,8-8.2,12
		c-7.6,11.3-15.2,22.5-22.8,33.8c-4.9,7.1-10.3,13.9-14.6,21.3c-5.8,9.9-2,23.7,7.2,29.6c10.5,6.7,23.5,4.5,30.9-5.6
		c6.7-9.2,13.1-18.6,19.5-28c14.1-20.7,28.4-41.3,42-62.3c3.8-5.8,8.1-7.3,14.5-7.2c25.3,0.2,50.7,0,76-0.1c10.3,0,20.5,0,30.8,0
		c0.3,1.5,0.5,2.3,0.5,3.1c0.3,28.6,0.5,57.2,1,85.8c0.2,9.6,0.5,19.2,1.9,28.6c1.3,8.4,7.3,13.7,15.3,16.1
		c9.7,2.8,18.3,0.5,24.6-7.5c10.3-13.2,20.4-26.6,30.3-40c10.1-13.6,19.8-27.4,29.9-41.1c13.4-18.2,27-36.2,40.4-54.4
		c8.2-11.1,7.2-21.1-2.3-30.6c-5.7-5.7-12.7-6.8-20.2-6.7c-22.6,0-45.1,0.1-67.7,0.2c-6.5,0-6.5,0-6.7-6.5c-0.1-2.4,0.1-4.9,0.1-7.3
		c-0.2-30.3-0.5-60.6-0.7-91c-0.2-29.7-0.2-59.5-0.4-89.2c0-2.8-1-5.8-2.1-8.4c-2.9-6.4-8.2-10-14.7-12.5
		c-7.2-2.8-16.7-1.6-21.6,4.2c-4.3,5.1-8.2,10.6-12,16c-7.7,11-15.4,22.1-23,33.2c-6.8,10-13.4,20-20.2,30
		c-6,8.8-12.2,17.5-18.2,26.4c-6.8,10.1-13.3,20.4-20.3,30.4c-7.4,10.6-15.4,20.8-22.8,31.4c-9.4,13.4-18.5,27.1-28,40.5
		c-1.1,1.6-3.7,3-5.6,3.1c-20.3,0.4-40.5,0.5-60.8,0.6c-20,0.1-39.9,0.2-59.9,0.1c-7.1,0-12.8,2.7-17.7,7.6
		c-5,4.9-7.2,17.6-4.5,23.4c4.8,10.1,13,14.8,23.8,15c17.3,0.2,34.6,0,51.9-0.1C109.7,305.9,121.7,305.9,135,305.9z M228.8,36.6
		c-13,1-31.5,2.5-49.7,8.3c-13.1,4.2-25.9,8.5-38,15.1c-20.4,11.1-39.1,24.5-54.4,42c-8.5,9.8-16.1,20.5-23.4,31.3
		c-5.2,7.7-10,15.9-13.8,24.4c-5.3,12.1-10.3,24.4-11.8,37.7c-1.5,13.1-3.2,26.1-4.5,39.2c-0.4,4,2.3,6.1,6,6.3
		c3.6,0.2,5.6-2.3,6-5.8c0.7-5.8,1.6-11.7,2.1-17.5c1.5-19.4,6.7-37.5,15.2-55.1c8.2-16.8,17.6-32.6,29.7-46.8
		c13.6-15.9,29.5-29.1,47.6-39.4c13.1-7.4,26.7-14.3,41.6-17.4c12.6-2.7,25.4-5.4,38.2-6.5c11.5-0.9,23.2-0.3,34.6,1
		c10.5,1.2,20.7,4.2,31.1,6.2c5.7,1.1,9.2-0.6,10.3-4.9c1.3-5-1-8.8-6.6-10.4C271.2,38.9,253,36.5,228.8,36.6z M238.7,90.5
		c-21.1,0.8-41.8,4.4-61.5,13c-14.7,6.4-27.8,15.1-39.7,25.6c-9.8,8.6-17.9,18.6-25.3,29.5c-10.2,15.1-17,31.4-21.2,48.9
		c-1.9,7.7-2.2,15.8-3.5,23.7c-0.8,5.1,1,8.7,5.2,9.4c3.3,0.6,5.9-2.5,6.8-7.3c2.4-12.7,4.3-25.6,7.7-38.1
		c4.1-15.2,12.4-28.7,22.3-40.8c10.2-12.5,22.2-23.1,36.2-31.6c17.4-10.5,36.1-16.7,56.1-18.3c10.7-0.9,21.5,0.1,32.3,0.4
		c5.1,0.2,9-1.8,9.4-5.7c0.5-5-3.3-6.6-7-7.2C250.7,91.1,244.7,90.9,238.7,90.5z M133.8,233.2c-0.2,3.7,3.1,7.6,6.6,7.6
		c3.2,0,6.6-4.2,6.8-8.3c0.4-6,0.3-12.1,1.5-17.9c3.1-14.4,9.4-27.6,19.6-38.3c10.2-10.7,21.7-19.8,36.6-23.1
		c8.2-1.8,16.6-2.9,24.9-4.3c5.4-0.9,7.8-3.1,7.2-7.4c-0.6-4.7-4.1-6.3-8.2-5.8c-6.8,0.8-13.5,2.1-20.2,3.3
		c-2.7,0.5-5.6,0.7-8.1,1.8c-12.8,5.3-24.9,11.6-35.2,21.4c-8.6,8.2-15.8,17.4-21,27.8C137.7,203.4,133.5,217.8,133.8,233.2z"/>
		<path class="st0" d="M224.4,258.4c27.4-40,54.3-79.1,81.1-118.1c0.7,0.2,1.4,0.4,2,0.5c0,8.1-0.1,16.2,0,24.3
		c0.2,20.8,0.4,41.5,0.6,62.3c0,9.2-0.3,18.3-0.3,27.5c0,3.1-1,4-4.4,4c-24,0-48,0.3-71.9,0.4C229.6,259.4,227.7,258.9,224.4,258.4z
		"/>
		<path class="st0" d="M355.1,345c0-7.7,0-15.5,0-23.2c0-4.2-0.3-8.5,0-12.7c0.1-1.3,1.6-3.6,2.6-3.6c8.6-0.3,17.3-0.2,25.9-0.1
		c0.6,0,1.2,0.5,2.8,1.1c-9.8,13.3-19.4,26.3-29,39.3C356.6,345.5,355.9,345.2,355.1,345z"/>
</g>
</svg>
