<?xml version="1.0" encoding="utf-8"?>
<!-- Generator: Adobe Illustrator 27.2.0, SVG Export Plug-In . SVG Version: 6.00 Build 0)  -->
<svg version="1.1" id="Слой_1" xmlns="http://www.w3.org/2000/svg" xmlns:xlink="http://www.w3.org/1999/xlink" x="0px"
	 y="0px"
	 viewBox="0 0 313.8 295.3" style="enable-background:new 0 0 313.8 295.3;" xml:space="preserve">
<style type="text/css">
	.st0{fill:#0059A9;}
</style>
	<g>
	<path class="st0" d="M309,147.4c0.4,79.1-69,144.1-153.8,143.2c-81.9-0.8-150.5-64-150.3-143.2C5,68.7,73,4,158,4.6
		C242,5.1,309,69.4,309,147.4z M156.8,258.9c64.1,0.7,119.4-50.2,118.4-113c-1-59.1-52.3-109.4-117.9-109.7
		c-66.2-0.3-119,50.6-119,111.5C38.2,209,92.3,259.6,156.8,258.9z"/>
		<path class="st0" d="M207.8,166c-1.1,1.4-2.3,2.9-3.4,4.3c-9.8,13-19.5,25.9-29.2,38.9c-2.1,2.8-5.1,3.9-8.7,3.9
		c-7,0-13.9-0.1-20.9-0.2c-2.8,0-5.1-1.1-6.7-3.3c-10.6-14-21.3-27.9-31.9-41.9c-0.4-0.5-0.8-0.9-1.7-1.8c-0.1,1.2-0.3,1.9-0.3,2.6
		c0,12.7,0.1,25.4,0.1,38.1c0,4.1-2.1,6.4-6.3,6.5c-7.7,0.1-15.5,0.1-23.3-0.1c-4-0.1-6-2.2-6-5.9c0-39.9,0-79.7,0-119.6
		c0-3,2.1-5.1,5.7-5.2c8.6-0.1,17.3-0.1,25.9,0c2.4,0,4.2,1.5,5.5,3.3c8.3,11.5,16.6,23,24.9,34.5c0.3,0.4,0.3,0.9,0.4,1.4
		c0.3-0.2,0.6-0.4,1-0.7c0-11,0-22,0-33.1c16.1,0,32,0,48,0c0,11.2,0,22.3,0,34c0.8-0.6,1.3-0.9,1.5-1.2
		c8.3-11.3,16.6-22.5,24.8-33.8c2-2.8,4.7-4.3,8.1-4.3c7.8-0.1,15.5-0.1,23.3,0c3.5,0,5.8,2.4,5.8,5.9c0,15,0,30,0,45
		c0,24.5-0.1,49,0.1,73.5c0,3.8-3.4,6.5-6.8,6.4c-7.4-0.1-14.8,0-22.2-0.1c-5.2,0-7.2-2-7.2-6.9c0-12.6,0-25.1,0-37.7
		c0-0.8,0-1.6,0-2.3C208.2,166.2,208,166.1,207.8,166z M168.5,158.5c1,0,1.7,0,2.3,0c11.8,0,23.5,0,35.3,0.1c2,0,2.4-0.5,2.4-2.3
		c-0.1-5.7-0.1-11.5,0-17.2c0-1.8-0.5-2.5-2.6-2.5c-11.7,0.1-23.5,0-35.2,0c-0.6,0-1.3,0-2.1-0.1c0-0.9,0-1.6,0-2.3
		c0-10.9,0-21.8,0-32.7c0-1.8-0.5-2.4-2.4-2.4c-6.2,0.1-12.3,0.2-18.5,0.1c-1.9,0-2.3,0.6-2.3,2.2c0.1,7.9,0,15.8,0,23.7
		c0,3.7,0,7.5,0,11.5c-1.1,0-2,0-3,0c-11.4,0-22.8,0-34.2,0c-2,0-2.8,0.5-2.7,2.5c0.1,5.7,0.1,11.3,0,17c0,2,0.7,2.5,2.7,2.5
		c11.5-0.1,23.1,0,34.6,0c0.8,0,1.5,0,2.5,0c0,1.1,0,2,0,2.9c0,10.7,0,21.4,0,32.1c0,1.9,0.5,2.7,2.6,2.6c6-0.1,12-0.1,18.1,0
		c2,0,2.6-0.5,2.5-2.4c-0.1-10.9-0.1-21.8-0.1-32.7C168.5,160.3,168.5,159.5,168.5,158.5z"/>
</g>
</svg>
