<?xml version="1.0" encoding="utf-8"?>
<!-- Generator: Adobe Illustrator 27.2.0, SVG Export Plug-In . SVG Version: 6.00 Build 0)  -->
<svg version="1.1" id="Слой_1" xmlns="http://www.w3.org/2000/svg" xmlns:xlink="http://www.w3.org/1999/xlink" x="0px"
	 y="0px"
	 viewBox="0 0 169.1 168.5" style="enable-background:new 0 0 169.1 168.5;" xml:space="preserve">
<style type="text/css">
	.st0{fill:#002768;}
</style>
	<g>
	<path class="st0" d="M55.7,66.7c-8.1,0-16.1,0-24.2,0c0-1,0-1.9,0-3c0.5,0,0.9,0,1.4,0c7.8,0,15.6,0,23.4,0c1,0,1.7-0.3,2.4-1.1
		c7.8-9,17.6-13.2,29.5-12.1c15.5,1.4,28.1,13.9,30.1,29.3c1,7.9-0.6,15.3-4.7,22.2c-0.2,0.3-0.3,0.6-0.6,1.1c7.2,0,14.3,0,21.5,0
		c0,0.7,0,1.4,0,2c0.1,0.8-0.3,1-1,1c-3.2,0-6.5,0-9.7,0c-4,0-8.1,0-12.1,0c-0.5,0-1.2,0.3-1.6,0.7c-7.4,7.9-16.4,11.8-27.3,11.3
		c-15.3-0.6-28.9-12.8-31.4-27.9c-1.3-8-0.1-15.5,3.9-22.6C55.3,67.4,55.5,67.1,55.7,66.7z M71.2,66.7c-0.5,0-1,0-1.5,0
		c-3.1,0-6.2,0-9.3,0c-0.8,0-1.2,0.2-1.7,0.9c-4.2,6.7-5.9,13.9-4.5,21.7c2.1,11.7,8.8,19.9,19.9,24c11,4,21.2,2,30.3-5.3
		c0.6-0.5,1.2-1,1.7-1.6c0-0.1-0.1-0.2-0.1-0.3c-3.8,0-7.7,0-11.6,0c0-1.1,0-2,0-3c0.5,0,1,0,1.4,0c3.9,0,7.8-0.1,11.6,0
		c1.2,0,1.9-0.4,2.5-1.4c4.5-6.7,6.4-14.1,5.1-22.1C113,67.2,105.9,58.7,94,54.9c-11.9-3.8-22.4-0.8-31.4,7.9
		c-0.2,0.2-0.4,0.5-0.8,1c3.3,0,6.4,0,9.5,0C71.2,64.7,71.2,65.6,71.2,66.7z"/>
		<path class="st0" d="M143.4,97.5c-2.7,0-5.2,0-7.9,0c0-2.6,0-5.3,0-8.1c-0.4,0.4-0.7,0.6-0.9,0.8c-2,2.2-3.9,4.4-5.9,6.6
		c-0.3,0.3-0.7,0.7-1,0.7c-2.3,0.1-4.7,0-7.1,0c0-8.2,0-16.2,0-24.4c2.6,0,5.2,0,8,0c0,5.8,0,11.6,0,17.5c0.1,0,0.2,0.1,0.3,0.1
		c0.8-0.9,1.6-1.8,2.4-2.7c1.4-1.6,3.3-2.9,3.9-4.8c0.7-1.9,0.2-4.2,0.2-6.3c0-1.2,0-2.5,0-3.8c2.7,0,5.3,0,8,0
		C143.4,81.2,143.4,89.3,143.4,97.5z"/>
		<path class="st0" d="M33.8,72.7c0,3,0,5.9,0,8.9c2,0,3.9,0,5.8,0c0.2,0,0.5-0.6,0.5-1c0-2.2,0-4.3,0-6.5c0-0.4,0-0.9,0-1.4
		c2.7,0,5.3,0,8,0c0,8.2,0,16.3,0,24.4c-2.6,0-5.2,0-7.9,0c0-3.7,0-7.3,0-11.1c-2.2,0-4.2,0-6.4,0c0,3.7,0,7.4,0,11.1
		c-2.7,0-5.3,0-8,0c0-0.3-0.1-0.7-0.1-1.1c0-7.4,0-14.7,0-22.1c0-1,0.3-1.3,1.3-1.3C29.2,72.7,31.4,72.7,33.8,72.7z"/>
		<path class="st0" d="M22.8,85.3c0,1.9,0.1,3.8,0,5.8c-0.2,2.9-1.6,4.9-4.4,5.8c-4.6,1.3-9.3,1.3-13.9,0C1.6,96,0.2,93.9,0.1,91
		C0,87.1,0,83.2,0.1,79.3c0.1-3.1,1.6-5,4.6-5.8c4.3-1.2,8.8-1.2,13.1-0.1c3,0.7,4.8,3.1,4.9,6.2C22.9,81.4,22.8,83.4,22.8,85.3
		C22.8,85.3,22.8,85.3,22.8,85.3z M8.1,85.2c0,1.8,0,3.6,0,5.4c0,1.9,0.6,2.5,2.5,2.6c0.4,0,0.8,0,1.2,0c2.2-0.1,2.8-0.6,2.8-2.8
		c0-3.3,0-6.6,0-9.9c0-2.7-0.7-3.4-3.4-3.3c-0.4,0-0.7,0.1-1.1,0.1c-1.5,0.2-2,0.7-2,2.2C8.1,81.4,8.1,83.3,8.1,85.2z"/>
		<path class="st0" d="M146.8,97.4c0-8.1,0-16.2,0-24.3c7.4,0,14.8,0,22.3,0c0,8.1,0,16.2,0,24.3c-2.6,0-5.2,0-7.9,0
		c0-6.7,0-13.3,0-20c-2.2,0-4.2,0-6.4,0c0,6.6,0,13.3,0,20C152,97.4,149.5,97.4,146.8,97.4z"/>
		<path class="st0" d="M59.5,101.3c0-9.6,0-19,0-28.5c5.9,0,11.7,0,17.6,0c0,3.4,0,6.7,0,10.4c10.5-5.8,20.7-11.4,31.1-17.1
		c0,10.5,0,20.8,0,31.2c-6.2,0-12.3,0-18.6,0c0-3.7,0-7.5,0-11.5C79.5,91.1,69.6,96.2,59.5,101.3z M105.5,70.5
		c-10.3,5.7-20.5,11.3-30.9,17c0-4.1,0-7.9,0-11.6c-4.2,0-8.3,0-12.4,0c0,6.9,0,13.7,0,20.6c9.9-5.1,19.7-10.1,29.7-15.2
		c0,4.7,0,9.2,0,13.6c4.6,0,9.1,0,13.7,0C105.5,86.9,105.5,78.8,105.5,70.5z"/>
</g>
</svg>
