<?xml version="1.0" encoding="utf-8"?>
<!-- Generator: Adobe Illustrator 27.2.0, SVG Export Plug-In . SVG Version: 6.00 Build 0)  -->
<svg version="1.1"
	 id="Layer_1" xmlns:sodipodi="http://sodipodi.sourceforge.net/DTD/sodipodi-0.dtd"
	 xmlns:inkscape="http://www.inkscape.org/namespaces/inkscape" xmlns:svg="http://www.w3.org/2000/svg"
	 xmlns:cc="http://creativecommons.org/ns#" xmlns:rdf="http://www.w3.org/1999/02/22-rdf-syntax-ns#"
	 xmlns:dc="http://purl.org/dc/elements/1.1/" sodipodi:docname="Polyot_logo.svg"
	 xmlns="http://www.w3.org/2000/svg" xmlns:xlink="http://www.w3.org/1999/xlink" x="0px" y="0px"
	 viewBox="0 0 361.9 361.8"
	 style="enable-background:new 0 0 361.9 361.8;" xml:space="preserve">
<style type="text/css">
	.st0{fill-rule:evenodd;clip-rule:evenodd;fill:#006DB6;}
</style>
	<sodipodi:namedview bordercolor="#666666" borderopacity="1" gridtolerance="10" guidetolerance="10" id="namedview11"
						inkscape:current-layer="Layer_1" inkscape:cx="318.89999" inkscape:cy="379.43198"
						inkscape:pageopacity="0" inkscape:pageshadow="2" inkscape:window-height="1136"
						inkscape:window-maximized="1" inkscape:window-width="1920" inkscape:window-x="-8"
						inkscape:window-y="-8" inkscape:zoom="0.30835566" objecttolerance="10" pagecolor="#ffffff"
						showborder="true" showgrid="false" units="mm">
	</sodipodi:namedview>
	<g id="g3" transform="matrix(3.0527451,0,0,3.0527451,-445.02228,-797.19229)">
	<path id="path5" inkscape:connector-curvature="0" class="st0" d="M192,314.5L192,314.5L192,314.5L192,314.5c0,0,0,0.1-0.1,0.1
		c0.5,0.4,0.8,0.9,1.1,1.6c0.3,0.6,0.4,1.3,0.6,2l-0.1,0c-0.2-0.7-0.3-1.4-0.6-2c-0.2-0.6-0.6-1.1-1-1.5c-0.1,0.3-0.2,0.7-0.4,0.8
		c-0.3,0.4-1.3,0.4-2.4,0.1c-1.2-0.4-2.1-1-1.9-1.5l0,0l0,0l0,0l0.2-0.6c-2.1,0.3-3.8,2.1-4.1,4.1l0,0.1c0.5-0.6,1.3-0.9,2-0.8l0,0
		l0,0l0,0l0,0c0.7,0.1,1.3,0.4,1.7,0.9c0.9,1.1,0.8,2.6-0.3,3.5c-1.6,1.4-4.3,0.2-4.1-2.1l0,0l0,0l0,0l0,0c0.1-0.6,0.3-1.1,0.7-1.5
		l-0.1,0l-0.6-0.5l0,0l0,0c-0.1-0.2-0.1-0.4-0.1-0.7c0.1-1.2,0.9-2.6,2.1-2.9c0.2-0.1,0.4-0.1,0.6-0.1h0l0,0l0.9,0.3
		c0.4-0.2,0.9-0.3,1.3-0.4l0.1-0.3l0,0l0,0l0,0c0.1-0.2,0.2-0.3,0.4-0.3c1-0.4,2.9,0.2,3.7,0.8C191.9,313.9,192.1,314.2,192,314.5
		L192,314.5L192,314.5L192,314.5L192,314.5z M204.9,320L204.9,320c-0.3-0.2-0.4-0.3-0.4-0.5c0.2-0.6,2.7,0,2.6,0.6c0,0,0,0,0,0l0,0
		l0,0l0,0l0,0l-0.4,1.3l1.5-0.4l4.7,1.5c0.1,0,0.1,0,0.1-0.1l0.3-2.8l7.6-2.1l-1.2-0.5l13.8-4.3l14,5.6l-13.1,5.1l-1.3-0.6
		l-10.6,3.9l12.9,5.6c0.1,0.1,0.2,0.1,0.4,0.2c1.5,0.9,1.9,3.5,1.3,6.7c-0.7,3.6-2.7,7.8-5.3,10.2c-1.4,1.3-2.9,1.9-4,1.4l0,0l0,0v0
		c-0.2-0.1-0.3-0.2-0.5-0.3l-19.7-10.2l-1.8-3.8l-3.2-2l-15.3,5.9l1.4,0.7l-15.8,6.3l-17.9-10.8l-0.1-0.1l0.1,0l15.9-4.9l0,0l0,0
		l1.9,1l15.9-5l0,0l0,0l0.4,0.2l3.8-1.2l-0.8-0.4l-0.3-0.9l13.8,6.9c0-0.3,0.1-0.5,0.2-0.9h0c0.4-1.4,1-2.7,1.8-3.8
		c0.8-1.1,1.8-2.2,3.1-3.1l-4.4-1.8l-0.1,0.2c-0.3,0.8-2.7,0-2.5-0.7l0.1-0.3c-0.5,0.1-0.8,0.3-1,0.4l-6.5-3
		c0.2-0.1,0.5-0.2,0.8-0.3c0.2-0.1,1,0,1.2,0.1l5.7,2.5l0.5-1.9l0,0l-0.5,1.9l-0.1,0.2l-0.1,0.3c0,0.2,0.4,0.5,0.4,0.5
		C204.4,321.7,204.6,320.9,204.9,320L204.9,320L204.9,320z M190.3,313.3L190.3,313.3c0.3,0.1,0.5,0.3,0.6,0.4c0.2,0.2,0.3,0.4,0,0.5
		c0,0-0.1,0-0.2,0.1l0,0c-0.3,0.1-0.8,0-1.4-0.2c-0.3-0.1-1.3-0.6-1.2-1l0,0l0,0l0,0v0l0,0l0,0c0,0,0.1-0.1,0.1-0.1
		c0,0,0.1,0,0.2-0.1l0,0C189.1,312.8,189.8,313,190.3,313.3L190.3,313.3L190.3,313.3z M187.7,313c-0.1,0-0.1,0.1-0.1,0.2l0,0l0,0
		l0,0c-0.1,0.3,0.3,0.8,1,1.1c0.7,0.4,1.8,0.7,2.6,0.6c0.4,0,0.7-0.2,0.8-0.4l0,0l0,0l0,0c0.1-0.2-0.1-0.5-0.4-0.8
		C190.7,313.1,188.4,312.3,187.7,313L187.7,313z M231,344.5l0.8,0.4l0,0l0,0c0.8,0.4,2.1-0.8,2.8-2.5c0.8-1.7,0.8-3.4,0-3.8
		l-0.8-0.4l0,0l0,0c-0.8-0.4-2.1,0.8-2.8,2.5C230.3,342.5,230.6,344.3,231,344.5L231,344.5L231,344.5L231,344.5z M234.2,338.6
		c-0.8,0.1-1.7,1.1-2.4,2.5c-0.6,1.4-0.8,2.8-0.4,3.5c0.8-0.1,1.7-1.1,2.4-2.5C234.5,340.6,234.6,339.2,234.2,338.6
		C234.2,338.6,234.2,338.6,234.2,338.6L234.2,338.6L234.2,338.6z M193.3,322.1l3,1.5l0,0.1L193.3,322.1L193.3,322.1L193.3,322.1z
		 M194.4,320.8l2.3,1l0,0.1L194.4,320.8L194.4,320.8L194.4,320.8z M206,331.3l12.7,6c0.1-0.2,0.1-0.4,0.2-0.6l-9.7-4.4l0-0.1
		l9.7,4.4c0.1-0.2,0.2-0.5,0.3-0.7l-9.7-4.4l0-0.1l9.7,4.4c0.3-0.7,0.6-1.3,0.9-2l-9.8-4.3l0-0.1l9.8,4.3c1-2,3.5-5.8,6.2-5.5
		l-9.7-4.2c-2.4,0.1-5.3,2.7-6.8,5.4c-0.5,0.9-1,2-1,3.1l0,0l-0.1,0l0,0c0.1-1.1,0.5-2.2,1-3.1c1.5-2.7,4.3-5.2,6.7-5.5l-0.8-0.3
		c-1.6,0-3.1-0.1-4.9,0.8l0,0l0,0c-1.3,0.9-2.3,1.9-3.1,3.1C207,328.7,206.4,329.9,206,331.3L206,331.3L206,331.3z M192.8,323.3
		l13.6,6.3l0,0.1L192.8,323.3L192.8,323.3L192.8,323.3z M192.5,324.2l13.5,6.3l0,0.1L192.5,324.2L192.5,324.2L192.5,324.2z
		 M192.4,324.6l13.5,6.3l0,0.1L192.4,324.6L192.4,324.6L192.4,324.6z M192.4,325.1l13.4,6.5l0,0.1L192.4,325.1L192.4,325.1
		L192.4,325.1z M235,332l-4.8-2.1v0h0l0,0c-2.7,0.3-4.9,3.5-6.1,5.6l4.1,1.8l0,0.1l-4.1-1.8c-0.3,0.6-0.6,1.3-0.9,2l4.1,1.9l0,0.1
		l-4.1-1.8c-0.1,0.2-0.2,0.5-0.3,0.7l4.1,1.9l0,0.1l-4.1-1.9c-0.1,0.2-0.2,0.4-0.2,0.7l4.3,2c0.9-2.8,2.5-5.7,4.6-7.6
		C232.7,332.4,233.9,331.9,235,332L235,332L235,332z M230.1,329.9l-3.5-1.5l0,0l0,0l0,0c-2.7-0.5-5.3,3.5-6.4,5.5l3.8,1.7
		C225.2,333.4,227.4,330.3,230.1,329.9L230.1,329.9L230.1,329.9z M219.3,335.9l3.8,1.7c0.3-0.7,0.6-1.4,0.9-2l-3.8-1.7
		C219.9,334.5,219.6,335.2,219.3,335.9L219.3,335.9z M223.1,337.6l-3.8-1.7c-0.1,0.2-0.2,0.5-0.3,0.7l3.7,1.7
		C222.9,338.1,223,337.9,223.1,337.6L223.1,337.6L223.1,337.6z M222.7,338.4l-3.7-1.7c-0.1,0.2-0.1,0.4-0.2,0.6l3.7,1.7
		C222.6,338.9,222.7,338.7,222.7,338.4L222.7,338.4L222.7,338.4z M235.4,332.2c-1.1-0.4-2.5,0.1-3.9,1.4c-2.7,2.4-4.6,6.6-5.3,10.2
		c-0.6,3.3-0.1,6.1,1.5,6.8l0,0c1.1,0.5,2.5-0.1,4-1.4c2.6-2.4,4.6-6.7,5.3-10.2C237.3,337.2,237.7,333.1,235.4,332.2L235.4,332.2
		L235.4,332.2z M235.3,333.5c-1.6-0.7-4.8,2.2-6.7,6.6c-1.9,4.4-1.9,8.5-0.1,9.2c1.5,0.6,3.9-1.7,5.8-4.8
		C236,341.7,237.9,334.7,235.3,333.5L235.3,333.5L235.3,333.5z M205.8,333l-4.3-2.1l-3.7,1.1l4.8,2.3l0,0L205.8,333L205.8,333z
		 M193.1,326.7l-3.8,1.2l2.9,1.4l-0.1,0l3.8-1.1L193.1,326.7L193.1,326.7L193.1,326.7z M197.3,328.8l-3.8,1.1l3.1,1.5l3.7-1.1
		L197.3,328.8L197.3,328.8L197.3,328.8z M190.6,332.1L190.6,332.1L190.6,332.1c0.2,0.7,0.8,1.1,1.5,1.2l4.8-1.7l-2-1L190.6,332.1
		L190.6,332.1z M191.9,333.4c-0.6-0.1-1.2-0.6-1.4-1.2l-3.7,1.2h0l0,0l0,0c0.2,0.7,0.9,1.1,1.5,1.2L191.9,333.4L191.9,333.4
		L191.9,333.4z M188.2,334.7c-0.6-0.1-1.3-0.6-1.4-1.2l-7.5,2.5l0,0l0.1,0l0,0l0,0c0.2,0.7,0.9,1.1,1.6,1.2l3.4-1.2
		c-0.7-0.1-1.3-0.6-1.4-1.3l0,0l0,0l0.1,0l0.1,0l0,0l0,0c0.2,0.7,0.9,1.1,1.5,1.2L188.2,334.7L188.2,334.7L188.2,334.7z
		 M180.7,337.2c-0.7-0.1-1.3-0.6-1.5-1.3l0,0l-3.6,1.2v0c0.2,0.8,1,1.2,1.7,1.2L180.7,337.2L180.7,337.2z M177,338.5
		c-0.7-0.1-1.4-0.5-1.5-1.3l-4.4,1.5l0,0l0,0c0.2,0.8,1,1.2,1.7,1.2L177,338.5L177,338.5L177,338.5z M172.5,340
		c-0.7-0.1-1.4-0.5-1.6-1.3l-3.8,1.3c0.2,0.8,1,1.2,1.8,1.2l0,0l0.1,0h0l0.1,0L172.5,340L172.5,340L172.5,340z M168.7,341.3
		c-0.7-0.1-1.5-0.5-1.7-1.3l-3.8,1.3l2,1.2L168.7,341.3L168.7,341.3L168.7,341.3z M233.2,317.3c0.2,0.5,0.7,0.7,1.2,0.7l0,0h0h0
		l3.2-1.2c-0.5,0-1-0.3-1.1-0.8L233.2,317.3L233.2,317.3z M234.3,318.1c-0.5,0-1-0.3-1.2-0.8l-3.2,1.2c0.2,0.5,0.7,0.8,1.2,0.8
		L234.3,318.1L234.3,318.1L234.3,318.1z M236.6,316c0.2,0.5,0.7,0.7,1.2,0.7l0,0h0l3.1-1.1l-1.6-0.6L236.6,316L236.6,316L236.6,316z
		 M231,319.3c-0.5-0.1-1-0.3-1.1-0.8l-3,1.1c0.2,0.5,0.7,0.8,1.2,0.8L231,319.3L231,319.3z M228,320.4c-0.5-0.1-1-0.3-1.1-0.8l-11,4
		l1.6,0.7L228,320.4L228,320.4L228,320.4z M204.9,314.1l-0.5-0.2l-0.1,0.5l0.5,0.2L204.9,314.1L204.9,314.1z M204.2,313.9l-0.5-0.2
		l-0.1,0.5l0.5,0.2L204.2,313.9L204.2,313.9z M203.5,313.6l-0.5-0.2l-0.1,0.5l0.5,0.2L203.5,313.6L203.5,313.6z M202.8,313.4
		l-0.5-0.2l-0.1,0.5l0.5,0.2L202.8,313.4L202.8,313.4z M202.1,313.2l-0.5-0.2l-0.1,0.5l0.5,0.2L202.1,313.2L202.1,313.2z M201.4,313
		l-0.5-0.2l-0.1,0.5l0.5,0.2L201.4,313L201.4,313z M200.7,312.8l-0.5-0.2l-0.1,0.5l0.5,0.2L200.7,312.8L200.7,312.8z M200,312.5
		l-0.5-0.2l-0.1,0.5l0.5,0.2L200,312.5L200,312.5L200,312.5z M205.1,314c0,0.3-0.1,0.6-0.1,1l2.8-0.1l-2.2-1.8L205.1,314L205.1,314z
		 M204.9,315.3c-0.1,0.7-0.2,1.3-0.2,2l2.8-0.1L204.9,315.3L204.9,315.3z M204.6,317.5c-0.1,0.7-0.2,1.3-0.2,1.9l2.8-0.2
		L204.6,317.5C204.6,317.5,204.6,317.5,204.6,317.5C204.6,317.5,204.6,317.5,204.6,317.5L204.6,317.5z M204.2,319.5l0.1-0.5
		l-0.5-0.2l-0.1,0.5L204.2,319.5L204.2,319.5z M204.3,318.8l0.1-0.5l-0.5-0.2l-0.1,0.5L204.3,318.8L204.3,318.8z M204.4,318.1
		l0.1-0.5l-0.5-0.2l-0.1,0.5L204.4,318.1L204.4,318.1z M204.5,317.4l0.1-0.5l-0.5-0.2l-0.1,0.5L204.5,317.4L204.5,317.4z
		 M204.6,316.7l0.1-0.5l-0.5-0.2l-0.1,0.5L204.6,316.7L204.6,316.7z M204.6,316l0.1-0.5l-0.5-0.2l-0.1,0.5L204.6,316L204.6,316z
		 M204.7,315.3l0.1-0.5l-0.5-0.2l-0.1,0.5L204.7,315.3L204.7,315.3z M204.3,319.7c-1.9-0.6-3.7-1.2-5.6-1.8c0,0-0.1-0.1-0.1-0.1l0,0
		l0.7-5.6c0,0,0,0,0,0l0,0l2.6-4.9l0,0l0,0l0.7-5.6c0,0,0,0,0,0l0,0l2.6-4.9l0,0l0,0l0.7-5.6c0,0,0,0,0,0l2.6-4.9v0l0,0l0.7-5.6
		c0,0,0,0,0,0l2.7-5c0,0,0.1-0.1,0.1,0v0l5.6,1.8c0,0,0,0,0,0l0,0l0,0l2.4,1.8l0.4-0.8c0-0.1,0.1-0.1,0.1,0l5.6,1.8
		c0.1,0,0.1,0.1,0,0.2l-2.6,4.9c-0.2,1.1-0.6,4.8-0.7,5.6c0,0,0,0,0,0l-2.6,4.9c-0.2,1.9-0.5,3.7-0.7,5.6c0,0,0,0.1,0,0.1l-2.6,4.9
		c-0.2,1.9-0.5,3.7-0.7,5.6c0,0,0,0,0,0c0,0,0,0,0,0l-2.6,4.9c-0.1,0.9-0.2,1.8-0.3,2.8c0,0,0,0,0,0c-0.1,0.9-0.2,1.9-0.3,2.8
		c0,0.1-0.1,0.1-0.1,0.1c0,0,0,0,0,0c-1.9-0.6-3.7-1.2-5.6-1.8c0,0-0.1-0.1-0.1-0.1l0,0l0.1-1L204.3,319.7
		C204.3,319.7,204.3,319.7,204.3,319.7L204.3,319.7L204.3,319.7z M198.8,317.8l0.5,0.2l0.1-0.5l-0.5-0.2L198.8,317.8L198.8,317.8z
		 M199.5,318l0.5,0.2l0.1-0.5l-0.5-0.2L199.5,318L199.5,318z M200.2,318.2l0.5,0.2l0.1-0.5l-0.5-0.2L200.2,318.2L200.2,318.2z
		 M200.9,318.4l0.5,0.2l0.1-0.5l-0.5-0.2L200.9,318.4L200.9,318.4z M201.6,318.6l0.5,0.2l0.1-0.5l-0.5-0.2L201.6,318.6L201.6,318.6
		L201.6,318.6z M202.3,318.9l0.5,0.2l0.1-0.5l-0.5-0.2L202.3,318.9L202.3,318.9L202.3,318.9z M203,319.1l0.5,0.2l0.1-0.5l-0.5-0.2
		L203,319.1L203,319.1z M199.4,313.1l-0.1,0.5l0.5,0.2l0.1-0.5L199.4,313.1L199.4,313.1z M199.3,313.8l-0.1,0.5l0.5,0.2l0.1-0.5
		L199.3,313.8L199.3,313.8z M199.2,314.5l-0.1,0.5l0.5,0.2l0.1-0.5L199.2,314.5L199.2,314.5z M199.1,315.2l-0.1,0.5l0.5,0.2l0.1-0.5
		L199.1,315.2L199.1,315.2z M199,315.9l-0.1,0.5l0.5,0.2l0.1-0.5L199,315.9L199,315.9z M198.9,316.5l-0.1,0.5l0.5,0.2l0.1-0.5
		L198.9,316.5L198.9,316.5z M200.1,313.3l-0.1,0.5l0.5,0.2l0.1-0.5L200.1,313.3L200.1,313.3z M200,314l-0.1,0.5l0.5,0.2l0.1-0.5
		L200,314L200,314z M199.9,314.7l-0.1,0.5l0.5,0.2l0.1-0.5L199.9,314.7L199.9,314.7z M199.8,315.4l-0.1,0.5l0.5,0.2l0.1-0.5
		L199.8,315.4L199.8,315.4z M199.7,316.1l-0.1,0.5l0.5,0.2l0.1-0.5L199.7,316.1L199.7,316.1z M199.6,316.8l-0.1,0.5l0.5,0.2l0.1-0.5
		L199.6,316.8L199.6,316.8z M200.8,313.5l-0.1,0.5l0.5,0.2l0.1-0.5L200.8,313.5L200.8,313.5L200.8,313.5z M200.7,314.2l-0.1,0.5
		l0.5,0.2l0.1-0.5L200.7,314.2L200.7,314.2z M200.6,314.9l-0.1,0.5l0.5,0.2l0.1-0.5L200.6,314.9L200.6,314.9z M200.5,315.6l-0.1,0.5
		l0.5,0.2l0.1-0.5L200.5,315.6L200.5,315.6L200.5,315.6z M200.4,316.3l-0.1,0.5l0.5,0.2l0.1-0.5L200.4,316.3L200.4,316.3z
		 M200.3,317l-0.1,0.5l0.5,0.2l0.1-0.5L200.3,317L200.3,317z M201.5,313.7l-0.1,0.5l0.5,0.2l0.1-0.5L201.5,313.7L201.5,313.7
		L201.5,313.7z M201.4,314.4l-0.1,0.5l0.5,0.2l0.1-0.5L201.4,314.4L201.4,314.4z M201.3,315.1l-0.1,0.5l0.5,0.2l0.1-0.5L201.3,315.1
		L201.3,315.1z M201.2,315.8l-0.1,0.5l0.5,0.2l0.1-0.5L201.2,315.8L201.2,315.8z M201.1,316.5l-0.1,0.5l0.5,0.2l0.1-0.5L201.1,316.5
		L201.1,316.5z M201,317.2l-0.1,0.5l0.5,0.2l0.1-0.5L201,317.2L201,317.2z M202.2,313.9l-0.1,0.5l0.5,0.2l0.1-0.5L202.2,313.9
		L202.2,313.9z M202.1,314.6l-0.1,0.5l0.5,0.2l0.1-0.5L202.1,314.6L202.1,314.6z M202,315.3l-0.1,0.5l0.5,0.2l0.1-0.5L202,315.3
		L202,315.3z M201.9,316l-0.1,0.5l0.5,0.2l0.1-0.5L201.9,316L201.9,316z M201.8,316.7l-0.1,0.5l0.5,0.2l0.1-0.5L201.8,316.7
		L201.8,316.7z M201.7,317.4l-0.1,0.5l0.5,0.2l0.1-0.5L201.7,317.4L201.7,317.4z M202.9,314.2l-0.1,0.5l0.5,0.2l0.1-0.5L202.9,314.2
		L202.9,314.2z M202.8,314.9l-0.1,0.5l0.5,0.2l0.1-0.5L202.8,314.9L202.8,314.9z M202.7,315.6l-0.1,0.5l0.5,0.2l0.1-0.5L202.7,315.6
		L202.7,315.6z M202.6,316.3l-0.1,0.5l0.5,0.2l0.1-0.5L202.6,316.3L202.6,316.3z M202.5,317l-0.1,0.5l0.5,0.2l0.1-0.5L202.5,317
		L202.5,317z M202.4,317.7l-0.1,0.5l0.5,0.2l0.1-0.5L202.4,317.7L202.4,317.7z M203.6,314.4l-0.1,0.5l0.5,0.2l0.1-0.5L203.6,314.4
		L203.6,314.4z M203.5,315.1l-0.1,0.5l0.5,0.2l0.1-0.5L203.5,315.1L203.5,315.1L203.5,315.1z M203.4,315.8l-0.1,0.5l0.5,0.2l0.1-0.5
		L203.4,315.8L203.4,315.8z M203.3,316.5l-0.1,0.5l0.5,0.2l0.1-0.5L203.3,316.5L203.3,316.5z M203.2,317.2l-0.1,0.5l0.5,0.2l0.1-0.5
		L203.2,317.2L203.2,317.2z M203.1,317.9l-0.1,0.5l0.5,0.2l0.1-0.5L203.1,317.9L203.1,317.9z M208.2,314.9l5.4,1.7l2.6-4.8l-5.4-1.7
		C209.9,311.7,209,313.3,208.2,314.9L208.2,314.9z M213.5,316.8l-0.5-0.2l-0.1,0.5l0.5,0.2L213.5,316.8L213.5,316.8z M212.8,316.6
		l-0.5-0.2l-0.1,0.5l0.5,0.2L212.8,316.6L212.8,316.6z M212.1,316.4l-0.5-0.2l-0.1,0.5l0.5,0.2L212.1,316.4L212.1,316.4z
		 M211.4,316.1l-0.5-0.2l-0.1,0.5l0.5,0.2L211.4,316.1L211.4,316.1z M210.7,315.9l-0.5-0.2l-0.1,0.5l0.5,0.2L210.7,315.9
		L210.7,315.9z M210,315.7l-0.5-0.2l-0.1,0.5l0.5,0.2L210,315.7L210,315.7L210,315.7z M209.3,315.5l-0.5-0.2l-0.1,0.5l0.5,0.2
		L209.3,315.5L209.3,315.5z M208.6,315.3l-0.5-0.2l-0.1,0.5l0.5,0.2L208.6,315.3L208.6,315.3z M212.9,322.2l0.1-0.5l-0.5-0.2
		l-0.1,0.5L212.9,322.2L212.9,322.2z M212.9,321.5l0.1-0.5l-0.5-0.2l-0.1,0.5L212.9,321.5L212.9,321.5z M213,320.8l0.1-0.5l-0.5-0.2
		l-0.1,0.5L213,320.8L213,320.8z M213.1,320.1l0.1-0.5l-0.5-0.2l-0.1,0.5L213.1,320.1L213.1,320.1z M213.2,319.4l0.1-0.5l-0.5-0.2
		l-0.1,0.5L213.2,319.4L213.2,319.4z M213.3,318.7l0.1-0.5l-0.5-0.2l-0.1,0.5L213.3,318.7L213.3,318.7z M213.4,318l0.1-0.5l-0.5-0.2
		l-0.1,0.5L213.4,318L213.4,318z M207.4,320.5l0.5,0.2l0.1-0.5l-0.5-0.2L207.4,320.5L207.4,320.5z M208.1,320.7l0.5,0.2l0.1-0.5
		l-0.5-0.2L208.1,320.7L208.1,320.7z M208.8,320.9l0.5,0.2l0.1-0.5l-0.5-0.2L208.8,320.9L208.8,320.9z M209.5,321.1l0.5,0.2l0.1-0.5
		l-0.5-0.2L209.5,321.1L209.5,321.1z M210.2,321.4l0.5,0.2l0.1-0.5l-0.5-0.2L210.2,321.4L210.2,321.4z M210.9,321.6l0.5,0.2l0.1-0.5
		l-0.5-0.2L210.9,321.6L210.9,321.6L210.9,321.6z M211.6,321.8l0.5,0.2l0.1-0.5l-0.5-0.2L211.6,321.8L211.6,321.8z M207.4,319.2
		l0.2-1.9l-2.8,0.1L207.4,319.2L207.4,319.2z M207.7,317l0.2-1.9l-2.8,0.1L207.7,317L207.7,317z M208,315.8l-0.1,0.5l0.5,0.2
		l0.1-0.5L208,315.8L208,315.8z M207.9,316.5l-0.1,0.5l0.5,0.2l0.1-0.5L207.9,316.5L207.9,316.5z M207.8,317.2L207.8,317.2
		C207.8,317.2,207.8,317.2,207.8,317.2l-0.1,0.5l0.5,0.2l0.1-0.5L207.8,317.2L207.8,317.2L207.8,317.2z M207.8,317.9l-0.1,0.5
		l0.5,0.2l0.1-0.5L207.8,317.9L207.8,317.9z M207.7,318.6l-0.1,0.5l0.5,0.2l0.1-0.5L207.7,318.6L207.7,318.6z M207.6,319.3
		c0,0.2,0,0.3-0.1,0.5l0.5,0.2l0.1-0.5L207.6,319.3L207.6,319.3L207.6,319.3z M208.7,316l-0.1,0.5l0.5,0.2l0.1-0.5L208.7,316
		L208.7,316L208.7,316z M208.6,316.7l-0.1,0.5l0.5,0.2l0.1-0.5L208.6,316.7L208.6,316.7z M208.5,317.4l-0.1,0.5l0.5,0.2l0.1-0.5
		L208.5,317.4L208.5,317.4z M208.5,318.1l-0.1,0.5l0.5,0.2l0.1-0.5L208.5,318.1L208.5,318.1z M208.4,318.8l-0.1,0.5l0.5,0.2l0.1-0.5
		L208.4,318.8L208.4,318.8z M208.3,319.5l-0.1,0.5l0.5,0.2l0.1-0.5L208.3,319.5L208.3,319.5z M209.4,316.2l-0.1,0.5l0.5,0.2l0.1-0.5
		L209.4,316.2L209.4,316.2z M209.3,316.9l-0.1,0.5l0.5,0.2l0.1-0.5L209.3,316.9L209.3,316.9z M209.2,317.6l-0.1,0.5l0.5,0.2l0.1-0.5
		L209.2,317.6L209.2,317.6z M209.2,318.3l-0.1,0.5l0.5,0.2l0.1-0.5L209.2,318.3L209.2,318.3z M209.1,319l-0.1,0.5l0.5,0.2l0.1-0.5
		L209.1,319L209.1,319z M209,319.7l-0.1,0.5l0.5,0.2l0.1-0.5L209,319.7L209,319.7z M210.1,316.5l-0.1,0.5l0.5,0.2l0.1-0.5
		L210.1,316.5L210.1,316.5z M210,317.2l-0.1,0.5l0.5,0.2l0.1-0.5L210,317.2L210,317.2L210,317.2z M209.9,317.9l-0.1,0.5l0.5,0.2
		l0.1-0.5L209.9,317.9L209.9,317.9z M209.9,318.5l-0.1,0.5l0.5,0.2l0.1-0.5L209.9,318.5L209.9,318.5z M209.8,319.2l-0.1,0.5l0.5,0.2
		l0.1-0.5L209.8,319.2L209.8,319.2z M209.7,319.9l-0.1,0.5l0.5,0.2l0.1-0.5L209.7,319.9L209.7,319.9z M210.8,316.7l-0.1,0.5l0.5,0.2
		l0.1-0.5L210.8,316.7L210.8,316.7z M210.7,317.4l-0.1,0.5l0.5,0.2l0.1-0.5L210.7,317.4L210.7,317.4z M210.6,318.1l-0.1,0.5l0.5,0.2
		l0.1-0.5L210.6,318.1L210.6,318.1z M210.6,318.8l-0.1,0.5l0.5,0.2l0.1-0.5L210.6,318.8L210.6,318.8z M210.5,319.5l-0.1,0.5l0.5,0.2
		l0.1-0.5L210.5,319.5L210.5,319.5z M210.4,320.2l-0.1,0.5l0.5,0.2l0.1-0.5L210.4,320.2L210.4,320.2z M211.5,316.9l-0.1,0.5l0.5,0.2
		l0.1-0.5L211.5,316.9L211.5,316.9L211.5,316.9z M211.4,317.6l-0.1,0.5l0.5,0.2l0.1-0.5L211.4,317.6L211.4,317.6z M211.3,318.3
		l-0.1,0.5l0.5,0.2l0.1-0.5L211.3,318.3L211.3,318.3z M211.3,319l-0.1,0.5l0.5,0.2l0.1-0.5L211.3,319L211.3,319z M211.2,319.7
		l-0.1,0.5l0.5,0.2l0.1-0.5L211.2,319.7L211.2,319.7z M211.1,320.4l-0.1,0.5l0.5,0.2l0.1-0.5L211.1,320.4L211.1,320.4z M212.2,317.1
		l-0.1,0.5l0.5,0.2l0.1-0.5L212.2,317.1L212.2,317.1z M212.1,317.8l-0.1,0.5l0.5,0.2l0.1-0.5L212.1,317.8L212.1,317.8z M212,318.5
		L212,319l0.5,0.2l0.1-0.5L212,318.5L212,318.5z M212,319.2l-0.1,0.5l0.5,0.2l0.1-0.5L212,319.2L212,319.2L212,319.2z M211.9,319.9
		l-0.1,0.5l0.5,0.2l0.1-0.5L211.9,319.9L211.9,319.9z M211.8,320.6l-0.1,0.5l0.5,0.2l0.1-0.5L211.8,320.6L211.8,320.6z M207.5,309.1
		l-5.4-1.7l-2.6,4.8l5.4,1.7L207.5,309.1L207.5,309.1z M207.7,309.2l-0.9,1.7l3.1,0L207.7,309.2L207.7,309.2L207.7,309.2z
		 M206.6,311.1l-0.9,1.7l3.1,0L206.6,311.1L206.6,311.1z M208,314.8l1-1.8l-3.2,0L208,314.8L208,314.8L208,314.8z M209.1,312.8
		l0.9-1.7l-3.1,0L209.1,312.8L209.1,312.8z M210.1,310.8l0.4-0.8l0,0l0,0c0-0.3,0.1-0.7,0.1-1l-2.8,0.2L210.1,310.8L210.1,310.8
		L210.1,310.8z M208.2,303.5l-0.5-0.2l-0.1,0.5l0.5,0.2L208.2,303.5L208.2,303.5z M207.5,303.3l-0.5-0.2l-0.1,0.5l0.5,0.2
		L207.5,303.3L207.5,303.3z M206.8,303.1l-0.5-0.2l-0.1,0.5l0.5,0.2L206.8,303.1L206.8,303.1z M206.1,302.9l-0.5-0.2l-0.1,0.5
		l0.5,0.2L206.1,302.9L206.1,302.9z M205.4,302.6l-0.5-0.2l-0.1,0.5l0.5,0.2L205.4,302.6L205.4,302.6z M204.7,302.4l-0.5-0.2
		l-0.1,0.5l0.5,0.2L204.7,302.4L204.7,302.4z M204,302.2l-0.5-0.2l-0.1,0.5l0.5,0.2L204,302.2L204,302.2z M203.3,302l-0.5-0.2
		l-0.1,0.5l0.5,0.2L203.3,302L203.3,302z M208.4,303.5c0,0.3-0.1,0.6-0.1,1l2.8-0.1l-2.2-1.8L208.4,303.5L208.4,303.5z M208.3,304.7
		c-0.1,0.7-0.2,1.3-0.2,2l2.8-0.1L208.3,304.7L208.3,304.7z M207.7,308.9l2.8-0.2l-2.5-1.8C207.9,307.6,207.8,308.3,207.7,308.9
		L207.7,308.9z M207.5,308.9l0.1-0.5l-0.5-0.2l-0.1,0.5L207.5,308.9L207.5,308.9L207.5,308.9z M207.6,308.2l0.1-0.5l-0.5-0.2
		l-0.1,0.5L207.6,308.2L207.6,308.2z M207.7,307.5l0.1-0.5l-0.5-0.2l-0.1,0.5L207.7,307.5L207.7,307.5z M207.8,306.8l0.1-0.5
		l-0.5-0.2l-0.1,0.5L207.8,306.8L207.8,306.8z M207.9,306.1l0.1-0.5l-0.5-0.2l-0.1,0.5L207.9,306.1L207.9,306.1z M208,305.4l0.1-0.5
		l-0.5-0.2l-0.1,0.5L208,305.4L208,305.4z M208.1,304.7l0.1-0.5l-0.5-0.2l-0.1,0.5L208.1,304.7L208.1,304.7z M202.1,307.2l0.5,0.2
		l0.1-0.5l-0.5-0.2L202.1,307.2L202.1,307.2z M202.8,307.4l0.5,0.2l0.1-0.5l-0.5-0.2L202.8,307.4L202.8,307.4z M203.5,307.6l0.5,0.2
		l0.1-0.5l-0.5-0.2L203.5,307.6L203.5,307.6z M204.2,307.9l0.5,0.2l0.1-0.5l-0.5-0.2L204.2,307.9L204.2,307.9z M204.9,308.1l0.5,0.2
		l0.1-0.5l-0.5-0.2L204.9,308.1L204.9,308.1z M205.6,308.3l0.5,0.2l0.1-0.5l-0.5-0.2L205.6,308.3L205.6,308.3L205.6,308.3z
		 M206.3,308.5l0.5,0.2l0.1-0.5l-0.5-0.2L206.3,308.5L206.3,308.5L206.3,308.5z M202.7,302.5l-0.1,0.5l0.5,0.2l0.1-0.5L202.7,302.5
		L202.7,302.5z M202.6,303.2l-0.1,0.5l0.5,0.2l0.1-0.5L202.6,303.2L202.6,303.2z M202.5,303.9l-0.1,0.5l0.5,0.2l0.1-0.5L202.5,303.9
		L202.5,303.9z M202.4,304.6l-0.1,0.5l0.5,0.2l0.1-0.5L202.4,304.6L202.4,304.6z M202.4,305.3l-0.1,0.5l0.5,0.2l0.1-0.5L202.4,305.3
		L202.4,305.3z M202.3,306l-0.1,0.5l0.5,0.2l0.1-0.5L202.3,306L202.3,306z M203.4,302.7l-0.1,0.5l0.5,0.2l0.1-0.5L203.4,302.7
		L203.4,302.7z M203.3,303.4l-0.1,0.5l0.5,0.2l0.1-0.5L203.3,303.4L203.3,303.4z M203.2,304.1l-0.1,0.5l0.5,0.2l0.1-0.5L203.2,304.1
		L203.2,304.1z M203.1,304.8l-0.1,0.5l0.5,0.2l0.1-0.5L203.1,304.8L203.1,304.8z M203.1,305.5L203,306l0.5,0.2l0.1-0.5L203.1,305.5
		L203.1,305.5z M203,306.2l-0.1,0.5l0.5,0.2l0.1-0.5L203,306.2L203,306.2z M204.1,302.9l-0.1,0.5l0.5,0.2l0.1-0.5L204.1,302.9
		L204.1,302.9z M204,303.6l-0.1,0.5l0.5,0.2l0.1-0.5L204,303.6L204,303.6L204,303.6z M203.9,304.3l-0.1,0.5l0.5,0.2l0.1-0.5
		L203.9,304.3L203.9,304.3z M203.8,305l-0.1,0.5l0.5,0.2l0.1-0.5L203.8,305L203.8,305z M203.8,305.7l-0.1,0.5l0.5,0.2l0.1-0.5
		L203.8,305.7L203.8,305.7L203.8,305.7z M203.7,306.4l-0.1,0.5l0.5,0.2l0.1-0.5L203.7,306.4L203.7,306.4z M204.8,303.2l-0.1,0.5
		l0.5,0.2l0.1-0.5L204.8,303.2L204.8,303.2z M204.7,303.9l-0.1,0.5l0.5,0.2l0.1-0.5L204.7,303.9L204.7,303.9z M204.6,304.6l-0.1,0.5
		l0.5,0.2l0.1-0.5L204.6,304.6L204.6,304.6L204.6,304.6z M204.5,305.3l-0.1,0.5l0.5,0.2l0.1-0.5L204.5,305.3L204.5,305.3z
		 M204.5,306l-0.1,0.5l0.5,0.2l0.1-0.5L204.5,306L204.5,306z M204.4,306.7l-0.1,0.5l0.5,0.2l0.1-0.5L204.4,306.7L204.4,306.7z
		 M205.5,303.4l-0.1,0.5l0.5,0.2l0.1-0.5L205.5,303.4L205.5,303.4z M205.4,304.1l-0.1,0.5l0.5,0.2l0.1-0.5L205.4,304.1L205.4,304.1z
		 M205.3,304.8l-0.1,0.5l0.5,0.2l0.1-0.5L205.3,304.8L205.3,304.8z M205.2,305.5l-0.1,0.5l0.5,0.2l0.1-0.5L205.2,305.5L205.2,305.5z
		 M205.2,306.2l-0.1,0.5l0.5,0.2l0.1-0.5L205.2,306.2L205.2,306.2z M205.1,306.9l-0.1,0.5l0.5,0.2l0.1-0.5L205.1,306.9L205.1,306.9z
		 M206.2,303.6l-0.1,0.5l0.5,0.2l0.1-0.5L206.2,303.6L206.2,303.6z M206.1,304.3l-0.1,0.5l0.5,0.2l0.1-0.5L206.1,304.3L206.1,304.3z
		 M206,305l-0.1,0.5l0.5,0.2l0.1-0.5L206,305L206,305z M205.9,305.7l-0.1,0.5l0.5,0.2l0.1-0.5L205.9,305.7L205.9,305.7z
		 M205.9,306.4l-0.1,0.5l0.5,0.2l0.1-0.5L205.9,306.4L205.9,306.4z M205.8,307.1l-0.1,0.5l0.5,0.2l0.1-0.5L205.8,307.1L205.8,307.1z
		 M206.9,303.8l-0.1,0.5l0.5,0.2l0.1-0.5L206.9,303.8L206.9,303.8z M206.8,304.5l-0.1,0.5l0.5,0.2l0.1-0.5L206.8,304.5L206.8,304.5
		L206.8,304.5z M206.7,305.2l-0.1,0.5l0.5,0.2l0.1-0.5L206.7,305.2L206.7,305.2z M206.6,305.9l-0.1,0.5l0.5,0.2l0.1-0.5L206.6,305.9
		L206.6,305.9z M206.6,306.6l-0.1,0.5l0.5,0.2l0.1-0.5L206.6,306.6L206.6,306.6L206.6,306.6z M206.5,307.3l-0.1,0.5l0.5,0.2l0.1-0.5
		L206.5,307.3L206.5,307.3z M211.5,304.4l5.4,1.7l2.6-4.8l-5.4-1.7C213.2,301.2,212.4,302.8,211.5,304.4L211.5,304.4z M216.9,306.3
		l-0.5-0.2l-0.1,0.5l0.5,0.2L216.9,306.3L216.9,306.3z M216.1,306l-0.5-0.2l-0.1,0.5l0.5,0.2L216.1,306L216.1,306z M215.4,305.8
		l-0.5-0.2l-0.1,0.5l0.5,0.2L215.4,305.8L215.4,305.8z M214.7,305.6l-0.5-0.2l-0.1,0.5l0.5,0.2L214.7,305.6L214.7,305.6z M214,305.4
		l-0.5-0.2l-0.1,0.5l0.5,0.2L214,305.4L214,305.4z M213.3,305.2l-0.5-0.2l-0.1,0.5l0.5,0.2L213.3,305.2L213.3,305.2z M212.6,304.9
		l-0.5-0.2l-0.1,0.5l0.5,0.2L212.6,304.9L212.6,304.9z M211.9,304.7l-0.5-0.2l-0.1,0.5l0.5,0.2L211.9,304.7L211.9,304.7z
		 M216.2,311.6l0.1-0.5l-0.5-0.2l-0.1,0.5L216.2,311.6L216.2,311.6z M216.3,310.9l0.1-0.5l-0.5-0.2l-0.1,0.5L216.3,310.9
		L216.3,310.9z M216.4,310.2l0.1-0.5l-0.5-0.2l-0.1,0.5L216.4,310.2L216.4,310.2z M216.4,309.5l0.1-0.5l-0.5-0.2l-0.1,0.5
		L216.4,309.5L216.4,309.5z M216.5,308.8l0.1-0.5l-0.5-0.2l-0.1,0.5L216.5,308.8L216.5,308.8z M216.6,308.1l0.1-0.5l-0.5-0.2
		l-0.1,0.5L216.6,308.1L216.6,308.1z M216.7,307.4l0.1-0.5l-0.5-0.2l-0.1,0.5L216.7,307.4L216.7,307.4z M210.8,309.9l0.5,0.2
		l0.1-0.5l-0.5-0.2L210.8,309.9L210.8,309.9z M211.5,310.2l0.5,0.2l0.1-0.5l-0.5-0.2L211.5,310.2L211.5,310.2z M212.2,310.4l0.5,0.2
		l0.1-0.5l-0.5-0.2L212.2,310.4L212.2,310.4z M212.9,310.6l0.5,0.2l0.1-0.5l-0.5-0.2L212.9,310.6L212.9,310.6z M213.6,310.8l0.5,0.2
		l0.1-0.5l-0.5-0.2L213.6,310.8L213.6,310.8z M214.3,311l0.5,0.2l0.1-0.5l-0.5-0.2L214.3,311L214.3,311z M215,311.3l0.5,0.2l0.1-0.5
		l-0.5-0.2L215,311.3L215,311.3L215,311.3z M210.7,308.7l0.2-1.9l-2.8,0.1L210.7,308.7L210.7,308.7L210.7,308.7z M211,306.5l0.2-1.9
		l-2.8,0.1L211,306.5L211,306.5z M211.4,305.2l-0.1,0.5l0.5,0.2l0.1-0.5L211.4,305.2L211.4,305.2z M211.3,305.9l-0.1,0.5l0.5,0.2
		l0.1-0.5L211.3,305.9L211.3,305.9z M211.2,306.6L211.2,306.6C211.2,306.7,211.2,306.7,211.2,306.6l-0.1,0.5l0.5,0.2l0.1-0.5
		L211.2,306.6L211.2,306.6z M211.1,307.3l-0.1,0.5l0.5,0.2l0.1-0.5L211.1,307.3L211.1,307.3z M211,308l-0.1,0.5l0.5,0.2l0.1-0.5
		L211,308L211,308z M210.9,308.7l0,0.1v0l0,0.3l0.5,0.2l0.1-0.5L210.9,308.7L210.9,308.7z M212.1,305.5L212,306l0.5,0.2l0.1-0.5
		L212.1,305.5L212.1,305.5z M212,306.2l-0.1,0.5l0.5,0.2l0.1-0.5L212,306.2L212,306.2z M211.9,306.9l-0.1,0.5l0.5,0.2l0.1-0.5
		L211.9,306.9L211.9,306.9z M211.8,307.6l-0.1,0.5l0.5,0.2l0.1-0.5L211.8,307.6L211.8,307.6z M211.7,308.2l-0.1,0.5l0.5,0.2l0.1-0.5
		L211.7,308.2L211.7,308.2z M211.6,308.9l-0.1,0.5l0.5,0.2l0.1-0.5L211.6,308.9L211.6,308.9L211.6,308.9z M212.8,305.7l-0.1,0.5
		l0.5,0.2l0.1-0.5L212.8,305.7L212.8,305.7z M212.7,306.4l-0.1,0.5l0.5,0.2l0.1-0.5L212.7,306.4L212.7,306.4L212.7,306.4z
		 M212.6,307.1l-0.1,0.5l0.5,0.2l0.1-0.5L212.6,307.1L212.6,307.1z M212.5,307.8l-0.1,0.5l0.5,0.2l0.1-0.5L212.5,307.8L212.5,307.8z
		 M212.4,308.5l-0.1,0.5l0.5,0.2l0.1-0.5L212.4,308.5L212.4,308.5z M212.3,309.2l-0.1,0.5l0.5,0.2l0.1-0.5L212.3,309.2L212.3,309.2z
		 M213.5,305.9l-0.1,0.5l0.5,0.2l0.1-0.5L213.5,305.9L213.5,305.9z M213.4,306.6l-0.1,0.5l0.5,0.2l0.1-0.5L213.4,306.6L213.4,306.6z
		 M213.3,307.3l-0.1,0.5l0.5,0.2l0.1-0.5L213.3,307.3L213.3,307.3z M213.2,308l-0.1,0.5l0.5,0.2l0.1-0.5L213.2,308L213.2,308z
		 M213.1,308.7l-0.1,0.5l0.5,0.2l0.1-0.5L213.1,308.7L213.1,308.7z M213,309.4l-0.1,0.5l0.5,0.2l0.1-0.5L213,309.4L213,309.4z
		 M214.2,306.1l-0.1,0.5l0.5,0.2l0.1-0.5L214.2,306.1L214.2,306.1L214.2,306.1z M214.1,306.8l-0.1,0.5l0.5,0.2l0.1-0.5L214.1,306.8
		L214.1,306.8z M214,307.5l-0.1,0.5l0.5,0.2l0.1-0.5L214,307.5L214,307.5z M213.9,308.2l-0.1,0.5l0.5,0.2l0.1-0.5L213.9,308.2
		L213.9,308.2L213.9,308.2z M213.8,308.9l-0.1,0.5l0.5,0.2l0.1-0.5L213.8,308.9L213.8,308.9z M213.7,309.6l-0.1,0.5l0.5,0.2l0.1-0.5
		L213.7,309.6L213.7,309.6z M214.9,306.3l-0.1,0.5l0.5,0.2l0.1-0.5L214.9,306.3L214.9,306.3z M214.8,307l-0.1,0.5l0.5,0.2l0.1-0.5
		L214.8,307L214.8,307z M214.7,307.7l-0.1,0.5l0.5,0.2l0.1-0.5L214.7,307.7L214.7,307.7z M214.6,308.4l-0.1,0.5l0.5,0.2l0.1-0.5
		L214.6,308.4L214.6,308.4z M214.5,309.1l-0.1,0.5l0.5,0.2l0.1-0.5L214.5,309.1L214.5,309.1z M214.4,309.8l-0.1,0.5l0.5,0.2l0.1-0.5
		L214.4,309.8L214.4,309.8z M215.6,306.6l-0.1,0.5l0.5,0.2l0.1-0.5L215.6,306.6L215.6,306.6z M215.5,307.3l-0.1,0.5l0.5,0.2l0.1-0.5
		L215.5,307.3L215.5,307.3L215.5,307.3z M215.4,308l-0.1,0.5l0.5,0.2l0.1-0.5L215.4,308L215.4,308z M215.3,308.7l-0.1,0.5l0.5,0.2
		l0.1-0.5L215.3,308.7L215.3,308.7z M215.2,309.4l-0.1,0.5l0.5,0.2l0.1-0.5L215.2,309.4L215.2,309.4z M215.1,310.1l-0.1,0.5l0.5,0.2
		l0.1-0.5L215.1,310.1L215.1,310.1z M210.8,298.5l-5.4-1.7l-2.6,4.8l5.4,1.7L210.8,298.5L210.8,298.5z M211,298.6l-0.9,1.7l3.1,0
		L211,298.6L211,298.6z M210,300.6l-0.9,1.7l3.1,0L210,300.6L210,300.6z M202.6,301.6L202.6,301.6L202.6,301.6L202.6,301.6z
		 M211.3,304.3l1-1.8l-3.2,0L211.3,304.3L211.3,304.3L211.3,304.3z M212.4,302.2l0.9-1.7l-3.1,0L212.4,302.2L212.4,302.2z
		 M213.5,300.3l0.4-0.8l0,0l0,0c0-0.3,0.1-0.7,0.1-1l-2.8,0.2L213.5,300.3L213.5,300.3L213.5,300.3z M211.5,293l-0.5-0.2l-0.1,0.5
		l0.5,0.2L211.5,293L211.5,293L211.5,293z M210.8,292.7l-0.5-0.2l-0.1,0.5l0.5,0.2L210.8,292.7L210.8,292.7z M210.1,292.5l-0.5-0.2
		l-0.1,0.5l0.5,0.2L210.1,292.5L210.1,292.5z M209.4,292.3l-0.5-0.2l-0.1,0.5l0.5,0.2L209.4,292.3L209.4,292.3z M208.7,292.1
		l-0.5-0.2l-0.1,0.5l0.5,0.2L208.7,292.1L208.7,292.1z M208,291.9l-0.5-0.2l-0.1,0.5l0.5,0.2L208,291.9L208,291.9z M207.3,291.6
		l-0.5-0.2l-0.1,0.5l0.5,0.2L207.3,291.6L207.3,291.6L207.3,291.6z M206.6,291.4l-0.5-0.2l-0.1,0.5l0.5,0.2L206.6,291.4L206.6,291.4
		L206.6,291.4z M211.7,292.9c0,0.3-0.1,0.6-0.1,1l2.8-0.1l-2.2-1.8L211.7,292.9L211.7,292.9z M211.6,294.2c-0.1,0.7-0.2,1.3-0.2,2
		l2.8-0.1L211.6,294.2L211.6,294.2L211.6,294.2z M211.1,298.4l2.8-0.2l-2.5-1.8C211.2,297.1,211.2,297.7,211.1,298.4L211.1,298.4
		L211.1,298.4z M210.9,298.4l0.1-0.5l-0.5-0.2l-0.1,0.5L210.9,298.4L210.9,298.4z M211,297.6l0.1-0.5l-0.5-0.2l-0.1,0.5L211,297.6
		L211,297.6z M211.1,297l0.1-0.5l-0.5-0.2l-0.1,0.5L211.1,297L211.1,297z M211.1,296.3l0.1-0.5l-0.5-0.2l-0.1,0.5L211.1,296.3
		L211.1,296.3z M211.2,295.6l0.1-0.5l-0.5-0.2l-0.1,0.5L211.2,295.6L211.2,295.6z M211.3,294.9l0.1-0.5l-0.5-0.2l-0.1,0.5
		L211.3,294.9L211.3,294.9z M211.4,294.2l0.1-0.5l-0.5-0.2l-0.1,0.5L211.4,294.2L211.4,294.2z M205.5,296.6l0.5,0.2l0.1-0.5
		l-0.5-0.2L205.5,296.6L205.5,296.6z M206.2,296.9l0.5,0.2l0.1-0.5l-0.5-0.2L206.2,296.9L206.2,296.9z M206.9,297.1l0.5,0.2l0.1-0.5
		l-0.5-0.2L206.9,297.1L206.9,297.1z M207.6,297.3l0.5,0.2l0.1-0.5l-0.5-0.2L207.6,297.3L207.6,297.3z M208.3,297.5l0.5,0.2l0.1-0.5
		l-0.5-0.2L208.3,297.5L208.3,297.5L208.3,297.5z M209,297.7l0.5,0.2l0.1-0.5l-0.5-0.2L209,297.7L209,297.7z M209.7,298l0.5,0.2
		l0.1-0.5l-0.5-0.2L209.7,298L209.7,298z M206,292l-0.1,0.5l0.5,0.2l0.1-0.5L206,292L206,292z M206,292.6l-0.1,0.5l0.5,0.2l0.1-0.5
		L206,292.6L206,292.6L206,292.6z M205.9,293.3l-0.1,0.5l0.5,0.2l0.1-0.5L205.9,293.3L205.9,293.3z M205.8,294l-0.1,0.5l0.5,0.2
		l0.1-0.5L205.8,294L205.8,294z M205.7,294.7l-0.1,0.5l0.5,0.2l0.1-0.5L205.7,294.7L205.7,294.7z M205.6,295.4l-0.1,0.5l0.5,0.2
		l0.1-0.5L205.6,295.4L205.6,295.4L205.6,295.4z M206.7,292.2l-0.1,0.5l0.5,0.2l0.1-0.5L206.7,292.2L206.7,292.2z M206.7,292.9
		l-0.1,0.5l0.5,0.2l0.1-0.5L206.7,292.9L206.7,292.9L206.7,292.9z M206.6,293.6l-0.1,0.5l0.5,0.2l0.1-0.5L206.6,293.6L206.6,293.6
		L206.6,293.6z M206.5,294.3l-0.1,0.5l0.5,0.2l0.1-0.5L206.5,294.3L206.5,294.3L206.5,294.3z M206.4,295l-0.1,0.5l0.5,0.2l0.1-0.5
		L206.4,295L206.4,295z M206.3,295.7l-0.1,0.5l0.5,0.2l0.1-0.5L206.3,295.7L206.3,295.7z M207.4,292.4l-0.1,0.5l0.5,0.2l0.1-0.5
		L207.4,292.4L207.4,292.4z M207.4,293.1l-0.1,0.5l0.5,0.2l0.1-0.5L207.4,293.1L207.4,293.1z M207.3,293.8l-0.1,0.5l0.5,0.2l0.1-0.5
		L207.3,293.8L207.3,293.8L207.3,293.8z M207.2,294.5l-0.1,0.5l0.5,0.2l0.1-0.5L207.2,294.5L207.2,294.5z M207.1,295.2l-0.1,0.5
		l0.5,0.2l0.1-0.5L207.1,295.2L207.1,295.2z M207,295.9l-0.1,0.5l0.5,0.2l0.1-0.5L207,295.9L207,295.9z M208.1,292.6l-0.1,0.5
		l0.5,0.2l0.1-0.5L208.1,292.6L208.1,292.6L208.1,292.6z M208.1,293.3l-0.1,0.5l0.5,0.2l0.1-0.5L208.1,293.3L208.1,293.3z M208,294
		l-0.1,0.5l0.5,0.2l0.1-0.5L208,294L208,294z M207.9,294.7l-0.1,0.5l0.5,0.2l0.1-0.5L207.9,294.7L207.9,294.7z M207.8,295.4
		l-0.1,0.5l0.5,0.2l0.1-0.5L207.8,295.4L207.8,295.4z M207.7,296.1l-0.1,0.5l0.5,0.2l0.1-0.5L207.7,296.1L207.7,296.1z M208.8,292.8
		l-0.1,0.5l0.5,0.2l0.1-0.5L208.8,292.8L208.8,292.8z M208.8,293.5l-0.1,0.5l0.5,0.2l0.1-0.5L208.8,293.5L208.8,293.5L208.8,293.5z
		 M208.7,294.2l-0.1,0.5l0.5,0.2l0.1-0.5L208.7,294.2L208.7,294.2z M208.6,294.9l-0.1,0.5l0.5,0.2l0.1-0.5L208.6,294.9L208.6,294.9z
		 M208.5,295.6l-0.1,0.5l0.5,0.2l0.1-0.5L208.5,295.6L208.5,295.6z M208.4,296.3l-0.1,0.5l0.5,0.2l0.1-0.5L208.4,296.3L208.4,296.3z
		 M209.5,293.1l-0.1,0.5l0.5,0.2l0.1-0.5L209.5,293.1L209.5,293.1z M209.5,293.8l-0.1,0.5l0.5,0.2l0.1-0.5L209.5,293.8L209.5,293.8z
		 M209.4,294.5l-0.1,0.5l0.5,0.2l0.1-0.5L209.4,294.5L209.4,294.5z M209.3,295.1l-0.1,0.5l0.5,0.2l0.1-0.5L209.3,295.1L209.3,295.1z
		 M209.2,295.8l-0.1,0.5l0.5,0.2l0.1-0.5L209.2,295.8L209.2,295.8L209.2,295.8z M209.1,296.5l-0.1,0.5l0.5,0.2l0.1-0.5L209.1,296.5
		L209.1,296.5z M210.2,293.3l-0.1,0.5l0.5,0.2l0.1-0.5L210.2,293.3L210.2,293.3z M210.2,294l-0.1,0.5l0.5,0.2l0.1-0.5L210.2,294
		L210.2,294z M210.1,294.7l-0.1,0.5l0.5,0.2l0.1-0.5L210.1,294.7L210.1,294.7L210.1,294.7z M210,295.4l-0.1,0.5l0.5,0.2l0.1-0.5
		L210,295.4L210,295.4z M209.9,296.1l-0.1,0.5l0.5,0.2l0.1-0.5L209.9,296.1L209.9,296.1z M209.8,296.8l-0.1,0.5l0.5,0.2l0.1-0.5
		L209.8,296.8L209.8,296.8L209.8,296.8z M220.2,295.7l-0.5-0.2l-0.1,0.5l0.5,0.2L220.2,295.7L220.2,295.7z M219.5,295.5l-0.5-0.2
		l-0.1,0.5l0.5,0.2L219.5,295.5L219.5,295.5z M218.8,295.3l-0.5-0.2l-0.1,0.5l0.5,0.2L218.8,295.3L218.8,295.3z M218.1,295l-0.5-0.2
		l-0.1,0.5l0.5,0.2L218.1,295L218.1,295z M217.4,294.8l-0.5-0.2l-0.1,0.5l0.5,0.2L217.4,294.8L217.4,294.8z M216.7,294.6l-0.5-0.2
		l-0.1,0.5l0.5,0.2L216.7,294.6L216.7,294.6z M216,294.4l-0.5-0.2l-0.1,0.5l0.5,0.2L216,294.4L216,294.4z M215.3,294.2l-0.5-0.2
		l-0.1,0.5l0.5,0.2L215.3,294.2L215.3,294.2z M219.5,301.1l0.1-0.5l-0.5-0.2l-0.1,0.5L219.5,301.1L219.5,301.1z M219.6,300.4
		l0.1-0.5l-0.5-0.2l-0.1,0.5L219.6,300.4L219.6,300.4z M219.7,299.7l0.1-0.5l-0.5-0.2l-0.1,0.5L219.7,299.7L219.7,299.7z M219.8,299
		l0.1-0.5l-0.5-0.2l-0.1,0.5L219.8,299L219.8,299z M219.9,298.3l0.1-0.5l-0.5-0.2l-0.1,0.5L219.9,298.3L219.9,298.3z M220,297.6
		l0.1-0.5l-0.5-0.2l-0.1,0.5L220,297.6L220,297.6z M220,296.9l0.1-0.5l-0.5-0.2l-0.1,0.5L220,296.9L220,296.9z M214.1,299.4l0.5,0.2
		l0.1-0.5l-0.5-0.2L214.1,299.4L214.1,299.4z M214.8,299.6l0.5,0.2l0.1-0.5l-0.5-0.2L214.8,299.6L214.8,299.6z M215.5,299.8l0.5,0.2
		l0.1-0.5l-0.5-0.2L215.5,299.8L215.5,299.8z M216.2,300l0.5,0.2l0.1-0.5l-0.5-0.2L216.2,300L216.2,300z M216.9,300.3l0.5,0.2
		l0.1-0.5l-0.5-0.2L216.9,300.3L216.9,300.3z M217.6,300.5l0.5,0.2l0.1-0.5l-0.5-0.2L217.6,300.5L217.6,300.5z M218.3,300.7l0.5,0.2
		l0.1-0.5l-0.5-0.2L218.3,300.7L218.3,300.7L218.3,300.7z M214.1,298.1l0.2-1.9l-2.8,0.1L214.1,298.1L214.1,298.1z M214.3,295.9
		l0.2-1.9l-2.8,0.1L214.3,295.9L214.3,295.9z M214.7,294.7l-0.1,0.5l0.5,0.2l0.1-0.5L214.7,294.7L214.7,294.7z M214.6,295.4
		l-0.1,0.5l0.5,0.2l0.1-0.5L214.6,295.4L214.6,295.4z M214.5,296.1L214.5,296.1C214.5,296.1,214.5,296.1,214.5,296.1l-0.1,0.5
		l0.5,0.2l0.1-0.5L214.5,296.1L214.5,296.1z M214.4,296.8l-0.1,0.5l0.5,0.2l0.1-0.5L214.4,296.8L214.4,296.8z M214.3,297.5l-0.1,0.5
		l0.5,0.2l0.1-0.5L214.3,297.5L214.3,297.5z M214.3,298.2l0,0.1v0l0,0.4l0.5,0.2l0.1-0.5L214.3,298.2L214.3,298.2z M215.4,294.9
		l-0.1,0.5l0.5,0.2l0.1-0.5L215.4,294.9L215.4,294.9z M215.3,295.6l-0.1,0.5l0.5,0.2l0.1-0.5L215.3,295.6L215.3,295.6L215.3,295.6z
		 M215.2,296.3l-0.1,0.5l0.5,0.2l0.1-0.5L215.2,296.3L215.2,296.3L215.2,296.3z M215.1,297l-0.1,0.5l0.5,0.2l0.1-0.5L215.1,297
		L215.1,297z M215,297.7l-0.1,0.5l0.5,0.2l0.1-0.5L215,297.7L215,297.7z M215,298.4l-0.1,0.5l0.5,0.2l0.1-0.5L215,298.4L215,298.4
		L215,298.4z M216.1,295.1l-0.1,0.5l0.5,0.2l0.1-0.5L216.1,295.1L216.1,295.1z M216,295.8l-0.1,0.5l0.5,0.2l0.1-0.5L216,295.8
		L216,295.8z M215.9,296.5l-0.1,0.5l0.5,0.2l0.1-0.5L215.9,296.5L215.9,296.5z M215.8,297.2l-0.1,0.5l0.5,0.2l0.1-0.5L215.8,297.2
		L215.8,297.2z M215.7,297.9l-0.1,0.5l0.5,0.2l0.1-0.5L215.7,297.9L215.7,297.9z M215.7,298.6l-0.1,0.5l0.5,0.2l0.1-0.5L215.7,298.6
		L215.7,298.6z M216.8,295.3l-0.1,0.5l0.5,0.2l0.1-0.5L216.8,295.3L216.8,295.3z M216.7,296l-0.1,0.5l0.5,0.2l0.1-0.5L216.7,296
		L216.7,296z M216.6,296.7l-0.1,0.5l0.5,0.2l0.1-0.5L216.6,296.7L216.6,296.7z M216.5,297.4l-0.1,0.5l0.5,0.2l0.1-0.5L216.5,297.4
		L216.5,297.4z M216.4,298.1l-0.1,0.5l0.5,0.2l0.1-0.5L216.4,298.1L216.4,298.1z M216.4,298.8l-0.1,0.5l0.5,0.2l0.1-0.5L216.4,298.8
		L216.4,298.8z M217.5,295.6l-0.1,0.5l0.5,0.2l0.1-0.5L217.5,295.6L217.5,295.6z M217.4,296.3l-0.1,0.5l0.5,0.2l0.1-0.5L217.4,296.3
		L217.4,296.3z M217.3,297l-0.1,0.5l0.5,0.2l0.1-0.5L217.3,297L217.3,297z M217.2,297.7l-0.1,0.5l0.5,0.2l0.1-0.5L217.2,297.7
		L217.2,297.7z M217.1,298.4l-0.1,0.5l0.5,0.2l0.1-0.5L217.1,298.4L217.1,298.4z M217.1,299.1l-0.1,0.5l0.5,0.2l0.1-0.5L217.1,299.1
		L217.1,299.1z M218.2,295.8l-0.1,0.5l0.5,0.2l0.1-0.5L218.2,295.8L218.2,295.8z M218.1,296.5L218,297l0.5,0.2l0.1-0.5L218.1,296.5
		L218.1,296.5z M218,297.2l-0.1,0.5l0.5,0.2l0.1-0.5L218,297.2L218,297.2z M217.9,297.9l-0.1,0.5l0.5,0.2l0.1-0.5L217.9,297.9
		L217.9,297.9L217.9,297.9z M217.8,298.6l-0.1,0.5l0.5,0.2l0.1-0.5L217.8,298.6L217.8,298.6z M217.8,299.3l-0.1,0.5l0.5,0.2l0.1-0.5
		L217.8,299.3L217.8,299.3z M218.9,296l-0.1,0.5l0.5,0.2l0.1-0.5L218.9,296L218.9,296L218.9,296z M218.8,296.7l-0.1,0.5l0.5,0.2
		l0.1-0.5L218.8,296.7L218.8,296.7z M218.7,297.4l-0.1,0.5l0.5,0.2l0.1-0.5L218.7,297.4L218.7,297.4z M218.6,298.1l-0.1,0.5l0.5,0.2
		l0.1-0.5L218.6,298.1L218.6,298.1z M218.5,298.8l-0.1,0.5l0.5,0.2l0.1-0.5L218.5,298.8L218.5,298.8z M218.5,299.5l-0.1,0.5l0.5,0.2
		l0.1-0.5L218.5,299.5L218.5,299.5z M214.2,288l-5.4-1.7l-2.6,4.8l5.4,1.7L214.2,288L214.2,288L214.2,288z M214.3,288.1l-0.9,1.7
		l3.1,0L214.3,288.1L214.3,288.1z M213.3,290l-0.9,1.7l3.1,0L213.3,290L213.3,290z M222.8,290.7l-5.4-1.7c-0.8,1.6-1.7,3.2-2.5,4.8
		l5.4,1.7L222.8,290.7L222.8,290.7L222.8,290.7z M214.7,293.7l1-1.8l-3.2,0L214.7,293.7L214.7,293.7L214.7,293.7z M215.8,291.7
		l0.9-1.7l-3.1,0L215.8,291.7L215.8,291.7z M216.8,289.7l0.4-0.8l0,0l0,0c0-0.3,0.1-0.7,0.1-1l-2.8,0.2L216.8,289.7L216.8,289.7
		L216.8,289.7z M214.9,282.4l-0.5-0.2l-0.1,0.5l0.5,0.2L214.9,282.4L214.9,282.4z M214.2,282.2l-0.5-0.2l-0.1,0.5l0.5,0.2
		L214.2,282.2L214.2,282.2z M213.5,282l-0.5-0.2l-0.1,0.5l0.5,0.2L213.5,282L213.5,282z M212.8,281.8l-0.5-0.2l-0.1,0.5l0.5,0.2
		L212.8,281.8L212.8,281.8z M212.1,281.5l-0.5-0.2l-0.1,0.5l0.5,0.2L212.1,281.5L212.1,281.5z M211.4,281.3l-0.5-0.2l-0.1,0.5
		l0.5,0.2L211.4,281.3L211.4,281.3z M210.7,281.1l-0.5-0.2l-0.1,0.5l0.5,0.2L210.7,281.1L210.7,281.1z M210,280.9l-0.5-0.2l-0.1,0.5
		l0.5,0.2L210,280.9L210,280.9z M215.1,282.4c0,0.3-0.1,0.6-0.1,1l2.8-0.1l-2.2-1.8L215.1,282.4L215.1,282.4z M214.9,283.6
		c-0.1,0.7-0.2,1.3-0.2,2l2.8-0.1L214.9,283.6L214.9,283.6L214.9,283.6z M214.6,285.9c-0.1,0.7-0.2,1.3-0.2,1.9l2.8-0.2L214.6,285.9
		C214.7,285.8,214.7,285.9,214.6,285.9C214.7,285.9,214.6,285.9,214.6,285.9L214.6,285.9L214.6,285.9z M214.2,287.8l0.1-0.5
		l-0.5-0.2l-0.1,0.5L214.2,287.8L214.2,287.8z M214.3,287.1l0.1-0.5l-0.5-0.2l-0.1,0.5L214.3,287.1L214.3,287.1z M214.4,286.4
		l0.1-0.5l-0.5-0.2l-0.1,0.5L214.4,286.4L214.4,286.4z M214.5,285.7l0.1-0.5L214,285l-0.1,0.5L214.5,285.7L214.5,285.7z M214.6,285
		l0.1-0.5l-0.5-0.2l-0.1,0.5L214.6,285L214.6,285z M214.6,284.3l0.1-0.5l-0.5-0.2l-0.1,0.5L214.6,284.3L214.6,284.3z M214.7,283.6
		l0.1-0.5l-0.5-0.2l-0.1,0.5L214.7,283.6L214.7,283.6z M208.8,286.1l0.5,0.2l0.1-0.5l-0.5-0.2L208.8,286.1L208.8,286.1z
		 M209.5,286.3l0.5,0.2l0.1-0.5l-0.5-0.2L209.5,286.3L209.5,286.3z M210.2,286.5l0.5,0.2l0.1-0.5l-0.5-0.2L210.2,286.5L210.2,286.5z
		 M210.9,286.8l0.5,0.2l0.1-0.5l-0.5-0.2L210.9,286.8L210.9,286.8z M211.6,287l0.5,0.2l0.1-0.5l-0.5-0.2L211.6,287L211.6,287z
		 M212.3,287.2l0.5,0.2l0.1-0.5l-0.5-0.2L212.3,287.2L212.3,287.2z M213,287.4l0.5,0.2l0.1-0.5l-0.5-0.2L213,287.4L213,287.4
		L213,287.4z M209.4,281.4l-0.1,0.5l0.5,0.2l0.1-0.5L209.4,281.4L209.4,281.4L209.4,281.4z M209.3,282.1l-0.1,0.5l0.5,0.2l0.1-0.5
		L209.3,282.1L209.3,282.1z M209.2,282.8l-0.1,0.5l0.5,0.2l0.1-0.5L209.2,282.8L209.2,282.8z M209.1,283.5l-0.1,0.5l0.5,0.2l0.1-0.5
		L209.1,283.5L209.1,283.5z M209,284.2l-0.1,0.5l0.5,0.2l0.1-0.5L209,284.2L209,284.2z M208.9,284.9l-0.1,0.5l0.5,0.2l0.1-0.5
		L208.9,284.9L208.9,284.9z M210.1,281.6l-0.1,0.5l0.5,0.2l0.1-0.5L210.1,281.6L210.1,281.6z M210,282.3l-0.1,0.5l0.5,0.2l0.1-0.5
		L210,282.3L210,282.3z M209.9,283l-0.1,0.5l0.5,0.2l0.1-0.5L209.9,283L209.9,283z M209.8,283.7l-0.1,0.5l0.5,0.2l0.1-0.5
		L209.8,283.7L209.8,283.7z M209.7,284.4l-0.1,0.5l0.5,0.2l0.1-0.5L209.7,284.4L209.7,284.4z M209.6,285.1l-0.1,0.5l0.5,0.2l0.1-0.5
		L209.6,285.1L209.6,285.1z M210.8,281.8l-0.1,0.5l0.5,0.2l0.1-0.5L210.8,281.8L210.8,281.8z M210.7,282.5l-0.1,0.5l0.5,0.2l0.1-0.5
		L210.7,282.5L210.7,282.5z M210.6,283.2l-0.1,0.5l0.5,0.2l0.1-0.5L210.6,283.2L210.6,283.2z M210.5,283.9l-0.1,0.5l0.5,0.2l0.1-0.5
		L210.5,283.9L210.5,283.9z M210.4,284.6l-0.1,0.5l0.5,0.2l0.1-0.5L210.4,284.6L210.4,284.6z M210.3,285.3l-0.1,0.5l0.5,0.2l0.1-0.5
		L210.3,285.3L210.3,285.3z M211.5,282.1l-0.1,0.5l0.5,0.2l0.1-0.5L211.5,282.1L211.5,282.1z M211.4,282.8l-0.1,0.5l0.5,0.2l0.1-0.5
		L211.4,282.8L211.4,282.8z M211.3,283.5l-0.1,0.5l0.5,0.2l0.1-0.5L211.3,283.5L211.3,283.5z M211.2,284.2l-0.1,0.5l0.5,0.2l0.1-0.5
		L211.2,284.2L211.2,284.2z M211.1,284.8l-0.1,0.5l0.5,0.2l0.1-0.5L211.1,284.8L211.1,284.8z M211,285.5L211,286l0.5,0.2l0.1-0.5
		L211,285.5L211,285.5z M212.2,282.3l-0.1,0.5l0.5,0.2l0.1-0.5L212.2,282.3L212.2,282.3z M212.1,283l-0.1,0.5l0.5,0.2l0.1-0.5
		L212.1,283L212.1,283z M212,283.7l-0.1,0.5l0.5,0.2l0.1-0.5L212,283.7L212,283.7z M211.9,284.4l-0.1,0.5l0.5,0.2l0.1-0.5
		L211.9,284.4L211.9,284.4z M211.8,285.1l-0.1,0.5l0.5,0.2l0.1-0.5L211.8,285.1L211.8,285.1z M211.7,285.8l-0.1,0.5l0.5,0.2l0.1-0.5
		L211.7,285.8L211.7,285.8z M212.9,282.5l-0.1,0.5l0.5,0.2l0.1-0.5L212.9,282.5L212.9,282.5z M212.8,283.2l-0.1,0.5l0.5,0.2l0.1-0.5
		L212.8,283.2L212.8,283.2z M212.7,283.9l-0.1,0.5l0.5,0.2l0.1-0.5L212.7,283.9L212.7,283.9z M212.6,284.6l-0.1,0.5l0.5,0.2l0.1-0.5
		L212.6,284.6L212.6,284.6z M212.5,285.3l-0.1,0.5l0.5,0.2l0.1-0.5L212.5,285.3L212.5,285.3z M212.4,286l-0.1,0.5l0.5,0.2l0.1-0.5
		L212.4,286L212.4,286L212.4,286z M213.6,282.7l-0.1,0.5l0.5,0.2l0.1-0.5L213.6,282.7L213.6,282.7L213.6,282.7z M213.5,283.4
		l-0.1,0.5l0.5,0.2l0.1-0.5L213.5,283.4L213.5,283.4z M213.4,284.1l-0.1,0.5l0.5,0.2l0.1-0.5L213.4,284.1L213.4,284.1z M213.3,284.8
		l-0.1,0.5l0.5,0.2l0.1-0.5L213.3,284.8L213.3,284.8L213.3,284.8z M213.2,285.5l-0.1,0.5l0.5,0.2l0.1-0.5L213.2,285.5L213.2,285.5z
		 M213.1,286.2l-0.1,0.5l0.5,0.2l0.1-0.5L213.1,286.2L213.1,286.2z M218.2,283.3l5.4,1.7l2.6-4.8l-5.4-1.7
		C219.9,280.1,219,281.7,218.2,283.3L218.2,283.3z M223.5,285.1L223,285l-0.1,0.5l0.5,0.2L223.5,285.1L223.5,285.1z M222.8,284.9
		l-0.5-0.2l-0.1,0.5l0.5,0.2L222.8,284.9L222.8,284.9z M222.1,284.7l-0.5-0.2l-0.1,0.5l0.5,0.2L222.1,284.7L222.1,284.7z
		 M221.4,284.5l-0.5-0.2l-0.1,0.5l0.5,0.2L221.4,284.5L221.4,284.5z M220.7,284.3l-0.5-0.2l-0.1,0.5l0.5,0.2L220.7,284.3
		L220.7,284.3z M220,284l-0.5-0.2l-0.1,0.5l0.5,0.2L220,284L220,284z M219.3,283.8l-0.5-0.2l-0.1,0.5l0.5,0.2L219.3,283.8
		L219.3,283.8z M218.6,283.6l-0.5-0.2l-0.1,0.5l0.5,0.2L218.6,283.6L218.6,283.6z M222.9,290.5l0.1-0.5l-0.5-0.2l-0.1,0.5
		L222.9,290.5L222.9,290.5z M222.9,289.8l0.1-0.5l-0.5-0.2l-0.1,0.5L222.9,289.8L222.9,289.8z M223,289.1l0.1-0.5l-0.5-0.2l-0.1,0.5
		L223,289.1L223,289.1z M223.1,288.4l0.1-0.5l-0.5-0.2l-0.1,0.5L223.1,288.4L223.1,288.4z M223.2,287.7l0.1-0.5l-0.5-0.2l-0.1,0.5
		L223.2,287.7L223.2,287.7z M223.3,287l0.1-0.5l-0.5-0.2l-0.1,0.5L223.3,287L223.3,287z M223.4,286.3l0.1-0.5l-0.5-0.2l-0.1,0.5
		L223.4,286.3L223.4,286.3z M217.4,288.8l0.5,0.2l0.1-0.5l-0.5-0.2L217.4,288.8L217.4,288.8z M218.1,289l0.5,0.2l0.1-0.5l-0.5-0.2
		L218.1,289L218.1,289z M218.8,289.3l0.5,0.2l0.1-0.5l-0.5-0.2L218.8,289.3L218.8,289.3z M219.5,289.5l0.5,0.2l0.1-0.5l-0.5-0.2
		L219.5,289.5L219.5,289.5z M220.2,289.7l0.5,0.2l0.1-0.5l-0.5-0.2L220.2,289.7L220.2,289.7z M220.9,289.9l0.5,0.2l0.1-0.5l-0.5-0.2
		L220.9,289.9L220.9,289.9z M221.6,290.1l0.5,0.2l0.1-0.5l-0.5-0.2L221.6,290.1L221.6,290.1z M217.4,287.6l0.1-0.8v0l0.1-1.1
		l-2.8,0.1L217.4,287.6L217.4,287.6z M217.7,285.4l0.2-1.9l-2.8,0.1L217.7,285.4L217.7,285.4L217.7,285.4z M218,284.1l-0.1,0.5
		l0.5,0.2l0.1-0.5L218,284.1L218,284.1z M217.9,284.8l-0.1,0.5l0.5,0.2l0.1-0.5L217.9,284.8L217.9,284.8z M217.9,285.5L217.9,285.5
		C217.8,285.5,217.8,285.6,217.9,285.5l-0.1,0.5l0.5,0.2l0.1-0.5L217.9,285.5L217.9,285.5L217.9,285.5z M217.8,286.2l-0.1,0.5
		l0.5,0.2l0.1-0.5L217.8,286.2L217.8,286.2z M217.7,286.9l-0.1,0.5l0.5,0.2l0.1-0.5L217.7,286.9L217.7,286.9z M217.6,287.6
		c0,0.2,0,0.3-0.1,0.5l0.5,0.2l0.1-0.5L217.6,287.6L217.6,287.6z M218.7,284.3l-0.1,0.5l0.5,0.2l0.1-0.5L218.7,284.3L218.7,284.3z
		 M218.6,285l-0.1,0.5l0.5,0.2l0.1-0.5L218.6,285L218.6,285z M218.6,285.7l-0.1,0.5l0.5,0.2l0.1-0.5L218.6,285.7L218.6,285.7z
		 M218.5,286.4l-0.1,0.5l0.5,0.2l0.1-0.5L218.5,286.4L218.5,286.4z M218.4,287.1l-0.1,0.5l0.5,0.2l0.1-0.5L218.4,287.1L218.4,287.1z
		 M218.3,287.8l-0.1,0.5l0.5,0.2l0.1-0.5L218.3,287.8L218.3,287.8z M219.4,284.6l-0.1,0.5l0.5,0.2l0.1-0.5L219.4,284.6L219.4,284.6z
		 M219.3,285.3l-0.1,0.5l0.5,0.2l0.1-0.5L219.3,285.3L219.3,285.3L219.3,285.3z M219.3,286l-0.1,0.5l0.5,0.2l0.1-0.5L219.3,286
		L219.3,286z M219.2,286.7l-0.1,0.5l0.5,0.2l0.1-0.5L219.2,286.7L219.2,286.7z M219.1,287.4l-0.1,0.5l0.5,0.2l0.1-0.5L219.1,287.4
		L219.1,287.4z M219,288.1l-0.1,0.5l0.5,0.2l0.1-0.5L219,288.1L219,288.1z M220.1,284.8l-0.1,0.5l0.5,0.2l0.1-0.5L220.1,284.8
		L220.1,284.8z M220,285.5L220,286l0.5,0.2l0.1-0.5L220,285.5L220,285.5z M220,286.2l-0.1,0.5l0.5,0.2l0.1-0.5L220,286.2L220,286.2z
		 M219.9,286.9l-0.1,0.5l0.5,0.2l0.1-0.5L219.9,286.9L219.9,286.9z M219.8,287.6l-0.1,0.5l0.5,0.2l0.1-0.5L219.8,287.6L219.8,287.6
		L219.8,287.6z M219.7,288.3l-0.1,0.5l0.5,0.2l0.1-0.5L219.7,288.3L219.7,288.3z M220.8,285l-0.1,0.5l0.5,0.2l0.1-0.5L220.8,285
		L220.8,285z M220.7,285.7l-0.1,0.5l0.5,0.2l0.1-0.5L220.7,285.7L220.7,285.7z M220.7,286.4l-0.1,0.5l0.5,0.2l0.1-0.5L220.7,286.4
		L220.7,286.4L220.7,286.4z M220.6,287.1l-0.1,0.5l0.5,0.2l0.1-0.5L220.6,287.1L220.6,287.1z M220.5,287.8l-0.1,0.5l0.5,0.2l0.1-0.5
		L220.5,287.8L220.5,287.8z M220.4,288.5l-0.1,0.5l0.5,0.2l0.1-0.5L220.4,288.5L220.4,288.5z M221.5,285.2l-0.1,0.5l0.5,0.2l0.1-0.5
		L221.5,285.2L221.5,285.2z M221.4,285.9l-0.1,0.5l0.5,0.2l0.1-0.5L221.4,285.9L221.4,285.9L221.4,285.9z M221.4,286.6l-0.1,0.5
		l0.5,0.2l0.1-0.5L221.4,286.6L221.4,286.6z M221.3,287.3l-0.1,0.5l0.5,0.2l0.1-0.5L221.3,287.3L221.3,287.3z M221.2,288l-0.1,0.5
		l0.5,0.2l0.1-0.5L221.2,288L221.2,288z M221.1,288.7l-0.1,0.5l0.5,0.2l0.1-0.5L221.1,288.7L221.1,288.7z M222.2,285.5l-0.1,0.5
		l0.5,0.2l0.1-0.5L222.2,285.5L222.2,285.5z M222.1,286.2l-0.1,0.5l0.5,0.2l0.1-0.5L222.1,286.2L222.1,286.2z M222.1,286.9l-0.1,0.5
		l0.5,0.2l0.1-0.5L222.1,286.9L222.1,286.9z M222,287.5l-0.1,0.5l0.5,0.2l0.1-0.5L222,287.5L222,287.5z M221.9,288.2l-0.1,0.5
		l0.5,0.2l0.1-0.5L221.9,288.2L221.9,288.2z M221.8,288.9l-0.1,0.5l0.5,0.2l0.1-0.5L221.8,288.9L221.8,288.9z M217.5,277.4l-5.4-1.7
		l-2.6,4.8l5.4,1.7L217.5,277.4L217.5,277.4z M217.7,277.5l-0.9,1.7l3.1,0L217.7,277.5L217.7,277.5L217.7,277.5z M216.6,279.5
		l-0.9,1.7l3.1,0L216.6,279.5L216.6,279.5z M218,283.2l1-1.8l-3.2,0L218,283.2L218,283.2L218,283.2z M219.1,281.1l0.9-1.7l-3.1,0
		L219.1,281.1L219.1,281.1L219.1,281.1z M196.8,319l-3.8-0.8l0,0c-1.1,0.1-1.9,0.9-2.4,1.7l2.1,2.6
		C193.5,320.9,195.2,319.7,196.8,319L196.8,319z M193,318.1l3.9,0.8l0.1,0l-0.1,0c-1.6,0.7-3.4,1.9-4.2,3.5l0,0l0,0l0,0l-2.2-2.7
		l0,0C191.1,319,191.9,318.1,193,318.1L193,318.1L193,318.1L193,318.1L193,318.1L193,318.1L193,318.1z M192.7,322.6l-2.2-2.7
		c-0.5,0.9-0.6,2.3-0.2,3.1l1.6,2.2C192,324.4,192.3,323.4,192.7,322.6L192.7,322.6L192.7,322.6z M184.9,316.9
		c2.4-0.3,3.4,1.4,3.3,2.8c-0.1,0.7-0.2,1.2-0.7,1.6c1.1-0.3,1.9-0.6,2.7-1.2c0,0,0.1,0,0.1-0.1c-0.5,1.4-0.6,2.6,0.3,3.5
		c-0.7,0.4-1.3,0.7-2.1,0.6c-0.1,0.2-0.2,0.4-0.3,0.6c-1.7,0.3-3.2-0.1-4.5-1.4c0-0.5,0.1-0.9,0.3-1.2c-0.2-0.2-0.4-0.5-0.6-0.7
		c0.9,0.7,2.2,0.7,3.1-0.1c1.1-0.9,1.2-2.5,0.3-3.5c-0.4-0.5-1-0.8-1.7-0.9l0,0l0,0l0,0l0,0C185.1,316.9,185,316.9,184.9,316.9
		L184.9,316.9L184.9,316.9L184.9,316.9z M184.7,318c0.7-0.2,1.4,0.4,1.6,1.2c0.2,0.8-0.2,1.7-0.9,1.8c-0.7,0.2-1.4-0.4-1.6-1.2
		C183.6,319,184,318.1,184.7,318L184.7,318z M185.2,317L185.2,317L185.2,317L185.2,317c-1.3-0.1-2.5,0.9-2.6,2.2l0,0l0,0l0,0
		c-0.2,2.2,2.4,3.4,4,2.1c1-0.9,1.2-2.4,0.3-3.4C186.5,317.4,185.9,317.1,185.2,317L185.2,317L185.2,317z M204.5,319.5l1.5-0.1l0,0
		c0.1,0,0.2,0.1,0.3,0.1l0.2,0.1l-2,0.1C204.5,319.6,204.5,319.5,204.5,319.5L204.5,319.5L204.5,319.5z"/>
		<path id="path7" inkscape:connector-curvature="0" class="st0" d="M527.5,408.2l-73.9,0.2l-1.5-2c34.8,1,81.8-12,99.2-46.2l2.5,0
		L527.5,408.2L527.5,408.2z M501.7,445.8c-17-2.9-30.2-17.1-31.5-34.5C498,415.2,504.8,430.7,501.7,445.8L501.7,445.8z M508,370.3
		c8.9,0,17.1,3.1,23.6,8.2c-0.8,0.8-1.7,1.5-2.6,2.2c-5.8-4.5-13.1-7.1-21-7.1c-16.9,0-31.1,12.2-34.1,28.3
		c-1.1,0.1-2.3,0.2-3.4,0.3C473.4,384.2,489.1,370.3,508,370.3L508,370.3L508,370.3z M541.1,389.8c3.1,5.4,4.8,11.7,4.9,18.4h0
		c0,0,0,0.1,0,0.1s0,0.1,0,0.1c0,20.6-16.5,37.5-37,38c-0.3,0-0.7,0-1,0c-0.3,0-0.7,0-1,0c-0.6,0-1.2,0-1.8-0.1l22.2-38l-1,0
		c5.6,0,11.1,0,16.2,0c0,0,0.1,0,0.1,0c0-5.3-1.3-10.3-3.4-14.8L541.1,389.8L541.1,389.8L541.1,389.8z M457,389.2l4.5-9.1l11.4,5.7
		l-1.1,2.3l-9.5-4.7l-2.2,4.5l9.5,4.7l-1.1,2.3L457,389.2L457,389.2L457,389.2z M471.4,376.8c-0.9-1-1.4-1.9-1.7-2.8
		c-0.2-0.7-0.3-1.4-0.3-2.1c0-0.7,0.2-1.4,0.5-1.9c0.4-0.8,0.9-1.5,1.7-2.2c1.4-1.2,2.9-1.8,4.5-1.7c1.6,0.1,3.1,1,4.5,2.5
		c1.4,1.5,2,3.1,2,4.7c-0.1,1.6-0.8,3-2.2,4.3c-1.4,1.3-2.9,1.8-4.5,1.7C474.2,379.1,472.7,378.3,471.4,376.8L471.4,376.8
		L471.4,376.8z M473.3,375c1,1.1,1.9,1.7,2.9,1.8c1,0.1,1.9-0.2,2.6-0.9c0.8-0.7,1.2-1.5,1.1-2.5c0-1-0.5-2-1.5-3.1
		c-1-1.1-1.9-1.7-2.9-1.8c-1-0.1-1.8,0.2-2.6,0.9c-0.8,0.7-1.2,1.5-1.2,2.5C471.8,372.8,472.3,373.9,473.3,375L473.3,375L473.3,375z
		 M484.5,359.1l8.2-3.4l4.9,11.8l-2.4,1l-4.1-9.8l-3.5,1.5l2.1,5c0.6,1.4,1,2.5,1.1,3.1c0.1,0.6,0.1,1.2-0.1,1.6
		c-0.2,0.5-0.8,0.9-1.5,1.2c-0.3,0.1-0.8,0.3-1.5,0.6l-0.8-1.8l0.5-0.2c0.5-0.2,0.8-0.4,0.9-0.6c0.1-0.2,0.1-0.6-0.2-1.1l-0.9-2
		L484.5,359.1L484.5,359.1L484.5,359.1z M503.2,366.3l0.1-12.7l9.4,0.1l0,2.2l-6.9,0l0,2.8l6.4,0l0,2.1l-6.4,0l0,3.5l7.1,0l0,2.1
		L503.2,366.3L503.2,366.3L503.2,366.3z M520.5,368.3l3.5-10l-3.6-1.3l0.7-2l9.6,3.4l-0.7,2l-3.6-1.2l-3.5,10L520.5,368.3
		L520.5,368.3z M460.1,416.5l1,4.5l-5.7,1.2l-0.3-1.2l4.8-1l-0.5-2.2l-4.8,1l-0.3-1.2L460.1,416.5L460.1,416.5L460.1,416.5z
		 M456,424.4l5.5-2l0.7,1.8c0.2,0.7,0.4,1.1,0.4,1.3c0,0.3,0,0.7-0.2,1c-0.2,0.3-0.5,0.6-1,0.7c-0.3,0.1-0.6,0.2-0.9,0.1
		c-0.3,0-0.5-0.1-0.7-0.3c-0.2-0.1-0.4-0.3-0.5-0.5c-0.2-0.2-0.3-0.6-0.5-1.1l-0.3-0.7l-2.1,0.8L456,424.4L456,424.4z M460.9,423.8
		l-1.6,0.6l0.2,0.6c0.2,0.4,0.3,0.7,0.4,0.8c0.1,0.1,0.2,0.2,0.4,0.2c0.2,0,0.3,0,0.5,0c0.2-0.1,0.3-0.2,0.4-0.4
		c0.1-0.2,0.1-0.3,0.1-0.5c0-0.1-0.1-0.4-0.3-0.8L460.9,423.8L460.9,423.8L460.9,423.8z M460.6,428.7c0.5-0.3,1-0.4,1.4-0.5
		c0.3,0,0.6,0,1,0.1c0.3,0.1,0.6,0.2,0.8,0.4c0.3,0.2,0.6,0.6,0.8,1c0.4,0.8,0.5,1.5,0.3,2.2c-0.2,0.7-0.8,1.3-1.6,1.7
		c-0.8,0.4-1.6,0.6-2.3,0.4c-0.7-0.2-1.3-0.7-1.7-1.4c-0.4-0.8-0.5-1.5-0.3-2.2C459.2,429.7,459.7,429.1,460.6,428.7L460.6,428.7
		L460.6,428.7z M461.2,429.7c-0.6,0.3-1,0.7-1.1,1.1c-0.2,0.4-0.1,0.9,0.1,1.3c0.2,0.4,0.6,0.7,1,0.8c0.4,0.1,1,0,1.6-0.3
		c0.6-0.3,1-0.7,1.1-1.1c0.2-0.4,0.1-0.8-0.1-1.3c-0.2-0.4-0.6-0.7-1-0.8C462.3,429.3,461.8,429.4,461.2,429.7L461.2,429.7z
		 M466.5,433.4l0.6,0.9l-3.2,2.2l4.5-0.2l0.7,1l-4.8,3.3l-0.6-0.9l3.2-2.1l-4.5,0.2l-0.7-1L466.5,433.4L466.5,433.4L466.5,433.4z
		 M469.2,440.1l-0.6-1c0.9-0.5,1.7-0.3,2.5,0.6c0.5,0.5,0.7,1,0.7,1.5c0,0.5-0.1,0.8-0.4,1.1c-0.2,0.2-0.4,0.3-0.7,0.3
		c-0.3,0-0.6,0-0.9-0.1c0.2,0.4,0.2,0.7,0.2,1c0,0.3-0.2,0.6-0.5,0.8c-0.4,0.3-0.8,0.5-1.3,0.4c-0.5-0.1-1-0.4-1.5-0.9
		c-0.4-0.5-0.7-0.9-0.7-1.3c-0.1-0.4,0-0.9,0.3-1.4l1,0.6c-0.2,0.3-0.3,0.6-0.2,0.8c0,0.2,0.2,0.4,0.3,0.6c0.3,0.3,0.5,0.4,0.7,0.4
		c0.2,0,0.4,0,0.6-0.2c0.2-0.2,0.3-0.4,0.2-0.6c0-0.2-0.2-0.5-0.4-0.8l-0.2-0.2l0.7-0.6l0.1,0.1c0.2,0.3,0.5,0.4,0.7,0.5
		c0.2,0,0.5,0,0.7-0.2c0.2-0.1,0.2-0.3,0.2-0.5c0-0.2-0.1-0.4-0.3-0.6C470,439.9,469.6,439.8,469.2,440.1L469.2,440.1L469.2,440.1z
		 M473.4,442.4l1.7,1.6c0.3,0.3,0.6,0.6,0.7,0.7c0.1,0.2,0.2,0.4,0.3,0.6c0.1,0.2,0.1,0.4,0,0.7c0,0.2-0.2,0.4-0.3,0.6
		c-0.2,0.2-0.4,0.3-0.7,0.4c-0.3,0.1-0.5,0.1-0.8,0c0.2,0.3,0.3,0.6,0.3,0.9c0,0.3-0.1,0.6-0.4,0.8c-0.2,0.2-0.4,0.4-0.7,0.5
		c-0.3,0.1-0.5,0.1-0.8,0.1c-0.3,0-0.5-0.1-0.8-0.3c-0.2-0.1-0.5-0.4-1.1-0.9l-1.5-1.3L473.4,442.4L473.4,442.4L473.4,442.4z
		 M473.7,443.9l-0.9,1l0.6,0.5c0.3,0.3,0.6,0.5,0.7,0.6c0.2,0.1,0.3,0.2,0.5,0.2c0.2,0,0.3-0.1,0.4-0.2c0.1-0.1,0.2-0.3,0.2-0.4
		c0-0.2-0.1-0.3-0.2-0.4c-0.1-0.1-0.3-0.3-0.7-0.7L473.7,443.9L473.7,443.9z M472.1,445.6l-1,1.2l0.8,0.7c0.3,0.3,0.5,0.5,0.6,0.5
		c0.2,0.1,0.3,0.1,0.5,0.1c0.2,0,0.3-0.1,0.5-0.3c0.1-0.1,0.2-0.3,0.2-0.4c0-0.1,0-0.3-0.1-0.4s-0.3-0.4-0.7-0.8L472.1,445.6
		L472.1,445.6L472.1,445.6z M475.9,448.7c0.3-0.5,0.7-0.9,1.1-1.1c0.3-0.2,0.6-0.3,0.9-0.4c0.3-0.1,0.6-0.1,0.9,0
		c0.4,0.1,0.8,0.2,1.2,0.5c0.7,0.5,1.1,1.1,1.3,1.8c0.1,0.7-0.1,1.5-0.6,2.3c-0.5,0.8-1.1,1.3-1.9,1.4c-0.7,0.2-1.4,0-2.2-0.5
		c-0.7-0.5-1.1-1.1-1.3-1.8C475.2,450.2,475.4,449.4,475.9,448.7L475.9,448.7L475.9,448.7z M476.9,449.3c-0.4,0.5-0.5,1.1-0.5,1.5
		c0.1,0.5,0.3,0.8,0.7,1.1c0.4,0.3,0.8,0.3,1.2,0.2c0.4-0.1,0.8-0.5,1.2-1c0.4-0.6,0.5-1.1,0.5-1.5c-0.1-0.4-0.3-0.8-0.7-1.1
		c-0.4-0.3-0.8-0.4-1.3-0.2C477.7,448.4,477.3,448.8,476.9,449.3L476.9,449.3L476.9,449.3z M483.7,450.1l3.6,1.9l-2.3,4.3l0.5,0.2
		l-1.1,2l-0.9-0.5l0.6-1.1l-3.3-1.7l-0.6,1.1l-0.9-0.5l1.1-2l0.4,0.2c0.4-0.3,0.9-0.8,1.2-1.3c0.4-0.5,0.8-1.3,1.3-2.2L483.7,450.1
		L483.7,450.1L483.7,450.1z M484.2,451.5c-0.8,1.6-1.6,2.6-2.2,3.2l2,1l1.8-3.4L484.2,451.5L484.2,451.5z M490.8,457.4l1,0.7
		c-0.4,0.5-0.8,0.9-1.3,1.1c-0.5,0.2-1,0.1-1.6-0.1c-0.7-0.2-1.3-0.7-1.6-1.4c-0.3-0.7-0.3-1.4,0-2.3c0.3-0.9,0.8-1.6,1.4-1.9
		c0.6-0.3,1.4-0.4,2.1-0.1c0.7,0.2,1.2,0.6,1.4,1.2c0.2,0.3,0.2,0.7,0.2,1.2l-1.2-0.1c0-0.3,0-0.6-0.2-0.8c-0.2-0.2-0.4-0.4-0.7-0.5
		c-0.4-0.1-0.8-0.1-1.1,0.1c-0.4,0.2-0.6,0.6-0.9,1.3c-0.2,0.7-0.3,1.2-0.1,1.6c0.2,0.4,0.4,0.6,0.8,0.8c0.3,0.1,0.6,0.1,0.9,0
		C490.3,458,490.5,457.7,490.8,457.4L490.8,457.4L490.8,457.4z M494.1,460.7l1.1-4.7l-1.7-0.4l0.2-1l4.5,1l-0.2,1l-1.7-0.4l-1.1,4.7
		L494.1,460.7L494.1,460.7L494.1,460.7z M499.3,455.9l2.3,0.3c0.5,0.1,0.8,0.1,1,0.2c0.2,0.1,0.4,0.2,0.6,0.3
		c0.2,0.1,0.3,0.3,0.4,0.5c0.1,0.2,0.1,0.5,0.1,0.7c0,0.3-0.1,0.5-0.3,0.7c-0.2,0.2-0.4,0.3-0.7,0.4c0.3,0.2,0.6,0.4,0.7,0.6
		c0.2,0.3,0.2,0.6,0.2,0.9c0,0.3-0.1,0.5-0.3,0.7c-0.2,0.2-0.4,0.4-0.6,0.5c-0.2,0.1-0.5,0.2-0.8,0.2c-0.2,0-0.7-0.1-1.4-0.2l-2-0.3
		L499.3,455.9L499.3,455.9L499.3,455.9z M500.4,457l-0.2,1.3l0.8,0.1c0.5,0.1,0.7,0.1,0.9,0.1c0.2,0,0.4,0,0.5-0.1
		c0.1-0.1,0.2-0.2,0.2-0.4c0-0.2,0-0.3-0.1-0.5c-0.1-0.1-0.2-0.2-0.4-0.3c-0.1,0-0.4-0.1-1-0.2L500.4,457L500.4,457L500.4,457z
		 M500.1,459.3l-0.2,1.5l1.1,0.1c0.4,0.1,0.7,0.1,0.8,0.1c0.2,0,0.3-0.1,0.5-0.2c0.1-0.1,0.2-0.3,0.2-0.5c0-0.2,0-0.3-0.1-0.5
		c-0.1-0.1-0.2-0.2-0.3-0.3c-0.2-0.1-0.5-0.2-1-0.2L500.1,459.3L500.1,459.3z M505.4,462.6l-0.1-5.8l4.3-0.1l0,1l-3.2,0.1l0,1.3
		l2.9-0.1l0,1l-2.9,0.1l0,1.6l3.3-0.1l0,1L505.4,462.6L505.4,462.6L505.4,462.6z M511.7,462.4l-0.6-5.8l1.2-0.1l0.3,2.3l2.3-0.3
		l-0.3-2.3l1.2-0.1l0.6,5.8l-1.2,0.1l-0.3-2.5l-2.3,0.3l0.3,2.5L511.7,462.4L511.7,462.4L511.7,462.4z M518.5,461.6L517,456l1.1-0.3
		l0.6,2.2l2.2-0.6l-0.6-2.2l1.1-0.3l1.5,5.6l-1.1,0.3l-0.7-2.5l-2.2,0.6l0.7,2.5L518.5,461.6L518.5,461.6L518.5,461.6z M523.9,457
		c-0.2-0.6-0.3-1.1-0.2-1.5c0-0.3,0.1-0.6,0.2-0.9c0.1-0.3,0.3-0.5,0.5-0.7c0.3-0.3,0.7-0.5,1.1-0.6c0.8-0.3,1.6-0.3,2.2,0.1
		c0.7,0.3,1.2,0.9,1.5,1.8c0.3,0.9,0.3,1.7,0,2.3c-0.3,0.7-0.9,1.1-1.7,1.4c-0.8,0.3-1.6,0.3-2.2-0.1
		C524.6,458.5,524.2,457.9,523.9,457L523.9,457L523.9,457z M525,456.6c0.2,0.6,0.5,1,0.9,1.3c0.4,0.2,0.8,0.3,1.3,0.1
		c0.4-0.2,0.8-0.4,0.9-0.9c0.2-0.4,0.1-0.9-0.1-1.6c-0.2-0.6-0.5-1.1-0.9-1.3c-0.4-0.2-0.8-0.2-1.3-0.1c-0.5,0.2-0.8,0.4-0.9,0.9
		C524.7,455.5,524.8,456,525,456.6L525,456.6L525,456.6z M531.8,457l-2.7-5.2l3.8-2l0.5,0.9l-2.8,1.4l0.6,1.2l2.6-1.3l0.5,0.9
		l-2.6,1.3l0.7,1.4l2.9-1.5l0.5,0.9L531.8,457L531.8,457L531.8,457z M539.1,449.1c-0.4-0.5-0.6-0.9-0.7-1.3c-0.1-0.3-0.1-0.6-0.1-1
		c0-0.3,0.1-0.6,0.3-0.9c0.2-0.3,0.5-0.7,0.8-1c0.7-0.5,1.4-0.8,2.1-0.7c0.7,0.1,1.4,0.5,2,1.3c0.6,0.7,0.8,1.5,0.8,2.2
		c-0.1,0.7-0.4,1.4-1.1,1.9c-0.7,0.5-1.4,0.8-2.1,0.7C540.3,450.2,539.7,449.8,539.1,449.1L539.1,449.1z M540,448.3
		c0.4,0.5,0.8,0.8,1.3,0.9c0.5,0.1,0.9,0,1.2-0.3c0.4-0.3,0.6-0.7,0.6-1.1c0-0.5-0.2-0.9-0.6-1.5c-0.4-0.5-0.8-0.8-1.3-0.9
		c-0.4-0.1-0.8,0-1.2,0.3c-0.4,0.3-0.6,0.7-0.6,1.1C539.4,447.3,539.6,447.8,540,448.3L540,448.3L540,448.3z M542.3,442.4l3-3.2
		l0.7,0.7l-2.2,2.3l1,0.9l1.1-1.2c0.3-0.3,0.6-0.5,0.9-0.7c0.3-0.1,0.6-0.2,0.9-0.1c0.3,0,0.7,0.2,0.9,0.5c0.3,0.3,0.5,0.6,0.5,0.9
		c0.1,0.3,0.1,0.6-0.1,0.9c-0.1,0.3-0.3,0.6-0.6,0.9l-1.9,2L542.3,442.4L542.3,442.4z M546.7,444.8l0.8-0.8c0.2-0.3,0.4-0.5,0.5-0.6
		c0.1-0.1,0.1-0.3,0.1-0.5c0-0.2-0.1-0.3-0.2-0.4c-0.2-0.2-0.4-0.2-0.6-0.2c-0.2,0.1-0.5,0.3-0.8,0.6l-0.8,0.9L546.7,444.8
		L546.7,444.8L546.7,444.8z M545.8,438.6l1.7-2.4l1.9,1.3l0.9-1.3c0.2-0.3,0.5-0.6,0.7-0.8c0.3-0.2,0.6-0.3,0.9-0.3
		c0.4,0,0.7,0.1,1,0.3c0.3,0.2,0.5,0.5,0.7,0.8c0.1,0.3,0.1,0.6,0.1,0.9c-0.1,0.3-0.2,0.6-0.5,1l-1.6,2.3l-4-2.8l-1,1.4L545.8,438.6
		L545.8,438.6L545.8,438.6z M551.5,439l0.7-0.9c0.2-0.3,0.3-0.5,0.4-0.7c0.1-0.1,0.1-0.3,0-0.5c0-0.2-0.1-0.3-0.3-0.4
		c-0.2-0.2-0.4-0.2-0.6-0.1c-0.2,0.1-0.5,0.3-0.7,0.7l-0.7,1L551.5,439L551.5,439z M555.3,434.8l-5.1-2.8l2.1-3.8l0.9,0.5l-1.5,2.8
		l1.1,0.6l1.4-2.6l0.9,0.5l-1.4,2.6l1.4,0.8l1.6-2.9l0.9,0.5L555.3,434.8L555.3,434.8L555.3,434.8z M552.8,426.8l1.4-3.8l4.6,1.6
		l0.2-0.5l2.1,0.8l-0.3,0.9l-1.2-0.4l-1.2,3.5l1.2,0.4l-0.3,0.9l-2.1-0.8l0.2-0.5c-0.4-0.4-0.9-0.7-1.5-1c-0.6-0.3-1.4-0.6-2.3-1
		L552.8,426.8L552.8,426.8L552.8,426.8z M554.1,426.1c1.7,0.6,2.8,1.2,3.5,1.8l0.8-2.1l-3.7-1.3L554.1,426.1L554.1,426.1z
		 M554.6,421.4l0.3-1.1l3.8,0.9l-3.2-3.2l0.3-1.1l5.7,1.4l-0.3,1.1l-3.7-0.9l3.1,3.2l-0.3,1.1L554.6,421.4L554.6,421.4L554.6,421.4z
		 M561.8,416.1l-5.8-0.6l0.1-1.2l2.3,0.2l0.2-2.3l-2.3-0.2l0.1-1.2l5.8,0.6l-0.1,1.2l-2.5-0.3l-0.2,2.3l2.5,0.3L561.8,416.1
		L561.8,416.1L561.8,416.1z M562.3,409.3l-5.8,0l0-4.3l1,0l0,3.2l1.3,0l0-2.9l1,0l0,2.9l1.6,0l0-3.3l1,0L562.3,409.3L562.3,409.3
		L562.3,409.3z M562.1,402.9l-5.8,0.8l-0.2-1.2l2.3-0.3l-0.3-2.3l-2.3,0.3l-0.2-1.2l5.8-0.8l0.2,1.2l-2.5,0.4l0.3,2.3l2.5-0.4
		L562.1,402.9L562.1,402.9L562.1,402.9z M555.3,397.7l-0.3-1.1l3.8-1l-4.4-1.3l-0.3-1.1l5.7-1.4l0.3,1.1l-3.7,0.9l4.3,1.4l0.3,1.1
		L555.3,397.7L555.3,397.7L555.3,397.7z M559.1,389.6l-5.4,2.2l-1.6-4l0.9-0.4l1.2,2.9l1.2-0.5l-1.1-2.7l0.9-0.4l1.1,2.7l1.5-0.6
		l-1.2-3l0.9-0.4L559.1,389.6L559.1,389.6z"/>
		<path id="path9" inkscape:connector-curvature="0" class="st0" d="M251.6,359.9l-0.9,1.2c-0.2,0.2-0.3,0.4-0.4,0.5
		c-0.1,0.1-0.2,0.2-0.4,0.2c-0.1,0-0.3,0.1-0.4,0c-0.1,0-0.3-0.1-0.4-0.2c-0.1-0.1-0.2-0.2-0.3-0.4c-0.1-0.2-0.1-0.3,0-0.5
		c-0.2,0.1-0.4,0.2-0.6,0.2c-0.2,0-0.4-0.1-0.6-0.2c-0.1-0.1-0.2-0.2-0.3-0.4c-0.1-0.2-0.1-0.3-0.1-0.5c0-0.2,0.1-0.3,0.2-0.5
		c0.1-0.1,0.2-0.3,0.5-0.7l0.8-1L251.6,359.9L251.6,359.9z M250.7,360.1l-0.7-0.5l-0.3,0.4c-0.2,0.2-0.3,0.4-0.3,0.4
		c-0.1,0.1-0.1,0.2-0.1,0.3c0,0.1,0.1,0.2,0.2,0.3c0.1,0.1,0.2,0.1,0.3,0.1c0.1,0,0.2-0.1,0.3-0.1c0.1-0.1,0.2-0.2,0.4-0.5
		L250.7,360.1L250.7,360.1L250.7,360.1z M249.5,359.2l-0.8-0.6l-0.4,0.5c-0.2,0.2-0.3,0.4-0.3,0.4c-0.1,0.1-0.1,0.2-0.1,0.3
		c0,0.1,0.1,0.2,0.2,0.3c0.1,0.1,0.2,0.1,0.3,0.1c0.1,0,0.2,0,0.3-0.1c0.1-0.1,0.2-0.2,0.4-0.5L249.5,359.2L249.5,359.2z
		 M244.4,362.8l0.5-0.6l0.8,0.3l0.9-1.1l-0.4-0.8l0.5-0.6l1.9,3.5l-0.5,0.6L244.4,362.8L244.4,362.8L244.4,362.8z M246.4,362.7
		l1.4,0.5l-0.7-1.3L246.4,362.7L246.4,362.7L246.4,362.7z M160.8,365.5l-1.6-1.9l0.5-0.4l1.1,1.3l2.4-2l0.5,0.6L160.8,365.5
		L160.8,365.5z M160.5,362.2c-0.3,0.2-0.6,0.4-0.9,0.4c-0.2,0-0.4,0.1-0.6,0c-0.2,0-0.4-0.1-0.6-0.2c-0.2-0.1-0.4-0.3-0.6-0.5
		c-0.3-0.4-0.5-0.9-0.4-1.3c0.1-0.5,0.3-0.9,0.8-1.2c0.5-0.4,0.9-0.5,1.4-0.5c0.5,0.1,0.9,0.3,1.2,0.7c0.3,0.4,0.5,0.9,0.4,1.3
		C161.2,361.4,160.9,361.8,160.5,362.2L160.5,362.2L160.5,362.2z M160,361.6c0.3-0.3,0.5-0.5,0.6-0.8c0.1-0.3,0-0.5-0.2-0.8
		c-0.2-0.2-0.4-0.4-0.7-0.4c-0.3,0-0.6,0.1-0.9,0.4c-0.3,0.3-0.5,0.5-0.6,0.8c-0.1,0.3,0,0.5,0.2,0.8c0.2,0.2,0.4,0.4,0.7,0.4
		C159.3,362,159.7,361.9,160,361.6L160,361.6z M157.1,356.4l-0.2-0.7c0.4-0.1,0.8-0.1,1.1,0c0.3,0.1,0.6,0.4,0.8,0.7
		c0.3,0.4,0.3,0.9,0.2,1.3c-0.1,0.4-0.4,0.8-0.9,1.1c-0.5,0.3-1,0.4-1.5,0.3c-0.5-0.1-0.8-0.4-1.1-0.8c-0.2-0.4-0.3-0.8-0.2-1.1
		c0-0.2,0.2-0.4,0.4-0.7l0.5,0.5c-0.1,0.1-0.2,0.3-0.2,0.5c0,0.2,0,0.3,0.1,0.5c0.1,0.2,0.3,0.4,0.6,0.4c0.3,0,0.6,0,0.9-0.3
		c0.4-0.2,0.6-0.5,0.7-0.7c0.1-0.2,0.1-0.5-0.1-0.7c-0.1-0.2-0.2-0.3-0.4-0.3C157.6,356.3,157.3,356.3,157.1,356.4L157.1,356.4
		L157.1,356.4z M154.5,356.7l-0.4-0.7l1.3-1.7l-2,0.3l-0.4-0.7l3.1-0.2c0.3,0,0.6,0,0.8,0c0.2,0.1,0.4,0.2,0.5,0.4
		c0.1,0.2,0.2,0.4,0.2,0.5l-0.5,0.3c0-0.1-0.1-0.2-0.1-0.3c-0.1-0.2-0.2-0.2-0.3-0.3c-0.1,0-0.2,0-0.5,0L154.5,356.7L154.5,356.7z
		 M152.7,353.3l-1.1-2.3l2.8-1.3l-0.1-0.3l1.3-0.6l0.3,0.6l-0.7,0.3l1,2.1l0.7-0.3l0.3,0.6l-1.3,0.6l-0.1-0.3
		c-0.4,0-0.7,0.1-1.1,0.2c-0.4,0.1-0.9,0.3-1.5,0.6L152.7,353.3L152.7,353.3L152.7,353.3z M153,352.4c1-0.5,1.8-0.7,2.3-0.8
		l-0.6-1.3l-2.2,1L153,352.4L153,352.4z M153.6,345.5l0.3,0.8l-0.7,0.6l0.5,1.4l0.9,0l0.3,0.7l-4-0.2l-0.3-0.7L153.6,345.5
		L153.6,345.5L153.6,345.5z M152.6,347.3l-1.1,0.9l1.5,0L152.6,347.3L152.6,347.3L152.6,347.3z M153.4,345.2l-3.5,1l-0.3-1.1
		c-0.1-0.4-0.2-0.7-0.2-0.9c0-0.2,0.1-0.4,0.2-0.6c0.1-0.2,0.3-0.3,0.6-0.4c0.2-0.1,0.4-0.1,0.6,0c0.2,0,0.3,0.1,0.4,0.2
		s0.2,0.2,0.3,0.3c0.1,0.2,0.2,0.4,0.3,0.7l0.1,0.5l1.3-0.4L153.4,345.2L153.4,345.2L153.4,345.2z M150.3,345.3l1-0.3l-0.1-0.4
		c-0.1-0.3-0.2-0.5-0.2-0.6c-0.1-0.1-0.1-0.1-0.2-0.2c-0.1,0-0.2,0-0.3,0c-0.1,0-0.2,0.1-0.3,0.2c-0.1,0.1-0.1,0.2-0.1,0.3
		c0,0.1,0.1,0.3,0.1,0.5L150.3,345.3L150.3,345.3z M150.6,340l0-0.8c0.4,0,0.8,0.1,1,0.3c0.3,0.2,0.4,0.5,0.5,0.9
		c0.1,0.5,0.1,0.9-0.2,1.3c-0.2,0.4-0.7,0.7-1.2,0.8c-0.6,0.1-1.1,0.1-1.5-0.1c-0.4-0.2-0.7-0.6-0.8-1.1c-0.1-0.4-0.1-0.8,0.1-1.2
		c0.1-0.2,0.3-0.4,0.6-0.5l0.3,0.7c-0.2,0.1-0.3,0.2-0.4,0.4s-0.1,0.3,0,0.5c0.1,0.3,0.2,0.5,0.4,0.6c0.2,0.1,0.6,0.1,1,0
		c0.5-0.1,0.8-0.3,0.9-0.5c0.2-0.2,0.2-0.4,0.1-0.7c0-0.2-0.2-0.3-0.3-0.5C151.1,340.1,150.9,340,150.6,340L150.6,340L150.6,340z
		 M151.6,337.7l-3,0.4l0.2,1.1l-0.6,0.1l-0.4-2.9l0.6-0.1l0.2,1.1l3-0.4L151.6,337.7L151.6,337.7L151.6,337.7z M147.5,335.7
		l-0.1-1.5c0-0.3,0-0.5,0-0.7c0-0.1,0.1-0.3,0.1-0.4c0.1-0.1,0.2-0.2,0.3-0.3c0.1-0.1,0.3-0.1,0.4-0.2c0.2,0,0.3,0,0.5,0.1
		c0.2,0.1,0.3,0.2,0.4,0.4c0-0.2,0.1-0.4,0.3-0.5c0.1-0.1,0.3-0.2,0.5-0.2c0.2,0,0.3,0,0.5,0.1c0.2,0.1,0.3,0.2,0.4,0.3
		c0.1,0.1,0.2,0.3,0.2,0.5c0,0.1,0.1,0.4,0.1,0.9l0.1,1.3L147.5,335.7L147.5,335.7z M148.1,334.9l0.8-0.1l0-0.5c0-0.3,0-0.5-0.1-0.5
		c0-0.1-0.1-0.2-0.2-0.3c-0.1-0.1-0.2-0.1-0.3-0.1c-0.1,0-0.2,0.1-0.3,0.1c-0.1,0.1-0.1,0.2-0.1,0.3c0,0.1,0,0.3,0,0.6L148.1,334.9
		L148.1,334.9z M149.5,334.8l1-0.1l-0.1-0.7c0-0.3,0-0.4-0.1-0.5c0-0.1-0.1-0.2-0.2-0.3c-0.1-0.1-0.2-0.1-0.3-0.1
		c-0.1,0-0.2,0-0.3,0.1c-0.1,0.1-0.1,0.1-0.1,0.2c0,0.1,0,0.3,0,0.7L149.5,334.8L149.5,334.8z M150.9,331.7l-3.7,0.1l-0.1-2.7l0.6,0
		l0.1,2l0.8,0l-0.1-1.9l0.6,0l0.1,1.9l1,0l-0.1-2.1l0.6,0L150.9,331.7L150.9,331.7z M150.8,328.2l-3.7-0.2l0-0.7l1.4,0.1l0.1-1.5
		l-1.4-0.1l0-0.7l3.7,0.2l0,0.7l-1.6-0.1l-0.1,1.5l1.6,0.1L150.8,328.2L150.8,328.2z M150.9,324.5l-3.7-0.4l0.1-0.7l1.4,0.2l0.2-1.5
		l-1.4-0.2l0.1-0.7l3.7,0.4l-0.1,0.7l-1.6-0.2l-0.2,1.5l1.6,0.2L150.9,324.5L150.9,324.5z M147.6,320.1l0.1-0.7l1.4,0.3l0.2-1
		c0.1-0.3,0.1-0.5,0.2-0.6c0.1-0.2,0.3-0.3,0.5-0.4c0.2-0.1,0.4-0.1,0.7-0.1c0.2,0,0.4,0.2,0.6,0.3c0.2,0.2,0.2,0.3,0.3,0.5
		c0,0.2,0,0.4,0,0.7l-0.3,1.7L147.6,320.1L147.6,320.1L147.6,320.1z M150.8,320l0.1-0.7c0-0.2,0.1-0.4,0.1-0.5c0-0.1,0-0.2-0.1-0.3
		c-0.1-0.1-0.2-0.1-0.3-0.2c-0.2,0-0.3,0-0.4,0.1c-0.1,0.1-0.2,0.3-0.2,0.6l-0.1,0.7L150.8,320L150.8,320L150.8,320z M148.3,316.7
		l0.1-0.7l3.6,0.7l-0.1,0.7L148.3,316.7L148.3,316.7z M148.7,314.9l0.2-0.7l2.4,0.6l-2-2l0.2-0.7l3.6,0.9l-0.2,0.7l-2.3-0.6l2,2
		l-0.2,0.7L148.7,314.9L148.7,314.9L148.7,314.9z M148.3,312.9l0.1-0.3c0.2,0.1,0.4,0.2,0.5,0.4c0.1,0.2,0.1,0.4,0.1,0.6
		c-0.1,0.2-0.2,0.4-0.3,0.5c-0.2,0.1-0.4,0.1-0.6,0.1l0.1-0.3c0.1,0,0.2,0,0.3-0.1c0.1-0.1,0.1-0.1,0.2-0.3c0-0.1,0-0.2,0-0.3
		C148.5,313,148.4,312.9,148.3,312.9L148.3,312.9L148.3,312.9z M150.2,309.7l0.2-0.7l1.5,0.5c0-0.2,0-0.3,0-0.4
		c0-0.1-0.2-0.2-0.5-0.4c-0.3-0.3-0.5-0.5-0.6-0.7c0-0.2,0-0.4,0.1-0.8c0,0,0-0.1,0-0.1l0.5,0.2l0,0.1c0,0.1-0.1,0.3-0.1,0.3
		c0,0.1,0,0.2,0.1,0.2c0.1,0.1,0.2,0.2,0.4,0.3c0.1,0.1,0.2,0.2,0.3,0.2c0.1,0.1,0.1,0.2,0.1,0.3c0.1-0.1,0.2-0.2,0.4-0.3
		c0.2-0.1,0.4-0.1,0.7-0.1l1.1-0.1l-0.3,0.8l-1,0.1c0,0,0,0-0.1,0c0,0-0.1,0-0.2,0c-0.2,0-0.3,0.1-0.4,0.1c-0.1,0-0.1,0.1-0.2,0.2
		l1.5,0.5l-0.2,0.7L150.2,309.7L150.2,309.7L150.2,309.7z M153,307.3c-0.3-0.2-0.6-0.3-0.8-0.6c-0.1-0.2-0.2-0.3-0.3-0.5
		s-0.1-0.4-0.1-0.6c0-0.3,0.1-0.5,0.2-0.8c0.2-0.5,0.6-0.8,1-1c0.4-0.2,0.9-0.1,1.5,0.2c0.5,0.3,0.9,0.6,1.1,1
		c0.2,0.4,0.1,0.9-0.1,1.4c-0.2,0.5-0.6,0.8-1,1C154,307.6,153.5,307.6,153,307.3L153,307.3L153,307.3z M153.3,306.6
		c0.4,0.2,0.7,0.2,1,0.1c0.3-0.1,0.5-0.3,0.6-0.5c0.1-0.3,0.1-0.5,0-0.8c-0.1-0.3-0.4-0.5-0.8-0.7c-0.4-0.2-0.7-0.2-1-0.1
		c-0.3,0.1-0.5,0.3-0.6,0.5c-0.1,0.3-0.1,0.5,0,0.8C152.6,306.2,152.9,306.4,153.3,306.6L153.3,306.6z M156.2,301.6l0.5-0.5
		c0.3,0.3,0.5,0.6,0.5,0.9c0.1,0.3,0,0.7-0.2,1c-0.2,0.4-0.6,0.7-1,0.8c-0.4,0.1-0.9,0.1-1.4-0.2c-0.5-0.3-0.9-0.6-1.1-1.1
		c-0.2-0.4-0.1-0.9,0.1-1.3c0.2-0.4,0.5-0.7,0.9-0.8c0.2-0.1,0.5-0.1,0.8,0l-0.2,0.7c-0.2,0-0.4,0-0.5,0c-0.2,0.1-0.3,0.2-0.4,0.4
		c-0.1,0.2-0.1,0.5,0,0.7c0.1,0.2,0.3,0.5,0.7,0.7c0.4,0.2,0.7,0.3,1,0.2c0.3-0.1,0.4-0.2,0.6-0.4c0.1-0.2,0.1-0.4,0.1-0.5
		C156.5,301.9,156.4,301.7,156.2,301.6L156.2,301.6L156.2,301.6z M158,301.1l-3.2-1.8l0.6-1l2.5,0.7l-1.8-1.8l0.6-1l3.2,1.8
		l-0.3,0.6l-2.5-1.5l2.1,2.1l-0.4,0.6l-2.9-0.8l2.5,1.5L158,301.1L158,301.1L158,301.1z M157.2,295.2l0.4-0.6l2,1.4l-1.1-2.7
		l0.4-0.6l3,2.2l-0.4,0.6l-1.9-1.4l1.1,2.6l-0.4,0.6L157.2,295.2L157.2,295.2L157.2,295.2z M159.5,292.1l0.5-0.6l0.7,0.6
		c0.2,0.2,0.4,0.3,0.5,0.3c0.1,0,0.2,0,0.3,0c0.1,0,0.2-0.1,0.4-0.3c0.1-0.1,0.2-0.2,0.2-0.4c0.1-0.1,0.1-0.2,0.1-0.3l-1.2-1
		l0.5-0.6l2.9,2.3l-0.5,0.6l-1.2-0.9c0,0.2-0.1,0.3-0.2,0.4c-0.1,0.1-0.1,0.3-0.2,0.4c-0.2,0.3-0.5,0.5-0.8,0.6
		c-0.3,0.1-0.6,0-0.9-0.3L159.5,292.1L159.5,292.1L159.5,292.1z M164.7,291.6l-2.8-2.4l1.8-2.1l0.5,0.4l-1.3,1.5l0.6,0.5l1.2-1.4
		l0.5,0.4l-1.2,1.4l0.8,0.7l1.4-1.6l0.5,0.4L164.7,291.6L164.7,291.6L164.7,291.6z M167.7,286.4l0.7-0.3c0.2,0.4,0.3,0.7,0.2,1
		c-0.1,0.3-0.2,0.6-0.5,0.9c-0.4,0.3-0.8,0.5-1.2,0.5c-0.5,0-0.9-0.3-1.3-0.7c-0.4-0.4-0.6-0.9-0.6-1.4c0-0.5,0.2-0.9,0.6-1.2
		c0.3-0.3,0.7-0.5,1.1-0.5c0.2,0,0.5,0.1,0.7,0.2l-0.4,0.6c-0.2-0.1-0.3-0.2-0.5-0.1c-0.2,0-0.3,0.1-0.5,0.2
		c-0.2,0.2-0.3,0.4-0.3,0.7c0,0.3,0.2,0.5,0.5,0.9c0.3,0.3,0.6,0.5,0.9,0.6c0.3,0,0.5,0,0.7-0.2c0.1-0.1,0.2-0.3,0.2-0.5
		C167.9,286.8,167.9,286.6,167.7,286.4L167.7,286.4L167.7,286.4z M167.3,283.6l0.6-0.5l1,1.2c0.1-0.1,0.2-0.2,0.2-0.3
		c0-0.1-0.1-0.3-0.2-0.6c-0.1-0.4-0.2-0.7-0.1-0.9c0.1-0.2,0.2-0.4,0.5-0.6c0,0,0,0,0.1-0.1l0.4,0.4l-0.1,0.1
		c-0.1,0.1-0.2,0.2-0.2,0.3c0,0.1,0,0.2,0,0.2c0,0.1,0.1,0.2,0.2,0.5c0,0.1,0.1,0.2,0.1,0.3c0,0.1,0,0.2-0.1,0.4
		c0.2-0.1,0.3-0.1,0.5,0c0.2,0,0.4,0.1,0.7,0.2l1,0.5l-0.7,0.6l-1-0.4c0,0,0,0-0.1,0c0,0-0.1,0-0.2-0.1c-0.2-0.1-0.3-0.1-0.4-0.1
		s-0.2,0-0.3,0.1l1,1.2l-0.6,0.5L167.3,283.6L167.3,283.6L167.3,283.6z M169.8,281.5l0.5-0.4l1.5,1.9l-0.3-2.9l0.6-0.5l2.3,2.9
		l-0.5,0.4l-1.5-1.9l0.3,2.8l-0.6,0.5L169.8,281.5L169.8,281.5L169.8,281.5z M172.9,279.2l0.6-0.4l1.4,2l-0.2-2.9l0.6-0.4l2.1,3
		l-0.6,0.4l-1.4-2l0.2,2.8l-0.6,0.4L172.9,279.2L172.9,279.2L172.9,279.2z M174,277.3l0.3-0.2c0.1,0.2,0.2,0.4,0.1,0.6
		c0,0.2-0.2,0.3-0.3,0.5c-0.2,0.1-0.4,0.2-0.6,0.2c-0.2,0-0.4-0.1-0.5-0.3l0.3-0.2c0.1,0.1,0.2,0.1,0.3,0.2c0.1,0,0.2,0,0.3-0.1
		c0.1-0.1,0.2-0.2,0.2-0.3C174,277.5,174,277.4,174,277.3L174,277.3L174,277.3z M179.3,279.4l-1.8-3.2l0.7-0.4l0.7,1.3l1.3-0.7
		l-0.7-1.3l0.7-0.4l1.8,3.2l-0.7,0.4l-0.8-1.4l-1.3,0.7l0.8,1.4L179.3,279.4L179.3,279.4L179.3,279.4z M185.6,276.2l-0.7,0.3
		l-0.6-0.6l-1.3,0.6l0.1,0.9l-0.7,0.3l-0.2-4l0.7-0.3L185.6,276.2L185.6,276.2z M183.8,275.5l-1-1l0.1,1.5L183.8,275.5L183.8,275.5
		L183.8,275.5z M184.1,272.9l0.8-0.3l1.5,1.5l0-2.1l0.7-0.3l-0.2,3.1c0,0.3-0.1,0.6-0.1,0.8c-0.1,0.2-0.2,0.3-0.4,0.4
		c-0.2,0.1-0.4,0.1-0.5,0.1l-0.2-0.5c0.1,0,0.2-0.1,0.3-0.1c0.2-0.1,0.3-0.1,0.3-0.2c0-0.1,0.1-0.2,0.1-0.5L184.1,272.9L184.1,272.9
		L184.1,272.9z M187.6,271.5l0.7-0.2l0.3,0.8c0.1,0.3,0.2,0.4,0.2,0.5c0,0.1,0.1,0.1,0.3,0.2s0.3,0,0.5,0c0.2,0,0.3-0.1,0.4-0.2
		c0.1-0.1,0.2-0.2,0.3-0.2l-0.5-1.5l0.7-0.2l1.1,3.5l-0.7,0.2l-0.5-1.4c-0.1,0.1-0.2,0.2-0.4,0.3c-0.1,0.1-0.3,0.1-0.4,0.2
		c-0.3,0.1-0.7,0.1-1,0c-0.3-0.1-0.5-0.3-0.6-0.7L187.6,271.5L187.6,271.5L187.6,271.5z M192.2,273.8l-0.8-3.6l0.7-0.2l0.3,1.4
		l1.4-0.3l-0.3-1.4l0.7-0.2l0.8,3.6l-0.7,0.2l-0.4-1.6l-1.4,0.3l0.4,1.6L192.2,273.8L192.2,273.8z M195.3,271.2
		c-0.1-0.4-0.1-0.7,0-1c0.1-0.2,0.1-0.4,0.3-0.6c0.1-0.2,0.3-0.3,0.4-0.4c0.2-0.1,0.5-0.2,0.8-0.3c0.5-0.1,1,0,1.4,0.3
		c0.4,0.3,0.6,0.7,0.7,1.3c0.1,0.6,0,1.1-0.2,1.5c-0.3,0.4-0.7,0.6-1.2,0.7c-0.5,0.1-1,0-1.4-0.3
		C195.7,272.2,195.4,271.8,195.3,271.2L195.3,271.2L195.3,271.2z M196.1,271.1c0.1,0.4,0.2,0.7,0.4,0.9c0.2,0.2,0.5,0.2,0.8,0.2
		c0.3-0.1,0.5-0.2,0.7-0.4c0.2-0.2,0.2-0.6,0.1-1c-0.1-0.4-0.2-0.7-0.4-0.9c-0.2-0.2-0.5-0.2-0.8-0.2c-0.3,0.1-0.5,0.2-0.7,0.4
		C196.1,270.3,196,270.6,196.1,271.1L196.1,271.1z M199.6,271.3l-0.1-0.7l1.4-0.2l0.1,0.7L199.6,271.3L199.6,271.3z M201.2,268.4
		l2.9-0.3l0.3,3.7l-0.7,0.1l-0.3-3.1l-1.4,0.1l0.3,3.1l-0.7,0.1L201.2,268.4L201.2,268.4z M205.2,271.7l0.1-3.7l1.2,0
		c0.5,0,0.7,0,0.9,0.1c0.2,0.1,0.4,0.2,0.5,0.4c0.1,0.2,0.2,0.4,0.2,0.7c0,0.2,0,0.4-0.1,0.6c-0.1,0.2-0.2,0.3-0.3,0.4
		c-0.1,0.1-0.3,0.1-0.4,0.2c-0.2,0-0.4,0-0.8,0l-0.5,0l0,1.4L205.2,271.7L205.2,271.7L205.2,271.7z M206,268.7l0,1l0.4,0
		c0.3,0,0.5,0,0.6,0c0.1,0,0.2-0.1,0.2-0.2c0.1-0.1,0.1-0.2,0.1-0.3c0-0.1,0-0.2-0.1-0.3c-0.1-0.1-0.2-0.1-0.3-0.2
		c-0.1,0-0.3,0-0.5,0L206,268.7L206,268.7L206,268.7z M208.5,269.9c0-0.4,0.1-0.7,0.2-0.9c0.1-0.2,0.2-0.3,0.4-0.5
		c0.2-0.1,0.3-0.2,0.5-0.3c0.2-0.1,0.5-0.1,0.8-0.1c0.5,0,1,0.2,1.3,0.6c0.3,0.4,0.4,0.8,0.4,1.4c0,0.6-0.2,1.1-0.6,1.4
		c-0.3,0.3-0.8,0.5-1.3,0.4c-0.5,0-1-0.2-1.3-0.6C208.6,271,208.4,270.5,208.5,269.9L208.5,269.9L208.5,269.9z M209.2,269.9
		c0,0.4,0.1,0.7,0.2,1c0.2,0.2,0.4,0.3,0.7,0.4c0.3,0,0.5-0.1,0.7-0.3c0.2-0.2,0.3-0.5,0.3-0.9c0-0.4-0.1-0.7-0.2-1
		c-0.2-0.2-0.4-0.3-0.7-0.4c-0.3,0-0.6,0.1-0.8,0.3C209.4,269.2,209.2,269.5,209.2,269.9L209.2,269.9L209.2,269.9z M212.8,268.3
		l0.7,0.1l-0.2,2.4l1.7-2.3l0.7,0.1l-0.3,3.7l-0.7-0.1l0.2-2.4l-1.7,2.3l-0.7-0.1L212.8,268.3L212.8,268.3L212.8,268.3z
		 M217.2,269.9l-0.7-0.3c0.3-0.6,0.8-0.8,1.5-0.6c0.4,0.1,0.7,0.2,0.9,0.5c0.2,0.2,0.2,0.5,0.2,0.7c0,0.2-0.1,0.3-0.2,0.4
		c-0.1,0.1-0.3,0.2-0.5,0.3c0.2,0.1,0.4,0.3,0.5,0.5c0.1,0.2,0.1,0.4,0.1,0.6c-0.1,0.3-0.2,0.6-0.5,0.7c-0.3,0.2-0.6,0.2-1.1,0.1
		c-0.4-0.1-0.7-0.2-0.9-0.4c-0.2-0.2-0.3-0.4-0.4-0.8l0.7-0.1c0,0.2,0.1,0.4,0.2,0.5c0.1,0.1,0.2,0.1,0.4,0.2c0.2,0,0.4,0,0.5-0.1
		c0.1-0.1,0.2-0.2,0.2-0.3c0-0.1,0-0.3-0.1-0.4c-0.1-0.1-0.3-0.2-0.5-0.2l-0.2,0l0.1-0.5l0.1,0c0.2,0,0.4,0,0.5-0.1
		c0.1-0.1,0.2-0.2,0.3-0.4c0-0.1,0-0.3-0.1-0.4c-0.1-0.1-0.2-0.2-0.4-0.2C217.6,269.5,217.4,269.6,217.2,269.9L217.2,269.9
		L217.2,269.9z M220.3,269.4l1.4,0.4c0.3,0.1,0.5,0.1,0.6,0.2c0.1,0.1,0.2,0.1,0.3,0.2c0.1,0.1,0.2,0.2,0.2,0.4c0,0.1,0,0.3,0,0.4
		c0,0.2-0.1,0.3-0.2,0.4c-0.1,0.1-0.3,0.2-0.4,0.2c0.2,0.1,0.3,0.3,0.4,0.4c0.1,0.2,0.1,0.4,0,0.6c0,0.2-0.1,0.3-0.2,0.4
		c-0.1,0.1-0.2,0.2-0.4,0.3c-0.2,0.1-0.3,0.1-0.5,0c-0.1,0-0.4-0.1-0.9-0.2l-1.2-0.3L220.3,269.4L220.3,269.4L220.3,269.4z
		 M220.8,270.2l-0.2,0.8l0.5,0.1c0.3,0.1,0.5,0.1,0.5,0.1c0.1,0,0.2,0,0.3-0.1c0.1-0.1,0.1-0.1,0.2-0.3c0-0.1,0-0.2,0-0.3
		c0-0.1-0.1-0.1-0.2-0.2c-0.1,0-0.3-0.1-0.6-0.2L220.8,270.2L220.8,270.2L220.8,270.2z M220.5,271.6l-0.2,1l0.7,0.2
		c0.3,0.1,0.4,0.1,0.5,0.1c0.1,0,0.2,0,0.3-0.1c0.1-0.1,0.1-0.2,0.2-0.3c0-0.1,0-0.2,0-0.3c0-0.1-0.1-0.2-0.2-0.2
		c-0.1-0.1-0.3-0.1-0.6-0.2L220.5,271.6L220.5,271.6L220.5,271.6z M223.2,272.2c0.1-0.4,0.2-0.6,0.4-0.9c0.1-0.2,0.3-0.3,0.5-0.4
		c0.2-0.1,0.4-0.2,0.5-0.2c0.2,0,0.5,0,0.8,0.1c0.5,0.2,0.9,0.4,1.1,0.8c0.2,0.4,0.2,0.9,0.1,1.5c-0.2,0.6-0.4,1-0.9,1.2
		c-0.4,0.2-0.9,0.3-1.4,0.1c-0.5-0.2-0.9-0.4-1.1-0.8C223.1,273.2,223,272.7,223.2,272.2L223.2,272.2L223.2,272.2z M223.9,272.4
		c-0.1,0.4-0.1,0.7,0,1c0.1,0.3,0.3,0.4,0.6,0.5c0.3,0.1,0.5,0,0.8-0.1c0.2-0.2,0.4-0.4,0.5-0.8c0.1-0.4,0.1-0.7,0-1
		c-0.1-0.3-0.3-0.4-0.6-0.5c-0.3-0.1-0.6-0.1-0.8,0.1C224.2,271.7,224.1,271.9,223.9,272.4L223.9,272.4L223.9,272.4z M228.2,271.9
		l2.4,1l-1.1,2.8l0.3,0.1l-0.5,1.3l-0.6-0.2l0.3-0.7l-2.2-0.9l-0.3,0.7l-0.6-0.2l0.5-1.3l0.3,0.1c0.3-0.2,0.5-0.5,0.7-0.9
		c0.2-0.4,0.4-0.8,0.7-1.4L228.2,271.9L228.2,271.9L228.2,271.9z M228.7,272.7c-0.4,1-0.8,1.8-1.2,2.2l1.3,0.5l0.9-2.3L228.7,272.7
		L228.7,272.7z M232.7,276.4l0.6,0.5c-0.3,0.3-0.6,0.5-0.9,0.6c-0.3,0.1-0.7,0-1-0.1c-0.4-0.2-0.7-0.5-0.9-1
		c-0.1-0.4-0.1-0.9,0.2-1.4c0.3-0.6,0.6-0.9,1-1.1c0.4-0.2,0.9-0.2,1.3,0.1c0.4,0.2,0.7,0.5,0.8,0.8c0.1,0.2,0.1,0.5,0.1,0.8
		l-0.7-0.2c0-0.2,0-0.4-0.1-0.5c-0.1-0.2-0.2-0.3-0.4-0.4c-0.2-0.1-0.5-0.1-0.7,0c-0.2,0.1-0.4,0.4-0.6,0.8c-0.2,0.4-0.3,0.8-0.2,1
		c0.1,0.3,0.2,0.4,0.5,0.5c0.2,0.1,0.4,0.1,0.5,0C232.3,276.7,232.5,276.6,232.7,276.4L232.7,276.4L232.7,276.4z M233.9,278.6
		l1.6-2.6l-0.9-0.6l0.3-0.5l2.5,1.5L237,277l-0.9-0.6l-1.6,2.6L233.9,278.6L233.9,278.6L233.9,278.6z M238,276.8l1.2,0.8
		c0.2,0.2,0.4,0.3,0.5,0.4c0.1,0.1,0.2,0.2,0.2,0.3c0.1,0.1,0.1,0.3,0.1,0.4c0,0.1-0.1,0.3-0.1,0.4c-0.1,0.1-0.2,0.2-0.4,0.3
		c-0.2,0.1-0.3,0.1-0.5,0.1c0.1,0.2,0.2,0.4,0.2,0.6c0,0.2,0,0.4-0.2,0.6c-0.1,0.1-0.2,0.3-0.4,0.3c-0.2,0.1-0.3,0.1-0.5,0.1
		c-0.2,0-0.3,0-0.5-0.1c-0.1-0.1-0.4-0.2-0.8-0.5l-1-0.7L238,276.8L238,276.8L238,276.8z M238.3,277.7l-0.5,0.7l0.4,0.3
		c0.2,0.2,0.4,0.3,0.5,0.3c0.1,0.1,0.2,0.1,0.3,0.1c0.1,0,0.2-0.1,0.3-0.2c0.1-0.1,0.1-0.2,0.1-0.3c0-0.1-0.1-0.2-0.2-0.3
		c-0.1,0-0.2-0.2-0.5-0.4L238.3,277.7L238.3,277.7L238.3,277.7z M237.4,278.9l-0.6,0.8l0.6,0.4c0.2,0.2,0.4,0.2,0.4,0.3
		c0.1,0,0.2,0.1,0.3,0c0.1,0,0.2-0.1,0.3-0.2c0.1-0.1,0.1-0.2,0.1-0.3c0-0.1,0-0.2-0.1-0.3c-0.1-0.1-0.2-0.2-0.5-0.4L237.4,278.9
		L237.4,278.9L237.4,278.9z M238.9,282l2.2-2.9l2.2,1.6l-0.4,0.5l-1.6-1.2l-0.5,0.7l1.5,1.1l-0.4,0.5l-1.5-1.1l-0.6,0.8l1.6,1.2
		l-0.4,0.5L238.9,282L238.9,282L238.9,282z M241.7,284l2.5-2.7l0.5,0.5l-1,1.1l1.1,1l1-1.1l0.5,0.5l-2.5,2.7l-0.5-0.5l1.1-1.2
		l-1.1-1l-1.1,1.2L241.7,284L241.7,284z M244.4,286.6l2.7-2.6l0.5,0.5l-1,1l1,1l1-1l0.5,0.5l-2.7,2.6l-0.5-0.5l1.2-1.1l-1-1
		l-1.2,1.1L244.4,286.6L244.4,286.6L244.4,286.6z M249.7,286.9l0.5,0.6l-1.1,1l0.7,0.8c0.2,0.2,0.3,0.4,0.4,0.6
		c0.1,0.2,0.1,0.4,0,0.6c-0.1,0.2-0.2,0.4-0.4,0.6c-0.2,0.2-0.4,0.3-0.6,0.3c-0.2,0-0.4,0-0.6-0.1c-0.1-0.1-0.3-0.2-0.5-0.5
		l-1.1-1.3L249.7,286.9L249.7,286.9L249.7,286.9z M247.9,289.5l0.5,0.5c0.2,0.2,0.3,0.3,0.3,0.3c0.1,0.1,0.2,0.1,0.3,0.1
		c0.1,0,0.2,0,0.3-0.1c0.1-0.1,0.2-0.2,0.2-0.4c0-0.1-0.1-0.3-0.3-0.6l-0.5-0.6L247.9,289.5L247.9,289.5z M252,289.5l0.5,0.6
		l-2.8,2.4l-0.5-0.6L252,289.5L252,289.5z M253.1,291.1l0.4,0.6l-2,1.4l2.9-0.2l0.4,0.6l-3,2.1l-0.4-0.6l2-1.4l-2.8,0.2l-0.4-0.6
		L253.1,291.1L253.1,291.1L253.1,291.1z M254.9,292.1l0.2,0.3c-0.2,0.1-0.4,0.2-0.6,0.1c-0.2,0-0.3-0.2-0.5-0.3
		c-0.1-0.2-0.2-0.4-0.2-0.6c0-0.2,0.1-0.4,0.3-0.5l0.2,0.3c-0.1,0.1-0.1,0.2-0.1,0.3c0,0.1,0,0.2,0.1,0.3c0.1,0.1,0.2,0.2,0.3,0.2
		C254.7,292.2,254.8,292.2,254.9,292.1L254.9,292.1z M256.1,295.7l0.4,0.7l-2.7,1.5l0.7,1.3l2.7-1.5l0.4,0.7l-2.7,1.5l0.1,0.3
		l-1.2,0.7l-0.3-0.5l0.7-0.4l-1.3-2.3L256.1,295.7L256.1,295.7L256.1,295.7z M254.6,300.9l3.3-1.6l1.2,2.5l-0.6,0.3l-0.9-1.8
		l-0.7,0.4l0.8,1.7l-0.6,0.3l-0.8-1.7l-0.9,0.4l0.9,1.9l-0.6,0.3L254.6,300.9L254.6,300.9L254.6,300.9z M256.1,304l3.5-1.3l0.3,0.7
		l-1.4,0.5l0.5,1.4l1.4-0.5l0.3,0.7l-3.5,1.3l-0.3-0.7l1.5-0.6l-0.5-1.4l-1.5,0.6L256.1,304L256.1,304z M257.5,308.3l2.9-0.9l-0.3-1
		l0.6-0.2l0.9,2.8l-0.6,0.2l-0.3-1l-2.9,0.9L257.5,308.3L257.5,308.3L257.5,308.3z M258.2,310.5l3.6-1l0.3,1.2
		c0.1,0.4,0.2,0.7,0.2,0.9c0,0.2-0.1,0.4-0.2,0.6c-0.1,0.2-0.4,0.3-0.6,0.4c-0.2,0.1-0.4,0.1-0.6,0c-0.2,0-0.3-0.1-0.4-0.2
		c-0.1-0.1-0.2-0.2-0.3-0.3c-0.1-0.2-0.2-0.4-0.3-0.7l-0.1-0.5l-1.3,0.4L258.2,310.5L258.2,310.5L258.2,310.5z M261.3,310.5l-1,0.3
		l0.1,0.4c0.1,0.3,0.1,0.5,0.2,0.6c0.1,0.1,0.1,0.1,0.2,0.2c0.1,0,0.2,0,0.3,0c0.1,0,0.2-0.1,0.3-0.2c0.1-0.1,0.1-0.2,0.1-0.3
		c0-0.1,0-0.3-0.1-0.5L261.3,310.5L261.3,310.5z M262.8,314.7l0.1,0.7l-2.4,0.4l2.7,1.1l0.1,0.7l-3.6,0.6l-0.1-0.7l2.4-0.4l-2.6-1.1
		l-0.1-0.7L262.8,314.7L262.8,314.7L262.8,314.7z M259.7,318.9l3.7-0.2l0.1,1.1l-2.5,0.8l2.5,0.5l0.1,1.1l-3.7,0.2l0-0.7l2.9-0.2
		l-2.9-0.6l0-0.7l2.9-0.9l-2.9,0.2L259.7,318.9L259.7,318.9L259.7,318.9z M259.9,323.2l0.7,0l0,0.7l-0.7,0L259.9,323.2L259.9,323.2
		L259.9,323.2z M259.9,324.7l3.7,0.1l0,1.1l-2.5,0.6l2.5,0.7l0,1.1l-3.7-0.1l0-0.7l2.9,0.1l-2.9-0.8l0-0.7l2.9-0.6l-2.9-0.1
		L259.9,324.7L259.9,324.7z M259.7,328.9l0.7,0.1l-0.1,0.7l-0.7-0.1L259.7,328.9L259.7,328.9z M263.2,330.8l-0.2,1.5
		c0,0.3-0.1,0.5-0.1,0.6c0,0.1-0.1,0.3-0.2,0.4c-0.1,0.1-0.2,0.2-0.3,0.2c-0.1,0.1-0.3,0.1-0.4,0.1c-0.2,0-0.3-0.1-0.5-0.2
		c-0.1-0.1-0.2-0.2-0.3-0.4c-0.1,0.2-0.2,0.4-0.4,0.5c-0.2,0.1-0.4,0.1-0.6,0.1c-0.2,0-0.3-0.1-0.5-0.2c-0.1-0.1-0.3-0.2-0.3-0.4
		c-0.1-0.1-0.1-0.3-0.1-0.5c0-0.1,0-0.4,0.1-0.9l0.2-1.2L263.2,330.8L263.2,330.8L263.2,330.8z M262.5,331.5l-0.8-0.1l-0.1,0.5
		c0,0.3-0.1,0.5-0.1,0.5c0,0.1,0,0.2,0.1,0.3c0.1,0.1,0.2,0.1,0.3,0.1c0.1,0,0.2,0,0.3-0.1c0.1-0.1,0.1-0.1,0.2-0.3
		c0-0.1,0-0.3,0.1-0.6L262.5,331.5L262.5,331.5z M261,331.3l-1-0.1l-0.1,0.7c0,0.3,0,0.4,0,0.5c0,0.1,0,0.2,0.1,0.3
		c0.1,0.1,0.2,0.1,0.3,0.1c0.1,0,0.2,0,0.3,0c0.1,0,0.1-0.1,0.2-0.2c0-0.1,0.1-0.3,0.1-0.6L261,331.3L261,331.3L261,331.3z M259,334
		l0.7,0.1l-0.1,0.7l-0.7-0.1L259,334L259,334L259,334z M258.8,335.1l1.6,1.7l2-0.7l-0.2,0.8l-1.3,0.5l1,1l-0.2,0.8l-1.5-1.5
		l-2.1,0.8l0.2-0.9l1.4-0.5l-1.1-1.1L258.8,335.1L258.8,335.1L258.8,335.1z M257.9,338.8l3.5,1l-0.3,1.1c-0.1,0.4-0.2,0.7-0.3,0.8
		c-0.1,0.2-0.3,0.3-0.5,0.4c-0.2,0.1-0.5,0.1-0.7,0c-0.2-0.1-0.4-0.2-0.5-0.3s-0.2-0.3-0.3-0.4c0-0.1-0.1-0.3-0.1-0.4
		c0-0.2,0.1-0.4,0.2-0.8l0.1-0.5l-1.3-0.4L257.9,338.8L257.9,338.8L257.9,338.8z M260.6,340.4l-1-0.3l-0.1,0.4
		c-0.1,0.3-0.1,0.5-0.1,0.6c0,0.1,0,0.2,0.1,0.3c0.1,0.1,0.1,0.1,0.3,0.2c0.1,0,0.2,0,0.4,0c0.1-0.1,0.2-0.1,0.2-0.2
		c0-0.1,0.1-0.3,0.2-0.5L260.6,340.4L260.6,340.4L260.6,340.4z M260.5,342.8l-0.3,0.8l-2.1,0.2l1.6,1.3l-0.2,0.7l-2.3-2.1
		c-0.2-0.2-0.4-0.4-0.5-0.6c-0.1-0.2-0.1-0.4-0.1-0.6c0.1-0.2,0.1-0.4,0.2-0.5l0.5,0.2c0,0.1-0.1,0.2-0.1,0.3
		c-0.1,0.2-0.1,0.3,0,0.4c0,0.1,0.1,0.2,0.3,0.3L260.5,342.8L260.5,342.8L260.5,342.8z M255.8,345l3.4,1.5l-0.3,0.7l-1.3-0.6
		l-0.6,1.3l1.3,0.6l-0.3,0.7l-3.4-1.5l0.3-0.7l1.5,0.7l0.6-1.3l-1.5-0.7L255.8,345L255.8,345L255.8,345z M257.6,350l-0.3,0.6
		l-2.2-1.1l1.6,2.4l-0.3,0.7L253,351l0.3-0.6l2.2,1.1l-1.5-2.4l0.3-0.7L257.6,350L257.6,350z M255.8,353.4l-0.4,0.7l-0.8-0.4
		c-0.2-0.1-0.4-0.2-0.5-0.2c-0.1,0-0.2,0-0.3,0c-0.1,0.1-0.2,0.2-0.3,0.4c-0.1,0.1-0.1,0.3-0.2,0.4c0,0.1,0,0.2,0,0.4l1.4,0.8
		l-0.4,0.7l-3.2-1.8l0.4-0.7l1.3,0.7c0-0.2,0-0.3,0.1-0.5c0-0.1,0.1-0.3,0.2-0.4c0.2-0.3,0.4-0.5,0.7-0.7c0.3-0.1,0.6-0.1,1,0.1
		L255.8,353.4L255.8,353.4L255.8,353.4z M250.7,354.8l3,2.1l-1.6,2.2l-0.5-0.4l1.1-1.6l-0.7-0.5l-1.1,1.5l-0.5-0.4l1.1-1.5l-0.8-0.6
		l-1.2,1.7l-0.5-0.4L250.7,354.8L250.7,354.8L250.7,354.8z"/>
</g>
</svg>
