<?xml version="1.0" encoding="utf-8"?>
<!-- Generator: Adobe Illustrator 27.2.0, SVG Export Plug-In . SVG Version: 6.00 Build 0)  -->
<svg version="1.1" id="Слой_1" xmlns="http://www.w3.org/2000/svg" xmlns:xlink="http://www.w3.org/1999/xlink" x="0px" y="0px"
	 viewBox="0 0 256 256" style="enable-background:new 0 0 256 256;" xml:space="preserve">
<g>
	<path d="M128,226.9c-34,0-68,0-102,0c-4.3,0-8-1.3-10.9-5.2c-3.9-5.1-5-11.1-2.7-17.6c2.2-6.5,6.6-9.8,12.4-10.3c0.4,0,0.8,0,1.2,0
		c68,0,136.1,0,204.1,0c7,0,12.3,4.4,14.2,11.8c2.5,10-3.3,20.1-11.9,21.1c-1,0.1-2,0.1-3,0.1C195.6,226.9,161.8,226.9,128,226.9z"
		/>
	<path d="M128.1,29.1c34,0,68,0,102,0c6.3,0,11,3.1,13.6,10.1c3.9,10.6-2.5,22.3-12.3,22.9c-0.3,0-0.6,0-0.9,0
		c-68.3,0-136.6,0-205,0c-6.6,0-11.9-4.5-13.7-11.7c-2.6-10,3.2-20.3,11.9-21.2c1-0.1,2-0.1,3-0.1C60.5,29.1,94.3,29.1,128.1,29.1z"
		/>
	<path d="M128,111.5c34.3,0,68.5,0,102.8,0c10.1,0,16.8,11.8,13,22.8c-2.2,6.3-7.1,10.2-13,10.2c-21.8,0-43.6,0-65.5,0
		c-46.6,0-93.3,0-139.9,0c-7.4,0-13-5.7-14.1-14.3c-1.2-9.2,4.9-18.1,12.7-18.6c0.6,0,1.3,0,1.9,0C60,111.5,94,111.5,128,111.5z"/>
</g>
</svg>
