<?xml version="1.0" encoding="utf-8"?>
<!-- Generator: Adobe Illustrator 27.2.0, SVG Export Plug-In . SVG Version: 6.00 Build 0)  -->
<svg version="1.1" id="Слой_1" xmlns="http://www.w3.org/2000/svg" xmlns:xlink="http://www.w3.org/1999/xlink" x="0px" y="0px"
	 viewBox="0 0 800 800" style="enable-background:new 0 0 800 800;" xml:space="preserve">
<style type="text/css">
	.st0{fill-rule:evenodd;clip-rule:evenodd;fill:#282424;}
	.st1{fill-rule:evenodd;clip-rule:evenodd;fill:#FFFFFF;}
</style>
<g id="SVGRepo_bgCarrier">
</g>
<g id="SVGRepo_tracerCarrier">
</g>
<g id="SVGRepo_iconCarrier">
	<path class="st0" d="M341.6,400c0-32.1,26-58.1,58.1-58.1h0.6c32.1,0,58.1,26,58.1,58.1s-26,58.1-58.1,58.1h-0.6
		C367.6,458.1,341.6,432.1,341.6,400z M12.5,400C12.5,186,186,12.5,400,12.5C614,12.5,787.5,186,787.5,400
		c0,214-173.5,387.5-387.5,387.5C186,787.5,12.5,614,12.5,400z"/>
</g>
<path class="st1" d="M526,400c0-32.1,26-58.1,58.1-58.1h0.6c32.1,0,58.1,26,58.1,58.1s-26,58.1-58.1,58.1H584
	C552,458.1,526,432.1,526,400z"/>
<path class="st1" d="M163.8,400c0-32.1,26-58.1,58.1-58.1h0.6c32.1,0,58.1,26,58.1,58.1s-26,58.1-58.1,58.1h-0.6
	C189.8,458.1,163.8,432.1,163.8,400z"/>
<path class="st1" d="M341.6,400c0-32.1,26-58.1,58.1-58.1h0.6c32.1,0,58.1,26,58.1,58.1s-26,58.1-58.1,58.1h-0.6
	C367.6,458.1,341.6,432.1,341.6,400z"/>
</svg>
