<?xml version="1.0" encoding="utf-8"?>
<!-- Generator: Adobe Illustrator 27.2.0, SVG Export Plug-In . SVG Version: 6.00 Build 0)  -->
<svg version="1.1" id="Слой_1" xmlns="http://www.w3.org/2000/svg" xmlns:xlink="http://www.w3.org/1999/xlink" x="0px" y="0px"
	 viewBox="0 0 800 800" style="enable-background:new 0 0 800 800;" xml:space="preserve">
<style type="text/css">
	.st0{opacity:0.1;stroke:#000000;stroke-width:40;stroke-miterlimit:133.3333;enable-background:new    ;}
	.st1{stroke:#000000;stroke-width:40;stroke-linejoin:round;stroke-miterlimit:133.3333;}
</style>
<g id="SVGRepo_bgCarrier">
</g>
<g id="SVGRepo_tracerCarrier">
</g>
<g id="SVGRepo_iconCarrier">
	<path class="st0" d="M32.5,174c0,327,265.1,592,592,592c27.2,0,54-1.8,80.2-5.4c37.2-5,62.7-38.3,62.7-75.8v-105
		c0-35.2-22.5-66.4-55.9-77.4l-128.5-42.9c-32.7-10.9-67.7,8.3-76.1,41.8c-11.1,44.6-66.8,60-99.2,27.4L269.7,390.7
		c-32.5-32.5-17.1-88.1,27.4-99.2c33.4-8.3,52.7-43.4,41.8-76.1L296,86.9C284.9,53.5,253.6,31,218.6,31H113.7
		c-37.5,0-70.8,25.5-75.8,62.7C34.3,119.9,32.5,146.8,32.5,174z"/>
	<path class="st1" d="M32.5,174c0,327,265.1,592,592,592c27.2,0,54-1.8,80.2-5.4c37.2-5,62.7-38.3,62.7-75.8v-105
		c0-35.2-22.5-66.4-55.9-77.4l-128.5-42.9c-32.7-10.9-67.7,8.3-76.1,41.8c-11.1,44.6-66.8,60-99.2,27.4L269.7,390.7
		c-32.5-32.5-17.1-88.1,27.4-99.2c33.4-8.3,52.7-43.4,41.8-76.1L296,86.9C284.9,53.5,253.6,31,218.6,31H113.7
		c-37.5,0-70.8,25.5-75.8,62.7C34.3,119.9,32.5,146.8,32.5,174z"/>
</g>
</svg>
