<?xml version="1.0" encoding="utf-8"?>
<!-- Generator: Adobe Illustrator 27.2.0, SVG Export Plug-In . SVG Version: 6.00 Build 0)  -->
<svg version="1.1" id="Слой_1" xmlns="http://www.w3.org/2000/svg" xmlns:xlink="http://www.w3.org/1999/xlink" x="0px" y="0px"
	 viewBox="0 0 256 256" style="enable-background:new 0 0 256 256;" xml:space="preserve">
<style type="text/css">
	.st0{fill:#FFFFFF;}
</style>
<g>
	<path class="st0" d="M107.2,159.2c0,10.4,0,20.7,0,31.1c31.1,0,62.2,0,93.3,0c0,10.4,0,20.6,0,31c-31.1,0-62.1,0-93.3,0
		c0,10.5,0,20.7,0,31.1c-13.9,0-27.6,0-41.4,0c0-10.3,0-20.5,0-31c-13.9,0-27.6,0-41.4,0c0-10.4,0-20.6,0-31c13.7,0,27.4,0,41.3,0
		c0-10.4,0-20.7,0-31.2c-13.7,0-27.4,0-41.2,0c0-10.5,0-20.7,0-31.2c13.7,0,27.4,0,41.3,0c0-41.5,0-82.9,0-124.3
		c0.6-0.1,1-0.1,1.5-0.1c29.3,0,58.5-0.1,87.8,0C172.3,3.7,188,9.3,201.7,20c15.1,11.8,25,27.2,28.5,46.1c5.3,29.1-3.1,54-25.2,73.8
		c-11.7,10.5-25.6,16.6-41.2,18.5c-3.7,0.5-7.4,0.6-11.1,0.7c-14.5,0.1-29,0-43.5,0C108.6,159.2,107.9,159.2,107.2,159.2z
		 M107.2,34.7c0,31.2,0,62.1,0,93.3c0.7,0,1.3,0,1.9,0c13.4,0,26.8,0,40.1,0c5,0,10-0.4,14.8-1.8c11.1-3.3,20-9.7,26.3-19.4
		c6.6-10.1,8.8-21.2,6.9-33.2c-1.6-9.9-6-18.4-13-25.3c-9.4-9.2-20.8-13.6-34-13.6c-13.8,0-27.5,0-41.3,0
		C108.5,34.7,107.9,34.7,107.2,34.7z"/>
</g>
</svg>
