<?xml version="1.0" encoding="utf-8"?>
<!-- Generator: Adobe Illustrator 27.2.0, SVG Export Plug-In . SVG Version: 6.00 Build 0)  -->
<svg version="1.1" id="Слой_1" xmlns="http://www.w3.org/2000/svg" xmlns:xlink="http://www.w3.org/1999/xlink" x="0px" y="0px"
	 viewBox="0 0 800 800" style="enable-background:new 0 0 800 800;" xml:space="preserve">
<style type="text/css">
	.st0{fill-rule:evenodd;clip-rule:evenodd;fill:#FFFFFF;stroke:#FFFFFF;stroke-width:17;stroke-miterlimit:168.4211;}
</style>
<g id="SVGRepo_bgCarrier">
</g>
<g id="SVGRepo_tracerCarrier">
</g>
<g id="SVGRepo_iconCarrier">
	<path class="st0" d="M459.3,413.9l99.1,57.2c9.7,5.6,12.8,18.3,7.4,27.7c-5.6,9.7-17.7,13.2-27.7,7.5l-100.8-58.2
		c-10.3,8-23.3,12.8-37.3,12.8c-33.7,0-60.9-27.3-60.9-60.9c0-26.5,17-49.1,40.6-57.5V156.3c0-11.3,9.4-20.5,20.3-20.5
		c11.2,0,20.3,9.5,20.3,20.5v186.2c23.7,8.4,40.6,30.9,40.6,57.5C460.9,404.8,460.4,409.5,459.3,413.9z M400,786
		c213.2,0,386-172.8,386-386S613.2,14,400,14S14,186.8,14,400S186.8,786,400,786z M400,745.4c190.7,0,345.4-154.6,345.4-345.4
		S590.7,54.6,400,54.6S54.6,209.3,54.6,400S209.3,745.4,400,745.4z"/>
</g>
</svg>
