<?xml version="1.0" encoding="utf-8"?>
<!-- Generator: Adobe Illustrator 27.2.0, SVG Export Plug-In . SVG Version: 6.00 Build 0)  -->
<svg version="1.1" id="Слой_1" xmlns="http://www.w3.org/2000/svg" xmlns:xlink="http://www.w3.org/1999/xlink" x="0px" y="0px"
	 viewBox="0 0 800 800" style="enable-background:new 0 0 800 800;" xml:space="preserve">
<path d="M398.9,538.7c-129,0.6-236.7,90.6-264.5,211.2l-0.4,1.8c-0.5,2-0.7,4.4-0.7,6.8c0,17.7,14.3,32,32,32
	c15.3,0,28-10.7,31.2-25l0.1-0.2c21.1-93.7,103.7-162.6,202.3-162.6S580,671.7,600.9,764l0.3,1.4c3.3,14.5,16,25.2,31.3,25.2
	c17.7,0,32-14.3,32-32c0-2.4-0.3-4.8-0.8-7.1l0.1,0.2C635.6,629.3,527.8,539.2,398.9,538.7L398.9,538.7L398.9,538.7z M223.8,274.5
	L223.8,274.5c73.2,0,132.6-59.3,132.6-132.6S297,9.4,223.8,9.4C150.6,9.4,91.2,68.7,91.2,142l0,0
	C91.3,215.1,150.6,274.4,223.8,274.5L223.8,274.5L223.8,274.5z M223.8,73.4L223.8,73.4c37.9,0,68.5,30.7,68.5,68.5
	s-30.7,68.5-68.5,68.5s-68.5-30.7-68.5-68.5l0,0C155.3,104.1,186,73.5,223.8,73.4L223.8,73.4z M576.3,274.5
	c73.2,0,132.6-59.3,132.6-132.6S649.5,9.4,576.3,9.4c-73.2,0-132.6,59.3-132.6,132.6l0,0C443.8,215.1,503.1,274.4,576.3,274.5
	L576.3,274.5L576.3,274.5z M576.3,73.4c37.9,0,68.5,30.7,68.5,68.5s-30.7,68.5-68.5,68.5s-68.5-30.7-68.5-68.5l0,0
	C507.8,104.1,538.4,73.5,576.3,73.4L576.3,73.4z M791,495.6c-22.1-105.3-114.2-183.2-224.5-183.2c-10.1,0-20.1,0.7-29.8,1.9l1.2-0.1
	c-23.8-54.2-77-91.4-138.9-91.4c-61.8,0-115,37.1-138.5,90.3l-0.4,1c-6.8-0.9-14.9-1.5-23-1.6h-0.2C125.9,312.9,33.2,390.3,9.3,494
	L9,495.6c-0.5,2-0.7,4.4-0.7,6.9c0,17.7,14.3,32,32,32c15.3,0,28-10.7,31.2-25l0.1-0.2c17.5-76.3,84.8-132.5,165.1-132.8h0
	c3.7,0,7.2,0.5,10.8,0.7c1.4,82.4,68.6,148.7,151.2,148.7c82.6,0,149.7-66.2,151.2-148.4v-0.2c4.4-0.3,8.7-0.9,13.2-0.9
	c80.4,0.3,147.7,56.4,165,131.6l0.2,1.2c3.2,14.5,16,25.2,31.3,25.2c17.7,0,32-14.3,32-32c0-2.4-0.3-4.8-0.8-7L791,495.6L791,495.6z
	 M398.9,461.9C398.9,461.9,398.9,461.9,398.9,461.9c-48.4,0-87.5-39.2-87.5-87.5s39.2-87.5,87.5-87.5s87.5,39.2,87.5,87.5
	c0,0,0,0,0,0l0,0C486.3,422.7,447.2,461.8,398.9,461.9L398.9,461.9z"/>
</svg>
