<?xml version="1.0" encoding="utf-8"?>
<!-- Generator: Adobe Illustrator 27.2.0, SVG Export Plug-In . SVG Version: 6.00 Build 0)  -->
<svg version="1.1" id="Слой_1" xmlns="http://www.w3.org/2000/svg" xmlns:xlink="http://www.w3.org/1999/xlink" x="0px" y="0px"
	 viewBox="0 0 800 800" style="enable-background:new 0 0 800 800;" xml:space="preserve">
<circle cx="288.6" cy="251.3" r="148.6"/>
<path d="M511.4,251.3c0,25.5-4.5,50.1-12.5,73c4.2,0.3,8.3,1.3,12.5,1.3c82.1,0,148.6-66.5,148.6-148.6S593.5,28.4,511.4,28.4
	c-37.9,0-72.1,14.7-98.4,38C472.4,106.6,511.4,174.4,511.4,251.3z M288.6,474.1c-185.7,0-260,37.1-260,148.6v148.9h520V622.7
	C548.6,510.6,474.3,474.1,288.6,474.1z"/>
<path d="M511.4,399.9c-21,0-40.5,0.6-58.8,1.6c-3.3,3.6-6.7,7.1-10.2,10.4c92.4,19.6,180.2,71.8,180.2,210.8v74.6h148.7V548.4
	C771.4,436.3,697.1,399.9,511.4,399.9z"/>
</svg>
