<?xml version="1.0" encoding="utf-8"?>
<!-- Generator: Adobe Illustrator 27.2.0, SVG Export Plug-In . SVG Version: 6.00 Build 0)  -->
<svg version="1.1" id="Слой_1" xmlns="http://www.w3.org/2000/svg" xmlns:xlink="http://www.w3.org/1999/xlink" x="0px" y="0px"
	 viewBox="0 0 144 140.6" style="enable-background:new 0 0 144 140.6;" xml:space="preserve">
<style type="text/css">
	.st0{fill:#004B84;}
</style>
<g>
	<path class="st0" d="M115.6,99.1c-14.5,0-29,0-43.5,0c0.7-3.2,1.3-6.2,2-9.5c-24.3,0-48.5,0-72.7,0c0-0.1,0-0.2-0.1-0.3
		c0.2-0.1,0.3-0.3,0.5-0.3c0.4,0,0.8,0,1.2,0c23,0,45.9,0,68.9,0c2.5,0,2.8-0.3,2.7-3.1c-9.4,0-18.9,0-28.5,0
		c0.2-0.9,0.3-1.7,0.5-2.7c-3.6,2.4-7.4,3.3-11.5,3.1c-4-0.2-7.9-0.8-10.5-4.5c-0.7,0.6-1.4,1.1-2.1,1.6c-3.7,2.5-7.9,3-12.3,2.7
		c-1.3-0.1-2.6-0.3-3.9-0.7c-4.6-1.3-7-5.1-6.4-9.9c0.8-7.6,6.3-11,12-11.8c2.2-0.3,4.4-0.3,6.6-0.1c3.3,0.2,6.1,1.4,8.2,4.3
		c3.2-3.3,7.2-4.4,11.5-4.5c4.3-0.1,8.4,0.3,11.7,4c0.2-1,0.3-1.9,0.6-2.7c0.1-0.4,0.6-0.8,0.9-0.9c4.4,0,8.8,0,13.2,0
		c0.1,0,0.2,0.1,0.4,0.1c0.1,0.5,0.1,1,0.2,1.5c0.1,0,0.3,0,0.3,0c0.5-1.5,1.6-1.8,3-1.6c0.8,0.1,1.6,0,2.3,0
		c-0.5-2-0.9-3.9-1.4-6.1c0.9,0,1.4,0,1.9,0c2.9,0,5.8,0,8.6,0c0.9,0,1.4,0.1,1.5,1.2c0.1,1.2,0.9,2.1,2,2.6c2.6,1.2,7,0.3,8.9-1.8
		c0.4-0.4,0.7-0.9,1.2-1.7c-3.2,0-6,0-9.1,0c0.4-1.9,0.7-3.6,1.1-5.2c0.1-0.2,0.6-0.4,0.9-0.4c2.2,0,4.4,0,6.6,0c0.4,0,0.9,0,1.3,0
		c0.2-1.7-0.7-3.2-2.4-4c-3.6-1.6-7.8,0-9.5,3.5c-0.2,0.3-0.5,0.6-0.8,0.8c-0.1,0.1-0.4,0-0.6,0c-3.4,0-6.8,0-10.3,0
		c0.8-3.1,2.4-5.5,4.8-7.4c2.6-2.1,5.7-3.2,9-3.7c4.4-0.7,8.8-0.7,13.1,0.4c4.5,1.1,7.2,3.8,7.5,7.7c0.5,6.2-1.3,11.5-6.7,15.2
		c-0.2,0.1-0.3,0.2-0.5,0.3c0,0,0,0.1-0.1,0.2c0.6,0.7,1.3,1.4,1.9,2.2c4.3-2.7,7.1-6.5,8.2-11.6c0.6-2.8,0.8-5.6,0.1-8.4
		c-1.3-4.7-4.6-7.3-9.1-8.4c-6.7-1.7-13.4-1.4-19.9,0.9c-6.7,2.5-10.2,7.5-11.5,14.4c-0.6,3-0.8,6,0.4,8.9c-0.1,0.1-0.3,0.1-0.4,0.2
		c-0.2-0.4-0.6-0.9-0.6-1.3C67,61,66.3,60.8,65,60.8c-12.7,0-25.3,0-38,0c-0.5,0-1,0-1.5,0c0-0.2,0-0.3,0-0.5
		c2.2-0.3,4.4-0.1,6.6-0.1c2.3,0,4.6,0,7,0c2.3,0,4.6,0,6.8,0c2.3,0,4.6,0,6.8,0c2.3,0,4.6,0,7,0c2.3,0,4.5,0,6.8,0
		c0.3-2,0.3-2.1-1.5-2.1c-5.4,0-10.7,0-16.1,0c-0.4,0-0.9,0-1.3,0c0-0.1-0.1-0.3-0.1-0.4c0.4-0.1,0.8-0.2,1.3-0.2
		c5.4,0,10.7,0,16.1,0c1.8,0,1.7,0.4,2.1-1.8c1.5-10.1,7.7-16.3,17.9-17.7c5.1-0.7,10.1-0.8,15.1,0.7c4.9,1.5,8.3,4.6,9.2,9.8
		c0.5,3.1,0.2,6.2-0.7,9.2c-0.1,0.3-0.2,0.6-0.3,1.2c12,0,24,0,35.9,0c0,0.1,0,0.3,0,0.4c-0.5,0-0.9,0.1-1.4,0.1c-11,0-22,0-33,0
		c-2,0-2,0-2.8,2.1c9.8,0,19.6,0,29.4,0c0,0.1,0.1,0.2,0.1,0.3c-0.2,0.1-0.3,0.3-0.5,0.4c-0.3,0.1-0.6,0-1,0c-8.9,0-17.8,0-26.7,0
		c-1.5,0-2.5,0.4-3.1,2c8.2,0,16.4,0,24.5,0c0,0.2,0,0.3,0.1,0.5c-0.4,0.1-0.8,0.2-1.2,0.2c-5.8,0-11.7,0-17.5,0c-2,0-4.1-0.4-6,0.1
		c-1.8,0.5-3.2,2-4.8,3c0.1,1.1,0.1,2.1,0.2,3.4c0.6-1,1-1.8,1.6-2.6c0.2-0.3,0.6-0.7,1-0.7c6.3,0,12.5,0,18.8,0
		c0.1,0,0.1,0.1,0.3,0.1C119.9,78.6,117.8,88.8,115.6,99.1z M76.6,84.4c-2.5,4.4-2.3,9.4-3.8,14c0.5,0,0.7,0.1,0.9,0.1
		c13.5,0,27,0,40.5,0c0.8,0,1-0.3,1.2-1c1.7-8.3,3.5-16.5,5.2-24.8c0.3-1.2,0.5-2.4,0.8-3.8c-6.1,0-12,0-17.9,0
		c-0.4,0-0.8,0.4-1,0.8c-0.9,1.5-1.8,3-2.5,4.6c-0.3,0.6-0.4,1.3-0.4,1.9c0.2,2.4-0.5,4.6-2.2,6.4c-0.2,0.2-0.5,0.5-0.5,0.8
		c0,0.9,0.2,1.9,0.3,3.1c0.4-0.6,0.6-1,0.8-1.4c2.1-4.1,4.3-8.2,6.3-12.4c0.4-0.7,0.8-1,1.6-1c3.8,0,7.5,0,11.3,0
		c0.4,0,0.8,0.1,1.2,0.1c0,0.4,0,0.7-0.1,1c-1.4,6.5-2.7,12.9-4.1,19.4c-0.3,1.2-0.2,2.9-1,3.6c-0.8,0.6-2.4,0.2-3.7,0.2
		c-1.5,0-3.1,0-4.7,0c1.3-6.3,2.6-12.3,3.9-18.3c-0.4,0.3-0.7,0.7-0.9,1c-2.8,5.5-5.6,10.9-8.5,16.4c-0.2,0.4-0.6,0.9-0.9,0.9
		c-2.2,0.1-4.5,0-6.8,0c-0.3-3.5-0.6-6.8-0.9-10.2c-0.4,0-1.1,0.2-1.8,0.2c-0.8,0-1.1,0.3-1.3,1.1c-0.5,3-1.2,5.9-1.9,8.9
		c-2.9,0-5.7,0-8.6,0c0.7-3.5,1.5-7,2.2-10.4C78.3,85.1,77.5,84.8,76.6,84.4z M49.7,83c1.9,0,3.7,0,5.5,0c0.2,0,0.6-0.5,0.6-0.8
		c0.4-1.9,0.8-3.7,1.2-5.6c0.4-1.7,0.7-3.4,1.1-5.2c0.1,0,0.1,0,0.2,0c0.3,3.8,0.7,7.7,1,11.5c0.5,0,0.9,0,1.2,0.1
		c2.8,0.6,4.5-0.6,5.6-3.3c1.2-2.9,2.8-5.7,4.3-8.5c0,0,0.1,0,0.1,0.1C69.8,75.1,69,79,68.1,83c1.8,0,3.3-0.1,4.8,0
		c0.9,0,1.2-0.3,1.4-1.2c1-4.7,2-9.4,3-14.1c0.1-0.3,0.1-0.6,0.1-1c-2.9,0-5.8,0-8.6,0c-0.3,0-0.8,0.5-1,0.8c-1.3,2.5-2.6,5-3.9,7.5
		c-0.1,0.3-0.3,0.5-0.7,1.1c-0.2-3.4-0.4-6.4-0.7-9.5c-3,0-5.9,0-8.8,0c-0.3,0-0.7,0.5-0.8,0.9c-0.4,1.5-0.7,3-1,4.4
		C51.3,75.6,50.5,79.2,49.7,83z M42.1,73.1c-1.6,0-3.1,0-4.5,0c-0.4,0-0.9,0.2-1,0.4c-0.3,1-0.5,2.1-0.7,3.4c1.9,0,3.6,0,5.4,0
		c-0.8,1.7-2.6,2.4-4.9,2.2c-1.2-0.1-1.9-0.7-2.2-1.8c-0.1-0.3-0.6-0.7-0.9-0.7c-1.8-0.1-3.7,0-5.5,0c-0.9,0-1.1,0.4-1,1.2
		c0.3,2.6,1.8,4.5,4.7,5.2c3.7,0.9,7.4,0.9,11-0.4c3.5-1.3,5.8-3.7,6.6-7.4c0.9-4.6-1-7.6-5.5-8.4c-2.9-0.5-5.8-0.5-8.7,0.2
		c-3,0.8-5.5,2.3-6.9,5.3c-0.2,0.4-0.3,0.9-0.5,1.5c1.6,0,3,0,4.4,0c1.5,0,2.9,0.2,3.8-1.6c0.8-1.6,2.7-1.6,4.4-1.3
		C41.1,71,41.8,71.7,42.1,73.1z M94.7,74.3c0.2-0.1,0.3-0.2,0.4-0.2c1.8-0.9,2.7-2.3,2.6-3.9c-0.1-1.5-1.1-2.5-3.2-2.9
		c-1.9-0.4-3.9-0.5-5.8-0.6c-2.6,0-5.2,0.1-7.6,1.4c-1.3,0.7-2.2,1.7-2.6,3.3c2.2,0,4.3,0,6.4,0c0.2,0,0.4,0,0.6-0.2
		c1.2-0.9,2.6-0.8,4-0.5c0.4,0.1,0.8,0.6,1.2,0.9c-0.4,0.3-0.8,0.9-1.3,0.9c-1.1,0.2-2.3,0.1-3.5,0.1c-0.3,0-0.9,0.2-1,0.4
		c-0.3,1.1-0.5,2.2-0.7,3.3c1.7,0.1,3.1,0.1,4.6,0.3c0.3,0,0.9,0.5,0.9,0.7c0,0.4-0.3,1-0.6,1.3c-1.5,1-4.7,0.6-5.9-0.8
		c-0.1-0.2-0.4-0.3-0.6-0.3c-2,0-4,0-5.9,0c-0.7,2.8,0.6,4.6,3.7,5.3c3.3,0.7,6.6,0.7,10,0.1c1.8-0.3,3.5-0.9,4.8-2.2
		C97.4,78.6,97.2,75.8,94.7,74.3z M16.1,66.2c-1.4,0.1-2.7,0.2-3.9,0.4c-5.7,0.9-9.3,4.7-9.4,10.1c-0.1,3.2,1.3,5.1,4.4,6.1
		c2.7,0.8,5.5,0.8,8.3,0.4c5.2-0.7,8.6-3.8,9.5-8.5c0.8-4.2-0.9-6.9-5.1-7.9C18.6,66.4,17.2,66.3,16.1,66.2z"/>
	<path class="st0" d="M50.5,82.4c0.8-3.8,1.6-7.4,2.3-11c0.1-0.4,0.2-0.8,0.3-1.2c0.6-2.8,0.6-2.8,3.6-2.8c1.7,0,3.4,0,5.3,0
		c0.3,3.6,0.5,7.2,0.8,10.8c0.1,0,0.1,0.1,0.2,0.1c0.2-0.3,0.4-0.7,0.6-1.1c1.5-2.9,3.1-5.9,4.5-8.8c0.4-0.8,0.8-1,1.7-1
		c2.3,0.1,4.5,0,7,0c-0.4,1.7-0.7,3.3-1,4.9c-0.6,3.1-1.3,6.2-1.9,9.2c-0.1,0.7-0.4,0.9-1.1,0.9c-1.2-0.1-2.4,0-3.8,0
		c0.9-4.1,1.7-8.1,2.6-12c-0.9-0.5-1.3,0-1.6,0.7c-1.8,3.4-3.6,6.9-5.3,10.3c-0.4,0.8-0.8,1.1-1.7,1.1c-0.9-0.1-1.8,0-2.8,0
		c-0.3-2.7-0.5-5.2-0.8-7.8c-0.1-1.1-0.1-2.2-0.3-3.2c-0.1-0.3-0.4-0.6-0.6-1c-0.3,0.3-0.7,0.6-0.8,0.9c-0.8,3.3-1.5,6.7-2.1,10.1
		c-0.2,0.8-0.4,1.1-1.2,1C53,82.3,51.9,82.4,50.5,82.4z M57.3,70c1.9-0.3,1.9-0.2,2.1,1.5c0.3,3.4,0.6,6.8,1,10.4
		c0.6,0,1.2-0.1,1.7,0c1.2,0.2,1.8-0.3,2.4-1.4c1.5-3.2,3.2-6.3,4.8-9.5c0.8-1.6,0.8-1.6,2.7-1.2c-0.9,4-1.7,7.9-2.6,12.1
		c1,0,2,0,2.9,0c0.7,0,1-0.3,1.1-0.9c0.6-3,1.3-6,1.9-9c0.3-1.4,0.6-2.8,0.9-4.3c-2.2,0-4.3,0-6.3,0c-0.8,0-1.1,0.3-1.5,0.9
		c-1.6,3.2-3.3,6.5-5,9.7c-0.2,0.4-0.5,0.7-0.8,1c-0.1-0.1-0.2-0.1-0.3-0.2c-0.3-3.8-0.5-7.5-0.8-11.4c-2.2,0-4.4,0-6.5,0
		c-0.9,0-1.1,0.3-1.3,1.1c-0.5,2.5-1.1,5-1.6,7.5c-0.4,1.8-0.7,3.6-1.1,5.6c0.9,0,1.6-0.1,2.3,0c1.2,0.2,1.6-0.4,1.8-1.5
		C55.8,77,56.6,73.6,57.3,70z"/>
	<path class="st0" d="M27.4,77.2c1.9,0,3.7,0,5.5,0c0.2,0,0.5,0.4,0.7,0.7c0.5,1,1.2,1.6,2.3,1.8c2.8,0.6,5.6-0.9,6.3-3.5
		c-0.9,0-1.8,0-2.7,0c-0.9,0-1.7,0-2.6,0c-0.3-2,0-2.4,1.8-2.4c1.3,0,2.6,0,3.9,0c0.2-1.7-0.4-2.8-1.7-3.5c-2.2-1.1-5-0.3-6.3,1.8
		c-0.4,0.6-0.8,0.9-1.5,0.9c-1.6-0.1-3.2,0-4.9,0c0.7-2.1,2-3.5,3.9-4.5c3-1.6,6.3-1.8,9.6-1.5c0.6,0,1.3,0.2,1.9,0.3
		c4,0.9,5.5,3.3,4.8,7.3c-0.7,4-3.1,6.4-6.9,7.5c-3.1,1-6.4,1-9.6,0.3C28.8,81.7,27.3,79.8,27.4,77.2z M28.8,72.6c0.9,0,1.6,0,2.3,0
		c1.5,0.1,2.8,0.1,3.9-1.5c1.1-1.7,4-2,6-1.1c1.6,0.7,2.3,2.1,2.1,4.3c-1.9,0-3.8,0-5.7,0c-0.1,0.5-0.1,1-0.2,1.5c2,0,3.9,0,5.8,0
		c-1.2,3.5-4.2,5.2-7.4,4.2c-0.9-0.3-1.5-1.1-2.3-1.7c-0.3-0.2-0.5-0.7-0.7-0.7c-1.6-0.1-3.2,0-4.8,0c0,2.2,1.5,3.7,4,4.3
		c3.3,0.8,6.7,0.7,9.9-0.4c4-1.4,6.2-4.5,6.2-8.7c0-2.3-1-4-3.2-4.7c-4.3-1.3-8.5-1.1-12.6,0.9C30.7,69.7,29.6,70.8,28.8,72.6z"/>
	<path class="st0" d="M77.3,78.1c1.6,0,3.3,0,5,0c0.2,0,0.4,0.2,0.6,0.3c1.5,1.5,5.1,1.9,6.7,0.6c0.5-0.4,0.8-1.2,0.8-1.8
		c0-0.4-0.7-1.1-1.2-1.2c-1.3-0.2-2.6-0.2-4.1-0.3c0.1-0.7,0.2-1.4,0.4-2c0.1-0.2,0.6-0.4,1-0.4c1.1-0.1,2.3-0.1,3.4-0.2
		c0.9-0.1,1.5-0.6,1.5-1.6c0-1-0.7-1.3-1.5-1.4c-1.6-0.3-3.1-0.4-4.5,0.5c-0.3,0.2-0.7,0.2-1,0.2c-1.5,0-3.1,0-4.7,0
		c0.6-1.4,1.5-2.1,2.6-2.5c4.3-1.6,8.6-1.5,12.9-0.2c1,0.3,1.9,0.9,1.9,2.1c0,1.4-0.4,2.4-1.7,3c-0.3,0.2-0.7,0.2-1,0.4
		c-0.3,0.2-0.6,0.5-0.6,0.9c0,0.2,0.4,0.5,0.6,0.6c1.7,0.7,2.1,1.4,1.6,3.2c-0.5,1.7-1.7,2.7-3.2,3.3c-2.6,1.1-5.4,1.2-8.2,1.1
		c-1.7-0.1-3.5-0.4-5.1-0.9C77.6,81.3,77,80.1,77.3,78.1z M80.4,69.8c0.1,0.2,0.1,0.4,0.2,0.7c1.6-0.1,3.2,0,4.7-0.5
		c1.7-0.5,3.4-0.6,5-0.2c0.9,0.2,1.5,0.7,1.5,1.8c0,1-0.5,1.7-1.5,1.9c-1,0.2-2.1,0.2-3.1,0.3c-1.5,0-1.6,0.1-1.5,1.7
		c1.1,0.1,2.2,0.1,3.3,0.2c1,0.1,1.8,0.6,1.9,1.7c0.1,1.1-0.4,2.1-1.4,2.4c-2.4,0.7-4.8,1.2-6.9-0.8c-0.1-0.1-0.3-0.3-0.5-0.3
		c-1.5,0-2.9,0-4.4,0c0,1.6,0.5,2.5,1.9,2.8c1.7,0.4,3.4,0.7,5.2,0.8c2.6,0.2,5.3,0,7.8-1c1.3-0.5,2.3-1.2,2.9-2.6
		c0.7-1.9,0.4-2.7-1.6-3.3c-0.2-0.1-0.4-0.1-0.5-0.2c-0.1-1.7-0.1-1.7,1-2.1c1.7-0.6,2.3-1.4,2.3-2.8c0-1.5-1.3-1.8-2.4-2.1
		c-3.5-0.9-7.1-1-10.6,0C82.5,68.6,81.4,69.2,80.4,69.8z"/>
	<path class="st0" d="M11.7,83c-1.9-0.4-3.4-0.5-4.7-1c-2.6-0.8-3.8-2.9-3.5-5.6c0.5-5.4,3.7-8.7,9.2-9.3c1.9-0.2,3.9-0.2,5.8,0
		c5.1,0.5,7,3.4,5.7,8.4c-0.8,3.3-3,5.4-6.1,6.3C15.9,82.4,13.6,82.6,11.7,83z M12.2,82.4c1.2-0.1,2.5-0.2,3.8-0.4
		c3.9-0.8,6.8-2.7,7.8-6.8c1.1-4.3-0.5-6.8-4.7-7.6c-2.9-0.5-5.7-0.4-8.5,0.5c-3.4,1-5.7,3.2-6.5,6.8c-0.9,4.1,0.6,6.4,4.7,7.2
		C9.9,82.2,11,82.2,12.2,82.4z"/>
	<path class="st0" d="M15,69.5c3.2,0,4.8,2,4.3,5.2c-0.7,4.1-3.9,6.3-7.6,5.4C10,79.6,9,78.7,8.8,77C8.3,72.7,10.7,69.4,15,69.5z
		 M18.9,73.5c0-2.1-1.3-3.4-3.4-3.6c-4.3-0.3-6.8,2.8-6.3,7c0.2,1.5,1.1,2.3,2.5,2.7C15.5,80.6,18.9,77.7,18.9,73.5z"/>
	<path class="st0" d="M9.8,75.9c0.1-3.8,2.8-6.1,6.4-5.2c1.2,0.3,1.9,1.1,2,2.3c0.3,3.6-1.9,6.2-5.4,6.1C10.7,79,9.8,78.1,9.8,75.9z
		"/>
</g>
</svg>
