<?xml version="1.0" encoding="utf-8"?>
<!-- Generator: Adobe Illustrator 27.2.0, SVG Export Plug-In . SVG Version: 6.00 Build 0)  -->
<svg version="1.1" id="Слой_1" xmlns="http://www.w3.org/2000/svg" xmlns:xlink="http://www.w3.org/1999/xlink" x="0px" y="0px"
	 viewBox="0 0 256 256" style="enable-background:new 0 0 256 256;" xml:space="preserve">
<style type="text/css">
	.st0{fill:#FFFFFF;}
</style>
<g>
	<path class="st0" d="M56.3,77.5c10.9,0,21.2,0,32,0c0.1,1.6,0.2,2.8,0.2,4.1c0,43.1,0,86.2,0.1,129.3c0,2.5-0.5,3.5-3.3,3.5
		c-13.8-0.1-27.7-0.1-41.5,0c-2.8,0-3.6-0.9-3.6-3.6c0.1-30.9,0-61.8,0.2-92.8c0-3.3-0.7-4.5-4.2-4.3c-5.7,0.3-11.4,0-17.1,0.1
		c-2.1,0-3-0.6-2.9-2.8c0.1-3.2,0.2-6.5,0-9.7c-0.2-2.7,0.7-3.8,3.5-3.7c5.6,0.2,11.2-0.1,16.7,0.1c3,0.1,4.1-0.7,4-3.9
		c-0.2-8.4,0-16.7-0.1-25.1c0-2.4,0.6-3.4,3.2-3.3c3.3,0.2,6.7,0.1,10,0c2.1-0.1,3.1,0.6,2.9,2.8C56.2,71.2,56.3,74.1,56.3,77.5z
		 M64.5,129.9c-8.3,0-8.3,0-8.2,8.2c0,7.9,0,7.9,7.9,7.9c8.2,0,8.2,0,8.2-8.2C72.4,129.9,72.4,129.9,64.5,129.9z M64.3,186.2
		c8.1,0,8.1,0,8.1-8.3c0-7.8,0-7.8-7.6-7.8c-8.5,0-8.5,0-8.5,8.3C56.3,186.2,56.3,186.2,64.3,186.2z"/>
	<path class="st0" d="M201,65.5c5.1,0,9.6,0,14.2,0c2.4,0,1.9,1.7,1.9,3.1c0,8.3,0,16.5,0,24.8c0,4.3,0,4.3,4.4,4.3
		c5.5,0,10.9,0.1,16.4-0.1c2.4-0.1,3.5,0.5,3.4,3.1c-0.2,3.5-0.1,6.9,0,10.4c0.1,2.1-0.8,2.7-2.8,2.7c-6-0.1-12.1,0.1-18.1-0.1
		c-2.7-0.1-3.4,0.9-3.4,3.5c0.1,30.9,0,61.8,0.1,92.8c0,4.4,0,4.4-4.3,4.4c-13.5,0-27,0-40.5,0.1c-2.5,0-3.5-0.5-3.5-3.3
		c0.1-43.1,0.1-86.2,0-129.3c0-3.4,0.8-4.4,4.2-4.3c8.1,0.3,16.3,0,24.4,0.1c2.7,0.1,3.9-0.6,3.6-3.5C200.8,71.5,201,68.8,201,65.5z
		 M193.3,129.9c-8.3,0-8.3,0-8.3,8.5c0,7.6,0,7.6,7.5,7.6c8.6,0,8.6,0,8.6-8.5C201.1,129.8,201.1,129.8,193.3,129.9z M185,186.1
		c5,0,9.7,0.1,14.3-0.1c0.6,0,1.6-1.2,1.6-1.9c0.1-4,0.1-8-0.1-12c0-0.7-1.2-1.9-1.9-1.9c-4-0.2-8-0.2-12,0c-0.7,0-1.9,1-1.9,1.6
		C184.9,176.4,185,181.1,185,186.1z"/>
	<path class="st0" d="M96.5,126.2c0-28,0-56.1,0.1-84.1c0-1.8,0.9-3.9,2.2-5.2c8.3-8.6,16.8-17,25.3-25.4c3.3-3.3,6-3.3,9.4,0.1
		c8.4,8.4,16.7,16.8,25.1,25.1c1.8,1.7,2.3,3.5,2.3,5.9c-0.1,55.8-0.1,111.7-0.1,167.5c0,3.8-3.7,6-7.1,4c-0.7-0.4-0.9-2.1-0.9-3.2
		c-0.1-14.6-0.1-29.3,0-43.9c0-14.1-10.4-24.9-23.8-25c-14,0-24.4,10.7-24.4,25.1c0,14.5-0.1,29,0.1,43.5c0,3.4-1.4,3.7-4.2,3.8
		c-2.8,0-4.1-0.5-4.1-3.8C96.5,182.4,96.5,154.3,96.5,126.2z M152.8,61.6c0-13.3-10.7-24.1-23.9-24.1c-13.3,0-24.2,10.7-24.2,23.8
		c0,13.5,10.7,24.3,24.1,24.4C141.9,85.6,152.7,74.8,152.8,61.6z M112.6,129.9c3.7,0,6.8,0.1,9.9-0.1c0.7-0.1,2-1.4,2-2.2
		c0.2-7.8,0.1-15.6,0.1-23.4c0-1.6-0.5-2.5-2.3-2.5c-2.6,0.1-5.1-0.1-7.7,0.1c-0.7,0.1-2,1-2,1.5C112.6,112,112.6,120.7,112.6,129.9
		z M132.7,115.8c0,1.7,0,3.3,0,5c0,9.4,0,9.4,9.4,9c2-0.1,2.8-0.7,2.7-2.7c-0.1-5.5,0-10.9,0-16.4c0-9.5,0-9.5-9.4-9
		c-0.1,0-0.2,0-0.3,0c-1.8-0.2-2.4,0.7-2.3,2.4C132.7,108,132.7,111.9,132.7,115.8z"/>
	<path class="st0" d="M8.1,238.6c80.5,0,160.6,0,241.2,0c0,3.5,0.1,6.9-0.1,10.3c-0.1,0.6-1.9,1.5-3,1.5
		c-12.9,0.1-25.9,0.1-38.8,0.1c-64.9,0-129.7,0-194.6,0c-4.7,0-4.7,0-4.7-4.7C8,243.5,8.1,241.3,8.1,238.6z"/>
	<path class="st0" d="M24.6,222.5c69.5,0,138.8,0,208.6,0c0,3.5,0.1,7-0.1,10.4c0,0.5-1,1.3-1.7,1.5c-1.1,0.3-2.2,0.1-3.3,0.1
		c-66.5,0-133.1,0-199.6,0c-4.3,0-4.3,0-4.4-4.4c0-2.1,0-4.2,0-6.4C24.2,223.4,24.4,223.1,24.6,222.5z"/>
	<path class="st0" d="M144.8,188.4c0,7.7-0.1,15.4,0,23.1c0,2.2-0.6,2.9-2.8,2.9c-8.9-0.1-17.8-0.1-26.8,0c-2.1,0-2.7-0.8-2.7-2.7
		c0.1-15.4,0-30.8,0.1-46.2c0.1-8.5,7.3-15.3,15.8-15.5c8.6-0.1,16,6.6,16.2,15.3C144.9,173,144.7,180.7,144.8,188.4
		C144.7,188.4,144.7,188.4,144.8,188.4z"/>
	<path class="st0" d="M144.8,61.4c0.1,8.9-7.2,16.2-16.1,16.2c-8.7,0-16.1-7.3-16.1-15.9c0-8.9,7.3-16.3,16.1-16.2
		C137.4,45.4,144.7,52.7,144.8,61.4z M132.7,57.5c0-2.1-0.1-3.5,0-5c0.2-2.3-0.6-3.4-3-3.1c-0.9,0.1-1.8,0.1-2.7,0
		c-1.6-0.1-2.5,0.4-2.4,2.3c0.1,3.1,0,6.3,0.1,9.4c0.1,2.8,1.5,4.4,4.4,4.4c3.1,0,6.3,0,9.4,0.1c1.8,0.1,2.4-0.7,2.3-2.4
		c-0.1-1.1-0.1-2.2,0-3.3c0.1-1.7-0.7-2.4-2.4-2.3C136.6,57.6,134.9,57.5,132.7,57.5z"/>
</g>
</svg>
