<?xml version="1.0" encoding="utf-8"?>
<!-- Generator: Adobe Illustrator 27.2.0, SVG Export Plug-In . SVG Version: 6.00 Build 0)  -->
<svg version="1.1" id="Layer_1" xmlns="http://www.w3.org/2000/svg" x="0px"
	 y="0px"
	 viewBox="0 0 490 490" style="enable-background:new 0 0 490 490;" xml:space="preserve">
<style type="text/css">
	.st0{stroke:#000000;stroke-width:10;stroke-miterlimit:10;}
</style>
	<g>
	<g>
		<g>
			<path class="st0" d="M440.8,11H49.2C28.2,11,11,28.2,11,49.2v267.4c0,21.1,17.1,38.2,38.2,38.2h224.4v114.6
				c0,3.9,2.4,7.5,6.1,8.9c1.1,0.4,2.3,0.7,3.5,0.7c2.6,0,5.2-1.1,7-3.1L402,354.8h38.8c21.1,0,38.2-17.1,38.2-38.2V49.2
				C479,28.2,461.8,11,440.8,11z M459.9,316.6c0,10.5-8.6,19.1-19.1,19.1h-43c-2.7,0-5.2,1.1-7,3.1l-98,106.2v-99.7
				c0-5.3-4.3-9.5-9.5-9.5h-234c-10.5,0-19.1-8.6-19.1-19.1V49.2c0-10.5,8.6-19.1,19.1-19.1h391.5c10.5,0,19.1,8.6,19.1,19.1V316.6z
				"/>
			<path class="st0" d="M149.4,87.4c-3.8,0-7.2,2.3-8.7,5.8L69.1,260.3l17.6,7.5l26.2-61.1h76.4l28,61.3l17.4-7.9L158.2,93
				C156.6,89.6,153.2,87.4,149.4,87.4z M121,187.7l28.8-67.1l30.7,67.1H121z"/>
			<rect x="254.6" y="120.9" class="st0" width="76.4" height="19.1"/>
			<rect x="345.3" y="120.9" class="st0" width="57.3" height="19.1"/>
			<rect x="254.6" y="168.6" class="st0" width="171.9" height="19.1"/>
			<rect x="254.6" y="216.4" class="st0" width="71.6" height="19.1"/>
		</g>
	</g>
</g>
</svg>
