<?xml version="1.0" encoding="utf-8"?>
<!-- Generator: Adobe Illustrator 27.2.0, SVG Export Plug-In . SVG Version: 6.00 Build 0)  -->
<svg version="1.1" id="Слой_1" xmlns="http://www.w3.org/2000/svg" xmlns:xlink="http://www.w3.org/1999/xlink" x="0px"
	 y="0px"
	 viewBox="0 0 800 800" style="enable-background:new 0 0 800 800;" xml:space="preserve">
<style type="text/css">
	.st0{fill:#FFFFFF;}
</style>
	<g id="SVGRepo_bgCarrier">
</g>
	<g id="SVGRepo_tracerCarrier">
</g>
	<g id="SVGRepo_iconCarrier">
	<path class="st0" d="M22.4,22.4c29.8-29.8,78.2-29.8,108,0l270.1,270.1L670.6,22.4c30.3-29.3,78.7-28.5,108,1.9
		c28.6,29.6,28.6,76.5,0,106.1L508.5,400.5l270.1,270.1c29.3,30.3,28.5,78.7-1.9,108c-29.6,28.6-76.5,28.6-106.1,0L400.5,508.5
		L130.4,778.6c-30.3,29.3-78.7,28.5-108-1.9c-28.6-29.6-28.6-76.5,0-106.1l270.1-270.1L22.4,130.4C-7.5,100.5-7.5,52.2,22.4,22.4
		L22.4,22.4z"/>
</g>
</svg>
