<?xml version="1.0" encoding="utf-8"?>
<!-- Generator: Adobe Illustrator 27.2.0, SVG Export Plug-In . SVG Version: 6.00 Build 0)  -->
<svg version="1.1" id="Layer_1" xmlns="http://www.w3.org/2000/svg" xmlns:xlink="http://www.w3.org/1999/xlink" x="0px"
	 y="0px"
	 viewBox="0 0 800 800" style="enable-background:new 0 0 800 800;" xml:space="preserve">
<style type="text/css">
	.st0{stroke:#000000;stroke-width:5;stroke-miterlimit:10;}
</style>
	<g id="SVGRepo_bgCarrier">
</g>
	<g id="SVGRepo_tracerCarrier">
</g>
	<g id="SVGRepo_iconCarrier">
	<g>
		<path class="st0" d="M738.5,366.7L679,235.9c-5.5-12.2-20-17.6-32.2-12c-12.2,5.5-17.6,20-12,32.2l40.9,89.7H518
			c-13.4,0-24.3,10.8-24.3,24.3c0,13.4,10.8,24.3,24.3,24.3h166.1l-49.1,108.1c-5.5,12.2-0.2,26.5,12,32.2c3.3,1.5,6.7,2.2,10.1,2.2
			c9.2,0,18-5.3,22.1-14.2l59.7-131.8c1.3-2.3,2.1-5,2.5-7.5C742.4,377.6,741.4,371.7,738.5,366.7z"/>
		<path class="st0" d="M604,551.8c-13.4,0-24.3,10.8-24.3,24.3v97.1H446.3V160c0-20.9-9.9-39.4-29.6-46.1L276,66.8h303.8V188
			c0,13.4,10.8,24.3,24.3,24.3s24.3-10.8,24.3-24.3V42.4c0-13.4,0-24.2-13.4-24.2H131.4l-3.9-1.3c-5-1.7-8.4-2.4-13.6-2.4
			c-10.1,0-23.6,3.1-31.9,9.1C69.3,32.8,58.2,47.4,58.2,63v577c0,20.9,16.9,39.4,36.7,46.1l292.9,97c5,1.7,11,2.4,16.2,2.4
			c10.1,0,16.9-3.1,25.3-9.1c12.6-9.1,17.1-23.8,17.1-39.4v-15.3H615c13.4,0,13.4-10.9,13.4-24.3V576.1
			C628.3,562.7,617.4,551.8,604,551.8z M397.8,737l-291.1-97V66.8v-1l2.7-1.9l288.4,96.1V737z"/>
		<path class="st0" d="M349.3,551.8c6.7,0,12.1-5.4,12.1-12.1v-72.8c0-6.7-5.4-12.1-12.1-12.1s-12.1,5.4-12.1,12.1v72.8
			C337.2,546.4,342.6,551.8,349.3,551.8z"/>
	</g>
</g>
</svg>
