<?xml version="1.0" encoding="utf-8"?>
<!-- Generator: Adobe Illustrator 27.2.0, SVG Export Plug-In . SVG Version: 6.00 Build 0)  -->
<svg version="1.1" id="Слой_1" xmlns="http://www.w3.org/2000/svg" xmlns:xlink="http://www.w3.org/1999/xlink" x="0px" y="0px"
	 viewBox="0 0 800 800" style="enable-background:new 0 0 800 800;" xml:space="preserve">
<style type="text/css">
	.st0{fill-rule:evenodd;clip-rule:evenodd;stroke:#000000;stroke-width:10;stroke-miterlimit:10;}
</style>
<g id="SVGRepo_bgCarrier">
</g>
<g id="SVGRepo_tracerCarrier">
</g>
<g id="SVGRepo_iconCarrier">
	<path class="st0" d="M82.2,182.5c0-56,44.7-99.4,100.2-127.1C239.4,26.9,316.4,10,400,10c83.6,0,160.6,16.9,217.7,45.4
		c55.5,27.7,100.2,71.1,100.2,127.1v435.9c0,56-44.7,99.4-100.2,127.1C560.6,774.1,483.6,791,400,791c-83.6,0-160.6-16.9-217.7-45.4
		c-55.5-27.7-100.2-71.1-100.2-127.1V182.5z M136.6,182.5c0-24.2,20.4-53.5,70.1-78.4c48.1-24,116.4-39.7,193.3-39.7
		c76.9,0,145.2,15.7,193.3,39.7c49.7,24.8,70.1,54.1,70.1,78.4s-20.4,53.5-70.1,78.4c-48.1,24-116.4,39.7-193.3,39.7
		c-76.9,0-145.2-15.7-193.3-39.7C157,236.1,136.6,206.8,136.6,182.5z M136.6,618.5c0,24.2,20.4,53.5,70.1,78.4
		c48.1,24,116.4,39.7,193.3,39.7c76.9,0,145.2-15.6,193.3-39.7c49.7-24.8,70.1-54.1,70.1-78.4V498.8c-13.7,10.9-29.2,20.5-45.7,28.8
		C560.6,556.2,483.6,573,400,573c-83.6,0-160.6-16.9-217.7-45.4c-16.5-8.2-32-17.9-45.7-28.8V618.5z M663.4,280.9v119.6
		c0,24.2-20.4,53.5-70.1,78.4c-48.1,24-116.4,39.7-193.3,39.7c-76.9,0-145.2-15.6-193.3-39.7c-49.7-24.8-70.1-54.1-70.1-78.4V280.9
		c13.7,10.9,29.2,20.5,45.7,28.8c57.1,28.6,134.1,45.4,217.7,45.4c83.6,0,160.6-16.9,217.7-45.4
		C634.2,301.4,649.7,291.8,663.4,280.9z"/>
</g>
</svg>
