<?xml version="1.0" encoding="utf-8"?>
<!-- Generator: Adobe Illustrator 27.2.0, SVG Export Plug-In . SVG Version: 6.00 Build 0)  -->
<svg version="1.1" id="Слой_1" xmlns="http://www.w3.org/2000/svg" x="0px"
	 y="0px"
	 viewBox="0 0 800 800" style="enable-background:new 0 0 800 800;" xml:space="preserve">
<g id="SVGRepo_bgCarrier">
</g>
	<g id="SVGRepo_tracerCarrier">
</g>
	<g id="SVGRepo_iconCarrier">
	<path d="M131.2,712.8c-13,0-26.1-0.2-39.1-0.8l-6.1-1.4c-32.1-7.5-56.9-33.2-63.1-65.6l-1-5.1c-0.3-5.9-0.6-22.5-0.6-36.9V113.5
		c0.1-14.5,11.8-26.3,26.4-26.3h588.7c14.5,0,26.3,11.8,26.3,26.3v84.7h88.1c15.4,0.1,27.8,12.5,27.9,27.9v398.2
		c0,48.9-39.7,88.6-88.6,88.6c0,0,0,0,0,0L131.2,712.8z M131.2,651.4h474.6c-2.8-8.8-4.3-18-4.3-27.2V503.9c-0.1-2-0.2-4-0.2-6
		V148.5H82.7V603c0,12.1,0.2,23.8,0.3,30.1l0.1,0.4c1.7,8.5,8.2,15.3,16.6,17.3l0.6,0.1C107.7,651.2,120.1,651.4,131.2,651.4
		L131.2,651.4z M533.4,245.3H148.1v61.4h385.3V245.3z M312,377.2H148.1v195.5H312V377.2z M533.5,378.7H374.1v61.4h159.3L533.5,378.7
		z M533.5,512.1H374.1v61.3h159.3L533.5,512.1z M662.9,259.5v364.8c0,15,12.2,27.2,27.2,27.2s27.2-12.2,27.2-27.2V259.4L662.9,259.5
		z"/>
</g>
</svg>
