<?xml version="1.0" encoding="utf-8"?>
<!-- Generator: Adobe Illustrator 27.2.0, SVG Export Plug-In . SVG Version: 6.00 Build 0)  -->
<svg version="1.1" id="Слой_1" xmlns="http://www.w3.org/2000/svg" x="0px"
	 y="0px"
	 viewBox="0 0 256 256" style="enable-background:new 0 0 256 256;" xml:space="preserve">
<g>
	<path d="M126.5,210C74.6,207.6,34.9,183.2,8,137.5c-4.2-7.1-3.6-13.6,0.5-20.4C35.8,71.9,75.1,45.7,128.7,46
		c53.2,0.3,92.1,26.6,119.1,71.6c4.2,6.9,4.1,13.5,0,20.4C220.6,183.4,181.3,208.3,126.5,210z M127.7,188.3
		c34.1,0,60.6-26.4,60.8-60.5c0.2-33.5-27.2-61-60.7-61c-33.3,0-60.6,27.8-60.4,61.3C67.6,161.5,94.4,188.3,127.7,188.3z"/>
	<path d="M88.9,117.2c8.8,4.4,17.1,5.1,24.6-1.5c8.9-7.7,7.4-17.3,4.2-27c18.5-5.4,36.8,2.1,46.4,18.5s6.2,37.2-8.1,50.8
		c-13.7,13-33.8,14.9-49.7,4.8C90.2,152.5,82.9,134.4,88.9,117.2z"/>
</g>
</svg>
