<?xml version="1.0" encoding="utf-8"?>
<!-- Generator: Adobe Illustrator 27.2.0, SVG Export Plug-In . SVG Version: 6.00 Build 0)  -->
<svg version="1.1" id="Слой_1" xmlns="http://www.w3.org/2000/svg" xmlns:xlink="http://www.w3.org/1999/xlink" x="0px"
	 y="0px"
	 viewBox="0 0 256 164.4" style="enable-background:new 0 0 256 164.4;" xml:space="preserve">
<style type="text/css">
	.st0{fill:#FFFFFF;}
</style>
	<g>
	<path class="st0" d="M190.4,104c-2.1,6.8-4.9,12.9-8.5,18.7c-8.3,13-19.3,22.9-33.4,29.3c-0.6,0.3-1.3,0.5-2,0.7
		c-4,1-6.9-0.6-8.1-4.6c-1.8-6.2-4.3-12.1-7.6-17.6c-1-1.6-2.1-3.2-3.2-4.7c-0.6-0.8-0.7-1.4,0.1-2.1c8.6-9.2,15.4-19.6,19.8-31.5
		c0-0.1,0.2-0.2,0.4-0.5C161.8,95.8,176,99.9,190.4,104z"/>
		<path class="st0" d="M4.2,43.8c3.1,0.3,6.1,0.6,9.2,0.9c10.6,1.1,21.3,2.1,31.9,3.3c1.5,0.2,1.8-0.6,2.3-1.6
		c6.9-13.4,16.8-24,29.7-31.8c0.5-0.3,1-0.5,1.5-0.8c7,7,14.4,13.3,23.2,18c-2.7,3.1-5.4,6-7.8,9c-2.6,3.3-5,6.7-7.4,10.2
		c-0.6,0.9-1.2,1.2-2.3,1.1c-11.8-1.2-23.6-2.3-35.3-3.6c-1.9-0.2-2.9,0.3-3.5,2.1c-1.1,3.2-2.4,6.4-3.7,9.8
		c-12.7-5.4-25.3-10.8-38-16.1C4.1,44,4.2,43.9,4.2,43.8z"/>
		<path class="st0" d="M42.3,60.5c1.6,1,3.2,1.9,4.8,2.8c5.1,3,10.1,6.1,15.2,9.1c0.8,0.5,2.1,0.6,2.9,0.3c3.7-1.1,7.4-2.4,11-3.6
		c0.6-0.2,1.3-0.4,2.4-0.7c-2.3,3.9-4.3,7.3-6.4,10.7c0.1,0.2,0.1,0.3,0.2,0.4c3.1,1.7,2.9,1.7,2.6,5.2c-0.4,6.2-0.7,12.4-0.8,18.7
		c0,1.3-0.4,1.8-1.6,2.2c-4.8,1.5-9.6,3.1-14.4,4.9c-4.2,1.6-8.3,2-12.2-0.7c-1.2-0.8-2.4-2.1-2.8-3.5c-5.1-14.9-5.4-30-1.3-45.2
		C42,60.9,42.1,60.8,42.3,60.5z"/>
		<path class="st0" d="M136.4,153.9c-15.5,3.8-31.1,4.9-46.2-1.7c-16.9-7.4-30.6-18.5-38.7-35.5c0.1-0.2,0.2-0.4,0.4-0.6
		c28.2,12.4,56.5,24.8,84.7,37.3C136.4,153.5,136.4,153.7,136.4,153.9z"/>
		<path class="st0" d="M251.9,26.9c-1.8,7.3-3.5,14.4-5.3,21.6c-2.8-0.4-5.5-0.7-8.4-1.1c-1.1,6-2.2,11.7-3.4,17.8
		c-13.8-1.6-27.5-3.2-41.5-4.9c0.8-1.4,1.4-2.5,2.1-3.6c2.5-4.4,5.1-8.7,7.5-13.1c2.7-4.9,5.3-9.9,8.1-14.8c0.3-0.6,1.2-1.2,1.8-1.2
		c12.7-0.4,25.3-0.7,38-1C251.1,26.8,251.4,26.8,251.9,26.9z M248.8,29.4c-0.4-0.1-0.6-0.2-0.9-0.1c-11.3,0.3-22.5,0.5-33.8,0.8
		c-0.4,0-1,0.2-1.2,0.4c-2,3.3-3.9,6.6-5.9,10c12.7,1.8,25.2,3.5,37.7,5.2C246.1,40.2,247.4,34.9,248.8,29.4z"/>
		<path class="st0" d="M138,6.7c2.3,0.6,4.3,1,6.1,1.6c10.4,3.8,19.1,10.2,26.6,18.1c4.2,4.4,7.7,9.5,11.4,14.2
		c0.4,0.5,0.6,1.1,1.1,1.9c-3.3,0.3-6.3,0.7-9.3,0.7c-7.3,0-14.6-0.2-21.9-0.3c-1,0-1.6-0.3-1.8-1.4c-1.3-10.6-5.5-20.2-9.9-29.7
		C139.6,10.4,138.9,8.8,138,6.7z"/>
		<path class="st0"
			  d="M80.8,12.7c16.9-8.6,34.6-10.8,53.1-6.6C122.4,12.4,113,21,103.9,30C100,28.5,84.3,16.7,80.8,12.7z"/>
		<path class="st0" d="M105.1,108.2c1.4-5.9,1.4-5.8,6.6-7.8c10.5-4.2,21.3-7.4,32.4-9.8c0.7-0.1,1.3-0.2,2.3-0.3
		c-4.7,12.6-11.8,23.4-20.8,33.2C119.9,116.6,112.9,111.8,105.1,108.2z"/>
		<path class="st0" d="M191.3,63.1c0.6,0,1.1-0.2,1.7-0.1c9.7,1.1,19.5,2.2,29.2,3.4c0.7,0.1,1.5,0.2,2.3,0.4c-1.5,3.1-3,5.9-4.2,8.9
		c-1.7,4.2-3.2,8.6-4.8,12.9c-0.2,0.5-0.9,1.2-1.3,1.2c-6.7-0.4-13.5-0.9-20.2-1.5c-0.3,0-0.6-0.2-0.9-0.3l0,0
		c1-6.2,0.4-12.3-0.5-18.4C192.4,67.4,191.8,65.2,191.3,63.1C191.3,63.1,191.3,63.1,191.3,63.1z"/>
		<path class="st0" d="M191.3,63.1c-0.4-0.2-0.7-0.4-1.1-0.5c-12-1.2-23.9-2.4-35.9-3.5c-0.7-0.1-1.4-0.2-2-0.3
		c-0.4-4.5-0.8-8.8-1.2-13.2c1.3,0,2.7,0,4.1,0c9.4,0.2,18.7,0.3,28-1.3c0.4-0.1,1.3,0.3,1.5,0.7c2.9,5.3,5.4,10.8,6.6,16.8
		C191.3,62.2,191.3,62.7,191.3,63.1C191.3,63.1,191.3,63.1,191.3,63.1z"/>
		<path class="st0" d="M123.8,41.1c-0.9,2.7-2,5.9-3.2,9c-0.6,1.7-0.9,4.1-2.1,4.9c-1.1,0.8-3.4,0-5.2-0.2
		c-8.2-0.8-16.4-1.6-25.1-2.4c1.7-2.7,3-5.2,4.8-7.4c3.1-4,6.5-7.8,9.9-11.6c0.3-0.4,1.1-0.7,1.5-0.6
		C110.8,35.6,117.2,38.3,123.8,41.1z"/>
		<path class="st0" d="M102.9,107.2c-8.3-2.7-19.8-3.5-27-2.4c-0.4-7.6,0.1-15.2,1.1-23c0.9,0.3,1.5,0.5,2.2,0.8
		c9.5,4.3,17.7,10.5,25,17.9c0.4,0.4,0.7,1.1,0.5,1.6C104.2,103.8,103.5,105.4,102.9,107.2z"/>
		<path class="st0" d="M136.8,8.9c5.7,10.6,8.9,22,11.8,33.9c-7.7-0.4-15.1-1.3-22.5-3.9c3.4-10.1,6.8-20,10.2-30
		C136.5,8.9,136.7,8.9,136.8,8.9z"/>
		<path class="st0" d="M150.8,58.6c-10.2-1-19.9-2-29.8-3c1.5-4.9,3-9.7,4.5-14.4c3.8,0.8,7.5,1.6,11.2,2.3c3.5,0.6,7,1,10.6,1.4
		c1.5,0.1,2.1,0.7,2.2,2.2C149.8,50.9,150.3,54.6,150.8,58.6z"/>
		<path class="st0"
			  d="M134.4,8.6c-3.2,10.2-6.3,19.9-9.5,29.8c-6.8-2.1-13.3-4.1-19.6-7.5C114.2,22.4,123,14.4,134.4,8.6z"/>
		<path class="st0" d="M193.1,87.9c-0.2,2.6-0.4,5.2-0.7,7.7c-0.3,2.2-0.9,4.3-1.5,6.8c-13.6-4.2-27.1-8.3-40.6-12.4
		c0-0.3,0-0.5,0.1-0.8c3.2-0.4,6.5-1,9.7-1.1c10.4-0.1,20.7,0,31.1,0C191.8,88.2,192.5,88,193.1,87.9
		C193.2,88,193.1,87.9,193.1,87.9z"/>
		<path class="st0" d="M123.1,67.6c-4.9-0.7-10-1.4-15-2.2c-1.4-0.2-3-0.2-4.3-0.7c-1.4-0.5-3.1-1.2-3.9-2.3c-0.6-0.9-0.5-2.7,0-3.9
		c0.3-0.6,1.9-1,2.9-1c4.6,0.4,9.2,1,13.8,1.6c2.5,0.3,5,0.6,7.6,0.9c0.6,0.1,1.1,0.2,1.7,0.4c1.7,0.7,2.5,2.2,2.4,4
		c-0.1,1.8-1.4,2.5-2.9,2.7C124.6,67.4,123.9,67.5,123.1,67.6z"/>
</g>
</svg>
