<svg viewBox="0 0 334 193" fill="none" xmlns="http://www.w3.org/2000/svg">
<path fill-rule="evenodd" clip-rule="evenodd" d="M169.054 51.4287C179.953 51.3703 193.956 49.359 207.038 45.9188C208.13 45.6316 209.214 45.335 210.287 45.0293C208.128 38.6698 205.585 32.8212 202.725 27.5957C193.495 10.7308 181.486 1.15262 169.054 0.430176V51.4287ZM165.054 0.504041C152.967 1.65331 141.339 11.1673 132.348 27.5957C129.383 33.0131 126.759 39.1002 124.55 45.732C125.52 45.9989 126.499 46.2587 127.485 46.511C140.395 49.8148 154.203 51.7677 165.054 51.8809V0.504041ZM165.054 55.8811C153.812 55.7683 139.663 53.7564 126.493 50.3861C125.438 50.116 124.387 49.8367 123.343 49.5485C120.931 57.5909 119.114 66.3551 118.017 75.6367L165.054 77.6334V55.8811ZM217.502 79.8597L169.054 77.8032V55.4288C180.36 55.3706 194.711 53.2965 208.056 49.7873C209.215 49.4823 210.369 49.166 211.515 48.8385C214.403 58.2776 216.466 68.7298 217.502 79.8597ZM262.456 81.768L221.535 80.0309C220.493 68.4616 218.365 57.5613 215.348 47.6915C225.86 44.3978 235.374 40.1587 241.548 35.2098C252.359 48.2693 259.778 64.2386 262.456 81.768ZM222.147 102.934H263.342C261.958 123.48 254.11 142.254 241.814 157.24C235.636 152.355 226.025 148.173 215.393 144.931C219.223 132.351 221.611 118.103 222.147 102.934ZM169.054 124.993L218.142 103.002C217.602 117.805 215.261 131.647 211.552 143.812C210.403 143.493 209.245 143.184 208.082 142.886C194.729 139.469 180.37 137.448 169.054 137.387V124.993ZM118.654 121.929L147.739 134.542L165.054 126.785V137.391C153.812 137.504 139.663 139.516 126.493 142.886C125.485 143.144 124.48 143.411 123.482 143.685C121.424 136.911 119.79 129.617 118.654 121.929ZM71.6992 101.567L114.353 120.064C115.516 128.814 117.308 137.113 119.638 144.793C109.016 147.996 99.3731 152.136 93.0962 156.979C80.6521 141.704 72.814 122.528 71.6992 101.567ZM114.009 75.4666L74.239 73.7784C77.6206 59.7696 84.0745 46.9591 92.8476 36.1C99.0899 41.0047 108.791 45.1971 119.5 48.4376C116.996 56.7945 115.127 65.8762 114.009 75.4666ZM165.054 141.391C154.203 141.504 140.395 143.457 127.485 146.761C126.551 147 125.623 147.246 124.703 147.498C126.88 153.952 129.452 159.884 132.348 165.176C141.339 181.605 152.967 191.119 165.054 192.268V141.391ZM202.725 165.176C193.495 182.041 181.486 191.62 169.054 192.342V141.388C179.975 141.449 193.994 143.41 207.09 146.761C208.179 147.04 209.258 147.327 210.328 147.623C208.16 154.029 205.603 159.918 202.725 165.176ZM120.703 44.6224C127.187 25.0771 137.232 9.91514 149.194 2.14136C127.934 6.2607 109.176 17.3952 95.427 33.0393C101.135 37.4843 110.272 41.4688 120.703 44.6224ZM238.932 32.1798C233.289 36.6617 224.342 40.6834 214.122 43.8835C207.628 24.6834 197.678 9.79891 185.858 2.12744C206.756 6.16003 225.24 16.9701 238.932 32.1798ZM214.172 148.741C207.679 168.012 197.708 182.954 185.858 190.645C206.898 186.585 225.491 175.655 239.211 160.281C233.562 155.86 224.516 151.891 214.172 148.741ZM95.6896 160.03C101.441 155.645 110.519 151.717 120.855 148.604C127.343 167.93 137.325 182.917 149.194 190.631C128.069 186.538 109.415 175.518 95.6896 160.03Z" fill="white"/>
<path d="M0.847656 70.5952L74.2464 73.781C74.2464 73.781 72.8713 78.031 72.1152 85.7044C71.359 93.3778 71.4339 98.9538 71.6923 101.577L0.847656 70.5952Z" fill="white"/>
<path d="M112.793 108.367L114.793 123.367L105.792 116.367L112.793 108.367Z" fill="white"/>
<path d="M117.217 82.0869L147.191 83.3351L144.943 89.2467L114.969 87.9985L117.217 82.0869Z" fill="white"/>
<path fill-rule="evenodd" clip-rule="evenodd" d="M308.884 57.0161L302.102 79.4214L264.402 77.861L275.484 55.6334L308.884 57.0161ZM310.081 53.0626L310.082 53.0586L328.061 53.804L333.365 39.1836H312.587H283.685L277.439 51.7113L310.081 53.0626ZM262.463 81.7838L300.905 83.3749L294.931 103.11L263.476 102.941C263.556 102.084 263.584 101.726 263.655 100.791C263.693 100.304 263.742 99.6603 263.817 98.7081C263.817 91.5144 263.641 89.5816 262.463 81.7838Z" fill="white"/>
</svg>