<?xml version="1.0" encoding="utf-8"?>
<!-- Generator: Adobe Illustrator 27.2.0, SVG Export Plug-In . SVG Version: 6.00 Build 0)  -->
<svg version="1.1" id="_x32_" xmlns="http://www.w3.org/2000/svg" xmlns:xlink="http://www.w3.org/1999/xlink" x="0px"
	 y="0px"
	 viewBox="0 0 800 800" style="enable-background:new 0 0 800 800;" xml:space="preserve">
<g id="SVGRepo_bgCarrier">
</g>
	<g id="SVGRepo_tracerCarrier">
</g>
	<g id="SVGRepo_iconCarrier">
	<g>
		<path d="M248.6,265.2c8.8,91.2,67.8,151.4,151.4,151.4c83.6,0,142.5-60.2,151.4-151.4l12.5-98.5C571.6,70,492.6,0,400,0
			c-92.6,0-171.6,70-163.8,166.7L248.6,265.2z"/>
		<path d="M723.8,660.3l-6-38c-5-31.9-25.1-59.4-53.9-74l-125.7-63.6c-3.9-2-7.1-5-9.8-8.3c-36.4,38.5-80.6,61.1-128.4,61.1
			c-47.7,0-92-22.6-128.4-61.1c-2.7,3.4-5.9,6.4-9.8,8.3l-125.7,63.6c-28.8,14.6-48.9,42.1-53.9,74l-6,38
			c-2.1,13.6,0.7,33.5,12.8,43.5C105.3,717,165.4,800,400,800c234.6,0,294.7-83,310.9-96.3C723.1,693.8,725.9,673.8,723.8,660.3z"/>
	</g>
</g>
</svg>
