<?xml version="1.0" encoding="utf-8"?>
<!-- Generator: Adobe Illustrator 27.2.0, SVG Export Plug-In . SVG Version: 6.00 Build 0)  -->
<svg version="1.1" id="Слой_1" xmlns="http://www.w3.org/2000/svg" xmlns:xlink="http://www.w3.org/1999/xlink" x="0px" y="0px"
	 viewBox="0 0 800 800" style="enable-background:new 0 0 800 800;" xml:space="preserve">
<style type="text/css">
	.st0{opacity:0.1;fill:none;stroke:#FFFFFF;stroke-width:60;stroke-miterlimit:133.3333;enable-background:new	;}
	.st1{fill:none;stroke:#FFFFFF;stroke-width:60;stroke-linejoin:round;stroke-miterlimit:133.3333;}
</style>
<g id="SVGRepo_bgCarrier">
</g>
<g id="SVGRepo_tracerCarrier">
</g>
<g id="SVGRepo_iconCarrier">
	<path class="st0" d="M100,216.7C100,483.6,316.4,700,583.3,700c22.2,0,44.1-1.5,65.5-4.4c30.4-4.1,51.2-31.3,51.2-61.9V548
		c0-28.7-18.4-54.2-45.6-63.2l-104.9-35c-26.7-8.9-55.3,6.8-62.1,34.1c-9.1,36.4-54.5,49-81,22.4L293.6,393.6
		c-26.5-26.5-14-71.9,22.4-81c27.3-6.8,43-35.4,34.1-62.1l-35-104.9c-9.1-27.2-34.6-45.6-63.2-45.6h-85.6
		c-30.6,0-57.8,20.8-61.9,51.2C101.5,172.6,100,194.5,100,216.7z"/>
	<path class="st1" d="M100,216.7C100,483.6,316.4,700,583.3,700c22.2,0,44.1-1.5,65.5-4.4c30.4-4.1,51.2-31.3,51.2-61.9V548
		c0-28.7-18.4-54.2-45.6-63.2l-104.9-35c-26.7-8.9-55.3,6.8-62.1,34.1c-9.1,36.4-54.5,49-81,22.4L293.6,393.6
		c-26.5-26.5-14-71.9,22.4-81c27.3-6.8,43-35.4,34.1-62.1l-35-104.9c-9.1-27.2-34.6-45.6-63.2-45.6h-85.6
		c-30.6,0-57.8,20.8-61.9,51.2C101.5,172.6,100,194.5,100,216.7z"/>
</g>
</svg>
