<?xml version="1.0" encoding="utf-8"?>
<!-- Generator: Adobe Illustrator 27.2.0, SVG Export Plug-In . SVG Version: 6.00 Build 0)  -->
<svg version="1.1" id="Слой_1" xmlns="http://www.w3.org/2000/svg" x="0px"
	 y="0px"
	 viewBox="0 0 250 250" style="enable-background:new 0 0 250 250;" xml:space="preserve">
<g>
	<path d="M137.7,143.7c-0.7,0-1.1-0.1-1.5-0.1c-7.6,0-15.1,0.1-22.7,0c-3,0-5.3,0.9-7.3,3.4c-4.7,5.8-9.7,11.5-14.5,17.2
		c-1.1,1.3-2.3,2.5-3.5,3.7c-3.8,4-9.1,2.8-12.1,0.9c-1.8-1.1-2.7-2.8-2.2-4.8c1.1-5,2.4-9.9,3.7-14.9c1.8-7.1,3.6-14.3,5.6-21.4
		c0.7-2.5,0.2-4.9-0.4-7.2c-2.8-10.6-5.7-21.2-8.4-31.8c-1.5-6.1,0.7-8.8,6.9-9.3c3.2-0.3,5.8,0.8,7.9,3.3
		c5.2,6.1,10.4,12.1,15.5,18.1c4.6,5.4,4.6,5.4,11.6,5.4c6.5,0,13,0,19.5,0c0.7,0,1.4,0,2.3,0c-1.4-4.4-2.8-8.6-4.1-12.8
		c-4.4-13.6-8.8-27.1-13.1-40.7c-0.5-1.7-0.8-3.6-0.8-5.4c-0.1-2.1,1-3.7,3.1-4c3.8-0.5,7.6-0.8,11.4-0.8c2.6-0.1,4.4,1.8,5.9,3.7
		c4.7,5.8,9.4,11.5,14.1,17.3c10.4,12.8,20.9,25.6,31.1,38.6c2.5,3.2,5.2,4.4,9.3,4.5c9.7,0.2,19.4,0.8,29.1,1.6
		c8.2,0.7,14.8,4.6,20.1,10.8c3.2,3.7,3.1,8.3-0.1,12.1c-6,7.1-13.8,10.6-23,11.1c-9.6,0.5-19.3,1-28.9,1.4
		c-2.1,0.1-3.5,0.8-4.8,2.4c-14.9,18.4-29.9,36.7-44.6,55.2c-4.2,5.3-9,7.3-15.6,6.2c-6.9-1.1-8.6-3.3-6.4-9.9
		c5.5-17.2,11.1-34.3,16.6-51.5C137.3,145.2,137.5,144.6,137.7,143.7z"/>
	<path d="M31.5,133.1c-6.9,0-13.7,0.1-20.6,0c-3.4,0-6.3-2.6-6.9-5.9c-0.6-3.3,1.2-6.8,4.3-8c1.1-0.4,2.3-0.7,3.5-0.7
		c13.3,0,26.6,0,39.9,0c4.5,0,7.7,3.1,7.8,7.3c0,4.2-3.1,7.3-7.7,7.4C45,133.2,38.2,133.1,31.5,133.1
		C31.5,133.1,31.5,133.1,31.5,133.1z"/>
	<path d="M42.8,89.9c3,0,5.9,0,8.9,0c4.4,0.1,7.6,3.1,7.6,7.2c0.1,4.2-3.1,7.4-7.6,7.5c-6.1,0.1-12.1,0.1-18.2,0
		c-4.4-0.1-7.6-3.3-7.5-7.5c0.1-4.1,3.2-7.1,7.7-7.2c0.1,0,0.3,0,0.4,0C37,89.8,39.9,89.8,42.8,89.9z"/>
	<path d="M42.7,147.1c3,0,5.9,0,8.9,0c4.6,0.1,7.7,3.1,7.7,7.3c0,4.2-3.2,7.3-7.7,7.4c-6,0.1-12,0.1-18,0c-4.5-0.1-7.7-3.2-7.6-7.4
		c0-4.1,3.1-7.1,7.6-7.2C36.7,147,39.7,147.1,42.7,147.1z"/>
</g>
</svg>
