<?xml version="1.0" encoding="utf-8"?>
<!-- Generator: Adobe Illustrator 27.2.0, SVG Export Plug-In . SVG Version: 6.00 Build 0)  -->
<svg version="1.1" id="Слой_1" xmlns="http://www.w3.org/2000/svg" xmlns:xlink="http://www.w3.org/1999/xlink" x="0px"
	 y="0px"
	 viewBox="0 0 256 256" style="enable-background:new 0 0 256 256;" xml:space="preserve">
<g>
	<path d="M182.8,198.9C135.1,237,68.5,226.2,33.7,182.8C-0.4,140.1,2.9,79,41.8,40.8C82.3,1,144.8,0.7,185.6,36.2
		c42.1,36.5,49.5,100.7,13.4,146.2c0.5,0.5,0.9,1,1.4,1.5c13.7,13.7,27.4,27.4,41.1,41c4.7,4.7,5.5,11,1.9,15.9
		c-4.4,6.1-12.7,6.7-18.3,1.1c-4.8-4.7-9.6-9.5-14.3-14.3c-9-9-18.1-18.1-27.1-27.2C183.4,200,183.1,199.4,182.8,198.9z M33.8,116.3
		c0,45.4,37,82.4,82.5,82.4c45.4,0,82.5-37.1,82.4-82.5c-0.1-45.5-37.1-82.5-82.5-82.4C70.7,33.9,33.8,70.8,33.8,116.3z"/>
</g>
</svg>
