<?xml version="1.0" encoding="UTF-8"?>
<!DOCTYPE svg PUBLIC "-//W3C//DTD SVG 1.1//EN" "http://www.w3.org/Graphics/SVG/1.1/DTD/svg11.dtd">
<svg xmlns="http://www.w3.org/2000/svg" version="1.1" viewBox="0 0 97 97" stroke="none">
	<rect width="100%" height="100%" fill="#ffffff"/>
	<path d="M4,4h7v1h-7z M12,4h1v1h-1z M15,4h1v1h-1z M18,4h1v1h-1z M21,4h1v1h-1z M23,4h1v1h-1z M25,4h3v1h-3z M30,4h7v1h-7z M39,4h1v2h-1z M41,4h2v2h-2z M44,4h1v1h-1z M46,4h1v3h-1z M53,4h1v1h-1z M56,4h1v1h-1z M60,4h7v1h-7z M68,4h1v2h-1z M70,4h3v1h-3z M74,4h3v1h-3z M78,4h7v1h-7z M86,4h7v1h-7z M4,5h1v6h-1z M10,5h1v6h-1z M16,5h2v1h-2z M19,5h2v1h-2z M22,5h1v1h-1z M28,5h1v1h-1z M32,5h2v4h-2z M34,5h2v1h-2z M40,5h1v1h-1z M43,5h1v2h-1z M49,5h1v4h-1z M52,5h1v4h-1z M57,5h1v2h-1z M61,5h1v1h-1z M64,5h4v1h-4z M69,5h1v2h-1z M72,5h1v1h-1z M74,5h1v1h-1z M76,5h2v1h-2z M83,5h1v1h-1z M86,5h1v6h-1z M92,5h1v6h-1z M6,6h3v3h-3z M12,6h1v1h-1z M14,6h1v2h-1z M18,6h1v5h-1z M19,6h1v1h-1z M21,6h1v1h-1z M26,6h2v1h-2z M31,6h1v1h-1z M34,6h1v1h-1z M36,6h1v8h-1z M38,6h1v3h-1z M44,6h1v3h-1z M45,6h1v1h-1z M48,6h1v3h-1z M50,6h1v1h-1z M53,6h2v1h-2z M56,6h1v3h-1z M59,6h2v1h-2z M64,6h2v1h-2z M67,6h1v2h-1z M71,6h1v4h-1z M73,6h1v2h-1z M76,6h1v1h-1z M79,6h1v1h-1z M81,6h1v1h-1z M88,6h3v3h-3z M13,7h1v1h-1z M15,7h1v1h-1z M17,7h1v3h-1z M20,7h1v1h-1z M23,7h4v1h-4z M28,7h2v2h-2z M42,7h1v1h-1z M47,7h1v2h-1z M51,7h1v1h-1z M55,7h1v2h-1z M58,7h1v6h-1z M60,7h4v2h-4z M68,7h1v1h-1z M75,7h1v2h-1z M77,7h1v3h-1z M78,7h1v1h-1z M82,7h1v1h-1z M84,7h1v1h-1z M16,8h1v3h-1z M19,8h1v1h-1z M23,8h2v1h-2z M27,8h1v1h-1z M31,8h1v2h-1z M34,8h2v1h-2z M37,8h1v1h-1z M40,8h1v1h-1z M45,8h2v2h-2z M50,8h1v3h-1z M53,8h1v2h-1z M59,8h1v1h-1z M64,8h2v2h-2z M66,8h1v1h-1z M70,8h1v5h-1z M74,8h1v8h-1z M76,8h1v3h-1z M79,8h1v2h-1z M81,8h1v2h-1z M83,8h1v2h-1z M12,9h2v1h-2z M15,9h1v1h-1z M24,9h1v3h-1z M25,9h1v1h-1z M28,9h1v2h-1z M32,9h1v4h-1z M54,9h1v2h-1z M57,9h1v1h-1z M62,9h1v4h-1z M67,9h2v1h-2z M72,9h1v2h-1z M5,10h5v1h-5z M12,10h1v1h-1z M14,10h1v3h-1z M20,10h1v5h-1z M22,10h1v2h-1z M26,10h1v1h-1z M30,10h1v1h-1z M34,10h1v1h-1z M38,10h1v2h-1z M40,10h1v3h-1z M42,10h1v1h-1z M44,10h1v2h-1z M46,10h1v1h-1z M48,10h1v2h-1z M52,10h1v1h-1z M56,10h1v3h-1z M60,10h1v1h-1z M64,10h1v1h-1z M66,10h1v4h-1z M68,10h1v3h-1z M78,10h1v1h-1z M80,10h1v1h-1z M82,10h1v2h-1z M84,10h1v6h-1z M87,10h5v1h-5z M15,11h1v4h-1z M17,11h1v1h-1z M23,11h1v3h-1z M25,11h1v2h-1z M27,11h1v1h-1z M31,11h1v1h-1z M37,11h1v3h-1z M43,11h1v2h-1z M47,11h1v2h-1z M51,11h1v4h-1z M55,11h1v3h-1z M57,11h1v1h-1z M63,11h1v1h-1z M65,11h1v1h-1z M75,11h1v3h-1z M79,11h1v1h-1z M81,11h1v4h-1z M4,12h1v1h-1z M6,12h1v2h-1z M10,12h2v1h-2z M18,12h1v3h-1z M19,12h1v1h-1z M21,12h1v3h-1z M26,12h1v2h-1z M28,12h1v1h-1z M30,12h1v2h-1z M33,12h3v1h-3z M41,12h2v2h-2z M45,12h2v1h-2z M49,12h2v1h-2z M52,12h1v1h-1z M54,12h1v1h-1z M59,12h3v1h-3z M64,12h1v1h-1z M71,12h1v1h-1z M73,12h1v1h-1z M76,12h1v2h-1z M78,12h1v3h-1z M80,12h1v1h-1z M83,12h1v1h-1z M87,12h1v1h-1z M90,12h1v1h-1z M92,12h1v1h-1z M8,13h1v3h-1z M11,13h3v1h-3z M16,13h1v2h-1z M24,13h1v3h-1z M27,13h1v1h-1z M31,13h1v2h-1z M38,13h2v1h-2z M46,13h1v1h-1z M57,13h1v3h-1z M59,13h1v1h-1z M61,13h1v2h-1z M65,13h1v3h-1z M79,13h1v3h-1z M82,13h1v1h-1z M85,13h1v2h-1z M91,13h1v1h-1z M4,14h2v1h-2z M9,14h2v1h-2z M17,14h1v1h-1z M25,14h1v2h-1z M28,14h1v1h-1z M32,14h3v1h-3z M40,14h1v1h-1z M42,14h3v1h-3z M47,14h2v1h-2z M52,14h1v1h-1z M60,14h1v1h-1z M63,14h1v2h-1z M67,14h1v6h-1z M70,14h2v3h-2z M83,14h1v1h-1z M5,15h1v2h-1z M11,15h1v1h-1z M14,15h1v5h-1z M26,15h1v3h-1z M29,15h1v1h-1z M33,15h1v6h-1z M36,15h1v1h-1z M39,15h1v1h-1z M43,15h1v1h-1z M45,15h1v1h-1z M48,15h1v6h-1z M53,15h4v1h-4z M58,15h1v1h-1z M66,15h1v1h-1z M69,15h1v5h-1z M73,15h1v1h-1z M82,15h1v2h-1z M87,15h1v1h-1z M89,15h1v3h-1z M4,16h1v1h-1z M6,16h1v7h-1z M7,16h1v3h-1z M10,16h1v1h-1z M15,16h7v1h-7z M23,16h1v5h-1z M27,16h2v3h-2z M30,16h1v1h-1z M32,16h1v1h-1z M34,16h1v2h-1z M37,16h1v4h-1z M41,16h2v1h-2z M46,16h1v3h-1z M49,16h2v2h-2z M52,16h2v1h-2z M55,16h2v1h-2z M59,16h1v1h-1z M61,16h2v3h-2z M64,16h1v1h-1z M68,16h1v2h-1z M72,16h1v1h-1z M76,16h2v1h-2z M80,16h2v1h-2z M85,16h1v3h-1z M86,16h1v1h-1z M88,16h1v1h-1z M91,16h2v1h-2z M12,17h2v2h-2z M15,17h1v1h-1z M18,17h4v1h-4z M24,17h2v1h-2z M29,17h1v2h-1z M31,17h1v3h-1z M35,17h1v1h-1z M38,17h1v3h-1z M42,17h1v1h-1z M45,17h1v1h-1z M53,17h2v2h-2z M56,17h2v2h-2z M60,17h1v1h-1z M65,17h2v1h-2z M73,17h1v2h-1z M78,17h1v1h-1z M81,17h1v1h-1z M87,17h1v1h-1z M90,17h2v1h-2z M10,18h2v1h-2z M21,18h2v1h-2z M30,18h1v1h-1z M32,18h1v1h-1z M39,18h1v7h-1z M40,18h1v1h-1z M43,18h2v1h-2z M47,18h1v5h-1z M50,18h1v2h-1z M55,18h1v2h-1z M63,18h1v3h-1z M65,18h1v1h-1z M71,18h1v2h-1z M75,18h1v1h-1z M77,18h1v1h-1z M79,18h2v1h-2z M82,18h3v1h-3z M88,18h1v2h-1z M4,19h1v1h-1z M11,19h1v4h-1z M12,19h1v1h-1z M15,19h1v2h-1z M17,19h1v8h-1z M18,19h3v1h-3z M22,19h1v3h-1z M28,19h1v3h-1z M34,19h2v1h-2z M43,19h1v1h-1z M49,19h1v3h-1z M51,19h1v1h-1z M57,19h1v4h-1z M58,19h1v1h-1z M61,19h1v1h-1z M66,19h1v2h-1z M70,19h1v2h-1z M76,19h1v1h-1z M80,19h1v10h-1z M81,19h1v1h-1z M87,19h1v1h-1z M89,19h1v1h-1z M92,19h1v1h-1z M8,20h1v2h-1z M10,20h1v1h-1z M16,20h1v1h-1z M20,20h1v1h-1z M27,20h1v1h-1z M32,20h1v1h-1z M35,20h2v1h-2z M40,20h3v1h-3z M44,20h3v1h-3z M54,20h1v3h-1z M59,20h1v3h-1z M65,20h1v2h-1z M68,20h1v1h-1z M72,20h2v1h-2z M77,20h1v7h-1z M78,20h2v1h-2z M83,20h3v3h-3z M86,20h1v1h-1z M7,21h1v1h-1z M9,21h1v3h-1z M18,21h1v1h-1z M26,21h1v1h-1z M30,21h1v2h-1z M36,21h1v1h-1z M45,21h2v1h-2z M50,21h2v1h-2z M55,21h1v3h-1z M58,21h1v1h-1z M61,21h1v2h-1z M64,21h1v3h-1z M74,21h2v2h-2z M78,21h1v1h-1z M82,21h1v1h-1z M87,21h2v1h-2z M91,21h1v1h-1z M4,22h1v2h-1z M10,22h1v1h-1z M15,22h1v1h-1z M20,22h2v2h-2z M23,22h2v1h-2z M32,22h1v2h-1z M37,22h1v1h-1z M40,22h1v3h-1z M46,22h1v3h-1z M48,22h1v1h-1z M50,22h1v1h-1z M53,22h1v1h-1z M56,22h1v1h-1z M60,22h1v1h-1z M63,22h1v1h-1z M66,22h1v3h-1z M67,22h1v1h-1z M70,22h2v1h-2z M89,22h2v1h-2z M5,23h1v1h-1z M7,23h1v5h-1z M12,23h3v2h-3z M16,23h1v5h-1z M23,23h1v1h-1z M26,23h2v1h-2z M29,23h1v2h-1z M31,23h1v2h-1z M33,23h1v1h-1z M35,23h2v2h-2z M38,23h1v1h-1z M41,23h1v4h-1z M42,23h1v1h-1z M44,23h1v5h-1z M45,23h1v1h-1z M51,23h1v1h-1z M58,23h1v2h-1z M62,23h1v4h-1z M68,23h1v1h-1z M71,23h1v1h-1z M74,23h1v2h-1z M76,23h1v1h-1z M78,23h1v2h-1z M84,23h1v1h-1z M88,23h1v2h-1z M90,23h2v1h-2z M8,24h1v4h-1z M10,24h2v1h-2z M18,24h2v1h-2z M21,24h1v1h-1z M24,24h1v4h-1z M26,24h1v1h-1z M47,24h1v5h-1z M49,24h2v1h-2z M53,24h2v1h-2z M57,24h1v1h-1z M59,24h1v2h-1z M61,24h1v3h-1z M63,24h1v1h-1z M65,24h1v1h-1z M69,24h2v3h-2z M72,24h2v1h-2z M81,24h1v9h-1z M83,24h1v3h-1z M85,24h3v1h-3z M6,25h1v2h-1z M9,25h1v3h-1z M12,25h1v1h-1z M14,25h2v1h-2z M20,25h1v3h-1z M22,25h1v5h-1z M28,25h1v6h-1z M34,25h2v2h-2z M37,25h2v1h-2z M45,25h1v2h-1z M51,25h1v1h-1z M54,25h1v1h-1z M73,25h1v2h-1z M76,25h1v1h-1z M79,25h1v1h-1z M91,25h2v1h-2z M4,26h2v1h-2z M10,26h1v1h-1z M13,26h1v1h-1z M18,26h2v1h-2z M26,26h1v2h-1z M30,26h4v1h-4z M36,26h1v4h-1z M38,26h3v2h-3z M43,26h1v3h-1z M46,26h1v1h-1z M48,26h1v2h-1z M52,26h1v2h-1z M55,26h2v3h-2z M58,26h1v11h-1z M60,26h1v1h-1z M66,26h1v6h-1z M67,26h1v2h-1z M71,26h1v1h-1z M75,26h1v5h-1z M84,26h1v2h-1z M86,26h1v2h-1z M90,26h1v5h-1z M92,26h1v1h-1z M12,27h1v1h-1z M14,27h1v1h-1z M21,27h1v1h-1z M23,27h1v1h-1z M25,27h1v1h-1z M29,27h1v1h-1z M32,27h1v1h-1z M37,27h1v1h-1z M49,27h1v2h-1z M51,27h1v2h-1z M54,27h1v1h-1z M59,27h1v4h-1z M64,27h1v2h-1z M72,27h1v2h-1z M74,27h1v2h-1z M78,27h1v2h-1z M82,27h1v2h-1z M85,27h1v1h-1z M89,27h1v1h-1z M91,27h1v4h-1z M10,28h1v1h-1z M13,28h1v2h-1z M27,28h1v1h-1z M30,28h1v1h-1z M34,28h2v3h-2z M40,28h3v2h-3z M46,28h1v1h-1z M50,28h1v1h-1z M57,28h1v1h-1z M60,28h1v1h-1z M62,28h1v1h-1z M65,28h1v1h-1z M68,28h3v1h-3z M73,28h1v2h-1z M77,28h1v2h-1z M79,28h1v3h-1z M83,28h1v3h-1z M87,28h1v5h-1z M88,28h1v1h-1z M5,29h1v1h-1z M9,29h1v4h-1z M11,29h2v2h-2z M15,29h1v1h-1z M17,29h4v1h-4z M23,29h1v2h-1z M29,29h1v1h-1z M31,29h1v1h-1z M33,29h1v2h-1z M38,29h2v1h-2z M71,29h1v4h-1z M85,29h1v1h-1z M89,29h1v1h-1z M4,30h1v1h-1z M6,30h2v3h-2z M8,30h1v1h-1z M10,30h1v1h-1z M14,30h1v1h-1z M17,30h2v1h-2z M25,30h2v1h-2z M32,30h1v8h-1z M37,30h1v1h-1z M39,30h2v1h-2z M42,30h3v1h-3z M46,30h3v1h-3z M51,30h2v3h-2z M53,30h1v1h-1z M55,30h2v2h-2z M57,30h1v1h-1z M62,30h1v10h-1z M63,30h1v2h-1z M65,30h1v5h-1z M67,30h2v1h-2z M70,30h1v3h-1z M74,30h1v2h-1z M78,30h1v10h-1z M88,30h1v8h-1z M11,31h1v2h-1z M16,31h1v2h-1z M19,31h1v3h-1z M21,31h2v1h-2z M26,31h2v1h-2z M29,31h1v3h-1z M35,31h2v2h-2z M40,31h1v2h-1z M44,31h1v2h-1z M49,31h1v3h-1z M50,31h1v1h-1z M61,31h1v2h-1z M68,31h1v3h-1z M73,31h1v2h-1z M76,31h1v4h-1z M80,31h1v2h-1z M82,31h1v2h-1z M85,31h1v2h-1z M8,32h1v8h-1z M10,32h1v1h-1z M12,32h1v7h-1z M14,32h2v3h-2z M18,32h1v2h-1z M21,32h1v1h-1z M25,32h1v1h-1z M27,32h1v2h-1z M30,32h2v1h-2z M33,32h2v1h-2z M39,32h1v2h-1z M42,32h1v3h-1z M43,32h1v1h-1z M45,32h1v2h-1z M53,32h3v1h-3z M57,32h1v4h-1z M59,32h2v1h-2z M64,32h1v1h-1z M69,32h1v2h-1z M84,32h1v5h-1z M86,32h1v1h-1z M91,32h2v1h-2z M5,33h1v2h-1z M7,33h1v2h-1z M22,33h1v2h-1z M31,33h1v1h-1z M36,33h1v5h-1z M38,33h1v2h-1z M41,33h1v1h-1z M46,33h1v2h-1z M48,33h1v1h-1z M50,33h1v2h-1z M66,33h2v1h-2z M72,33h1v1h-1z M74,33h1v4h-1z M75,33h1v1h-1z M79,33h1v3h-1z M83,33h1v2h-1z M91,33h1v1h-1z M4,34h1v2h-1z M6,34h1v1h-1z M10,34h1v1h-1z M21,34h1v1h-1z M25,34h2v1h-2z M34,34h1v1h-1z M37,34h1v1h-1z M40,34h1v2h-1z M43,34h2v1h-2z M51,34h2v3h-2z M55,34h2v1h-2z M60,34h1v1h-1z M63,34h1v3h-1z M70,34h1v3h-1z M71,34h1v1h-1z M82,34h1v1h-1z M86,34h1v1h-1z M89,34h2v1h-2z M13,35h1v1h-1z M15,35h5v1h-5z M24,35h2v1h-2z M28,35h1v2h-1z M30,35h1v2h-1z M39,35h1v2h-1z M41,35h1v1h-1z M55,35h1v1h-1z M66,35h2v2h-2z M72,35h1v3h-1z M75,35h1v6h-1z M5,36h3v1h-3z M9,36h3v1h-3z M14,36h2v2h-2z M17,36h3v2h-3z M21,36h4v1h-4z M27,36h1v3h-1z M29,36h1v1h-1z M31,36h1v1h-1z M33,36h3v1h-3z M37,36h1v5h-1z M42,36h1v1h-1z M44,36h1v2h-1z M46,36h1v3h-1z M48,36h1v1h-1z M50,36h1v3h-1z M53,36h2v1h-2z M59,36h1v5h-1z M60,36h2v1h-2z M65,36h1v2h-1z M68,36h2v1h-2z M73,36h1v2h-1z M76,36h2v1h-2z M80,36h4v1h-4z M85,36h3v1h-3z M91,36h1v1h-1z M6,37h1v4h-1z M16,37h1v1h-1z M22,37h1v2h-1z M25,37h1v3h-1z M26,37h1v1h-1z M35,37h1v3h-1z M41,37h1v1h-1z M43,37h1v4h-1z M45,37h1v1h-1z M54,37h1v2h-1z M56,37h2v1h-2z M64,37h1v1h-1z M82,37h1v1h-1z M89,37h1v1h-1z M4,38h1v2h-1z M9,38h3v1h-3z M13,38h1v1h-1z M18,38h4v1h-4z M29,38h2v2h-2z M31,38h1v1h-1z M33,38h1v3h-1z M38,38h3v2h-3z M48,38h2v1h-2z M51,38h2v2h-2z M57,38h2v1h-2z M60,38h1v3h-1z M63,38h1v1h-1z M66,38h1v3h-1z M67,38h1v1h-1z M70,38h1v1h-1z M74,38h1v3h-1z M76,38h2v2h-2z M79,38h1v2h-1z M85,38h1v2h-1z M91,38h2v1h-2z M5,39h1v1h-1z M11,39h1v1h-1z M15,39h1v3h-1z M16,39h1v1h-1z M18,39h2v1h-2z M21,39h1v1h-1z M23,39h2v1h-2z M36,39h1v1h-1z M44,39h1v4h-1z M47,39h2v1h-2z M55,39h1v1h-1z M64,39h2v2h-2z M68,39h2v1h-2z M82,39h1v2h-1z M84,39h1v2h-1z M86,39h3v2h-3z M89,39h1v1h-1z M92,39h1v4h-1z M7,40h1v1h-1z M9,40h1v3h-1z M10,40h1v1h-1z M12,40h3v1h-3z M17,40h1v1h-1z M19,40h1v2h-1z M22,40h2v1h-2z M26,40h3v1h-3z M30,40h2v1h-2z M34,40h1v7h-1z M38,40h1v2h-1z M40,40h2v2h-2z M42,40h1v1h-1z M45,40h3v1h-3z M50,40h1v4h-1z M51,40h1v1h-1z M53,40h2v1h-2z M61,40h1v1h-1z M72,40h2v1h-2z M80,40h2v1h-2z M83,40h1v1h-1z M90,40h2v1h-2z M4,41h1v2h-1z M11,41h1v3h-1z M12,41h1v1h-1z M21,41h2v1h-2z M24,41h3v1h-3z M28,41h1v3h-1z M31,41h1v2h-1z M36,41h1v2h-1z M54,41h2v1h-2z M57,41h1v4h-1z M65,41h1v2h-1z M67,41h1v3h-1z M69,41h1v2h-1z M73,41h1v1h-1z M76,41h1v1h-1z M81,41h1v1h-1z M91,41h1v2h-1z M6,42h1v3h-1z M10,42h1v1h-1z M16,42h1v1h-1z M18,42h1v3h-1z M21,42h1v1h-1z M23,42h1v1h-1z M25,42h1v5h-1z M26,42h1v1h-1z M29,42h1v1h-1z M32,42h1v1h-1z M37,42h1v1h-1z M39,42h2v1h-2z M43,42h1v2h-1z M47,42h3v2h-3z M51,42h2v2h-2z M56,42h1v1h-1z M59,42h1v2h-1z M62,42h2v1h-2z M71,42h1v2h-1z M74,42h1v1h-1z M79,42h2v2h-2z M82,42h1v3h-1z M85,42h6v1h-6z M5,43h1v1h-1z M7,43h2v2h-2z M14,43h1v3h-1z M19,43h1v7h-1z M30,43h1v1h-1z M33,43h1v1h-1z M55,43h1v6h-1z M58,43h1v4h-1z M63,43h1v1h-1z M66,43h1v1h-1z M70,43h1v2h-1z M73,43h1v1h-1z M77,43h1v1h-1z M84,43h1v2h-1z M86,43h2v1h-2z M90,43h1v1h-1z M10,44h1v1h-1z M15,44h1v2h-1z M20,44h1v1h-1z M23,44h2v1h-2z M26,44h2v2h-2z M29,44h1v1h-1z M31,44h1v2h-1z M37,44h2v1h-2z M40,44h1v1h-1z M42,44h1v8h-1z M46,44h2v1h-2z M51,44h1v1h-1z M53,44h2v1h-2z M56,44h1v1h-1z M61,44h1v5h-1z M64,44h2v1h-2z M68,44h2v1h-2z M72,44h1v1h-1z M75,44h1v1h-1z M79,44h1v1h-1z M81,44h1v2h-1z M83,44h1v1h-1z M91,44h2v3h-2z M7,45h1v2h-1z M9,45h1v2h-1z M16,45h2v1h-2z M22,45h1v1h-1z M32,45h1v9h-1z M36,45h1v1h-1z M44,45h1v5h-1z M45,45h1v2h-1z M49,45h1v6h-1z M59,45h2v1h-2z M73,45h1v4h-1z M77,45h1v3h-1z M80,45h1v1h-1z M87,45h2v1h-2z M4,46h1v1h-1z M6,46h1v2h-1z M8,46h1v1h-1z M10,46h1v1h-1z M12,46h1v4h-1z M13,46h1v1h-1z M24,46h1v2h-1z M27,46h3v1h-3z M35,46h1v2h-1z M38,46h4v1h-4z M43,46h1v1h-1z M47,46h2v1h-2z M50,46h3v2h-3z M56,46h1v3h-1z M57,46h1v1h-1z M60,46h1v1h-1z M63,46h1v1h-1z M66,46h2v2h-2z M70,46h2v2h-2z M75,46h1v3h-1z M79,46h1v2h-1z M82,46h1v3h-1z M85,46h2v1h-2z M90,46h1v5h-1z M5,47h1v4h-1z M11,47h1v1h-1z M14,47h2v6h-2z M16,47h2v2h-2z M20,47h3v2h-3z M23,47h1v1h-1z M26,47h1v1h-1z M29,47h2v1h-2z M39,47h1v1h-1z M46,47h2v1h-2z M53,47h1v1h-1z M64,47h1v2h-1z M69,47h1v1h-1z M74,47h1v1h-1z M78,47h1v3h-1z M84,47h1v2h-1z M87,47h3v1h-3z M91,47h1v1h-1z M4,48h1v2h-1z M7,48h2v1h-2z M10,48h1v1h-1z M18,48h1v4h-1z M25,48h1v3h-1z M27,48h2v2h-2z M30,48h2v2h-2z M33,48h1v4h-1z M34,48h1v1h-1z M36,48h3v1h-3z M41,48h1v2h-1z M43,48h1v1h-1z M45,48h1v2h-1z M51,48h2v1h-2z M54,48h1v1h-1z M57,48h2v3h-2z M59,48h2v1h-2z M65,48h1v3h-1z M66,48h1v1h-1z M68,48h1v1h-1z M71,48h1v4h-1z M76,48h1v1h-1z M80,48h2v1h-2z M83,48h1v1h-1z M87,48h1v1h-1z M8,49h2v2h-2z M17,49h1v2h-1z M23,49h1v1h-1z M26,49h1v1h-1z M35,49h2v2h-2z M39,49h1v3h-1z M40,49h1v1h-1z M46,49h1v2h-1z M48,49h1v4h-1z M50,49h1v2h-1z M52,49h1v2h-1z M60,49h1v2h-1z M62,49h1v1h-1z M69,49h1v2h-1z M74,49h1v3h-1z M77,49h1v2h-1z M81,49h1v4h-1z M89,49h1v3h-1z M7,50h1v1h-1z M10,50h2v1h-2z M16,50h1v1h-1z M20,50h1v1h-1z M24,50h1v1h-1z M29,50h1v3h-1z M31,50h1v2h-1z M38,50h1v5h-1z M51,50h1v1h-1z M55,50h2v1h-2z M61,50h1v2h-1z M66,50h2v3h-2z M75,50h1v2h-1z M79,50h1v3h-1z M80,50h1v1h-1z M83,50h1v2h-1z M86,50h3v1h-3z M91,50h1v4h-1z M4,51h1v1h-1z M6,51h1v1h-1z M21,51h2v1h-2z M26,51h1v2h-1z M37,51h1v2h-1z M41,51h1v1h-1z M43,51h1v7h-1z M47,51h1v4h-1z M55,51h1v1h-1z M59,51h1v2h-1z M62,51h1v1h-1z M73,51h1v1h-1z M78,51h1v3h-1z M82,51h1v1h-1z M87,51h2v2h-2z M5,52h1v1h-1z M7,52h1v3h-1z M9,52h2v1h-2z M13,52h1v2h-1z M19,52h1v2h-1z M22,52h2v1h-2z M25,52h1v1h-1z M30,52h1v2h-1z M34,52h1v2h-1z M44,52h3v1h-3z M50,52h2v3h-2z M53,52h2v1h-2z M57,52h1v2h-1z M60,52h1v3h-1z M63,52h1v1h-1z M65,52h1v2h-1z M68,52h3v1h-3z M72,52h1v1h-1z M76,52h2v1h-2z M80,52h1v1h-1z M86,52h1v1h-1z M90,52h1v1h-1z M92,52h1v1h-1z M6,53h1v4h-1z M15,53h4v1h-4z M20,53h2v2h-2z M23,53h2v1h-2z M27,53h1v2h-1z M31,53h1v2h-1z M35,53h1v1h-1z M41,53h1v1h-1z M46,53h1v1h-1z M54,53h1v1h-1z M56,53h1v2h-1z M58,53h1v1h-1z M62,53h1v1h-1z M69,53h1v1h-1z M73,53h1v2h-1z M87,53h1v1h-1z M4,54h2v1h-2z M9,54h2v1h-2z M12,54h1v1h-1z M14,54h1v4h-1z M22,54h1v4h-1z M24,54h2v1h-2z M29,54h1v1h-1z M33,54h1v2h-1z M36,54h1v1h-1z M39,54h2v1h-2z M44,54h1v3h-1z M48,54h2v1h-2z M52,54h1v2h-1z M55,54h1v2h-1z M63,54h1v3h-1z M66,54h2v2h-2z M70,54h2v1h-2z M75,54h1v3h-1z M76,54h1v1h-1z M81,54h1v2h-1z M84,54h3v1h-3z M88,54h3v1h-3z M8,55h2v1h-2z M11,55h1v1h-1z M16,55h1v3h-1z M18,55h1v1h-1z M23,55h1v1h-1z M26,55h1v3h-1z M30,55h1v2h-1z M32,55h1v1h-1z M34,55h2v1h-2z M40,55h1v2h-1z M45,55h2v1h-2z M51,55h1v2h-1z M59,55h1v2h-1z M62,55h1v1h-1z M65,55h1v2h-1z M69,55h1v4h-1z M70,55h1v1h-1z M72,55h1v3h-1z M74,55h1v2h-1z M77,55h1v1h-1z M80,55h1v1h-1z M83,55h1v3h-1z M84,55h1v1h-1z M87,55h2v2h-2z M90,55h1v2h-1z M92,55h1v4h-1z M10,56h1v1h-1z M17,56h1v1h-1z M21,56h1v1h-1z M31,56h1v2h-1z M35,56h1v3h-1z M38,56h1v2h-1z M41,56h1v1h-1z M48,56h3v1h-3z M53,56h2v2h-2z M60,56h1v3h-1z M64,56h1v1h-1z M68,56h1v1h-1z M73,56h1v2h-1z M78,56h1v2h-1z M91,56h1v1h-1z M5,57h1v2h-1z M13,57h1v2h-1z M19,57h1v1h-1z M23,57h1v1h-1z M25,57h1v2h-1z M27,57h2v2h-2z M32,57h1v6h-1z M33,57h1v2h-1z M36,57h1v8h-1z M37,57h1v1h-1z M39,57h1v1h-1z M45,57h1v1h-1z M50,57h1v1h-1z M55,57h1v2h-1z M57,57h1v2h-1z M71,57h1v1h-1z M76,57h2v1h-2z M80,57h2v2h-2z M84,57h1v6h-1z M87,57h1v2h-1z M7,58h6v1h-6z M17,58h1v1h-1z M20,58h2v4h-2z M29,58h1v1h-1z M34,58h1v1h-1z M51,58h2v1h-2z M54,58h1v1h-1z M56,58h1v3h-1z M58,58h1v5h-1z M59,58h1v1h-1z M61,58h3v1h-3z M65,58h1v1h-1z M67,58h1v2h-1z M74,58h1v3h-1z M75,58h1v1h-1z M77,58h1v2h-1z M79,58h1v3h-1z M85,58h2v1h-2z M88,58h1v9h-1z M90,58h1v3h-1z M4,59h1v2h-1z M6,59h3v1h-3z M12,59h1v6h-1z M16,59h1v2h-1z M19,59h1v2h-1z M22,59h1v2h-1z M28,59h1v2h-1z M31,59h1v1h-1z M37,59h1v2h-1z M39,59h2v2h-2z M43,59h1v1h-1z M48,59h1v2h-1z M53,59h1v1h-1z M62,59h1v4h-1z M64,59h1v2h-1z M70,59h1v2h-1z M76,59h1v2h-1z M78,59h1v1h-1z M80,59h1v1h-1z M83,59h1v4h-1z M5,60h1v3h-1z M7,60h2v1h-2z M10,60h1v1h-1z M14,60h1v1h-1z M18,60h1v1h-1z M34,60h1v1h-1z M42,60h1v1h-1z M45,60h3v1h-3z M49,60h3v1h-3z M54,60h2v2h-2z M57,60h1v5h-1z M60,60h1v1h-1z M65,60h2v1h-2z M68,60h2v1h-2z M72,60h2v1h-2z M81,60h2v1h-2z M86,60h1v1h-1z M89,60h1v1h-1z M91,60h2v1h-2z M8,61h1v2h-1z M13,61h1v4h-1z M15,61h1v1h-1z M17,61h1v3h-1z M24,61h1v1h-1z M26,61h2v2h-2z M29,61h1v1h-1z M38,61h1v2h-1z M47,61h1v3h-1z M51,61h1v2h-1z M53,61h1v1h-1z M69,61h1v1h-1z M73,61h1v1h-1z M77,61h1v3h-1z M78,61h1v1h-1z M82,61h1v6h-1z M92,61h1v2h-1z M6,62h1v1h-1z M9,62h3v1h-3z M14,62h1v3h-1z M19,62h1v1h-1z M21,62h2v2h-2z M28,62h1v2h-1z M30,62h1v2h-1z M33,62h1v7h-1z M34,62h2v1h-2z M37,62h1v1h-1z M39,62h2v1h-2z M42,62h3v1h-3z M52,62h1v1h-1z M54,62h1v1h-1z M56,62h1v3h-1z M59,62h3v1h-3z M63,62h1v1h-1z M66,62h2v3h-2z M68,62h1v1h-1z M70,62h3v1h-3z M74,62h3v1h-3z M79,62h2v1h-2z M85,62h3v1h-3z M90,62h1v3h-1z M4,63h1v4h-1z M7,63h1v2h-1z M15,63h2v1h-2z M18,63h1v1h-1z M24,63h2v1h-2z M29,63h1v1h-1z M34,63h1v1h-1z M40,63h1v2h-1z M43,63h1v1h-1z M45,63h1v1h-1z M55,63h1v2h-1z M59,63h1v1h-1z M61,63h1v6h-1z M64,63h1v2h-1z M70,63h1v2h-1z M72,63h1v3h-1z M74,63h1v2h-1z M76,63h1v3h-1z M78,63h1v1h-1z M80,63h1v2h-1z M87,63h1v1h-1z M91,63h1v4h-1z M6,64h1v1h-1z M9,64h3v1h-3z M16,64h1v3h-1z M19,64h1v1h-1z M22,64h2v1h-2z M27,64h1v1h-1z M37,64h1v5h-1z M39,64h1v1h-1z M42,64h1v5h-1z M46,64h1v3h-1z M50,64h1v1h-1z M60,64h1v1h-1z M65,64h1v3h-1z M73,64h1v1h-1z M75,64h1v2h-1z M81,64h1v3h-1z M83,64h1v3h-1z M89,64h1v1h-1z M92,64h1v2h-1z M5,65h1v2h-1z M9,65h1v2h-1z M15,65h1v1h-1z M21,65h1v3h-1z M24,65h1v3h-1z M26,65h1v2h-1z M28,65h1v3h-1z M30,65h2v1h-2z M34,65h1v1h-1z M43,65h1v1h-1z M45,65h1v1h-1z M47,65h1v1h-1z M49,65h1v1h-1z M52,65h1v1h-1z M62,65h1v2h-1z M66,65h1v2h-1z M68,65h1v1h-1z M71,65h1v1h-1z M85,65h1v2h-1z M87,65h1v1h-1z M6,66h2v1h-2z M10,66h2v1h-2z M14,66h1v1h-1z M19,66h1v1h-1z M22,66h1v1h-1z M29,66h1v1h-1z M31,66h2v1h-2z M36,66h1v1h-1z M38,66h4v1h-4z M55,66h6v1h-6z M63,66h1v1h-1z M67,66h1v3h-1z M70,66h1v3h-1z M74,66h1v6h-1z M78,66h2v1h-2z M84,66h1v1h-1z M86,66h1v1h-1z M8,67h1v4h-1z M12,67h2v1h-2z M15,67h1v4h-1z M20,67h1v5h-1z M25,67h1v3h-1z M27,67h1v2h-1z M32,67h1v2h-1z M34,67h1v4h-1z M38,67h1v3h-1z M39,67h1v1h-1z M51,67h2v1h-2z M55,67h2v2h-2z M58,67h1v1h-1z M60,67h1v3h-1z M64,67h1v3h-1z M71,67h1v2h-1z M76,67h2v2h-2z M80,67h1v1h-1z M10,68h2v1h-2z M13,68h2v2h-2z M16,68h1v1h-1z M18,68h2v1h-2z M35,68h1v3h-1z M36,68h1v1h-1z M41,68h1v1h-1z M43,68h1v4h-1z M45,68h2v1h-2z M48,68h3v1h-3z M52,68h1v1h-1z M54,68h1v1h-1z M57,68h1v1h-1z M59,68h1v1h-1z M65,68h2v3h-2z M68,68h2v2h-2z M72,68h2v1h-2z M78,68h1v2h-1z M82,68h4v1h-4z M88,68h1v3h-1z M91,68h2v2h-2z M4,69h1v1h-1z M6,69h1v4h-1z M17,69h1v3h-1z M18,69h1v1h-1z M28,69h2v1h-2z M31,69h1v2h-1z M46,69h1v1h-1z M50,69h1v1h-1z M55,69h1v1h-1z M62,69h1v2h-1z M82,69h1v2h-1z M84,69h2v2h-2z M87,69h1v1h-1z M7,70h1v2h-1z M10,70h3v1h-3z M14,70h1v2h-1z M19,70h1v1h-1z M22,70h2v1h-2z M26,70h1v3h-1z M27,70h1v1h-1z M29,70h1v1h-1z M32,70h2v1h-2z M36,70h1v4h-1z M40,70h2v1h-2z M44,70h1v3h-1z M51,70h2v2h-2z M54,70h1v1h-1z M56,70h1v1h-1z M58,70h1v1h-1z M61,70h1v1h-1z M67,70h1v1h-1z M70,70h1v3h-1z M71,70h1v1h-1z M73,70h1v5h-1z M75,70h3v1h-3z M79,70h1v5h-1z M86,70h1v6h-1z M91,70h1v1h-1z M13,71h1v4h-1z M18,71h1v3h-1z M23,71h1v4h-1z M24,71h1v1h-1z M30,71h1v2h-1z M32,71h1v1h-1z M37,71h1v1h-1z M41,71h1v2h-1z M47,71h2v2h-2z M57,71h1v2h-1z M59,71h1v2h-1z M63,71h1v2h-1z M65,71h1v1h-1z M68,71h1v2h-1z M72,71h1v1h-1z M75,71h1v1h-1z M80,71h2v1h-2z M83,71h2v1h-2z M89,71h1v5h-1z M4,72h1v9h-1z M8,72h2v2h-2z M10,72h1v1h-1z M15,72h1v2h-1z M19,72h1v4h-1z M22,72h1v1h-1z M25,72h1v5h-1z M27,72h2v1h-2z M33,72h2v3h-2z M38,72h1v1h-1z M46,72h1v4h-1z M49,72h3v1h-3z M53,72h3v2h-3z M62,72h1v8h-1z M64,72h1v1h-1z M69,72h1v3h-1z M76,72h3v1h-3z M80,72h1v1h-1z M88,72h1v2h-1z M91,72h2v3h-2z M7,73h1v3h-1z M11,73h1v2h-1z M16,73h1v1h-1z M21,73h1v1h-1z M24,73h1v2h-1z M29,73h1v1h-1z M31,73h2v1h-2z M40,73h1v1h-1z M43,73h1v3h-1z M50,73h1v1h-1z M60,73h1v1h-1z M67,73h1v2h-1z M72,73h1v1h-1z M74,73h1v1h-1z M77,73h2v2h-2z M83,73h1v2h-1z M85,73h1v2h-1z M87,73h1v6h-1z M90,73h1v1h-1z M6,74h1v2h-1z M8,74h1v1h-1z M10,74h1v1h-1z M17,74h1v8h-1z M20,74h1v2h-1z M27,74h2v1h-2z M37,74h1v2h-1z M44,74h1v5h-1z M45,74h1v2h-1z M47,74h2v1h-2z M51,74h2v2h-2z M54,74h3v1h-3z M58,74h1v1h-1z M61,74h1v1h-1z M63,74h2v1h-2z M66,74h1v1h-1z M68,74h1v1h-1z M75,74h1v2h-1z M84,74h1v1h-1z M9,75h1v1h-1z M14,75h1v1h-1z M16,75h1v4h-1z M27,75h1v1h-1z M30,75h1v5h-1z M32,75h2v1h-2z M36,75h1v2h-1z M38,75h3v1h-3z M47,75h1v1h-1z M56,75h2v2h-2z M60,75h1v4h-1z M64,75h1v2h-1z M70,75h1v3h-1z M72,75h1v1h-1z M74,75h1v2h-1z M88,75h1v1h-1z M90,75h2v1h-2z M5,76h1v1h-1z M10,76h1v1h-1z M13,76h1v1h-1z M18,76h1v3h-1z M24,76h1v4h-1z M28,76h2v1h-2z M31,76h1v1h-1z M33,76h3v1h-3z M39,76h2v2h-2z M42,76h1v1h-1z M50,76h2v1h-2z M54,76h1v4h-1z M55,76h1v1h-1z M61,76h1v1h-1z M63,76h1v6h-1z M65,76h2v1h-2z M69,76h1v3h-1z M73,76h1v7h-1z M76,76h4v1h-4z M81,76h3v1h-3z M90,76h1v1h-1z M92,76h1v3h-1z M6,77h2v1h-2z M12,77h1v4h-1z M19,77h1v2h-1z M21,77h3v1h-3z M29,77h1v1h-1z M32,77h1v2h-1z M35,77h1v4h-1z M41,77h1v2h-1z M49,77h1v1h-1z M53,77h1v1h-1z M56,77h1v1h-1z M59,77h1v1h-1z M72,77h1v1h-1z M77,77h1v1h-1z M81,77h1v1h-1z M84,77h2v3h-2z M5,78h1v1h-1z M7,78h1v1h-1z M9,78h2v1h-2z M13,78h2v1h-2z M20,78h2v1h-2z M23,78h1v1h-1z M26,78h2v2h-2z M28,78h1v1h-1z M33,78h2v1h-2z M36,78h2v1h-2z M40,78h1v1h-1z M43,78h1v2h-1z M47,78h2v1h-2z M51,78h2v1h-2z M55,78h1v3h-1z M58,78h1v1h-1z M61,78h1v3h-1z M64,78h1v1h-1z M66,78h2v1h-2z M74,78h3v2h-3z M78,78h3v1h-3z M82,78h1v3h-1z M86,78h1v1h-1z M88,78h4v1h-4z M6,79h1v1h-1z M13,79h1v1h-1z M15,79h1v1h-1z M25,79h1v4h-1z M29,79h1v1h-1z M31,79h1v1h-1z M38,79h2v1h-2z M45,79h1v4h-1z M46,79h2v1h-2z M51,79h1v1h-1z M53,79h1v1h-1z M56,79h2v2h-2z M65,79h2v1h-2z M68,79h1v2h-1z M70,79h2v1h-2z M77,79h1v6h-1z M78,79h1v2h-1z M80,79h1v1h-1z M83,79h1v1h-1z M90,79h1v1h-1z M8,80h1v2h-1z M10,80h1v1h-1z M19,80h1v1h-1z M22,80h2v1h-2z M32,80h1v1h-1z M38,80h1v1h-1z M40,80h3v1h-3z M49,80h2v1h-2z M64,80h1v2h-1z M69,80h1v1h-1z M72,80h1v1h-1z M75,80h1v3h-1z M79,80h1v3h-1z M81,80h1v2h-1z M88,80h1v3h-1z M91,80h1v2h-1z M11,81h1v1h-1z M14,81h2v1h-2z M18,81h1v4h-1z M26,81h2v2h-2z M34,81h1v2h-1z M36,81h2v1h-2z M42,81h1v1h-1z M44,81h1v1h-1z M46,81h1v2h-1z M48,81h1v2h-1z M51,81h4v1h-4z M62,81h1v2h-1z M65,81h1v2h-1z M83,81h1v1h-1z M85,81h1v2h-1z M4,82h1v3h-1z M7,82h1v1h-1z M10,82h1v1h-1z M13,82h2v1h-2z M16,82h1v5h-1z M20,82h3v1h-3z M30,82h1v1h-1z M32,82h1v7h-1z M37,82h1v2h-1z M41,82h1v1h-1z M47,82h1v6h-1z M54,82h6v1h-6z M61,82h1v3h-1z M70,82h2v2h-2z M80,82h1v1h-1z M82,82h1v3h-1z M84,82h1v1h-1z M86,82h1v3h-1z M87,82h1v1h-1z M90,82h1v1h-1z M5,83h1v1h-1z M8,83h2v1h-2z M11,83h1v1h-1z M15,83h1v2h-1z M17,83h1v3h-1z M19,83h1v1h-1z M22,83h3v1h-3z M27,83h2v1h-2z M31,83h1v1h-1z M35,83h1v2h-1z M39,83h2v1h-2z M43,83h2v1h-2z M51,83h2v2h-2z M53,83h1v1h-1z M55,83h1v1h-1z M57,83h1v1h-1z M59,83h1v2h-1z M64,83h1v3h-1z M69,83h1v1h-1z M74,83h1v2h-1z M78,83h1v1h-1z M7,84h1v1h-1z M10,84h1v1h-1z M20,84h1v1h-1z M23,84h2v1h-2z M27,84h1v1h-1z M29,84h1v2h-1z M33,84h2v1h-2z M36,84h1v9h-1z M39,84h1v1h-1z M41,84h3v1h-3z M45,84h2v1h-2z M48,84h3v1h-3z M54,84h1v1h-1z M58,84h1v7h-1z M60,84h1v1h-1z M62,84h1v5h-1z M65,84h3v1h-3z M71,84h1v1h-1z M73,84h1v1h-1z M76,84h1v1h-1z M81,84h1v5h-1z M83,84h2v3h-2z M85,84h1v1h-1z M87,84h2v1h-2z M91,84h1v3h-1z M12,85h1v2h-1z M19,85h1v1h-1z M21,85h1v1h-1z M25,85h2v1h-2z M31,85h1v3h-1z M42,85h1v1h-1z M46,85h1v1h-1z M50,85h2v1h-2z M57,85h1v1h-1z M63,85h1v1h-1z M65,85h1v1h-1z M69,85h1v2h-1z M72,85h1v1h-1z M78,85h1v3h-1z M88,85h1v4h-1z M92,85h1v1h-1z M4,86h7v1h-7z M13,86h2v2h-2z M18,86h1v1h-1z M22,86h4v1h-4z M30,86h1v2h-1z M34,86h1v1h-1z M37,86h1v2h-1z M39,86h2v1h-2z M43,86h2v1h-2z M48,86h1v1h-1z M52,86h1v3h-1z M55,86h2v2h-2z M60,86h1v1h-1z M66,86h2v3h-2z M71,86h1v2h-1z M74,86h2v2h-2z M79,86h1v1h-1z M86,86h1v1h-1z M89,86h2v1h-2z M4,87h1v6h-1z M10,87h1v6h-1z M17,87h1v1h-1z M19,87h1v1h-1z M21,87h1v1h-1z M24,87h1v1h-1z M26,87h1v2h-1z M38,87h2v1h-2z M44,87h1v3h-1z M51,87h1v5h-1z M57,87h1v4h-1z M63,87h1v5h-1z M65,87h1v1h-1z M70,87h1v2h-1z M73,87h1v4h-1z M77,87h1v1h-1z M80,87h1v1h-1z M82,87h1v3h-1z M84,87h1v2h-1z M6,88h3v3h-3z M20,88h1v2h-1z M22,88h1v1h-1z M28,88h2v1h-2z M33,88h3v1h-3z M46,88h1v3h-1z M48,88h2v2h-2z M54,88h1v4h-1z M55,88h1v1h-1z M59,88h3v1h-3z M68,88h2v1h-2z M72,88h1v1h-1z M76,88h1v1h-1z M85,88h3v2h-3z M89,88h4v1h-4z M15,89h1v1h-1z M18,89h2v2h-2z M21,89h1v2h-1z M23,89h2v1h-2z M29,89h1v1h-1z M35,89h1v1h-1z M40,89h1v4h-1z M41,89h1v1h-1z M47,89h1v3h-1z M50,89h1v2h-1z M53,89h1v1h-1z M61,89h1v3h-1z M65,89h1v2h-1z M69,89h1v2h-1z M74,89h1v1h-1z M77,89h1v2h-1z M80,89h1v1h-1z M12,90h3v1h-3z M16,90h2v2h-2z M22,90h1v2h-1z M25,90h3v1h-3z M30,90h1v1h-1z M32,90h1v2h-1z M34,90h1v1h-1z M37,90h3v1h-3z M45,90h1v1h-1z M55,90h2v2h-2z M59,90h2v1h-2z M67,90h1v2h-1z M71,90h1v1h-1z M75,90h2v2h-2z M83,90h2v1h-2z M86,90h1v3h-1z M91,90h2v1h-2z M13,91h1v2h-1z M15,91h1v1h-1z M18,91h1v2h-1z M23,91h2v1h-2z M29,91h1v1h-1z M33,91h1v1h-1z M37,91h1v1h-1z M39,91h1v1h-1z M41,91h1v1h-1z M43,91h2v2h-2z M66,91h1v2h-1z M70,91h1v2h-1z M72,91h1v2h-1z M74,91h1v1h-1z M80,91h2v1h-2z M83,91h1v1h-1z M85,91h1v2h-1z M87,91h1v1h-1z M89,91h1v1h-1z M5,92h5v1h-5z M12,92h1v1h-1z M14,92h1v1h-1z M17,92h1v1h-1z M19,92h2v1h-2z M30,92h1v1h-1z M35,92h1v1h-1z M38,92h1v1h-1z M42,92h1v1h-1z M45,92h1v1h-1z M49,92h1v1h-1z M53,92h1v1h-1z M55,92h1v1h-1z M57,92h3v1h-3z M62,92h1v1h-1z M64,92h2v1h-2z M68,92h2v1h-2z M73,92h1v1h-1z M75,92h1v1h-1z M77,92h2v1h-2z M80,92h1v1h-1z M84,92h1v1h-1z M90,92h1v1h-1z M92,92h1v1h-1z" fill="#000000"/>
</svg>
