<?xml version="1.0" encoding="UTF-8"?>
<!DOCTYPE svg PUBLIC "-//W3C//DTD SVG 1.1//EN" "http://www.w3.org/Graphics/SVG/1.1/DTD/svg11.dtd">
<svg xmlns="http://www.w3.org/2000/svg" version="1.1" viewBox="0 0 101 101" stroke="none">
	<rect width="100%" height="100%" fill="#ffffff"/>
	<path d="M4,4h7v1h-7z M14,4h1v1h-1z M17,4h1v6h-1z M19,4h1v4h-1z M21,4h6v1h-6z M31,4h1v1h-1z M33,4h4v1h-4z M39,4h3v2h-3z M42,4h2v1h-2z M46,4h1v1h-1z M49,4h1v1h-1z M51,4h2v2h-2z M53,4h1v1h-1z M55,4h1v1h-1z M58,4h1v4h-1z M59,4h1v1h-1z M61,4h1v5h-1z M62,4h3v1h-3z M67,4h1v3h-1z M69,4h4v1h-4z M76,4h3v1h-3z M80,4h6v1h-6z M87,4h1v2h-1z M90,4h7v1h-7z M4,5h1v6h-1z M10,5h1v6h-1z M13,5h1v5h-1z M15,5h2v1h-2z M18,5h1v3h-1z M21,5h1v2h-1z M23,5h1v2h-1z M28,5h1v1h-1z M33,5h1v1h-1z M36,5h1v8h-1z M37,5h1v1h-1z M43,5h3v1h-3z M50,5h1v6h-1z M56,5h2v2h-2z M62,5h1v1h-1z M64,5h2v1h-2z M71,5h2v1h-2z M78,5h1v2h-1z M80,5h1v1h-1z M83,5h1v1h-1z M85,5h1v4h-1z M88,5h1v2h-1z M90,5h1v6h-1z M96,5h1v6h-1z M6,6h3v3h-3z M12,6h1v6h-1z M14,6h1v3h-1z M20,6h1v1h-1z M22,6h1v2h-1z M25,6h1v2h-1z M29,6h3v1h-3z M38,6h1v2h-1z M42,6h1v1h-1z M46,6h3v1h-3z M54,6h1v3h-1z M59,6h2v1h-2z M65,6h2v1h-2z M68,6h1v1h-1z M70,6h1v5h-1z M71,6h1v1h-1z M74,6h1v5h-1z M84,6h1v1h-1z M92,6h3v3h-3z M24,7h1v2h-1z M26,7h2v2h-2z M29,7h1v1h-1z M31,7h4v1h-4z M39,7h1v3h-1z M41,7h1v3h-1z M44,7h2v1h-2z M49,7h1v1h-1z M51,7h2v1h-2z M55,7h1v3h-1z M57,7h1v3h-1z M65,7h1v1h-1z M72,7h1v1h-1z M75,7h1v1h-1z M77,7h1v1h-1z M82,7h1v4h-1z M87,7h1v3h-1z M16,8h1v5h-1z M21,8h1v2h-1z M23,8h1v1h-1z M32,8h1v8h-1z M33,8h3v1h-3z M40,8h1v5h-1z M43,8h1v1h-1z M45,8h2v1h-2z M51,8h1v1h-1z M53,8h1v2h-1z M59,8h2v1h-2z M62,8h3v1h-3z M69,8h1v2h-1z M73,8h1v1h-1z M79,8h1v2h-1z M81,8h1v1h-1z M84,8h1v1h-1z M86,8h1v1h-1z M18,9h1v2h-1z M25,9h1v1h-1z M27,9h1v1h-1z M29,9h2v1h-2z M37,9h2v1h-2z M42,9h1v2h-1z M46,9h1v6h-1z M49,9h1v1h-1z M52,9h1v3h-1z M58,9h1v4h-1z M60,9h1v4h-1z M64,9h1v8h-1z M65,9h1v1h-1z M67,9h2v1h-2z M78,9h1v2h-1z M80,9h1v2h-1z M83,9h1v1h-1z M5,10h5v1h-5z M14,10h1v4h-1z M20,10h1v3h-1z M22,10h1v1h-1z M24,10h1v3h-1z M26,10h1v1h-1z M28,10h1v1h-1z M30,10h1v2h-1z M34,10h1v1h-1z M38,10h1v3h-1z M44,10h1v1h-1z M48,10h1v1h-1z M54,10h1v1h-1z M56,10h1v1h-1z M62,10h1v1h-1z M66,10h1v1h-1z M68,10h1v2h-1z M72,10h1v1h-1z M76,10h1v1h-1z M84,10h1v2h-1z M86,10h1v2h-1z M88,10h1v9h-1z M91,10h5v1h-5z M15,11h1v1h-1z M17,11h1v1h-1z M19,11h1v3h-1z M25,11h1v2h-1z M29,11h1v1h-1z M39,11h1v3h-1z M43,11h1v1h-1z M51,11h1v3h-1z M59,11h1v2h-1z M67,11h1v1h-1z M73,11h1v1h-1z M85,11h1v7h-1z M4,12h1v4h-1z M6,12h5v1h-5z M21,12h1v4h-1z M22,12h1v1h-1z M26,12h3v1h-3z M31,12h1v1h-1z M33,12h3v1h-3z M44,12h1v3h-1z M45,12h1v1h-1z M48,12h1v1h-1z M56,12h1v3h-1z M61,12h3v1h-3z M70,12h3v1h-3z M76,12h1v2h-1z M78,12h6v1h-6z M87,12h1v2h-1z M90,12h5v1h-5z M7,13h3v1h-3z M11,13h1v2h-1z M18,13h1v3h-1z M27,13h4v1h-4z M33,13h1v1h-1z M42,13h2v1h-2z M47,13h1v1h-1z M50,13h1v1h-1z M54,13h1v2h-1z M63,13h1v1h-1z M65,13h1v2h-1z M68,13h3v2h-3z M78,13h1v3h-1z M83,13h2v2h-2z M86,13h1v1h-1z M89,13h2v1h-2z M92,13h2v1h-2z M96,13h1v1h-1z M5,14h1v7h-1z M6,14h1v3h-1z M8,14h3v1h-3z M13,14h1v3h-1z M16,14h1v1h-1z M20,14h1v3h-1z M24,14h1v1h-1z M27,14h1v2h-1z M30,14h2v2h-2z M34,14h1v3h-1z M37,14h2v1h-2z M41,14h1v1h-1z M45,14h1v2h-1z M53,14h1v1h-1z M55,14h1v3h-1z M57,14h1v5h-1z M60,14h3v1h-3z M73,14h2v2h-2z M77,14h1v1h-1z M79,14h3v2h-3z M82,14h1v1h-1z M89,14h1v1h-1z M7,15h1v5h-1z M14,15h2v1h-2z M17,15h1v2h-1z M19,15h1v4h-1z M22,15h1v8h-1z M25,15h1v5h-1z M28,15h1v3h-1z M29,15h1v1h-1z M33,15h1v1h-1z M40,15h1v1h-1z M43,15h1v1h-1z M48,15h2v1h-2z M51,15h2v1h-2z M59,15h1v1h-1z M61,15h1v1h-1z M66,15h3v1h-3z M71,15h2v1h-2z M75,15h2v1h-2z M83,15h1v1h-1z M86,15h1v1h-1z M90,15h1v1h-1z M92,15h5v1h-5z M8,16h1v1h-1z M10,16h1v1h-1z M14,16h1v1h-1z M16,16h1v1h-1z M37,16h3v2h-3z M41,16h1v1h-1z M51,16h1v1h-1z M53,16h1v3h-1z M54,16h1v1h-1z M56,16h1v1h-1z M62,16h1v4h-1z M70,16h1v3h-1z M73,16h1v2h-1z M87,16h1v2h-1z M89,16h1v8h-1z M91,16h2v1h-2z M94,16h1v1h-1z M4,17h1v2h-1z M11,17h2v2h-2z M15,17h1v2h-1z M18,17h1v1h-1z M21,17h1v1h-1z M24,17h1v1h-1z M26,17h1v3h-1z M27,17h1v1h-1z M36,17h1v1h-1z M40,17h1v2h-1z M42,17h1v1h-1z M46,17h1v1h-1z M48,17h2v1h-2z M52,17h1v2h-1z M59,17h3v1h-3z M63,17h1v1h-1z M67,17h1v1h-1z M69,17h1v2h-1z M71,17h1v1h-1z M77,17h5v1h-5z M92,17h2v1h-2z M95,17h2v1h-2z M8,18h1v4h-1z M9,18h2v1h-2z M13,18h1v1h-1z M17,18h1v1h-1z M20,18h1v1h-1z M30,18h6v1h-6z M47,18h1v7h-1z M50,18h1v2h-1z M54,18h2v1h-2z M58,18h1v2h-1z M64,18h2v1h-2z M68,18h1v1h-1z M72,18h1v3h-1z M75,18h1v1h-1z M80,18h1v2h-1z M84,18h1v9h-1z M90,18h1v1h-1z M93,18h1v3h-1z M94,18h1v1h-1z M96,18h1v1h-1z M6,19h1v1h-1z M12,19h1v1h-1z M16,19h1v5h-1z M21,19h1v2h-1z M24,19h1v4h-1z M29,19h3v1h-3z M34,19h6v1h-6z M44,19h1v1h-1z M46,19h1v2h-1z M55,19h1v1h-1z M59,19h2v1h-2z M64,19h1v1h-1z M66,19h2v1h-2z M73,19h1v4h-1z M74,19h1v1h-1z M79,19h1v1h-1z M81,19h1v2h-1z M85,19h2v1h-2z M92,19h1v1h-1z M4,20h1v5h-1z M9,20h2v1h-2z M13,20h1v4h-1z M17,20h1v2h-1z M19,20h2v1h-2z M23,20h1v1h-1z M30,20h2v1h-2z M33,20h2v1h-2z M38,20h1v1h-1z M48,20h1v4h-1z M51,20h2v1h-2z M56,20h1v4h-1z M67,20h1v6h-1z M68,20h1v1h-1z M71,20h1v1h-1z M75,20h2v1h-2z M82,20h1v7h-1z M83,20h1v1h-1z M85,20h1v1h-1z M87,20h2v1h-2z M90,20h2v2h-2z M94,20h1v4h-1z M6,21h2v1h-2z M12,21h1v2h-1z M14,21h1v4h-1z M15,21h1v1h-1z M19,21h1v1h-1z M27,21h2v1h-2z M32,21h1v2h-1z M35,21h1v1h-1z M37,21h1v1h-1z M39,21h1v5h-1z M40,21h1v1h-1z M42,21h2v3h-2z M49,21h1v1h-1z M53,21h1v1h-1z M55,21h1v1h-1z M58,21h2v1h-2z M61,21h4v1h-4z M74,21h1v1h-1z M76,21h2v1h-2z M79,21h1v2h-1z M86,21h1v1h-1z M95,21h2v1h-2z M6,22h1v1h-1z M9,22h1v3h-1z M10,22h1v1h-1z M18,22h1v3h-1z M23,22h1v2h-1z M25,22h3v1h-3z M30,22h2v1h-2z M33,22h2v1h-2z M38,22h1v2h-1z M41,22h1v1h-1z M45,22h1v2h-1z M50,22h2v1h-2z M54,22h1v4h-1z M57,22h1v1h-1z M59,22h2v1h-2z M62,22h2v2h-2z M65,22h1v1h-1z M69,22h2v1h-2z M72,22h1v1h-1z M78,22h1v2h-1z M81,22h1v1h-1z M85,22h1v3h-1z M88,22h1v1h-1z M90,22h1v1h-1z M92,22h2v1h-2z M96,22h1v1h-1z M7,23h2v2h-2z M11,23h1v2h-1z M17,23h1v1h-1z M20,23h2v1h-2z M28,23h1v1h-1z M30,23h1v1h-1z M34,23h1v1h-1z M37,23h1v3h-1z M40,23h1v1h-1z M46,23h1v1h-1z M49,23h1v3h-1z M51,23h1v1h-1z M53,23h1v1h-1z M58,23h2v1h-2z M61,23h1v6h-1z M64,23h1v1h-1z M66,23h1v1h-1z M68,23h1v1h-1z M71,23h1v2h-1z M74,23h1v2h-1z M76,23h1v3h-1z M80,23h1v4h-1z M91,23h1v2h-1z M5,24h1v1h-1z M10,24h1v1h-1z M19,24h1v4h-1z M22,24h1v2h-1z M24,24h3v1h-3z M36,24h1v1h-1z M41,24h1v2h-1z M52,24h1v4h-1z M55,24h1v1h-1z M58,24h1v1h-1z M70,24h1v1h-1z M73,24h1v1h-1z M75,24h1v1h-1z M77,24h1v1h-1z M79,24h1v2h-1z M83,24h1v1h-1z M93,24h1v2h-1z M6,25h1v1h-1z M8,25h1v2h-1z M15,25h3v1h-3z M20,25h2v1h-2z M24,25h1v1h-1z M26,25h1v1h-1z M28,25h2v1h-2z M31,25h5v1h-5z M43,25h1v1h-1z M46,25h1v1h-1z M53,25h1v2h-1z M56,25h1v1h-1z M59,25h1v2h-1z M62,25h1v1h-1z M64,25h2v1h-2z M68,25h2v1h-2z M81,25h1v2h-1z M87,25h2v1h-2z M95,25h1v5h-1z M96,25h1v1h-1z M10,26h1v1h-1z M16,26h1v2h-1z M21,26h1v4h-1z M23,26h1v4h-1z M25,26h1v1h-1z M29,26h1v1h-1z M36,26h1v11h-1z M38,26h1v5h-1z M40,26h1v3h-1z M42,26h1v1h-1z M44,26h2v1h-2z M50,26h1v4h-1z M57,26h1v1h-1z M60,26h1v1h-1z M66,26h1v2h-1z M70,26h1v2h-1z M72,26h3v1h-3z M77,26h2v1h-2z M85,26h2v1h-2z M88,26h1v1h-1z M90,26h2v1h-2z M5,27h1v1h-1z M7,27h1v1h-1z M9,27h1v2h-1z M13,27h3v1h-3z M17,27h1v2h-1z M20,27h1v2h-1z M22,27h1v1h-1z M26,27h3v1h-3z M31,27h1v1h-1z M33,27h3v1h-3z M37,27h1v1h-1z M39,27h1v2h-1z M45,27h1v3h-1z M56,27h1v1h-1z M58,27h1v2h-1z M69,27h1v1h-1z M71,27h1v1h-1z M74,27h3v1h-3z M78,27h2v1h-2z M83,27h1v1h-1z M89,27h1v3h-1z M92,27h1v4h-1z M93,27h1v1h-1z M4,28h1v2h-1z M6,28h1v1h-1z M10,28h2v1h-2z M13,28h1v1h-1z M15,28h1v3h-1z M27,28h1v1h-1z M29,28h1v2h-1z M33,28h1v2h-1z M44,28h1v1h-1z M46,28h1v2h-1z M48,28h2v1h-2z M67,28h1v1h-1z M72,28h3v1h-3z M76,28h2v1h-2z M79,28h1v3h-1z M80,28h1v1h-1z M82,28h1v3h-1z M85,28h1v5h-1z M86,28h3v1h-3z M91,28h1v1h-1z M5,29h1v1h-1z M14,29h1v2h-1z M16,29h1v1h-1z M18,29h2v1h-2z M22,29h1v1h-1z M24,29h2v1h-2z M28,29h1v1h-1z M30,29h1v2h-1z M35,29h1v4h-1z M41,29h3v1h-3z M47,29h1v1h-1z M51,29h2v1h-2z M54,29h4v1h-4z M59,29h1v2h-1z M63,29h3v2h-3z M69,29h2v1h-2z M72,29h1v2h-1z M88,29h1v2h-1z M93,29h2v1h-2z M6,30h1v1h-1z M8,30h1v9h-1z M9,30h1v3h-1z M10,30h1v1h-1z M12,30h2v1h-2z M18,30h1v1h-1z M20,30h1v6h-1z M25,30h3v2h-3z M37,30h1v1h-1z M40,30h2v1h-2z M43,30h1v1h-1z M49,30h1v4h-1z M52,30h1v2h-1z M54,30h2v1h-2z M57,30h2v1h-2z M61,30h1v3h-1z M62,30h1v1h-1z M67,30h2v1h-2z M73,30h2v2h-2z M77,30h1v1h-1z M80,30h2v1h-2z M84,30h1v1h-1z M86,30h1v1h-1z M94,30h1v3h-1z M96,30h1v1h-1z M4,31h2v3h-2z M13,31h1v4h-1z M17,31h1v1h-1z M19,31h1v2h-1z M21,31h1v6h-1z M23,31h1v1h-1z M32,31h1v6h-1z M33,31h1v2h-1z M44,31h2v1h-2z M47,31h2v1h-2z M51,31h1v2h-1z M54,31h1v1h-1z M56,31h1v1h-1z M58,31h1v1h-1z M65,31h1v1h-1z M71,31h1v1h-1z M75,31h2v2h-2z M83,31h1v2h-1z M89,31h3v2h-3z M93,31h1v1h-1z M10,32h3v1h-3z M14,32h1v2h-1z M24,32h1v1h-1z M26,32h1v2h-1z M28,32h1v1h-1z M30,32h2v1h-2z M34,32h1v1h-1z M40,32h1v2h-1z M42,32h2v1h-2z M48,32h1v1h-1z M55,32h1v3h-1z M59,32h2v5h-2z M62,32h3v1h-3z M66,32h2v3h-2z M69,32h2v1h-2z M72,32h1v3h-1z M79,32h1v4h-1z M82,32h1v1h-1z M87,32h2v1h-2z M92,32h1v5h-1z M6,33h1v1h-1z M12,33h1v4h-1z M17,33h1v1h-1z M22,33h1v5h-1z M23,33h1v1h-1z M25,33h1v1h-1z M27,33h1v3h-1z M37,33h2v2h-2z M45,33h1v2h-1z M50,33h1v2h-1z M56,33h3v1h-3z M64,33h1v5h-1z M68,33h1v3h-1z M70,33h1v2h-1z M76,33h1v1h-1z M81,33h1v1h-1z M88,33h1v6h-1z M93,33h1v2h-1z M95,33h2v1h-2z M7,34h1v4h-1z M10,34h1v1h-1z M15,34h1v3h-1z M18,34h1v1h-1z M24,34h1v1h-1z M29,34h2v1h-2z M34,34h1v1h-1z M41,34h2v1h-2z M46,34h1v3h-1z M52,34h3v2h-3z M57,34h1v1h-1z M62,34h1v1h-1z M65,34h1v1h-1z M69,34h1v1h-1z M73,34h2v2h-2z M77,34h1v4h-1z M84,34h1v1h-1z M87,34h1v1h-1z M90,34h1v1h-1z M94,34h1v2h-1z M96,34h1v1h-1z M5,35h1v4h-1z M14,35h1v2h-1z M26,35h1v2h-1z M28,35h1v1h-1z M30,35h2v1h-2z M38,35h1v1h-1z M44,35h1v2h-1z M48,35h2v1h-2z M51,35h1v1h-1z M58,35h1v3h-1z M67,35h1v1h-1z M71,35h1v2h-1z M75,35h2v2h-2z M78,35h1v2h-1z M81,35h1v1h-1z M83,35h1v1h-1z M85,35h2v1h-2z M6,36h1v1h-1z M9,36h3v1h-3z M13,36h1v1h-1z M16,36h1v5h-1z M18,36h1v6h-1z M19,36h1v2h-1z M23,36h1v1h-1z M29,36h2v1h-2z M33,36h3v1h-3z M40,36h1v1h-1z M43,36h1v3h-1z M45,36h1v4h-1z M47,36h1v2h-1z M52,36h1v3h-1z M56,36h1v1h-1z M61,36h3v1h-3z M74,36h1v1h-1z M80,36h1v1h-1z M82,36h1v1h-1z M85,36h1v1h-1z M89,36h3v1h-3z M93,36h1v3h-1z M9,37h1v2h-1z M24,37h1v1h-1z M29,37h1v1h-1z M31,37h1v1h-1z M38,37h1v1h-1z M42,37h1v2h-1z M50,37h2v1h-2z M53,37h1v2h-1z M55,37h1v2h-1z M57,37h1v2h-1z M60,37h1v2h-1z M63,37h1v1h-1z M65,37h1v1h-1z M67,37h1v2h-1z M73,37h1v1h-1z M76,37h1v1h-1z M79,37h1v3h-1z M10,38h4v1h-4z M23,38h1v1h-1z M25,38h1v1h-1z M28,38h1v1h-1z M30,38h1v2h-1z M34,38h1v1h-1z M36,38h2v1h-2z M39,38h2v2h-2z M41,38h1v1h-1z M46,38h1v1h-1z M59,38h1v3h-1z M66,38h1v5h-1z M69,38h2v1h-2z M72,38h1v2h-1z M78,38h1v1h-1z M81,38h2v1h-2z M84,38h1v3h-1z M87,38h1v3h-1z M91,38h1v2h-1z M94,38h2v1h-2z M6,39h1v2h-1z M13,39h1v1h-1z M15,39h1v1h-1z M20,39h3v1h-3z M24,39h1v2h-1z M26,39h2v1h-2z M38,39h1v1h-1z M44,39h1v1h-1z M47,39h3v1h-3z M51,39h1v1h-1z M56,39h1v2h-1z M58,39h1v2h-1z M61,39h2v2h-2z M65,39h1v2h-1z M69,39h1v1h-1z M74,39h1v2h-1z M76,39h1v4h-1z M90,39h1v3h-1z M92,39h1v1h-1z M94,39h1v1h-1z M96,39h1v1h-1z M7,40h4v1h-4z M12,40h1v5h-1z M14,40h1v1h-1z M17,40h1v3h-1z M19,40h1v2h-1z M22,40h2v1h-2z M26,40h1v1h-1z M29,40h1v1h-1z M31,40h4v1h-4z M40,40h1v5h-1z M41,40h2v1h-2z M46,40h1v5h-1z M49,40h2v1h-2z M52,40h1v3h-1z M55,40h1v3h-1z M67,40h2v3h-2z M70,40h2v1h-2z M75,40h1v1h-1z M78,40h1v2h-1z M80,40h1v1h-1z M82,40h2v1h-2z M85,40h2v1h-2z M89,40h1v1h-1z M93,40h1v2h-1z M4,41h2v2h-2z M8,41h2v2h-2z M11,41h1v2h-1z M13,41h1v1h-1z M20,41h1v4h-1z M25,41h1v3h-1z M31,41h1v1h-1z M35,41h1v3h-1z M37,41h1v2h-1z M39,41h1v1h-1z M41,41h1v1h-1z M45,41h1v2h-1z M49,41h1v1h-1z M60,41h1v1h-1z M62,41h3v2h-3z M69,41h2v1h-2z M72,41h1v2h-1z M79,41h1v2h-1z M81,41h1v1h-1z M88,41h1v2h-1z M94,41h3v1h-3z M6,42h2v1h-2z M10,42h1v1h-1z M14,42h2v1h-2z M22,42h3v1h-3z M27,42h2v1h-2z M32,42h2v3h-2z M38,42h1v1h-1z M42,42h2v1h-2z M50,42h1v3h-1z M53,42h2v1h-2z M57,42h1v1h-1z M61,42h1v2h-1z M71,42h1v2h-1z M73,42h2v2h-2z M77,42h1v1h-1z M82,42h1v3h-1z M84,42h4v1h-4z M89,42h1v1h-1z M91,42h2v1h-2z M14,43h1v1h-1z M21,43h2v1h-2z M24,43h1v1h-1z M27,43h1v1h-1z M29,43h1v1h-1z M34,43h1v1h-1z M36,43h1v5h-1z M39,43h1v2h-1z M41,43h2v1h-2z M47,43h1v2h-1z M49,43h1v1h-1z M56,43h1v1h-1z M58,43h3v1h-3z M62,43h1v1h-1z M64,43h2v1h-2z M78,43h1v1h-1z M85,43h3v2h-3z M93,43h1v10h-1z M94,43h2v1h-2z M4,44h1v4h-1z M7,44h2v1h-2z M10,44h2v1h-2z M13,44h1v1h-1z M15,44h2v1h-2z M26,44h1v1h-1z M28,44h1v2h-1z M30,44h2v1h-2z M44,44h1v2h-1z M48,44h1v2h-1z M51,44h2v3h-2z M53,44h1v1h-1z M57,44h2v1h-2z M60,44h1v1h-1z M65,44h3v1h-3z M70,44h1v1h-1z M72,44h2v1h-2z M75,44h1v4h-1z M76,44h1v1h-1z M79,44h1v2h-1z M83,44h1v1h-1z M89,44h4v1h-4z M94,44h1v1h-1z M96,44h1v2h-1z M5,45h1v1h-1z M14,45h1v4h-1z M17,45h1v2h-1z M21,45h5v1h-5z M32,45h1v3h-1z M34,45h2v1h-2z M37,45h1v1h-1z M41,45h1v1h-1z M43,45h1v2h-1z M55,45h2v1h-2z M59,45h1v1h-1z M61,45h1v1h-1z M65,45h1v1h-1z M67,45h2v2h-2z M69,45h1v1h-1z M71,45h1v1h-1z M77,45h1v1h-1z M80,45h1v4h-1z M81,45h1v1h-1z M85,45h1v1h-1z M89,45h1v1h-1z M91,45h1v1h-1z M95,45h1v1h-1z M6,46h1v3h-1z M10,46h2v1h-2z M15,46h1v2h-1z M19,46h1v1h-1z M26,46h1v1h-1z M29,46h1v1h-1z M31,46h1v3h-1z M35,46h1v1h-1z M38,46h1v1h-1z M40,46h1v3h-1z M45,46h1v1h-1z M49,46h1v8h-1z M53,46h1v1h-1z M55,46h1v1h-1z M58,46h1v1h-1z M63,46h1v4h-1z M66,46h1v1h-1z M70,46h1v3h-1z M72,46h2v2h-2z M82,46h1v5h-1z M84,46h1v1h-1z M90,46h1v1h-1z M94,46h1v1h-1z M7,47h1v2h-1z M9,47h1v1h-1z M11,47h3v4h-3z M20,47h3v2h-3z M23,47h2v1h-2z M27,47h1v3h-1z M41,47h1v3h-1z M46,47h3v1h-3z M51,47h1v1h-1z M56,47h1v1h-1z M60,47h3v1h-3z M74,47h1v1h-1z M76,47h1v8h-1z M78,47h2v1h-2z M83,47h1v2h-1z M85,47h4v1h-4z M92,47h1v1h-1z M95,47h2v1h-2z M8,48h1v2h-1z M10,48h1v1h-1z M16,48h2v1h-2z M28,48h1v1h-1z M30,48h1v2h-1z M35,48h1v1h-1z M39,48h1v1h-1z M42,48h1v1h-1z M44,48h1v1h-1z M46,48h1v2h-1z M48,48h1v1h-1z M52,48h2v1h-2z M58,48h2v1h-2z M61,48h1v1h-1z M67,48h2v1h-2z M71,48h1v1h-1z M73,48h1v2h-1z M85,48h1v1h-1z M87,48h2v1h-2z M90,48h2v3h-2z M94,48h1v1h-1z M4,49h1v3h-1z M9,49h1v1h-1z M15,49h2v1h-2z M23,49h1v1h-1z M25,49h1v1h-1z M29,49h1v2h-1z M33,49h1v5h-1z M34,49h1v1h-1z M36,49h2v1h-2z M45,49h1v1h-1z M50,49h2v1h-2z M53,49h2v1h-2z M58,49h1v1h-1z M60,49h1v2h-1z M64,49h4v1h-4z M77,49h1v2h-1z M88,49h2v1h-2z M96,49h1v1h-1z M7,50h1v4h-1z M10,50h1v1h-1z M14,50h1v1h-1z M19,50h1v2h-1z M21,50h1v3h-1z M26,50h1v1h-1z M28,50h1v2h-1z M31,50h2v1h-2z M37,50h1v3h-1z M40,50h1v1h-1z M43,50h1v1h-1z M50,50h1v1h-1z M52,50h2v1h-2z M57,50h1v1h-1z M64,50h1v2h-1z M68,50h1v3h-1z M69,50h1v1h-1z M71,50h2v1h-2z M79,50h3v1h-3z M89,50h1v1h-1z M92,50h1v1h-1z M95,50h1v1h-1z M6,51h1v3h-1z M12,51h1v1h-1z M17,51h1v1h-1z M23,51h3v1h-3z M34,51h2v1h-2z M38,51h1v1h-1z M46,51h1v1h-1z M51,51h1v1h-1z M58,51h1v2h-1z M62,51h1v4h-1z M67,51h1v1h-1z M70,51h1v2h-1z M72,51h4v1h-4z M78,51h1v1h-1z M83,51h2v1h-2z M86,51h1v1h-1z M88,51h1v1h-1z M5,52h1v3h-1z M8,52h1v3h-1z M10,52h2v1h-2z M14,52h2v1h-2z M20,52h1v1h-1z M22,52h1v4h-1z M23,52h1v1h-1z M25,52h1v1h-1z M27,52h1v4h-1z M29,52h2v2h-2z M35,52h1v3h-1z M36,52h1v1h-1z M39,52h2v2h-2z M41,52h1v1h-1z M44,52h1v1h-1z M47,52h2v1h-2z M56,52h2v5h-2z M59,52h1v1h-1z M61,52h1v9h-1z M71,52h3v1h-3z M75,52h1v1h-1z M77,52h1v1h-1z M79,52h1v6h-1z M80,52h1v2h-1z M82,52h1v1h-1z M84,52h2v1h-2z M87,52h1v1h-1z M89,52h2v1h-2z M92,52h1v4h-1z M94,52h3v1h-3z M9,53h1v3h-1z M11,53h2v3h-2z M15,53h1v1h-1z M19,53h1v2h-1z M31,53h2v1h-2z M46,53h1v1h-1z M48,53h1v2h-1z M50,53h1v2h-1z M52,53h1v2h-1z M54,53h2v1h-2z M60,53h1v1h-1z M63,53h1v1h-1z M65,53h1v2h-1z M67,53h1v2h-1z M69,53h1v1h-1z M73,53h1v1h-1z M83,53h1v1h-1z M85,53h1v1h-1z M88,53h1v2h-1z M91,53h1v1h-1z M94,53h1v1h-1z M96,53h1v1h-1z M4,54h1v1h-1z M10,54h1v1h-1z M13,54h2v1h-2z M16,54h1v4h-1z M18,54h1v1h-1z M20,54h1v2h-1z M24,54h2v2h-2z M28,54h1v2h-1z M30,54h2v1h-2z M34,54h1v1h-1z M36,54h1v4h-1z M37,54h2v1h-2z M41,54h1v1h-1z M44,54h1v2h-1z M47,54h1v1h-1z M53,54h2v1h-2z M58,54h2v2h-2z M68,54h1v1h-1z M72,54h1v2h-1z M77,54h1v1h-1z M82,54h1v1h-1z M84,54h1v3h-1z M87,54h1v5h-1z M6,55h1v1h-1z M14,55h1v1h-1z M17,55h1v1h-1z M26,55h1v4h-1z M33,55h1v6h-1z M38,55h1v3h-1z M40,55h1v1h-1z M43,55h1v10h-1z M49,55h1v1h-1z M60,55h1v2h-1z M64,55h1v1h-1z M66,55h1v1h-1z M73,55h3v1h-3z M78,55h1v3h-1z M80,55h2v1h-2z M85,55h2v1h-2z M93,55h1v3h-1z M94,55h1v1h-1z M4,56h2v1h-2z M7,56h2v1h-2z M10,56h1v1h-1z M12,56h2v1h-2z M15,56h1v1h-1z M23,56h1v2h-1z M30,56h1v1h-1z M34,56h1v1h-1z M37,56h1v1h-1z M45,56h3v1h-3z M50,56h1v1h-1z M52,56h1v1h-1z M55,56h1v3h-1z M58,56h1v2h-1z M65,56h1v3h-1z M69,56h3v1h-3z M73,56h1v1h-1z M81,56h1v1h-1z M83,56h1v5h-1z M88,56h4v1h-4z M4,57h1v1h-1z M6,57h1v1h-1z M8,57h2v1h-2z M11,57h2v1h-2z M14,57h1v2h-1z M17,57h1v1h-1z M21,57h1v1h-1z M28,57h1v1h-1z M31,57h2v1h-2z M35,57h1v1h-1z M39,57h2v1h-2z M42,57h1v2h-1z M46,57h1v1h-1z M49,57h1v1h-1z M51,57h1v1h-1z M59,57h1v4h-1z M62,57h3v1h-3z M67,57h1v2h-1z M75,57h2v1h-2z M80,57h1v2h-1z M82,57h1v1h-1z M94,57h3v1h-3z M10,58h1v1h-1z M15,58h1v2h-1z M18,58h3v1h-3z M27,58h1v1h-1z M30,58h1v4h-1z M32,58h1v8h-1z M34,58h1v1h-1z M37,58h1v3h-1z M40,58h2v1h-2z M44,58h2v1h-2z M47,58h2v2h-2z M50,58h1v2h-1z M52,58h3v1h-3z M57,58h1v2h-1z M60,58h1v7h-1z M63,58h2v1h-2z M68,58h5v1h-5z M77,58h1v1h-1z M81,58h1v1h-1z M84,58h3v1h-3z M89,58h1v1h-1z M92,58h1v1h-1z M94,58h1v1h-1z M4,59h1v3h-1z M6,59h2v2h-2z M11,59h2v2h-2z M19,59h2v2h-2z M39,59h1v1h-1z M44,59h1v1h-1z M46,59h1v3h-1z M56,59h1v1h-1z M62,59h1v2h-1z M64,59h1v6h-1z M66,59h1v1h-1z M73,59h2v2h-2z M82,59h1v4h-1z M85,59h2v1h-2z M88,59h1v6h-1z M93,59h1v2h-1z M5,60h1v1h-1z M8,60h1v5h-1z M9,60h2v1h-2z M13,60h2v2h-2z M16,60h1v2h-1z M18,60h1v1h-1z M21,60h2v3h-2z M24,60h3v1h-3z M28,60h2v1h-2z M34,60h3v1h-3z M40,60h1v1h-1z M51,60h2v1h-2z M54,60h1v1h-1z M63,60h1v1h-1z M67,60h1v4h-1z M70,60h1v1h-1z M72,60h1v1h-1z M75,60h2v2h-2z M89,60h4v1h-4z M94,60h1v1h-1z M96,60h1v3h-1z M6,61h1v1h-1z M12,61h1v5h-1z M15,61h1v2h-1z M17,61h1v3h-1z M20,61h1v3h-1z M23,61h1v2h-1z M27,61h1v2h-1z M31,61h1v2h-1z M36,61h1v5h-1z M38,61h2v1h-2z M42,61h1v1h-1z M48,61h1v1h-1z M50,61h2v1h-2z M53,61h1v1h-1z M57,61h1v1h-1z M74,61h1v4h-1z M77,61h1v3h-1z M79,61h1v3h-1z M81,61h1v5h-1z M92,61h1v5h-1z M95,61h1v1h-1z M5,62h1v2h-1z M7,62h1v3h-1z M10,62h1v1h-1z M13,62h1v2h-1z M18,62h2v1h-2z M24,62h3v1h-3z M28,62h2v1h-2z M34,62h1v1h-1z M37,62h1v1h-1z M40,62h2v2h-2z M45,62h1v1h-1z M52,62h1v1h-1z M54,62h2v1h-2z M58,62h1v3h-1z M59,62h1v1h-1z M62,62h1v1h-1z M65,62h1v1h-1z M70,62h1v1h-1z M72,62h2v1h-2z M80,62h1v2h-1z M84,62h3v2h-3z M90,62h1v1h-1z M94,62h1v2h-1z M14,63h1v2h-1z M22,63h1v2h-1z M29,63h2v1h-2z M39,63h1v2h-1z M42,63h1v1h-1z M46,63h4v1h-4z M55,63h2v1h-2z M66,63h1v1h-1z M69,63h1v1h-1z M71,63h1v1h-1z M75,63h2v2h-2z M78,63h1v1h-1z M83,63h1v1h-1z M6,64h1v5h-1z M9,64h3v1h-3z M15,64h2v1h-2z M21,64h1v2h-1z M23,64h1v2h-1z M26,64h3v1h-3z M30,64h2v1h-2z M33,64h3v1h-3z M37,64h1v2h-1z M44,64h3v1h-3z M49,64h4v2h-4z M55,64h1v1h-1z M57,64h1v1h-1z M61,64h3v1h-3z M68,64h1v1h-1z M85,64h1v2h-1z M89,64h3v1h-3z M16,65h1v4h-1z M18,65h3v1h-3z M25,65h1v2h-1z M27,65h3v1h-3z M33,65h1v2h-1z M35,65h1v1h-1z M38,65h1v1h-1z M41,65h1v3h-1z M45,65h2v2h-2z M48,65h1v1h-1z M54,65h1v2h-1z M65,65h1v1h-1z M67,65h1v2h-1z M69,65h1v1h-1z M73,65h1v1h-1z M76,65h1v1h-1z M78,65h2v1h-2z M82,65h2v1h-2z M89,65h1v1h-1z M93,65h1v1h-1z M4,66h2v1h-2z M7,66h2v1h-2z M10,66h1v1h-1z M15,66h1v3h-1z M20,66h1v1h-1z M26,66h1v1h-1z M29,66h2v1h-2z M34,66h1v1h-1z M40,66h1v6h-1z M43,66h1v1h-1z M49,66h1v2h-1z M52,66h2v1h-2z M55,66h1v1h-1z M58,66h1v3h-1z M64,66h1v3h-1z M66,66h1v2h-1z M68,66h1v1h-1z M72,66h1v6h-1z M74,66h1v2h-1z M78,66h1v1h-1z M80,66h1v1h-1z M84,66h1v1h-1z M87,66h1v4h-1z M88,66h1v1h-1z M91,66h1v4h-1z M95,66h1v2h-1z M11,67h1v2h-1z M13,67h1v2h-1z M23,67h1v8h-1z M27,67h1v3h-1z M35,67h1v3h-1z M37,67h1v1h-1z M42,67h1v3h-1z M45,67h1v1h-1z M47,67h1v3h-1z M51,67h1v1h-1z M56,67h1v2h-1z M59,67h5v1h-5z M65,67h1v3h-1z M69,67h1v3h-1z M73,67h1v2h-1z M77,67h1v1h-1z M81,67h1v1h-1z M86,67h1v2h-1z M94,67h1v1h-1z M7,68h1v4h-1z M8,68h1v1h-1z M10,68h1v1h-1z M12,68h1v6h-1z M21,68h2v1h-2z M24,68h3v1h-3z M29,68h1v1h-1z M31,68h1v2h-1z M33,68h2v1h-2z M36,68h1v2h-1z M39,68h1v5h-1z M43,68h1v1h-1z M48,68h1v1h-1z M53,68h1v3h-1z M55,68h1v3h-1z M57,68h1v3h-1z M60,68h2v2h-2z M62,68h1v1h-1z M70,68h2v1h-2z M78,68h2v1h-2z M84,68h1v1h-1z M92,68h1v1h-1z M96,68h1v3h-1z M5,69h1v2h-1z M14,69h1v3h-1z M18,69h1v1h-1z M20,69h1v1h-1z M26,69h1v1h-1z M32,69h1v2h-1z M41,69h1v2h-1z M45,69h1v1h-1z M49,69h1v5h-1z M50,69h1v1h-1z M52,69h1v2h-1z M54,69h1v1h-1z M59,69h1v2h-1z M67,69h1v2h-1z M70,69h1v1h-1z M75,69h1v3h-1z M76,69h1v1h-1z M79,69h1v2h-1z M88,69h3v1h-3z M93,69h1v1h-1z M95,69h1v1h-1z M6,70h1v3h-1z M8,70h4v1h-4z M29,70h2v1h-2z M33,70h1v2h-1z M38,70h1v1h-1z M43,70h1v2h-1z M46,70h1v3h-1z M58,70h1v3h-1z M60,70h1v1h-1z M63,70h2v1h-2z M66,70h1v2h-1z M68,70h1v1h-1z M78,70h1v1h-1z M80,70h3v1h-3z M84,70h3v1h-3z M88,70h1v2h-1z M92,70h1v4h-1z M8,71h1v1h-1z M15,71h1v2h-1z M19,71h1v5h-1z M20,71h1v1h-1z M22,71h1v3h-1z M26,71h4v1h-4z M31,71h1v1h-1z M36,71h2v4h-2z M47,71h1v1h-1z M50,71h1v1h-1z M64,71h1v4h-1z M71,71h1v1h-1z M73,71h1v3h-1z M74,71h1v1h-1z M76,71h1v1h-1z M83,71h1v1h-1z M85,71h1v3h-1z M94,71h1v1h-1z M4,72h2v1h-2z M9,72h3v1h-3z M16,72h3v1h-3z M21,72h1v1h-1z M26,72h2v1h-2z M30,72h1v1h-1z M32,72h1v3h-1z M34,72h1v5h-1z M41,72h1v3h-1z M48,72h1v1h-1z M52,72h1v3h-1z M56,72h2v1h-2z M59,72h1v7h-1z M60,72h2v2h-2z M62,72h1v1h-1z M70,72h1v2h-1z M77,72h2v2h-2z M82,72h1v3h-1z M90,72h1v2h-1z M93,72h1v1h-1z M4,73h1v1h-1z M8,73h2v1h-2z M11,73h1v2h-1z M14,73h1v2h-1z M17,73h1v3h-1z M24,73h1v1h-1z M27,73h2v3h-2z M31,73h1v4h-1z M35,73h1v1h-1z M40,73h1v2h-1z M42,73h2v1h-2z M45,73h1v2h-1z M53,73h1v1h-1z M55,73h1v2h-1z M67,73h1v3h-1z M69,73h1v1h-1z M72,73h1v1h-1z M75,73h2v1h-2z M79,73h1v2h-1z M81,73h1v2h-1z M86,73h1v1h-1z M89,73h1v1h-1z M91,73h1v4h-1z M94,73h2v2h-2z M5,74h1v6h-1z M7,74h1v2h-1z M10,74h1v1h-1z M26,74h1v1h-1z M30,74h1v1h-1z M33,74h1v3h-1z M38,74h1v1h-1z M46,74h2v1h-2z M50,74h1v2h-1z M58,74h1v4h-1z M63,74h1v1h-1z M65,74h1v1h-1z M76,74h1v3h-1z M78,74h1v2h-1z M84,74h1v1h-1z M87,74h1v1h-1z M96,74h1v1h-1z M4,75h1v2h-1z M6,75h1v3h-1z M8,75h2v1h-2z M12,75h1v1h-1z M15,75h1v4h-1z M18,75h1v1h-1z M20,75h1v3h-1z M29,75h1v2h-1z M35,75h1v3h-1z M37,75h1v5h-1z M39,75h1v1h-1z M42,75h1v1h-1z M44,75h1v1h-1z M47,75h1v1h-1z M53,75h2v2h-2z M60,75h1v1h-1z M66,75h1v1h-1z M68,75h1v1h-1z M74,75h2v1h-2z M83,75h1v2h-1z M85,75h2v1h-2z M10,76h2v1h-2z M13,76h2v1h-2z M16,76h1v1h-1z M22,76h2v1h-2z M25,76h2v1h-2z M43,76h1v3h-1z M46,76h1v2h-1z M48,76h1v1h-1z M51,76h2v2h-2z M55,76h1v1h-1z M61,76h4v1h-4z M69,76h4v1h-4z M74,76h1v1h-1z M79,76h1v1h-1z M82,76h1v2h-1z M85,76h1v1h-1z M87,76h1v1h-1z M90,76h1v4h-1z M92,76h2v1h-2z M96,76h1v1h-1z M8,77h2v3h-2z M12,77h2v1h-2z M17,77h1v2h-1z M21,77h1v4h-1z M23,77h1v1h-1z M26,77h1v1h-1z M38,77h1v2h-1z M40,77h1v3h-1z M49,77h1v1h-1z M53,77h1v2h-1z M61,77h1v2h-1z M63,77h2v2h-2z M66,77h1v1h-1z M68,77h1v3h-1z M70,77h1v2h-1z M75,77h1v2h-1z M77,77h1v3h-1z M81,77h1v1h-1z M86,77h1v3h-1z M94,77h2v1h-2z M4,78h1v3h-1z M10,78h3v1h-3z M16,78h1v3h-1z M19,78h1v3h-1z M24,78h2v1h-2z M27,78h2v1h-2z M33,78h2v1h-2z M42,78h1v1h-1z M50,78h1v1h-1z M52,78h1v1h-1z M54,78h2v1h-2z M57,78h1v5h-1z M60,78h1v1h-1z M65,78h1v1h-1z M69,78h1v1h-1z M72,78h2v3h-2z M74,78h1v1h-1z M79,78h1v1h-1z M84,78h2v1h-2z M87,78h3v1h-3z M92,78h1v1h-1z M95,78h2v1h-2z M13,79h1v2h-1z M22,79h1v1h-1z M25,79h1v1h-1z M28,79h1v1h-1z M30,79h1v1h-1z M32,79h1v1h-1z M35,79h1v1h-1z M41,79h1v3h-1z M44,79h1v1h-1z M46,79h4v1h-4z M51,79h1v1h-1z M56,79h1v1h-1z M66,79h1v1h-1z M80,79h2v2h-2z M83,79h1v2h-1z M85,79h1v1h-1z M88,79h1v1h-1z M91,79h1v1h-1z M94,79h1v1h-1z M96,79h1v1h-1z M6,80h1v3h-1z M8,80h1v1h-1z M10,80h2v1h-2z M14,80h2v1h-2z M27,80h1v1h-1z M29,80h1v1h-1z M34,80h1v2h-1z M46,80h1v2h-1z M49,80h1v1h-1z M52,80h1v4h-1z M55,80h1v5h-1z M58,80h5v1h-5z M64,80h1v1h-1z M67,80h1v4h-1z M70,80h2v1h-2z M75,80h2v1h-2z M78,80h2v1h-2z M82,80h1v2h-1z M89,80h1v1h-1z M93,80h1v1h-1z M5,81h1v1h-1z M7,81h1v1h-1z M11,81h2v1h-2z M18,81h1v3h-1z M20,81h1v1h-1z M23,81h1v3h-1z M31,81h1v3h-1z M35,81h1v1h-1z M38,81h3v1h-3z M44,81h1v1h-1z M47,81h1v4h-1z M51,81h1v1h-1z M54,81h1v2h-1z M56,81h1v1h-1z M59,81h1v1h-1z M61,81h1v1h-1z M63,81h1v1h-1z M65,81h1v2h-1z M69,81h1v1h-1z M72,81h1v2h-1z M76,81h1v1h-1z M79,81h1v3h-1z M87,81h2v1h-2z M90,81h3v1h-3z M94,81h1v1h-1z M96,81h1v1h-1z M8,82h3v1h-3z M15,82h2v2h-2z M17,82h1v1h-1z M19,82h1v1h-1z M21,82h2v1h-2z M25,82h1v2h-1z M27,82h1v1h-1z M29,82h1v1h-1z M36,82h2v1h-2z M40,82h1v2h-1z M42,82h2v1h-2z M45,82h1v3h-1z M48,82h1v1h-1z M50,82h1v1h-1z M53,82h1v1h-1z M58,82h1v3h-1z M71,82h1v2h-1z M78,82h1v1h-1z M81,82h1v1h-1z M84,82h1v1h-1z M91,82h1v2h-1z M95,82h1v1h-1z M5,83h1v2h-1z M7,83h2v1h-2z M14,83h1v2h-1z M20,83h1v5h-1z M22,83h1v1h-1z M24,83h1v3h-1z M26,83h1v3h-1z M28,83h1v1h-1z M30,83h1v2h-1z M33,83h1v6h-1z M34,83h1v1h-1z M43,83h1v3h-1z M44,83h1v1h-1z M46,83h1v3h-1z M49,83h1v1h-1z M51,83h1v2h-1z M60,83h1v1h-1z M63,83h1v1h-1z M66,83h1v1h-1z M73,83h4v1h-4z M80,83h1v1h-1z M83,83h1v1h-1z M85,83h1v3h-1z M87,83h2v1h-2z M4,84h1v2h-1z M6,84h1v1h-1z M9,84h2v1h-2z M12,84h1v1h-1z M21,84h1v1h-1z M27,84h1v2h-1z M32,84h1v1h-1z M36,84h1v1h-1z M39,84h1v1h-1z M41,84h1v1h-1z M48,84h1v1h-1z M54,84h1v2h-1z M56,84h1v1h-1z M59,84h1v1h-1z M61,84h2v1h-2z M64,84h2v1h-2z M68,84h1v1h-1z M70,84h1v1h-1z M72,84h1v3h-1z M73,84h1v1h-1z M76,84h1v2h-1z M82,84h1v3h-1z M88,84h1v2h-1z M90,84h1v2h-1z M92,84h1v2h-1z M94,84h1v2h-1z M7,85h1v1h-1z M9,85h1v1h-1z M16,85h1v2h-1z M18,85h1v2h-1z M22,85h1v1h-1z M28,85h1v3h-1z M37,85h1v1h-1z M42,85h1v1h-1z M49,85h1v1h-1z M52,85h2v2h-2z M61,85h1v1h-1z M65,85h1v1h-1z M67,85h1v2h-1z M69,85h1v1h-1z M74,85h2v1h-2z M77,85h1v1h-1z M80,85h1v2h-1z M83,85h1v1h-1z M86,85h2v1h-2z M89,85h1v1h-1z M91,85h1v4h-1z M93,85h1v1h-1z M95,85h1v3h-1z M8,86h1v2h-1z M10,86h4v1h-4z M21,86h1v2h-1z M23,86h1v1h-1z M29,86h1v2h-1z M32,86h1v7h-1z M34,86h1v1h-1z M36,86h1v1h-1z M39,86h1v5h-1z M44,86h2v1h-2z M55,86h1v1h-1z M57,86h1v1h-1z M60,86h1v1h-1z M64,86h1v1h-1z M66,86h1v2h-1z M68,86h1v3h-1z M70,86h1v5h-1z M71,86h1v2h-1z M73,86h1v3h-1z M78,86h1v2h-1z M81,86h1v1h-1z M84,86h1v2h-1z M86,86h1v1h-1z M96,86h1v1h-1z M4,87h2v1h-2z M7,87h1v1h-1z M9,87h1v1h-1z M11,87h1v1h-1z M15,87h1v1h-1z M22,87h1v1h-1z M25,87h1v1h-1z M27,87h1v1h-1z M30,87h2v1h-2z M35,87h1v2h-1z M37,87h1v2h-1z M40,87h2v2h-2z M43,87h2v1h-2z M46,87h2v2h-2z M49,87h1v2h-1z M52,87h1v1h-1z M54,87h1v1h-1z M56,87h1v1h-1z M58,87h1v1h-1z M85,87h1v2h-1z M93,87h2v1h-2z M5,88h2v1h-2z M10,88h1v1h-1z M12,88h1v2h-1z M14,88h1v1h-1z M17,88h1v1h-1z M23,88h2v1h-2z M30,88h1v1h-1z M34,88h1v1h-1z M36,88h1v8h-1z M42,88h1v1h-1z M45,88h1v1h-1z M48,88h1v1h-1z M50,88h1v2h-1z M53,88h1v1h-1z M55,88h1v1h-1z M60,88h1v7h-1z M61,88h5v1h-5z M67,88h1v1h-1z M72,88h1v1h-1z M75,88h2v1h-2z M79,88h1v4h-1z M82,88h2v1h-2z M86,88h1v5h-1z M88,88h1v8h-1z M89,88h2v1h-2z M92,88h1v5h-1z M18,89h2v1h-2z M21,89h2v2h-2z M23,89h1v1h-1z M25,89h2v1h-2z M28,89h1v3h-1z M38,89h1v2h-1z M44,89h1v1h-1z M51,89h2v1h-2z M57,89h3v1h-3z M64,89h1v5h-1z M66,89h1v2h-1z M76,89h1v1h-1z M81,89h1v1h-1z M83,89h2v2h-2z M87,89h1v2h-1z M94,89h2v2h-2z M4,90h7v1h-7z M19,90h1v7h-1z M24,90h1v1h-1z M26,90h2v1h-2z M30,90h1v7h-1z M34,90h1v1h-1z M37,90h1v1h-1z M41,90h3v1h-3z M46,90h1v3h-1z M52,90h4v1h-4z M59,90h1v4h-1z M62,90h1v1h-1z M65,90h1v1h-1z M67,90h1v1h-1z M69,90h1v1h-1z M72,90h1v2h-1z M77,90h1v1h-1z M80,90h1v3h-1z M82,90h1v3h-1z M85,90h1v3h-1z M90,90h1v1h-1z M96,90h1v1h-1z M4,91h1v6h-1z M10,91h1v6h-1z M12,91h7v1h-7z M25,91h1v3h-1z M26,91h1v1h-1z M29,91h1v3h-1z M31,91h1v3h-1z M40,91h1v2h-1z M48,91h2v1h-2z M52,91h1v1h-1z M55,91h4v1h-4z M73,91h2v2h-2z M78,91h1v1h-1z M83,91h1v1h-1z M94,91h1v1h-1z M6,92h3v3h-3z M12,92h1v3h-1z M15,92h1v3h-1z M17,92h1v4h-1z M18,92h1v1h-1z M20,92h4v1h-4z M27,92h1v4h-1z M33,92h3v1h-3z M39,92h1v2h-1z M41,92h2v2h-2z M44,92h1v4h-1z M45,92h1v1h-1z M47,92h1v1h-1z M51,92h1v1h-1z M53,92h3v1h-3z M57,92h2v2h-2z M61,92h2v2h-2z M63,92h1v1h-1z M67,92h1v1h-1z M70,92h2v3h-2z M75,92h1v3h-1z M76,92h1v1h-1z M81,92h1v1h-1z M89,92h3v1h-3z M93,92h1v1h-1z M96,92h1v1h-1z M13,93h1v4h-1z M22,93h1v2h-1z M28,93h1v1h-1z M33,93h1v1h-1z M35,93h1v2h-1z M37,93h2v2h-2z M48,93h2v3h-2z M50,93h1v1h-1z M53,93h1v2h-1z M55,93h2v1h-2z M65,93h1v4h-1z M72,93h2v1h-2z M78,93h2v1h-2z M87,93h1v4h-1z M90,93h1v4h-1z M94,93h1v4h-1z M14,94h1v2h-1z M16,94h1v1h-1z M21,94h1v1h-1z M26,94h1v1h-1z M32,94h1v1h-1z M40,94h2v1h-2z M43,94h1v2h-1z M46,94h2v2h-2z M51,94h1v2h-1z M54,94h2v1h-2z M57,94h1v2h-1z M67,94h3v1h-3z M72,94h1v1h-1z M79,94h4v1h-4z M85,94h2v2h-2z M93,94h1v1h-1z M18,95h1v2h-1z M23,95h2v1h-2z M29,95h1v1h-1z M34,95h1v2h-1z M38,95h1v2h-1z M42,95h1v1h-1z M58,95h1v2h-1z M61,95h2v1h-2z M71,95h1v2h-1z M73,95h2v1h-2z M77,95h4v1h-4z M82,95h1v2h-1z M89,95h1v1h-1z M92,95h1v1h-1z M5,96h5v1h-5z M12,96h1v1h-1z M15,96h2v1h-2z M22,96h2v1h-2z M28,96h1v1h-1z M31,96h2v1h-2z M37,96h1v1h-1z M39,96h2v1h-2z M46,96h1v1h-1z M49,96h2v1h-2z M52,96h2v1h-2z M56,96h1v1h-1z M62,96h1v1h-1z M70,96h1v1h-1z M73,96h1v1h-1z M75,96h1v1h-1z M78,96h1v1h-1z M80,96h1v1h-1z M83,96h3v1h-3z M91,96h1v1h-1z M95,96h1v1h-1z" fill="#000000"/>
</svg>
