<?xml version="1.0" encoding="UTF-8"?>
<!DOCTYPE svg PUBLIC "-//W3C//DTD SVG 1.1//EN" "http://www.w3.org/Graphics/SVG/1.1/DTD/svg11.dtd">
<svg xmlns="http://www.w3.org/2000/svg" version="1.1" viewBox="0 0 93 93" stroke="none">
	<rect width="100%" height="100%" fill="#ffffff"/>
	<path d="M4,4h7v1h-7z M12,4h1v1h-1z M14,4h6v1h-6z M23,4h1v1h-1z M25,4h3v1h-3z M29,4h1v1h-1z M32,4h3v1h-3z M36,4h1v2h-1z M39,4h1v2h-1z M41,4h1v1h-1z M44,4h6v1h-6z M52,4h1v1h-1z M54,4h3v1h-3z M58,4h1v3h-1z M60,4h1v1h-1z M62,4h2v2h-2z M64,4h1v1h-1z M66,4h1v3h-1z M68,4h1v2h-1z M70,4h5v1h-5z M76,4h3v1h-3z M80,4h1v1h-1z M82,4h7v1h-7z M4,5h1v6h-1z M10,5h1v6h-1z M13,5h4v1h-4z M18,5h3v1h-3z M27,5h2v1h-2z M30,5h1v3h-1z M34,5h2v1h-2z M40,5h1v1h-1z M46,5h1v1h-1z M48,5h1v1h-1z M53,5h2v1h-2z M69,5h1v2h-1z M72,5h2v2h-2z M76,5h1v2h-1z M78,5h2v1h-2z M82,5h1v6h-1z M88,5h1v6h-1z M6,6h3v3h-3z M12,6h2v1h-2z M15,6h1v1h-1z M18,6h1v2h-1z M21,6h2v2h-2z M24,6h2v2h-2z M28,6h1v2h-1z M33,6h1v1h-1z M35,6h1v1h-1z M41,6h4v1h-4z M49,6h3v1h-3z M56,6h1v8h-1z M57,6h1v3h-1z M59,6h2v1h-2z M63,6h1v2h-1z M65,6h1v1h-1z M67,6h1v2h-1z M77,6h2v1h-2z M84,6h3v3h-3z M13,7h2v2h-2z M16,7h1v1h-1z M19,7h2v1h-2z M23,7h1v1h-1z M27,7h1v3h-1z M34,7h1v2h-1z M36,7h1v9h-1z M38,7h1v1h-1z M43,7h1v3h-1z M44,7h1v1h-1z M46,7h1v1h-1z M48,7h1v2h-1z M50,7h2v1h-2z M53,7h3v1h-3z M60,7h1v6h-1z M75,7h1v2h-1z M79,7h1v1h-1z M15,8h1v1h-1z M20,8h1v4h-1z M25,8h2v1h-2z M32,8h1v5h-1z M33,8h1v1h-1z M35,8h1v1h-1z M39,8h3v1h-3z M47,8h1v1h-1z M52,8h1v7h-1z M55,8h1v1h-1z M58,8h2v1h-2z M61,8h1v2h-1z M65,8h2v1h-2z M68,8h1v5h-1z M70,8h1v1h-1z M72,8h1v5h-1z M73,8h2v1h-2z M76,8h2v2h-2z M78,8h1v1h-1z M12,9h1v2h-1z M16,9h1v2h-1z M18,9h1v2h-1z M23,9h2v1h-2z M28,9h4v1h-4z M41,9h1v1h-1z M44,9h1v4h-1z M45,9h1v1h-1z M49,9h1v1h-1z M51,9h1v1h-1z M53,9h1v1h-1z M63,9h3v1h-3z M67,9h1v1h-1z M69,9h1v1h-1z M73,9h1v1h-1z M79,9h1v1h-1z M5,10h5v1h-5z M14,10h1v2h-1z M22,10h1v7h-1z M24,10h1v2h-1z M26,10h1v2h-1z M28,10h1v2h-1z M30,10h1v1h-1z M34,10h1v1h-1z M38,10h1v1h-1z M40,10h1v3h-1z M42,10h1v1h-1z M46,10h1v1h-1z M48,10h1v1h-1z M50,10h1v3h-1z M54,10h1v2h-1z M58,10h1v1h-1z M62,10h1v1h-1z M64,10h1v1h-1z M66,10h1v4h-1z M70,10h1v3h-1z M74,10h1v2h-1z M76,10h1v1h-1z M78,10h1v10h-1z M80,10h1v1h-1z M83,10h5v1h-5z M13,11h1v3h-1z M19,11h1v5h-1z M29,11h1v4h-1z M41,11h1v1h-1z M43,11h1v3h-1z M47,11h1v1h-1z M51,11h1v2h-1z M53,11h1v1h-1z M63,11h1v2h-1z M73,11h1v2h-1z M75,11h1v1h-1z M4,12h1v1h-1z M6,12h1v5h-1z M10,12h2v1h-2z M15,12h2v1h-2z M18,12h1v1h-1z M21,12h1v1h-1z M23,12h1v2h-1z M25,12h1v2h-1z M27,12h1v2h-1z M31,12h1v1h-1z M33,12h3v1h-3z M37,12h3v1h-3z M42,12h1v1h-1z M45,12h2v1h-2z M55,12h1v1h-1z M57,12h1v6h-1z M58,12h2v1h-2z M61,12h2v1h-2z M65,12h1v3h-1z M69,12h1v1h-1z M76,12h2v1h-2z M79,12h2v1h-2z M83,12h1v1h-1z M86,12h1v1h-1z M88,12h1v3h-1z M11,13h1v1h-1z M14,13h1v4h-1z M17,13h1v5h-1z M24,13h1v2h-1z M28,13h1v1h-1z M30,13h1v2h-1z M34,13h1v1h-1z M38,13h1v1h-1z M41,13h1v1h-1z M46,13h1v1h-1z M48,13h2v2h-2z M61,13h1v1h-1z M64,13h1v3h-1z M79,13h1v1h-1z M87,13h1v2h-1z M5,14h1v1h-1z M10,14h1v1h-1z M15,14h1v1h-1z M18,14h1v4h-1z M20,14h1v1h-1z M26,14h1v2h-1z M32,14h2v2h-2z M35,14h1v3h-1z M47,14h1v1h-1z M51,14h1v1h-1z M55,14h1v1h-1z M59,14h1v5h-1z M62,14h1v3h-1z M68,14h1v4h-1z M70,14h1v3h-1z M73,14h1v1h-1z M75,14h1v5h-1z M77,14h1v1h-1z M80,14h7v1h-7z M4,15h1v1h-1z M12,15h2v1h-2z M27,15h1v4h-1z M31,15h1v3h-1z M39,15h3v2h-3z M43,15h2v4h-2z M63,15h1v6h-1z M66,15h1v2h-1z M72,15h1v3h-1z M80,15h3v1h-3z M84,15h3v1h-3z M5,16h1v1h-1z M7,16h1v4h-1z M10,16h1v1h-1z M13,16h1v1h-1z M24,16h1v1h-1z M28,16h2v1h-2z M37,16h2v1h-2z M42,16h1v4h-1z M45,16h2v1h-2z M49,16h3v1h-3z M53,16h4v1h-4z M60,16h1v4h-1z M65,16h1v2h-1z M69,16h1v1h-1z M73,16h2v1h-2z M76,16h2v1h-2z M80,16h1v1h-1z M84,16h1v1h-1z M86,16h3v1h-3z M8,17h2v1h-2z M15,17h1v6h-1z M21,17h1v1h-1z M23,17h1v1h-1z M25,17h1v1h-1z M28,17h1v1h-1z M30,17h1v1h-1z M32,17h1v1h-1z M36,17h1v1h-1z M38,17h1v3h-1z M41,17h1v1h-1z M46,17h1v1h-1z M48,17h1v1h-1z M50,17h2v1h-2z M56,17h1v3h-1z M58,17h1v3h-1z M67,17h1v1h-1z M76,17h1v1h-1z M82,17h1v1h-1z M87,17h2v1h-2z M4,18h3v1h-3z M10,18h2v1h-2z M13,18h1v5h-1z M16,18h1v2h-1z M20,18h1v1h-1z M26,18h1v1h-1z M34,18h2v4h-2z M39,18h2v1h-2z M51,18h2v1h-2z M62,18h1v2h-1z M64,18h1v3h-1z M66,18h1v2h-1z M70,18h1v2h-1z M74,18h1v8h-1z M79,18h2v1h-2z M83,18h1v7h-1z M84,18h4v1h-4z M5,19h1v1h-1z M8,19h2v2h-2z M12,19h1v1h-1z M14,19h1v1h-1z M18,19h2v1h-2z M21,19h4v1h-4z M31,19h1v1h-1z M33,19h1v1h-1z M36,19h2v2h-2z M39,19h1v1h-1z M41,19h1v1h-1z M45,19h1v4h-1z M46,19h1v1h-1z M49,19h1v1h-1z M51,19h1v1h-1z M61,19h1v5h-1z M65,19h1v1h-1z M68,19h1v1h-1z M72,19h1v1h-1z M76,19h2v1h-2z M80,19h1v3h-1z M4,20h1v4h-1z M6,20h1v3h-1z M10,20h2v1h-2z M17,20h1v1h-1z M19,20h1v1h-1z M23,20h2v2h-2z M29,20h2v6h-2z M32,20h1v1h-1z M43,20h1v1h-1z M48,20h1v5h-1z M50,20h1v1h-1z M54,20h1v1h-1z M57,20h1v3h-1z M59,20h1v2h-1z M67,20h1v2h-1z M69,20h1v1h-1z M73,20h1v1h-1z M76,20h1v1h-1z M81,20h2v1h-2z M84,20h1v3h-1z M87,20h1v3h-1z M88,20h1v1h-1z M8,21h1v2h-1z M11,21h1v2h-1z M14,21h1v3h-1z M16,21h1v1h-1z M18,21h1v7h-1z M22,21h1v5h-1z M25,21h1v2h-1z M27,21h1v6h-1z M28,21h1v1h-1z M31,21h1v1h-1z M33,21h1v1h-1z M37,21h1v2h-1z M44,21h1v4h-1z M47,21h1v1h-1z M49,21h1v2h-1z M51,21h1v2h-1z M55,21h2v2h-2z M62,21h1v1h-1z M66,21h1v1h-1z M72,21h1v5h-1z M77,21h1v2h-1z M7,22h1v1h-1z M9,22h1v3h-1z M10,22h1v1h-1z M12,22h1v5h-1z M19,22h2v2h-2z M34,22h1v1h-1z M36,22h1v2h-1z M41,22h1v1h-1z M43,22h1v4h-1z M46,22h1v1h-1z M52,22h1v1h-1z M54,22h1v1h-1z M58,22h1v5h-1z M63,22h1v3h-1z M73,22h1v1h-1z M75,22h1v1h-1z M79,22h1v2h-1z M81,22h2v3h-2z M86,22h1v1h-1z M5,23h1v2h-1z M16,23h1v1h-1z M21,23h1v3h-1z M23,23h2v1h-2z M31,23h1v4h-1z M33,23h1v3h-1z M35,23h1v1h-1z M38,23h2v1h-2z M47,23h1v1h-1z M59,23h1v4h-1z M62,23h1v1h-1z M64,23h1v1h-1z M66,23h2v2h-2z M68,23h1v1h-1z M70,23h1v2h-1z M76,23h1v2h-1z M78,23h1v2h-1z M6,24h1v4h-1z M7,24h2v1h-2z M10,24h1v1h-1z M13,24h1v3h-1z M15,24h1v1h-1z M20,24h1v2h-1z M25,24h1v1h-1z M32,24h1v3h-1z M34,24h1v1h-1z M41,24h2v1h-2z M45,24h2v1h-2z M50,24h1v1h-1z M54,24h3v2h-3z M57,24h1v1h-1z M60,24h1v13h-1z M65,24h1v1h-1z M69,24h1v1h-1z M73,24h1v1h-1z M77,24h1v2h-1z M80,24h1v1h-1z M86,24h3v1h-3z M4,25h1v1h-1z M8,25h1v1h-1z M14,25h1v3h-1z M16,25h1v2h-1z M23,25h1v3h-1z M24,25h1v1h-1z M35,25h1v4h-1z M37,25h4v1h-4z M42,25h1v2h-1z M46,25h1v1h-1z M49,25h1v1h-1z M52,25h1v1h-1z M61,25h1v2h-1z M64,25h1v1h-1z M67,25h1v2h-1z M71,25h1v1h-1z M81,25h1v2h-1z M85,25h1v1h-1z M87,25h1v1h-1z M5,26h1v4h-1z M9,26h3v1h-3z M17,26h1v2h-1z M26,26h1v1h-1z M30,26h1v1h-1z M36,26h1v3h-1z M38,26h3v1h-3z M44,26h1v1h-1z M47,26h2v1h-2z M50,26h1v1h-1z M53,26h3v1h-3z M57,26h1v1h-1z M63,26h1v2h-1z M75,26h2v4h-2z M78,26h1v3h-1z M86,26h1v1h-1z M7,27h3v1h-3z M15,27h1v1h-1z M20,27h1v3h-1z M21,27h1v1h-1z M24,27h1v1h-1z M29,27h1v1h-1z M33,27h2v1h-2z M39,27h3v1h-3z M43,27h1v1h-1z M45,27h1v5h-1z M46,27h2v1h-2z M54,27h1v1h-1z M62,27h1v3h-1z M66,27h1v1h-1z M68,27h1v5h-1z M70,27h2v6h-2z M79,27h1v1h-1z M84,27h2v1h-2z M87,27h1v1h-1z M4,28h1v1h-1z M8,28h1v9h-1z M9,28h2v1h-2z M16,28h1v1h-1z M19,28h1v2h-1z M22,28h1v1h-1z M27,28h1v1h-1z M30,28h2v1h-2z M37,28h3v1h-3z M42,28h1v1h-1z M46,28h1v1h-1z M50,28h1v1h-1z M52,28h1v7h-1z M55,28h5v1h-5z M64,28h2v1h-2z M67,28h1v1h-1z M69,28h1v1h-1z M73,28h1v3h-1z M74,28h1v1h-1z M80,28h2v2h-2z M83,28h2v1h-2z M86,28h1v1h-1z M88,28h1v1h-1z M6,29h1v1h-1z M11,29h3v1h-3z M17,29h1v1h-1z M23,29h2v1h-2z M26,29h1v1h-1z M28,29h1v2h-1z M30,29h1v1h-1z M38,29h1v1h-1z M48,29h1v1h-1z M51,29h1v3h-1z M53,29h3v1h-3z M57,29h1v1h-1z M82,29h1v1h-1z M7,30h1v1h-1z M9,30h2v1h-2z M12,30h2v1h-2z M21,30h2v1h-2z M24,30h1v2h-1z M29,30h1v1h-1z M31,30h3v3h-3z M35,30h2v3h-2z M37,30h1v1h-1z M39,30h2v1h-2z M43,30h2v1h-2z M46,30h1v2h-1z M50,30h1v1h-1z M54,30h1v1h-1z M59,30h1v1h-1z M63,30h1v2h-1z M66,30h1v2h-1z M69,30h1v1h-1z M74,30h1v3h-1z M76,30h1v4h-1z M78,30h1v3h-1z M79,30h1v1h-1z M85,30h2v2h-2z M88,30h1v1h-1z M5,31h2v1h-2z M13,31h4v1h-4z M18,31h3v1h-3z M23,31h1v2h-1z M26,31h1v2h-1z M30,31h1v1h-1z M40,31h2v2h-2z M44,31h1v2h-1z M55,31h1v1h-1z M57,31h2v2h-2z M61,31h2v1h-2z M67,31h1v4h-1z M72,31h1v3h-1z M80,31h1v6h-1z M81,31h1v2h-1z M84,31h1v6h-1z M4,32h1v3h-1z M6,32h1v1h-1z M9,32h4v1h-4z M14,32h1v3h-1z M18,32h1v1h-1z M20,32h1v3h-1z M22,32h1v2h-1z M28,32h2v1h-2z M34,32h1v1h-1z M38,32h1v3h-1z M42,32h1v5h-1z M43,32h1v1h-1z M48,32h1v1h-1z M50,32h1v3h-1z M54,32h1v1h-1z M56,32h1v5h-1z M59,32h1v1h-1z M64,32h2v1h-2z M69,32h1v3h-1z M73,32h1v2h-1z M77,32h1v3h-1z M82,32h2v1h-2z M86,32h1v1h-1z M7,33h1v1h-1z M12,33h1v10h-1z M15,33h3v1h-3z M19,33h1v3h-1z M24,33h1v1h-1z M27,33h2v1h-2z M30,33h1v2h-1z M32,33h1v5h-1z M36,33h1v5h-1z M39,33h2v1h-2z M45,33h1v1h-1z M47,33h1v3h-1z M51,33h1v3h-1z M62,33h1v1h-1z M71,33h1v1h-1z M75,33h1v1h-1z M88,33h1v1h-1z M10,34h1v1h-1z M13,34h1v6h-1z M17,34h1v2h-1z M23,34h1v1h-1z M27,34h1v1h-1z M29,34h1v2h-1z M34,34h1v1h-1z M37,34h1v1h-1z M43,34h1v3h-1z M46,34h1v1h-1z M49,34h1v1h-1z M55,34h1v1h-1z M58,34h1v1h-1z M63,34h1v3h-1z M65,34h1v1h-1z M70,34h1v5h-1z M74,34h1v2h-1z M79,34h1v2h-1z M82,34h1v1h-1z M87,34h1v1h-1z M5,35h1v1h-1z M16,35h1v1h-1z M18,35h1v2h-1z M21,35h1v1h-1z M24,35h2v1h-2z M28,35h1v1h-1z M31,35h1v1h-1z M39,35h1v1h-1z M41,35h1v1h-1z M44,35h1v1h-1z M54,35h1v1h-1z M61,35h2v2h-2z M68,35h1v3h-1z M71,35h1v2h-1z M75,35h1v2h-1z M78,35h1v2h-1z M4,36h1v1h-1z M6,36h1v1h-1z M9,36h3v1h-3z M14,36h2v1h-2z M22,36h1v1h-1z M26,36h1v1h-1z M30,36h1v1h-1z M33,36h3v1h-3z M37,36h2v1h-2z M46,36h1v1h-1z M50,36h1v3h-1z M57,36h3v1h-3z M65,36h2v1h-2z M69,36h1v3h-1z M73,36h1v1h-1z M76,36h2v1h-2z M81,36h2v2h-2z M83,36h1v1h-1z M85,36h1v1h-1z M87,36h2v2h-2z M5,37h1v4h-1z M11,37h1v2h-1z M15,37h3v1h-3z M24,37h1v7h-1z M27,37h1v1h-1z M35,37h1v3h-1z M39,37h2v1h-2z M49,37h1v1h-1z M53,37h1v2h-1z M55,37h1v1h-1z M57,37h1v2h-1z M59,37h1v6h-1z M64,37h1v1h-1z M66,37h1v4h-1z M67,37h1v1h-1z M77,37h1v2h-1z M4,38h1v1h-1z M7,38h2v2h-2z M10,38h1v1h-1z M14,38h1v1h-1z M18,38h1v3h-1z M19,38h1v1h-1z M21,38h1v1h-1z M23,38h1v5h-1z M25,38h1v3h-1z M28,38h1v4h-1z M30,38h1v3h-1z M31,38h1v1h-1z M34,38h1v1h-1z M43,38h2v1h-2z M46,38h3v1h-3z M51,38h2v2h-2z M54,38h1v1h-1z M63,38h1v1h-1z M65,38h1v1h-1z M71,38h1v3h-1z M74,38h2v2h-2z M80,38h1v2h-1z M82,38h3v1h-3z M86,38h2v1h-2z M9,39h1v1h-1z M15,39h1v3h-1z M17,39h1v2h-1z M22,39h1v1h-1z M26,39h2v1h-2z M29,39h1v1h-1z M32,39h2v3h-2z M36,39h1v1h-1z M39,39h1v1h-1z M44,39h1v2h-1z M47,39h1v1h-1z M55,39h2v1h-2z M60,39h1v5h-1z M64,39h1v2h-1z M73,39h1v8h-1z M76,39h1v2h-1z M78,39h2v2h-2z M83,39h2v4h-2z M85,39h1v2h-1z M4,40h1v2h-1z M10,40h1v1h-1z M16,40h1v3h-1z M19,40h3v1h-3z M34,40h1v4h-1z M37,40h2v1h-2z M42,40h1v1h-1z M45,40h2v1h-2z M49,40h2v1h-2z M52,40h3v1h-3z M56,40h1v1h-1z M58,40h1v1h-1z M61,40h1v1h-1z M65,40h1v2h-1z M68,40h3v1h-3z M72,40h1v1h-1z M75,40h1v1h-1z M77,40h1v1h-1z M87,40h2v1h-2z M6,41h1v1h-1z M14,41h1v1h-1z M19,41h1v1h-1z M21,41h1v10h-1z M26,41h2v1h-2z M29,41h1v2h-1z M31,41h1v2h-1z M46,41h2v1h-2z M51,41h1v2h-1z M53,41h2v1h-2z M57,41h1v2h-1z M62,41h1v10h-1z M69,41h1v1h-1z M79,41h2v1h-2z M82,41h1v5h-1z M5,42h1v1h-1z M7,42h2v1h-2z M10,42h1v1h-1z M17,42h1v1h-1z M20,42h1v1h-1z M22,42h1v2h-1z M32,42h1v1h-1z M36,42h2v1h-2z M39,42h1v13h-1z M41,42h4v1h-4z M47,42h1v3h-1z M48,42h1v1h-1z M52,42h1v1h-1z M54,42h3v1h-3z M63,42h1v2h-1z M66,42h2v3h-2z M70,42h1v3h-1z M71,42h1v1h-1z M75,42h1v3h-1z M78,42h1v2h-1z M81,42h1v2h-1z M85,42h2v1h-2z M4,43h1v3h-1z M6,43h2v1h-2z M9,43h1v6h-1z M25,43h1v1h-1z M27,43h1v4h-1z M28,43h1v1h-1z M35,43h1v4h-1z M43,43h1v1h-1z M46,43h1v2h-1z M49,43h1v1h-1z M58,43h1v2h-1z M72,43h1v1h-1z M74,43h1v1h-1z M77,43h1v2h-1z M80,43h1v2h-1z M84,43h1v1h-1z M86,43h2v1h-2z M10,44h1v1h-1z M17,44h1v3h-1z M18,44h1v1h-1z M23,44h1v1h-1z M30,44h3v2h-3z M36,44h3v1h-3z M40,44h1v1h-1z M42,44h1v1h-1z M45,44h1v1h-1z M50,44h2v1h-2z M54,44h1v5h-1z M57,44h1v2h-1z M61,44h1v1h-1z M64,44h2v1h-2z M68,44h2v1h-2z M79,44h1v1h-1z M83,44h1v1h-1z M87,44h2v1h-2z M5,45h1v2h-1z M12,45h1v4h-1z M13,45h1v1h-1z M19,45h1v3h-1z M20,45h1v1h-1z M24,45h1v1h-1z M28,45h1v5h-1z M29,45h1v1h-1z M36,45h1v2h-1z M51,45h1v3h-1z M56,45h1v4h-1z M59,45h1v2h-1z M65,45h1v1h-1z M76,45h1v1h-1z M78,45h1v3h-1z M81,45h1v1h-1z M84,45h1v2h-1z M86,45h1v1h-1z M7,46h1v2h-1z M10,46h2v1h-2z M14,46h1v3h-1z M16,46h1v1h-1z M18,46h1v1h-1z M22,46h2v2h-2z M26,46h1v1h-1z M30,46h1v1h-1z M32,46h2v1h-2z M40,46h1v1h-1z M42,46h2v1h-2z M45,46h1v1h-1z M47,46h2v3h-2z M52,46h2v1h-2z M55,46h1v2h-1z M58,46h1v5h-1z M61,46h1v1h-1z M63,46h1v2h-1z M66,46h3v1h-3z M70,46h1v3h-1z M71,46h1v1h-1z M75,46h1v3h-1z M83,46h1v2h-1z M85,46h1v1h-1z M4,47h1v3h-1z M8,47h1v1h-1z M13,47h1v1h-1z M15,47h1v2h-1z M20,47h1v3h-1z M25,47h1v2h-1z M29,47h1v8h-1z M31,47h1v5h-1z M33,47h1v2h-1z M41,47h1v3h-1z M43,47h1v1h-1z M46,47h1v2h-1z M53,47h1v3h-1z M60,47h1v3h-1z M66,47h1v2h-1z M69,47h1v1h-1z M72,47h1v1h-1z M74,47h1v2h-1z M81,47h2v1h-2z M88,47h1v1h-1z M6,48h1v2h-1z M10,48h2v1h-2z M22,48h1v1h-1z M24,48h1v1h-1z M27,48h1v1h-1z M35,48h2v1h-2z M38,48h1v1h-1z M40,48h1v1h-1z M42,48h1v3h-1z M50,48h1v3h-1z M57,48h1v1h-1z M59,48h1v3h-1z M61,48h1v3h-1z M64,48h1v1h-1z M73,48h1v1h-1z M77,48h1v3h-1z M79,48h2v1h-2z M82,48h1v3h-1z M85,48h1v1h-1z M7,49h1v1h-1z M13,49h1v1h-1z M16,49h1v2h-1z M18,49h2v1h-2z M26,49h1v1h-1z M32,49h1v2h-1z M36,49h1v12h-1z M45,49h1v1h-1z M49,49h1v1h-1z M52,49h1v1h-1z M55,49h1v2h-1z M65,49h1v1h-1z M76,49h1v1h-1z M83,49h1v1h-1z M86,49h3v1h-3z M9,50h2v1h-2z M12,50h1v2h-1z M15,50h1v3h-1z M23,50h2v1h-2z M27,50h1v3h-1z M30,50h1v2h-1z M33,50h2v2h-2z M38,50h1v1h-1z M40,50h1v3h-1z M43,50h1v9h-1z M44,50h1v1h-1z M47,50h2v1h-2z M54,50h1v1h-1z M56,50h1v4h-1z M63,50h1v1h-1z M66,50h2v2h-2z M70,50h2v1h-2z M74,50h2v1h-2z M78,50h3v2h-3z M85,50h1v2h-1z M87,50h2v1h-2z M4,51h1v2h-1z M8,51h1v1h-1z M13,51h1v2h-1z M18,51h1v2h-1z M22,51h1v2h-1z M25,51h1v1h-1z M28,51h1v2h-1z M35,51h1v2h-1z M47,51h1v1h-1z M52,51h1v2h-1z M69,51h1v1h-1z M71,51h1v2h-1z M74,51h1v1h-1z M76,51h1v3h-1z M81,51h1v2h-1z M83,51h2v2h-2z M10,52h2v1h-2z M14,52h1v2h-1z M16,52h2v1h-2z M20,52h2v2h-2z M33,52h1v1h-1z M38,52h1v1h-1z M42,52h1v3h-1z M44,52h1v1h-1z M46,52h1v7h-1z M49,52h2v1h-2z M53,52h2v1h-2z M58,52h2v1h-2z M61,52h1v4h-1z M62,52h2v1h-2z M65,52h2v1h-2z M68,52h1v1h-1z M70,52h1v1h-1z M73,52h1v1h-1z M77,52h3v1h-3z M82,52h1v2h-1z M87,52h2v1h-2z M6,53h4v1h-4z M19,53h1v1h-1z M23,53h2v2h-2z M34,53h1v1h-1z M41,53h1v1h-1z M48,53h1v3h-1z M50,53h2v1h-2z M54,53h1v1h-1z M60,53h1v1h-1z M69,53h1v2h-1z M72,53h1v1h-1z M75,53h1v1h-1z M79,53h2v1h-2z M85,53h1v1h-1z M88,53h1v2h-1z M7,54h1v1h-1z M9,54h5v1h-5z M17,54h2v1h-2z M20,54h1v1h-1z M26,54h1v1h-1z M30,54h2v1h-2z M38,54h1v2h-1z M40,54h1v3h-1z M44,54h1v3h-1z M45,54h1v1h-1z M47,54h1v3h-1z M51,54h2v3h-2z M55,54h1v2h-1z M63,54h1v4h-1z M66,54h2v2h-2z M71,54h1v2h-1z M74,54h1v4h-1z M78,54h1v2h-1z M84,54h1v1h-1z M86,54h2v1h-2z M4,55h1v1h-1z M9,55h1v2h-1z M12,55h1v6h-1z M15,55h1v1h-1z M19,55h1v1h-1z M28,55h1v1h-1z M30,55h1v1h-1z M32,55h1v9h-1z M33,55h3v2h-3z M37,55h1v4h-1z M49,55h1v1h-1z M53,55h2v1h-2z M56,55h1v6h-1z M62,55h1v4h-1z M70,55h1v3h-1z M76,55h1v3h-1z M77,55h1v1h-1z M81,55h1v2h-1z M83,55h1v2h-1z M6,56h3v2h-3z M10,56h2v1h-2z M13,56h2v1h-2z M16,56h2v1h-2z M20,56h3v3h-3z M23,56h3v1h-3z M29,56h1v3h-1z M39,56h1v1h-1z M41,56h1v2h-1z M45,56h1v2h-1z M50,56h1v1h-1z M54,56h1v1h-1z M57,56h4v1h-4z M65,56h2v1h-2z M68,56h2v1h-2z M72,56h1v1h-1z M79,56h2v1h-2z M82,56h1v1h-1z M84,56h1v5h-1z M5,57h1v2h-1z M13,57h1v1h-1z M15,57h1v1h-1z M17,57h2v1h-2z M23,57h1v1h-1z M27,57h2v2h-2z M30,57h1v2h-1z M38,57h1v2h-1z M49,57h1v5h-1z M52,57h2v1h-2z M60,57h1v5h-1z M64,57h1v5h-1z M65,57h1v1h-1z M75,57h1v1h-1z M77,57h1v2h-1z M80,57h1v7h-1z M87,57h2v2h-2z M8,58h1v3h-1z M10,58h1v1h-1z M16,58h1v5h-1z M17,58h1v1h-1z M19,58h1v1h-1z M34,58h1v1h-1z M39,58h2v3h-2z M47,58h1v5h-1z M48,58h1v1h-1z M51,58h2v1h-2z M58,58h1v1h-1z M66,58h1v5h-1z M67,58h1v1h-1z M71,58h1v2h-1z M79,58h1v1h-1z M82,58h1v1h-1z M85,58h2v1h-2z M4,59h1v1h-1z M6,59h1v2h-1z M15,59h1v1h-1z M18,59h1v1h-1z M21,59h1v1h-1z M26,59h1v4h-1z M51,59h1v1h-1z M65,59h1v2h-1z M70,59h1v2h-1z M75,59h1v2h-1z M86,59h1v1h-1z M5,60h1v3h-1z M9,60h3v1h-3z M14,60h1v1h-1z M17,60h1v1h-1z M19,60h1v3h-1z M20,60h1v1h-1z M23,60h1v2h-1z M25,60h1v1h-1z M28,60h1v3h-1z M30,60h1v1h-1z M33,60h3v1h-3z M38,60h1v2h-1z M41,60h2v1h-2z M44,60h1v4h-1z M48,60h1v1h-1z M50,60h1v5h-1z M53,60h3v1h-3z M57,60h3v1h-3z M61,60h3v1h-3z M67,60h1v1h-1z M69,60h1v1h-1z M72,60h3v1h-3z M76,60h1v2h-1z M78,60h2v1h-2z M81,60h3v1h-3z M87,60h2v1h-2z M4,61h1v5h-1z M7,61h1v1h-1z M9,61h1v2h-1z M13,61h1v2h-1z M15,61h1v1h-1z M18,61h1v1h-1z M21,61h2v1h-2z M29,61h1v1h-1z M34,61h2v1h-2z M42,61h1v1h-1z M53,61h1v1h-1z M79,61h1v1h-1z M81,61h1v2h-1z M87,61h1v1h-1z M6,62h1v4h-1z M10,62h3v1h-3z M14,62h1v6h-1z M20,62h1v6h-1z M22,62h1v1h-1z M27,62h1v1h-1z M31,62h1v5h-1z M33,62h1v3h-1z M35,62h1v2h-1z M40,62h1v2h-1z M43,62h1v1h-1z M45,62h1v3h-1z M48,62h1v1h-1z M51,62h2v1h-2z M56,62h4v1h-4z M62,62h1v3h-1z M67,62h2v1h-2z M70,62h2v3h-2z M74,62h2v2h-2z M82,62h1v1h-1z M84,62h3v1h-3z M7,63h2v1h-2z M11,63h1v3h-1z M18,63h1v2h-1z M25,63h1v1h-1z M30,63h1v1h-1z M36,63h1v3h-1z M38,63h2v2h-2z M41,63h2v1h-2z M46,63h1v1h-1z M49,63h1v1h-1z M53,63h5v1h-5z M59,63h1v1h-1z M63,63h1v8h-1z M64,63h1v2h-1z M68,63h1v1h-1z M73,63h1v1h-1z M78,63h2v1h-2z M87,63h1v3h-1z M9,64h2v1h-2z M12,64h2v1h-2z M15,64h1v2h-1z M19,64h1v3h-1z M22,64h1v3h-1z M28,64h1v1h-1z M34,64h1v1h-1z M48,64h1v1h-1z M51,64h1v7h-1z M53,64h1v3h-1z M55,64h2v1h-2z M58,64h1v1h-1z M60,64h2v2h-2z M66,64h2v1h-2z M76,64h3v1h-3z M81,64h2v1h-2z M88,64h1v1h-1z M7,65h3v1h-3z M12,65h1v1h-1z M16,65h1v1h-1z M23,65h1v1h-1z M25,65h3v1h-3z M29,65h2v2h-2z M37,65h2v1h-2z M41,65h2v1h-2z M44,65h1v1h-1z M47,65h1v1h-1z M54,65h1v2h-1z M57,65h1v1h-1z M59,65h1v1h-1z M67,65h2v1h-2z M72,65h2v1h-2z M77,65h1v1h-1z M80,65h1v2h-1z M82,65h1v2h-1z M85,65h1v4h-1z M86,65h1v1h-1z M5,66h1v3h-1z M8,66h1v1h-1z M10,66h1v1h-1z M18,66h1v1h-1z M24,66h1v1h-1z M26,66h1v3h-1z M28,66h1v1h-1z M32,66h1v2h-1z M34,66h2v2h-2z M39,66h2v1h-2z M42,66h1v2h-1z M48,66h1v3h-1z M52,66h1v1h-1z M55,66h1v2h-1z M62,66h1v3h-1z M64,66h1v3h-1z M68,66h1v2h-1z M71,66h1v1h-1z M73,66h1v3h-1z M75,66h1v5h-1z M76,66h1v1h-1z M78,66h2v1h-2z M81,66h1v1h-1z M83,66h2v1h-2z M6,67h2v3h-2z M11,67h1v2h-1z M13,67h1v2h-1z M15,67h3v1h-3z M27,67h1v2h-1z M33,67h1v2h-1z M36,67h1v2h-1z M38,67h1v1h-1z M40,67h2v1h-2z M43,67h2v2h-2z M47,67h1v3h-1z M49,67h1v8h-1z M58,67h1v1h-1z M60,67h1v3h-1z M66,67h2v1h-2z M69,67h1v2h-1z M77,67h1v4h-1z M78,67h1v1h-1z M86,67h1v2h-1z M8,68h2v2h-2z M10,68h1v1h-1z M12,68h1v8h-1z M16,68h4v1h-4z M21,68h1v2h-1z M23,68h2v2h-2z M28,68h4v1h-4z M34,68h1v1h-1z M39,68h1v1h-1z M41,68h1v2h-1z M50,68h1v1h-1z M52,68h3v1h-3z M56,68h2v1h-2z M59,68h1v1h-1z M61,68h1v2h-1z M65,68h1v1h-1z M67,68h1v1h-1z M71,68h1v1h-1z M76,68h1v1h-1z M79,68h1v6h-1z M81,68h1v7h-1z M82,68h1v3h-1z M84,68h1v2h-1z M88,68h1v2h-1z M4,69h1v3h-1z M14,69h2v1h-2z M17,69h2v2h-2z M20,69h1v1h-1z M25,69h1v1h-1z M28,69h1v1h-1z M30,69h1v1h-1z M37,69h1v3h-1z M42,69h2v1h-2z M53,69h2v1h-2z M57,69h1v4h-1z M66,69h1v1h-1z M74,69h1v1h-1z M83,69h1v1h-1z M87,69h1v2h-1z M5,70h1v2h-1z M10,70h1v1h-1z M16,70h1v2h-1z M19,70h1v3h-1z M24,70h1v1h-1z M26,70h2v1h-2z M31,70h3v1h-3z M36,70h1v2h-1z M38,70h2v2h-2z M40,70h1v1h-1z M42,70h1v1h-1z M45,70h1v1h-1z M50,70h1v2h-1z M52,70h1v1h-1z M54,70h1v1h-1z M59,70h1v2h-1z M62,70h1v3h-1z M67,70h1v3h-1z M69,70h1v2h-1z M71,70h1v3h-1z M76,70h1v4h-1z M8,71h1v1h-1z M14,71h1v1h-1z M20,71h2v1h-2z M27,71h1v1h-1z M31,71h1v1h-1z M34,71h1v3h-1z M44,71h1v3h-1z M47,71h2v1h-2z M60,71h1v1h-1z M64,71h2v2h-2z M66,71h1v1h-1z M68,71h1v1h-1z M73,71h1v1h-1z M78,71h1v2h-1z M85,71h1v1h-1z M6,72h1v1h-1z M9,72h2v1h-2z M13,72h1v1h-1z M17,72h2v1h-2z M20,72h1v1h-1z M24,72h1v1h-1z M26,72h1v2h-1z M28,72h1v3h-1z M29,72h1v1h-1z M33,72h1v1h-1z M35,72h1v1h-1z M41,72h3v1h-3z M47,72h1v1h-1z M52,72h5v1h-5z M61,72h1v1h-1z M75,72h1v1h-1z M82,72h1v1h-1z M86,72h3v1h-3z M5,73h1v4h-1z M8,73h2v1h-2z M16,73h1v2h-1z M21,73h1v1h-1z M23,73h1v1h-1z M30,73h1v1h-1z M32,73h1v2h-1z M36,73h2v2h-2z M39,73h1v1h-1z M45,73h1v2h-1z M50,73h1v2h-1z M54,73h1v1h-1z M59,73h2v1h-2z M66,73h1v1h-1z M69,73h1v6h-1z M73,73h1v2h-1z M83,73h1v1h-1z M88,73h1v2h-1z M6,74h2v3h-2z M10,74h1v1h-1z M13,74h1v1h-1z M15,74h1v1h-1z M17,74h2v1h-2z M20,74h1v3h-1z M24,74h2v1h-2z M27,74h1v2h-1z M35,74h1v1h-1z M38,74h1v1h-1z M40,74h1v5h-1z M46,74h3v1h-3z M56,74h1v3h-1z M58,74h1v2h-1z M60,74h2v1h-2z M63,74h1v1h-1z M67,74h2v1h-2z M71,74h2v2h-2z M78,74h1v3h-1z M80,74h1v1h-1z M82,74h1v1h-1z M84,74h3v1h-3z M4,75h1v2h-1z M9,75h1v1h-1z M14,75h1v5h-1z M18,75h1v2h-1z M25,75h1v4h-1z M29,75h3v1h-3z M34,75h1v2h-1z M37,75h1v2h-1z M41,75h1v2h-1z M43,75h2v1h-2z M51,75h1v1h-1z M55,75h1v1h-1z M59,75h1v2h-1z M64,75h2v2h-2z M66,75h1v1h-1z M68,75h1v3h-1z M74,75h1v2h-1z M83,75h1v6h-1z M86,75h2v1h-2z M10,76h2v1h-2z M13,76h1v1h-1z M15,76h2v1h-2z M19,76h1v2h-1z M21,76h2v1h-2z M24,76h1v2h-1z M28,76h1v1h-1z M30,76h1v4h-1z M32,76h1v10h-1z M33,76h1v2h-1z M36,76h1v1h-1z M43,76h1v1h-1z M45,76h1v2h-1z M48,76h2v1h-2z M52,76h3v1h-3z M57,76h1v5h-1z M60,76h1v2h-1z M62,76h1v2h-1z M67,76h1v1h-1z M71,76h1v2h-1z M75,76h1v1h-1z M77,76h1v3h-1z M79,76h1v2h-1z M81,76h2v3h-2z M84,76h1v1h-1z M87,76h2v1h-2z M7,77h1v1h-1z M9,77h1v1h-1z M11,77h1v1h-1z M16,77h1v1h-1z M22,77h1v6h-1z M26,77h2v1h-2z M39,77h1v4h-1z M47,77h1v1h-1z M49,77h2v1h-2z M58,77h1v4h-1z M66,77h1v1h-1z M72,77h2v1h-2z M87,77h1v1h-1z M4,78h3v1h-3z M8,78h1v1h-1z M10,78h1v1h-1z M15,78h1v3h-1z M21,78h1v4h-1z M26,78h1v1h-1z M28,78h2v1h-2z M31,78h1v2h-1z M34,78h2v1h-2z M37,78h1v1h-1z M41,78h1v1h-1z M43,78h2v1h-2z M46,78h1v2h-1z M48,78h1v3h-1z M50,78h1v1h-1z M59,78h1v3h-1z M63,78h1v3h-1z M65,78h1v2h-1z M73,78h1v1h-1z M75,78h1v3h-1z M78,78h1v3h-1z M80,78h1v1h-1z M84,78h3v3h-3z M5,79h1v1h-1z M7,79h1v1h-1z M9,79h1v1h-1z M16,79h1v1h-1z M19,79h1v5h-1z M20,79h1v1h-1z M23,79h1v3h-1z M24,79h1v1h-1z M27,79h1v2h-1z M36,79h1v6h-1z M43,79h1v1h-1z M45,79h1v6h-1z M52,79h2v3h-2z M54,79h1v1h-1z M56,79h1v6h-1z M60,79h1v6h-1z M61,79h1v2h-1z M67,79h1v1h-1z M70,79h2v2h-2z M74,79h1v8h-1z M81,79h1v2h-1z M88,79h1v1h-1z M4,80h1v1h-1z M10,80h2v1h-2z M13,80h1v1h-1z M17,80h1v2h-1z M26,80h1v1h-1z M29,80h1v2h-1z M33,80h3v1h-3z M38,80h1v3h-1z M41,80h2v1h-2z M47,80h1v1h-1z M50,80h1v3h-1z M51,80h1v1h-1z M55,80h1v1h-1z M62,80h1v2h-1z M64,80h1v1h-1z M68,80h2v1h-2z M72,80h1v1h-1z M76,80h2v1h-2z M79,80h2v2h-2z M82,80h1v1h-1z M12,81h1v2h-1z M14,81h1v1h-1z M18,81h1v2h-1z M28,81h1v4h-1z M30,81h2v1h-2z M37,81h1v2h-1z M44,81h1v2h-1z M46,81h1v3h-1z M65,81h1v7h-1z M69,81h2v1h-2z M77,81h1v2h-1z M84,81h1v4h-1z M87,81h1v1h-1z M4,82h7v1h-7z M13,82h1v1h-1z M15,82h1v1h-1z M24,82h1v4h-1z M27,82h1v3h-1z M31,82h1v1h-1z M34,82h1v1h-1z M39,82h2v2h-2z M43,82h1v2h-1z M47,82h1v1h-1z M49,82h1v3h-1z M53,82h1v1h-1z M55,82h1v1h-1z M58,82h1v1h-1z M63,82h1v4h-1z M64,82h1v1h-1z M67,82h1v1h-1z M69,82h1v1h-1z M71,82h1v3h-1z M75,82h1v7h-1z M76,82h1v1h-1z M78,82h1v6h-1z M80,82h1v3h-1z M82,82h1v1h-1z M4,83h1v6h-1z M10,83h1v6h-1z M14,83h1v1h-1z M17,83h1v3h-1z M41,83h1v6h-1z M42,83h1v1h-1z M52,83h1v2h-1z M68,83h1v2h-1z M70,83h1v2h-1z M85,83h1v3h-1z M87,83h1v1h-1z M6,84h3v3h-3z M13,84h1v4h-1z M15,84h1v1h-1z M18,84h1v2h-1z M20,84h1v3h-1z M22,84h2v1h-2z M25,84h1v1h-1z M29,84h3v1h-3z M33,84h3v1h-3z M37,84h1v2h-1z M39,84h1v1h-1z M44,84h1v1h-1z M47,84h1v4h-1z M53,84h2v1h-2z M57,84h3v1h-3z M62,84h1v1h-1z M69,84h1v3h-1z M73,84h1v3h-1z M76,84h2v1h-2z M79,84h1v1h-1z M81,84h3v2h-3z M16,85h1v2h-1z M21,85h1v2h-1z M30,85h1v1h-1z M33,85h1v2h-1z M38,85h1v1h-1z M42,85h1v3h-1z M54,85h1v1h-1z M66,85h1v1h-1z M76,85h1v1h-1z M86,85h1v4h-1z M12,86h1v1h-1z M15,86h1v2h-1z M26,86h2v1h-2z M34,86h3v2h-3z M39,86h2v1h-2z M45,86h1v1h-1z M48,86h1v1h-1z M51,86h2v1h-2z M55,86h1v1h-1z M57,86h4v1h-4z M62,86h1v2h-1z M67,86h1v3h-1z M72,86h1v1h-1z M79,86h1v3h-1z M80,86h1v1h-1z M82,86h1v1h-1z M87,86h2v1h-2z M17,87h2v1h-2z M22,87h2v1h-2z M26,87h1v1h-1z M28,87h1v1h-1z M32,87h1v1h-1z M37,87h2v1h-2z M44,87h1v2h-1z M49,87h3v1h-3z M58,87h1v2h-1z M60,87h2v1h-2z M64,87h1v2h-1z M66,87h1v1h-1z M70,87h1v2h-1z M85,87h1v1h-1z M5,88h5v1h-5z M12,88h1v1h-1z M17,88h1v1h-1z M19,88h1v1h-1z M21,88h1v1h-1z M23,88h2v1h-2z M30,88h2v1h-2z M33,88h3v1h-3z M43,88h1v1h-1z M45,88h2v1h-2z M50,88h1v1h-1z M54,88h2v1h-2z M60,88h1v1h-1z M68,88h2v1h-2z M73,88h2v1h-2z M77,88h1v1h-1z M81,88h4v1h-4z M88,88h1v1h-1z" fill="#000000"/>
</svg>
