<?xml version="1.0" encoding="UTF-8"?>
<!DOCTYPE svg PUBLIC "-//W3C//DTD SVG 1.1//EN" "http://www.w3.org/Graphics/SVG/1.1/DTD/svg11.dtd">
<svg xmlns="http://www.w3.org/2000/svg" version="1.1" viewBox="0 0 93 93" stroke="none">
	<rect width="100%" height="100%" fill="#ffffff"/>
	<path d="M4,4h7v1h-7z M12,4h1v1h-1z M14,4h9v2h-9z M25,4h3v1h-3z M29,4h1v1h-1z M32,4h3v1h-3z M36,4h3v2h-3z M40,4h2v1h-2z M44,4h6v1h-6z M52,4h1v1h-1z M54,4h3v1h-3z M58,4h1v3h-1z M60,4h1v1h-1z M62,4h3v2h-3z M66,4h1v3h-1z M68,4h1v2h-1z M70,4h5v1h-5z M76,4h3v2h-3z M80,4h1v1h-1z M82,4h7v1h-7z M4,5h1v6h-1z M10,5h1v6h-1z M13,5h1v4h-1z M24,5h1v2h-1z M27,5h2v1h-2z M30,5h1v3h-1z M34,5h2v1h-2z M46,5h1v1h-1z M48,5h1v1h-1z M53,5h2v2h-2z M69,5h1v2h-1z M72,5h2v2h-2z M79,5h1v1h-1z M82,5h1v6h-1z M88,5h1v6h-1z M6,6h3v3h-3z M12,6h1v1h-1z M15,6h1v1h-1z M18,6h6v1h-6z M25,6h1v3h-1z M33,6h1v1h-1z M35,6h1v3h-1z M37,6h1v4h-1z M38,6h2v1h-2z M41,6h2v1h-2z M44,6h1v1h-1z M49,6h3v1h-3z M56,6h1v8h-1z M57,6h1v3h-1z M59,6h2v1h-2z M63,6h1v1h-1z M65,6h1v1h-1z M67,6h1v2h-1z M76,6h1v1h-1z M78,6h1v1h-1z M84,6h3v3h-3z M14,7h1v7h-1z M16,7h1v1h-1z M21,7h3v1h-3z M27,7h2v1h-2z M34,7h1v2h-1z M36,7h1v12h-1z M39,7h1v1h-1z M46,7h1v1h-1z M48,7h1v2h-1z M50,7h2v1h-2z M55,7h1v2h-1z M60,7h1v6h-1z M64,7h1v1h-1z M75,7h1v2h-1z M79,7h1v1h-1z M15,8h1v1h-1z M19,8h1v2h-1z M21,8h1v1h-1z M24,8h1v1h-1z M26,8h1v1h-1z M32,8h1v5h-1z M33,8h1v1h-1z M38,8h1v1h-1z M41,8h1v2h-1z M44,8h1v1h-1z M47,8h1v1h-1z M52,8h1v7h-1z M53,8h1v2h-1z M58,8h2v1h-2z M61,8h1v2h-1z M65,8h2v1h-2z M68,8h1v5h-1z M70,8h1v1h-1z M72,8h1v5h-1z M73,8h2v1h-2z M76,8h1v3h-1z M78,8h1v1h-1z M12,9h1v2h-1z M16,9h1v2h-1z M18,9h1v3h-1z M20,9h1v3h-1z M23,9h1v1h-1z M29,9h3v1h-3z M39,9h2v1h-2z M45,9h1v1h-1z M49,9h1v1h-1z M51,9h1v1h-1z M54,9h1v4h-1z M63,9h1v1h-1z M65,9h1v1h-1z M67,9h1v1h-1z M69,9h1v1h-1z M73,9h1v1h-1z M77,9h1v1h-1z M79,9h1v1h-1z M5,10h5v1h-5z M22,10h1v7h-1z M24,10h1v1h-1z M26,10h1v2h-1z M28,10h1v1h-1z M30,10h1v1h-1z M34,10h1v1h-1z M38,10h1v1h-1z M40,10h1v2h-1z M42,10h1v1h-1z M44,10h1v3h-1z M46,10h1v1h-1z M48,10h1v1h-1z M50,10h1v3h-1z M58,10h1v1h-1z M62,10h1v1h-1z M64,10h1v4h-1z M66,10h1v4h-1z M70,10h1v3h-1z M74,10h1v2h-1z M78,10h1v1h-1z M80,10h1v2h-1z M83,10h5v1h-5z M17,11h1v2h-1z M27,11h1v2h-1z M29,11h1v4h-1z M39,11h1v2h-1z M41,11h1v1h-1z M43,11h1v2h-1z M47,11h1v1h-1z M51,11h1v2h-1z M53,11h1v2h-1z M75,11h1v1h-1z M77,11h1v2h-1z M4,12h1v1h-1z M6,12h1v5h-1z M10,12h2v1h-2z M15,12h2v1h-2z M19,12h1v4h-1z M21,12h1v1h-1z M23,12h1v1h-1z M25,12h1v2h-1z M28,12h1v2h-1z M31,12h1v1h-1z M33,12h3v1h-3z M37,12h2v1h-2z M42,12h1v1h-1z M45,12h2v1h-2z M55,12h1v1h-1z M57,12h1v6h-1z M58,12h2v1h-2z M61,12h3v1h-3z M65,12h1v3h-1z M69,12h1v1h-1z M73,12h1v1h-1z M76,12h1v1h-1z M79,12h1v4h-1z M83,12h1v2h-1z M86,12h1v1h-1z M88,12h1v3h-1z M9,13h1v1h-1z M11,13h1v2h-1z M18,13h1v2h-1z M24,13h1v9h-1z M30,13h1v2h-1z M34,13h1v1h-1z M38,13h1v1h-1z M41,13h1v1h-1z M46,13h1v1h-1z M48,13h2v2h-2z M61,13h1v1h-1z M74,13h1v2h-1z M78,13h1v7h-1z M80,13h1v1h-1z M87,13h1v2h-1z M5,14h1v1h-1z M10,14h1v1h-1z M15,14h1v1h-1z M17,14h1v3h-1z M20,14h1v1h-1z M23,14h1v1h-1z M26,14h2v2h-2z M32,14h2v2h-2z M39,14h2v3h-2z M43,14h2v1h-2z M47,14h1v7h-1z M51,14h1v1h-1z M53,14h1v1h-1z M55,14h1v1h-1z M59,14h1v5h-1z M62,14h1v3h-1z M70,14h1v3h-1z M75,14h1v5h-1z M81,14h2v2h-2z M4,15h1v2h-1z M9,15h1v1h-1z M12,15h1v2h-1z M31,15h1v4h-1z M35,15h1v1h-1z M41,15h1v3h-1z M44,15h1v6h-1z M63,15h1v1h-1z M66,15h1v2h-1z M68,15h1v1h-1z M72,15h1v3h-1z M80,15h1v2h-1z M84,15h3v1h-3z M5,16h1v5h-1z M7,16h1v4h-1z M8,16h1v1h-1z M10,16h2v1h-2z M14,16h1v1h-1z M18,16h1v1h-1z M29,16h1v1h-1z M37,16h2v1h-2z M42,16h1v4h-1z M43,16h1v1h-1z M45,16h2v1h-2z M48,16h1v1h-1z M50,16h2v3h-2z M53,16h4v1h-4z M60,16h1v4h-1z M64,16h2v1h-2z M67,16h1v1h-1z M69,16h1v1h-1z M73,16h1v1h-1z M76,16h2v1h-2z M82,16h3v1h-3z M86,16h3v1h-3z M13,17h1v1h-1z M15,17h1v6h-1z M21,17h1v1h-1z M25,17h1v1h-1z M27,17h1v3h-1z M30,17h1v1h-1z M35,17h1v1h-1z M38,17h1v3h-1z M46,17h1v1h-1z M56,17h1v3h-1z M58,17h1v3h-1z M65,17h1v1h-1z M76,17h1v1h-1z M87,17h2v1h-2z M6,18h1v1h-1z M9,18h2v1h-2z M12,18h1v1h-1z M14,18h1v1h-1z M16,18h1v2h-1z M20,18h1v1h-1z M23,18h1v1h-1z M26,18h1v1h-1z M29,18h1v1h-1z M34,18h1v5h-1z M39,18h2v1h-2z M48,18h1v3h-1z M49,18h1v1h-1z M52,18h1v1h-1z M62,18h3v2h-3z M66,18h3v2h-3z M70,18h1v3h-1z M73,18h1v1h-1z M79,18h2v1h-2z M82,18h4v1h-4z M87,18h1v1h-1z M11,19h1v2h-1z M13,19h1v4h-1z M18,19h2v1h-2z M21,19h2v1h-2z M30,19h1v2h-1z M32,19h2v1h-2z M37,19h1v4h-1z M39,19h1v1h-1z M41,19h1v1h-1z M45,19h1v4h-1z M46,19h1v1h-1z M51,19h1v1h-1z M53,19h1v4h-1z M54,19h1v1h-1z M61,19h1v5h-1z M65,19h1v1h-1z M72,19h1v1h-1z M76,19h2v1h-2z M80,19h1v3h-1z M83,19h1v6h-1z M85,19h1v9h-1z M4,20h1v1h-1z M6,20h1v3h-1z M8,20h1v1h-1z M10,20h1v1h-1z M17,20h1v1h-1z M19,20h1v1h-1z M23,20h1v2h-1z M29,20h1v1h-1z M31,20h1v6h-1z M43,20h1v2h-1z M49,20h2v1h-2z M59,20h1v2h-1z M63,20h2v1h-2z M67,20h1v1h-1z M69,20h1v2h-1z M73,20h2v1h-2z M76,20h1v1h-1z M81,20h2v1h-2z M84,20h1v3h-1z M87,20h1v3h-1z M88,20h1v1h-1z M9,21h1v1h-1z M16,21h1v1h-1z M18,21h1v7h-1z M22,21h1v5h-1z M25,21h1v2h-1z M32,21h2v1h-2z M35,21h2v2h-2z M50,21h2v1h-2z M54,21h3v2h-3z M58,21h1v1h-1z M62,21h1v1h-1z M66,21h1v1h-1z M68,21h1v1h-1z M72,21h1v1h-1z M77,21h1v2h-1z M86,21h1v2h-1z M4,22h1v1h-1z M7,22h2v1h-2z M10,22h3v1h-3z M19,22h2v2h-2z M27,22h1v2h-1z M30,22h1v3h-1z M41,22h1v1h-1z M44,22h1v3h-1z M46,22h3v1h-3z M51,22h1v7h-1z M52,22h1v1h-1z M57,22h1v1h-1z M63,22h1v3h-1z M67,22h1v2h-1z M70,22h1v2h-1z M74,22h1v4h-1z M75,22h1v1h-1z M79,22h1v2h-1z M81,22h2v3h-2z M9,23h1v1h-1z M12,23h1v4h-1z M16,23h1v1h-1z M21,23h1v3h-1z M23,23h2v1h-2z M29,23h1v1h-1z M32,23h2v2h-2z M36,23h1v2h-1z M38,23h2v1h-2z M43,23h1v3h-1z M48,23h1v2h-1z M58,23h2v2h-2z M62,23h1v1h-1z M64,23h1v1h-1z M66,23h1v2h-1z M69,23h1v2h-1z M71,23h1v2h-1z M76,23h1v2h-1z M78,23h1v2h-1z M4,24h1v1h-1z M6,24h1v4h-1z M7,24h2v1h-2z M10,24h1v1h-1z M13,24h2v3h-2z M15,24h1v1h-1z M20,24h1v2h-1z M25,24h1v1h-1z M34,24h2v1h-2z M41,24h2v1h-2z M45,24h3v1h-3z M49,24h2v1h-2z M52,24h1v1h-1z M54,24h3v2h-3z M60,24h1v6h-1z M65,24h1v1h-1z M68,24h1v1h-1z M72,24h2v1h-2z M77,24h1v2h-1z M80,24h1v1h-1z M86,24h3v1h-3z M5,25h1v1h-1z M8,25h1v1h-1z M16,25h1v3h-1z M23,25h1v3h-1z M24,25h1v1h-1z M33,25h1v1h-1z M37,25h4v1h-4z M42,25h1v2h-1z M46,25h1v1h-1z M59,25h1v2h-1z M61,25h1v2h-1z M64,25h1v1h-1z M70,25h1v1h-1z M81,25h1v2h-1z M87,25h1v1h-1z M4,26h1v1h-1z M9,26h3v1h-3z M17,26h1v2h-1z M26,26h5v1h-5z M32,26h1v3h-1z M36,26h1v1h-1z M38,26h3v1h-3z M44,26h1v1h-1z M47,26h2v1h-2z M52,26h4v1h-4z M63,26h1v2h-1z M67,26h1v1h-1z M71,26h1v4h-1z M75,26h2v4h-2z M78,26h1v3h-1z M86,26h1v1h-1z M7,27h3v1h-3z M14,27h2v1h-2z M20,27h1v3h-1z M21,27h1v1h-1z M24,27h1v1h-1z M26,27h1v2h-1z M29,27h1v1h-1z M33,27h2v1h-2z M39,27h3v1h-3z M43,27h1v1h-1z M45,27h1v4h-1z M46,27h2v1h-2z M49,27h1v4h-1z M50,27h1v1h-1z M52,27h1v2h-1z M54,27h1v1h-1z M58,27h1v1h-1z M62,27h1v3h-1z M66,27h1v1h-1z M68,27h1v5h-1z M70,27h1v2h-1z M79,27h1v1h-1z M84,27h1v2h-1z M87,27h1v1h-1z M8,28h1v9h-1z M9,28h2v1h-2z M19,28h1v2h-1z M22,28h1v1h-1z M27,28h1v1h-1z M30,28h2v1h-2z M35,28h1v2h-1z M37,28h3v1h-3z M42,28h1v1h-1z M55,28h3v1h-3z M64,28h2v1h-2z M67,28h1v1h-1z M69,28h1v1h-1z M73,28h1v3h-1z M74,28h1v1h-1z M80,28h2v2h-2z M83,28h1v1h-1z M86,28h1v1h-1z M88,28h1v1h-1z M5,29h2v1h-2z M11,29h3v1h-3z M15,29h2v2h-2z M17,29h1v1h-1z M23,29h2v1h-2z M28,29h1v2h-1z M38,29h1v1h-1z M46,29h2v1h-2z M50,29h1v2h-1z M53,29h3v1h-3z M57,29h1v2h-1z M65,29h1v4h-1z M72,29h1v1h-1z M82,29h1v1h-1z M4,30h2v1h-2z M7,30h1v1h-1z M9,30h2v1h-2z M12,30h2v1h-2z M21,30h2v1h-2z M24,30h1v2h-1z M31,30h1v2h-1z M33,30h2v3h-2z M37,30h1v1h-1z M39,30h2v1h-2z M43,30h2v1h-2z M51,30h2v1h-2z M54,30h1v1h-1z M59,30h1v3h-1z M63,30h1v2h-1z M74,30h1v3h-1z M78,30h1v3h-1z M79,30h1v1h-1z M85,30h2v2h-2z M88,30h1v1h-1z M6,31h1v2h-1z M13,31h2v1h-2z M18,31h3v1h-3z M23,31h1v2h-1z M25,31h2v1h-2z M30,31h1v1h-1z M35,31h1v2h-1z M40,31h1v3h-1z M44,31h1v2h-1z M51,31h1v1h-1z M55,31h1v1h-1z M60,31h1v6h-1z M61,31h2v1h-2z M66,31h2v1h-2z M70,31h1v2h-1z M72,31h1v1h-1z M75,31h1v6h-1z M80,31h1v6h-1z M81,31h1v2h-1z M84,31h1v6h-1z M4,32h1v5h-1z M9,32h4v1h-4z M14,32h1v3h-1z M16,32h1v2h-1z M18,32h1v1h-1z M20,32h1v3h-1z M22,32h1v2h-1z M28,32h1v2h-1z M32,32h1v7h-1z M36,32h1v6h-1z M38,32h1v3h-1z M41,32h2v2h-2z M43,32h1v1h-1z M45,32h2v1h-2z M48,32h1v1h-1z M50,32h1v3h-1z M54,32h1v1h-1z M56,32h1v11h-1z M57,32h2v1h-2z M64,32h1v1h-1z M67,32h1v3h-1z M69,32h1v3h-1z M73,32h1v2h-1z M77,32h1v3h-1z M82,32h2v1h-2z M86,32h1v1h-1z M5,33h1v1h-1z M12,33h1v10h-1z M17,33h1v3h-1z M19,33h1v3h-1z M24,33h1v1h-1z M27,33h1v2h-1z M29,33h1v2h-1z M39,33h1v1h-1z M47,33h1v3h-1z M62,33h1v1h-1z M66,33h1v3h-1z M71,33h2v1h-2z M76,33h1v5h-1z M88,33h1v1h-1z M10,34h1v1h-1z M13,34h1v6h-1z M15,34h1v2h-1z M23,34h1v1h-1z M26,34h1v1h-1z M34,34h1v1h-1z M37,34h1v1h-1z M42,34h2v1h-2z M49,34h1v1h-1z M51,34h2v1h-2z M58,34h1v1h-1z M63,34h1v3h-1z M70,34h1v5h-1z M74,34h1v2h-1z M79,34h1v2h-1z M82,34h1v1h-1z M87,34h1v1h-1z M5,35h2v1h-2z M18,35h1v2h-1z M21,35h2v1h-2z M24,35h2v1h-2z M28,35h1v1h-1z M31,35h1v2h-1z M39,35h1v1h-1z M43,35h4v1h-4z M51,35h1v1h-1z M54,35h1v1h-1z M62,35h1v4h-1z M68,35h1v3h-1z M71,35h1v2h-1z M78,35h1v2h-1z M6,36h1v1h-1z M9,36h3v1h-3z M14,36h1v1h-1z M25,36h2v1h-2z M33,36h3v1h-3z M37,36h2v1h-2z M41,36h3v1h-3z M45,36h1v3h-1z M50,36h1v3h-1z M55,36h1v1h-1z M57,36h3v1h-3z M65,36h1v1h-1z M69,36h1v3h-1z M73,36h1v1h-1z M77,36h1v3h-1z M81,36h2v2h-2z M83,36h1v1h-1z M85,36h1v1h-1z M87,36h2v2h-2z M5,37h1v4h-1z M7,37h1v4h-1z M11,37h1v2h-1z M16,37h2v1h-2z M19,37h3v1h-3z M24,37h1v7h-1z M26,37h1v4h-1z M27,37h1v1h-1z M34,37h2v3h-2z M39,37h3v1h-3z M46,37h1v2h-1z M49,37h1v1h-1z M53,37h1v2h-1z M58,37h2v2h-2z M64,37h1v1h-1z M67,37h1v1h-1z M4,38h1v1h-1z M6,38h1v1h-1z M8,38h1v2h-1z M10,38h1v1h-1z M14,38h2v1h-2z M18,38h1v3h-1z M20,38h4v1h-4z M25,38h1v1h-1z M28,38h1v4h-1z M30,38h2v2h-2z M33,38h1v4h-1z M43,38h2v1h-2z M47,38h2v1h-2z M51,38h2v2h-2z M54,38h2v1h-2z M57,38h1v1h-1z M63,38h1v1h-1z M65,38h1v1h-1z M71,38h1v3h-1z M74,38h1v2h-1z M80,38h1v2h-1z M82,38h3v1h-3z M86,38h2v1h-2z M9,39h1v1h-1z M15,39h1v7h-1z M16,39h2v1h-2z M21,39h3v1h-3z M27,39h1v1h-1z M29,39h1v1h-1z M36,39h1v1h-1z M39,39h1v1h-1z M44,39h1v2h-1z M47,39h1v1h-1z M59,39h1v2h-1z M64,39h1v2h-1z M73,39h1v8h-1z M75,39h1v1h-1z M78,39h2v2h-2z M83,39h2v4h-2z M85,39h1v2h-1z M4,40h1v2h-1z M10,40h1v1h-1z M17,40h1v1h-1z M20,40h2v2h-2z M23,40h1v3h-1z M30,40h1v1h-1z M32,40h1v3h-1z M38,40h1v4h-1z M41,40h2v1h-2z M45,40h2v1h-2z M49,40h2v1h-2z M52,40h3v1h-3z M58,40h1v1h-1z M60,40h1v1h-1z M62,40h1v2h-1z M65,40h2v1h-2z M68,40h3v1h-3z M72,40h1v1h-1z M76,40h2v1h-2z M87,40h2v1h-2z M6,41h1v1h-1z M14,41h1v1h-1z M19,41h1v1h-1z M22,41h1v1h-1z M25,41h1v1h-1z M27,41h1v1h-1z M29,41h1v2h-1z M31,41h1v2h-1z M37,41h1v1h-1z M46,41h2v1h-2z M51,41h1v2h-1z M53,41h2v1h-2z M57,41h1v2h-1z M65,41h1v1h-1z M69,41h1v1h-1z M79,41h2v1h-2z M82,41h1v5h-1z M88,41h1v1h-1z M5,42h1v1h-1z M7,42h1v4h-1z M8,42h1v1h-1z M10,42h1v1h-1z M17,42h1v3h-1z M34,42h1v1h-1z M36,42h1v1h-1z M39,42h1v1h-1z M43,42h2v1h-2z M47,42h1v3h-1z M48,42h1v1h-1z M52,42h1v1h-1z M54,42h2v1h-2z M60,42h2v1h-2z M63,42h1v2h-1z M66,42h2v3h-2z M70,42h1v3h-1z M71,42h1v1h-1z M75,42h1v3h-1z M78,42h1v2h-1z M81,42h1v2h-1z M85,42h2v1h-2z M4,43h1v3h-1z M6,43h1v1h-1z M9,43h1v6h-1z M16,43h1v2h-1z M19,43h1v1h-1z M22,43h1v1h-1z M25,43h3v3h-3z M28,43h1v1h-1z M35,43h1v4h-1z M37,43h1v3h-1z M41,43h1v7h-1z M42,43h2v1h-2z M46,43h1v2h-1z M49,43h1v1h-1z M58,43h2v2h-2z M72,43h1v1h-1z M74,43h1v1h-1z M77,43h1v2h-1z M80,43h1v2h-1z M84,43h1v1h-1z M86,43h2v1h-2z M10,44h1v1h-1z M20,44h2v1h-2z M23,44h1v2h-1z M30,44h3v2h-3z M34,44h1v3h-1z M36,44h1v3h-1z M45,44h1v1h-1z M50,44h2v1h-2z M54,44h1v5h-1z M56,44h2v1h-2z M62,44h1v1h-1z M64,44h2v1h-2z M68,44h2v1h-2z M79,44h1v1h-1z M83,44h1v1h-1z M87,44h2v2h-2z M5,45h2v1h-2z M12,45h1v4h-1z M13,45h1v1h-1z M18,45h1v3h-1z M20,45h1v1h-1z M24,45h1v1h-1z M28,45h1v5h-1z M29,45h1v1h-1z M40,45h1v1h-1z M42,45h1v2h-1z M51,45h1v3h-1z M57,45h1v1h-1z M59,45h1v2h-1z M65,45h1v1h-1z M76,45h1v1h-1z M78,45h1v4h-1z M81,45h1v1h-1z M84,45h1v2h-1z M86,45h1v1h-1z M5,46h1v1h-1z M10,46h2v1h-2z M14,46h1v3h-1z M16,46h2v1h-2z M22,46h1v1h-1z M27,46h1v1h-1z M30,46h1v1h-1z M32,46h1v1h-1z M43,46h1v2h-1z M45,46h1v1h-1z M47,46h2v3h-2z M52,46h2v1h-2z M55,46h2v1h-2z M58,46h1v5h-1z M61,46h1v1h-1z M63,46h1v2h-1z M66,46h3v1h-3z M70,46h1v3h-1z M71,46h1v1h-1z M75,46h1v3h-1z M83,46h1v2h-1z M85,46h1v1h-1z M88,46h1v1h-1z M4,47h1v3h-1z M8,47h1v1h-1z M13,47h1v1h-1z M19,47h1v3h-1z M20,47h1v1h-1z M25,47h1v2h-1z M29,47h1v8h-1z M31,47h1v5h-1z M33,47h1v4h-1z M39,47h2v2h-2z M46,47h1v2h-1z M53,47h1v3h-1z M56,47h1v1h-1z M60,47h1v3h-1z M62,47h1v4h-1z M66,47h1v2h-1z M69,47h1v1h-1z M72,47h1v1h-1z M74,47h1v2h-1z M81,47h2v1h-2z M7,48h1v1h-1z M10,48h2v1h-2z M15,48h1v1h-1z M22,48h1v2h-1z M24,48h1v1h-1z M27,48h1v1h-1z M35,48h2v1h-2z M42,48h1v3h-1z M50,48h1v3h-1z M55,48h1v2h-1z M57,48h1v1h-1z M59,48h1v3h-1z M61,48h1v3h-1z M64,48h1v1h-1z M73,48h1v1h-1z M77,48h1v2h-1z M79,48h2v1h-2z M82,48h1v3h-1z M85,48h1v1h-1z M87,48h2v2h-2z M6,49h1v1h-1z M13,49h1v3h-1z M16,49h2v2h-2z M20,49h1v1h-1z M26,49h1v1h-1z M32,49h1v2h-1z M36,49h1v12h-1z M45,49h1v1h-1z M49,49h1v1h-1z M52,49h1v1h-1z M56,49h1v1h-1z M65,49h1v1h-1z M76,49h1v1h-1z M83,49h1v1h-1z M86,49h1v1h-1z M7,50h1v5h-1z M9,50h2v1h-2z M12,50h1v2h-1z M15,50h1v3h-1z M23,50h2v1h-2z M27,50h1v2h-1z M30,50h1v2h-1z M34,50h1v2h-1z M39,50h2v1h-2z M43,50h2v1h-2z M47,50h2v1h-2z M54,50h1v2h-1z M63,50h2v1h-2z M66,50h2v2h-2z M70,50h2v1h-2z M74,50h2v1h-2z M78,50h1v3h-1z M85,50h1v2h-1z M88,50h1v1h-1z M4,51h1v2h-1z M6,51h1v1h-1z M8,51h1v1h-1z M11,51h1v1h-1z M14,51h1v1h-1z M18,51h5v1h-5z M24,51h2v1h-2z M28,51h1v3h-1z M35,51h1v2h-1z M37,51h1v4h-1z M38,51h1v1h-1z M40,51h1v4h-1z M47,51h1v1h-1z M52,51h1v2h-1z M55,51h2v1h-2z M64,51h1v1h-1z M69,51h1v1h-1z M71,51h1v2h-1z M74,51h1v1h-1z M76,51h2v2h-2z M81,51h1v2h-1z M83,51h2v2h-2z M10,52h1v1h-1z M16,52h1v1h-1z M22,52h1v1h-1z M42,52h1v3h-1z M46,52h1v7h-1z M49,52h2v1h-2z M56,52h1v2h-1z M58,52h2v1h-2z M61,52h1v4h-1z M62,52h2v1h-2z M65,52h2v1h-2z M68,52h1v1h-1z M70,52h1v1h-1z M73,52h1v1h-1z M82,52h1v2h-1z M88,52h1v1h-1z M6,53h1v1h-1z M8,53h1v8h-1z M9,53h1v1h-1z M13,53h1v3h-1z M18,53h1v3h-1z M23,53h2v1h-2z M38,53h2v2h-2z M41,53h1v1h-1z M44,53h1v1h-1z M48,53h1v3h-1z M50,53h2v1h-2z M53,53h2v1h-2z M60,53h1v1h-1z M63,53h1v4h-1z M64,53h1v1h-1z M69,53h1v2h-1z M72,53h1v1h-1z M75,53h2v1h-2z M79,53h2v2h-2z M85,53h1v1h-1z M10,54h1v1h-1z M14,54h1v2h-1z M19,54h2v1h-2z M22,54h1v1h-1z M24,54h1v2h-1z M26,54h2v1h-2z M30,54h2v1h-2z M45,54h1v1h-1z M47,54h1v3h-1z M51,54h2v3h-2z M54,54h2v1h-2z M66,54h2v2h-2z M71,54h1v2h-1z M74,54h1v3h-1z M84,54h1v1h-1z M86,54h2v1h-2z M4,55h1v1h-1z M11,55h2v2h-2z M15,55h1v1h-1z M17,55h1v2h-1z M27,55h1v3h-1z M30,55h1v1h-1z M32,55h1v9h-1z M33,55h3v2h-3z M39,55h1v1h-1z M43,55h2v2h-2z M49,55h1v1h-1z M55,55h2v1h-2z M62,55h1v4h-1z M64,55h1v2h-1z M70,55h1v3h-1z M76,55h1v3h-1z M79,55h1v2h-1z M81,55h1v2h-1z M83,55h1v2h-1z M87,55h1v4h-1z M6,56h2v2h-2z M9,56h2v1h-2z M16,56h1v1h-1z M20,56h3v3h-3z M25,56h1v1h-1z M28,56h2v1h-2z M38,56h1v1h-1z M41,56h1v2h-1z M45,56h1v2h-1z M50,56h1v1h-1z M53,56h2v1h-2z M56,56h5v1h-5z M65,56h2v1h-2z M68,56h2v1h-2z M72,56h2v1h-2z M77,56h1v1h-1z M80,56h1v5h-1z M82,56h1v1h-1z M84,56h1v5h-1z M88,56h1v3h-1z M5,57h1v2h-1z M12,57h4v1h-4z M24,57h1v1h-1z M29,57h2v2h-2z M40,57h1v1h-1z M49,57h1v2h-1z M52,57h1v2h-1z M56,57h1v4h-1z M60,57h1v5h-1z M65,57h1v1h-1z M73,57h1v2h-1z M75,57h1v1h-1z M78,57h1v4h-1z M10,58h1v1h-1z M12,58h1v3h-1z M14,58h1v2h-1z M16,58h1v5h-1z M19,58h1v1h-1z M23,58h1v3h-1z M28,58h1v3h-1z M34,58h1v1h-1z M38,58h1v1h-1z M43,58h1v3h-1z M44,58h1v1h-1z M47,58h2v1h-2z M51,58h1v2h-1z M53,58h1v1h-1z M58,58h1v1h-1z M63,58h1v1h-1z M66,58h1v5h-1z M67,58h2v1h-2z M71,58h1v2h-1z M82,58h1v1h-1z M86,58h1v3h-1z M4,59h1v2h-1z M6,59h1v2h-1z M15,59h1v1h-1z M17,59h1v2h-1z M21,59h1v1h-1z M24,59h1v1h-1z M26,59h1v4h-1z M37,59h1v4h-1z M39,59h2v2h-2z M64,59h2v2h-2z M68,59h1v1h-1z M70,59h1v2h-1z M74,59h2v1h-2z M79,59h1v1h-1z M5,60h1v2h-1z M9,60h3v1h-3z M13,60h1v1h-1z M19,60h1v3h-1z M20,60h1v1h-1z M25,60h1v1h-1z M30,60h1v1h-1z M33,60h3v1h-3z M38,60h1v1h-1z M41,60h2v1h-2z M49,60h1v2h-1z M53,60h3v1h-3z M57,60h3v1h-3z M61,60h2v1h-2z M67,60h1v7h-1z M69,60h1v1h-1z M72,60h1v1h-1z M75,60h2v1h-2z M81,60h3v1h-3z M85,60h1v1h-1z M87,60h2v1h-2z M7,61h1v1h-1z M11,61h1v1h-1z M14,61h2v1h-2z M18,61h1v4h-1z M21,61h2v1h-2z M27,61h1v3h-1z M29,61h1v1h-1z M34,61h2v1h-2z M42,61h1v1h-1z M48,61h1v1h-1z M50,61h1v2h-1z M63,61h2v1h-2z M76,61h1v1h-1z M79,61h1v1h-1z M81,61h1v1h-1z M83,61h1v1h-1z M87,61h1v1h-1z M4,62h1v5h-1z M6,62h1v4h-1z M8,62h3v1h-3z M13,62h1v2h-1z M20,62h1v6h-1z M22,62h1v1h-1z M28,62h1v1h-1z M31,62h1v5h-1z M33,62h1v3h-1z M35,62h1v2h-1z M40,62h1v2h-1z M44,62h2v2h-2z M51,62h2v1h-2z M56,62h4v1h-4z M62,62h1v3h-1z M70,62h2v2h-2z M75,62h1v2h-1z M80,62h1v1h-1z M82,62h1v1h-1z M86,62h1v1h-1z M5,63h1v1h-1z M7,63h2v1h-2z M25,63h1v1h-1z M36,63h1v7h-1z M38,63h2v2h-2z M41,63h3v1h-3z M46,63h3v1h-3z M55,63h2v2h-2z M57,63h1v1h-1z M59,63h1v1h-1z M63,63h1v8h-1z M64,63h1v2h-1z M68,63h2v1h-2z M78,63h1v2h-1z M81,63h1v1h-1z M84,63h2v1h-2z M87,63h1v3h-1z M8,64h3v1h-3z M12,64h1v2h-1z M14,64h2v1h-2z M19,64h1v3h-1z M22,64h1v3h-1z M28,64h1v6h-1z M30,64h1v2h-1z M34,64h1v1h-1z M43,64h1v1h-1z M45,64h1v1h-1z M47,64h2v1h-2z M51,64h1v3h-1z M54,64h1v1h-1z M58,64h1v1h-1z M60,64h2v2h-2z M66,64h1v1h-1z M71,64h1v1h-1z M73,64h2v1h-2z M76,64h2v1h-2z M79,64h1v1h-1z M85,64h1v2h-1z M88,64h1v1h-1z M7,65h1v1h-1z M9,65h1v2h-1z M11,65h1v1h-1z M15,65h2v1h-2z M23,65h1v1h-1z M25,65h3v1h-3z M37,65h2v1h-2z M41,65h2v1h-2z M49,65h2v1h-2z M57,65h1v1h-1z M59,65h1v1h-1z M72,65h1v1h-1z M74,65h1v3h-1z M77,65h1v1h-1z M80,65h2v1h-2z M83,65h1v1h-1z M86,65h1v1h-1z M8,66h1v3h-1z M10,66h1v1h-1z M13,66h1v1h-1z M18,66h1v1h-1z M24,66h1v1h-1z M26,66h1v3h-1z M27,66h1v1h-1z M29,66h1v1h-1z M34,66h2v2h-2z M39,66h2v1h-2z M42,66h3v2h-3z M47,66h2v1h-2z M50,66h1v1h-1z M52,66h1v1h-1z M54,66h2v1h-2z M62,66h1v3h-1z M64,66h1v3h-1z M70,66h2v1h-2z M75,66h1v5h-1z M76,66h1v1h-1z M78,66h3v1h-3z M6,67h2v3h-2z M15,67h3v1h-3z M32,67h2v2h-2z M38,67h1v1h-1z M40,67h2v1h-2z M45,67h1v3h-1z M46,67h1v1h-1z M55,67h1v1h-1z M58,67h1v1h-1z M60,67h1v3h-1z M66,67h1v1h-1z M68,67h2v2h-2z M71,67h1v2h-1z M73,67h1v2h-1z M77,67h1v4h-1z M78,67h1v1h-1z M81,67h1v1h-1z M85,67h1v2h-1z M4,68h1v1h-1z M9,68h6v1h-6z M16,68h4v1h-4z M21,68h1v2h-1z M23,68h2v2h-2z M27,68h1v2h-1z M29,68h1v1h-1z M31,68h1v6h-1z M34,68h1v1h-1z M39,68h1v1h-1z M41,68h1v2h-1z M43,68h2v1h-2z M47,68h1v5h-1z M49,68h2v1h-2z M53,68h2v2h-2z M56,68h2v1h-2z M59,68h1v1h-1z M61,68h1v2h-1z M65,68h1v1h-1z M72,68h1v1h-1z M76,68h1v1h-1z M79,68h1v6h-1z M82,68h1v2h-1z M84,68h1v2h-1z M86,68h1v1h-1z M88,68h1v2h-1z M15,69h1v1h-1z M17,69h2v2h-2z M20,69h1v1h-1z M25,69h1v1h-1z M32,69h1v2h-1z M35,69h1v2h-1z M37,69h1v3h-1z M42,69h2v1h-2z M46,69h1v2h-1z M52,69h1v1h-1z M57,69h1v4h-1z M66,69h1v1h-1z M74,69h1v1h-1z M81,69h1v1h-1z M83,69h1v1h-1z M87,69h1v2h-1z M4,70h2v1h-2z M10,70h1v1h-1z M12,70h1v2h-1z M16,70h1v8h-1z M19,70h1v3h-1z M24,70h1v1h-1z M26,70h1v2h-1z M33,70h1v1h-1z M38,70h2v2h-2z M40,70h1v1h-1z M42,70h1v1h-1z M48,70h1v2h-1z M54,70h1v1h-1z M59,70h1v2h-1z M62,70h1v3h-1z M67,70h1v3h-1z M69,70h1v3h-1z M71,70h2v2h-2z M76,70h1v4h-1z M9,71h1v3h-1z M14,71h1v1h-1z M20,71h2v1h-2z M25,71h1v2h-1z M29,71h1v1h-1z M34,71h1v3h-1z M36,71h1v2h-1z M44,71h1v3h-1z M51,71h2v2h-2z M60,71h1v1h-1z M64,71h1v2h-1z M66,71h1v2h-1z M68,71h1v1h-1z M70,71h1v1h-1z M73,71h1v1h-1z M78,71h1v2h-1z M81,71h1v1h-1z M83,71h1v1h-1z M85,71h1v1h-1z M5,72h2v1h-2z M8,72h1v3h-1z M10,72h1v1h-1z M13,72h1v1h-1z M15,72h1v2h-1z M17,72h2v1h-2z M20,72h1v1h-1z M24,72h1v1h-1z M28,72h1v3h-1z M30,72h1v2h-1z M32,72h2v1h-2z M35,72h1v1h-1z M41,72h3v1h-3z M45,72h1v1h-1z M50,72h1v1h-1z M53,72h4v1h-4z M61,72h1v1h-1z M65,72h1v2h-1z M71,72h1v1h-1z M75,72h1v1h-1z M82,72h1v1h-1z M86,72h3v1h-3z M5,73h1v1h-1z M11,73h1v1h-1z M21,73h1v1h-1z M23,73h1v1h-1z M26,73h1v2h-1z M32,73h1v1h-1z M37,73h1v4h-1z M39,73h1v1h-1z M46,73h1v2h-1z M54,73h1v1h-1z M59,73h2v1h-2z M73,73h1v2h-1z M83,73h1v1h-1z M88,73h1v2h-1z M4,74h1v1h-1z M6,74h2v3h-2z M10,74h1v1h-1z M12,74h2v1h-2z M17,74h2v1h-2z M20,74h1v3h-1z M24,74h1v1h-1z M27,74h1v2h-1z M38,74h1v1h-1z M40,74h1v5h-1z M45,74h1v1h-1z M47,74h2v1h-2z M50,74h3v1h-3z M56,74h1v3h-1z M58,74h1v1h-1z M60,74h2v1h-2z M63,74h1v1h-1z M66,74h4v1h-4z M78,74h1v3h-1z M80,74h3v1h-3z M84,74h3v1h-3z M5,75h1v1h-1z M11,75h1v3h-1z M12,75h1v1h-1z M14,75h2v5h-2z M18,75h1v2h-1z M29,75h1v1h-1z M31,75h1v4h-1z M34,75h2v2h-2z M36,75h1v1h-1z M43,75h2v1h-2z M52,75h1v2h-1z M55,75h1v1h-1z M59,75h1v2h-1z M64,75h2v2h-2z M66,75h1v1h-1z M68,75h2v3h-2z M71,75h1v1h-1z M74,75h2v2h-2z M83,75h1v6h-1z M86,75h2v1h-2z M4,76h1v1h-1z M8,76h1v1h-1z M10,76h1v1h-1z M13,76h1v1h-1z M19,76h1v2h-1z M21,76h2v1h-2z M24,76h2v1h-2z M28,76h1v1h-1z M30,76h1v2h-1z M32,76h2v1h-2z M41,76h3v1h-3z M45,76h2v1h-2z M48,76h2v1h-2z M51,76h1v1h-1z M53,76h2v1h-2z M57,76h1v5h-1z M60,76h1v2h-1z M62,76h1v2h-1z M67,76h1v1h-1z M72,76h1v1h-1z M76,76h2v1h-2z M79,76h1v2h-1z M81,76h2v3h-2z M84,76h1v1h-1z M87,76h2v1h-2z M7,77h1v1h-1z M9,77h1v1h-1z M22,77h1v2h-1z M24,77h1v1h-1z M26,77h2v1h-2z M33,77h1v1h-1z M35,77h1v1h-1z M39,77h1v4h-1z M42,77h1v1h-1z M47,77h1v1h-1z M49,77h2v1h-2z M58,77h1v2h-1z M66,77h1v3h-1z M73,77h1v2h-1z M75,77h1v4h-1z M77,77h1v2h-1z M87,77h1v1h-1z M4,78h3v1h-3z M8,78h1v1h-1z M10,78h1v1h-1z M26,78h1v1h-1z M28,78h1v1h-1z M34,78h1v1h-1z M37,78h1v1h-1z M43,78h2v1h-2z M48,78h1v3h-1z M50,78h1v1h-1z M59,78h1v3h-1z M63,78h1v3h-1z M69,78h1v1h-1z M71,78h1v3h-1z M76,78h1v2h-1z M78,78h1v3h-1z M80,78h1v1h-1z M84,78h3v3h-3z M5,79h1v1h-1z M7,79h1v1h-1z M9,79h1v1h-1z M16,79h1v1h-1z M19,79h3v1h-3z M23,79h1v3h-1z M24,79h1v1h-1z M27,79h1v2h-1z M29,79h1v1h-1z M32,79h1v6h-1z M36,79h1v8h-1z M41,79h2v2h-2z M43,79h1v1h-1z M51,79h4v1h-4z M56,79h1v9h-1z M60,79h1v6h-1z M61,79h1v1h-1z M67,79h1v1h-1z M70,79h1v3h-1z M74,79h1v8h-1z M81,79h1v2h-1z M88,79h1v1h-1z M4,80h1v1h-1z M10,80h2v1h-2z M13,80h1v1h-1z M17,80h1v2h-1z M22,80h1v2h-1z M31,80h1v1h-1z M33,80h3v1h-3z M38,80h1v3h-1z M46,80h2v1h-2z M50,80h1v3h-1z M51,80h1v1h-1z M53,80h1v3h-1z M55,80h1v1h-1z M58,80h1v1h-1z M64,80h2v1h-2z M68,80h2v1h-2z M72,80h1v1h-1z M77,80h1v3h-1z M79,80h2v2h-2z M82,80h1v1h-1z M12,81h1v2h-1z M14,81h3v1h-3z M18,81h1v2h-1z M25,81h1v1h-1z M28,81h1v4h-1z M37,81h1v2h-1z M41,81h1v2h-1z M44,81h1v2h-1z M61,81h1v1h-1z M66,81h1v1h-1z M69,81h1v2h-1z M84,81h1v4h-1z M87,81h1v1h-1z M4,82h7v1h-7z M13,82h1v1h-1z M21,82h1v4h-1z M24,82h1v4h-1z M26,82h2v2h-2z M30,82h2v1h-2z M34,82h1v1h-1z M39,82h2v2h-2z M42,82h2v1h-2z M46,82h2v1h-2z M49,82h1v3h-1z M51,82h2v1h-2z M55,82h1v1h-1z M58,82h1v1h-1z M63,82h1v4h-1z M64,82h2v1h-2z M67,82h1v1h-1z M71,82h1v3h-1z M78,82h1v6h-1z M80,82h1v3h-1z M82,82h1v1h-1z M4,83h1v6h-1z M10,83h1v6h-1z M14,83h1v1h-1z M16,83h2v2h-2z M19,83h2v1h-2z M43,83h1v1h-1z M45,83h2v1h-2z M52,83h1v2h-1z M65,83h1v5h-1z M68,83h1v2h-1z M70,83h1v2h-1z M76,83h1v2h-1z M85,83h1v3h-1z M87,83h1v1h-1z M6,84h3v3h-3z M13,84h1v4h-1z M18,84h1v2h-1z M20,84h1v1h-1z M23,84h1v1h-1z M27,84h1v1h-1z M29,84h3v1h-3z M33,84h3v1h-3z M37,84h1v2h-1z M39,84h1v1h-1z M41,84h2v1h-2z M44,84h2v1h-2z M47,84h1v4h-1z M53,84h3v1h-3z M57,84h3v1h-3z M62,84h1v1h-1z M69,84h1v3h-1z M73,84h1v3h-1z M77,84h1v1h-1z M79,84h1v1h-1z M81,84h3v2h-3z M15,85h1v2h-1z M17,85h1v1h-1z M19,85h1v2h-1z M30,85h1v1h-1z M33,85h1v2h-1z M38,85h1v1h-1z M54,85h1v1h-1z M66,85h1v1h-1z M86,85h1v4h-1z M12,86h1v1h-1z M16,86h1v3h-1z M20,86h1v1h-1z M25,86h1v3h-1z M27,86h1v1h-1z M34,86h1v3h-1z M39,86h1v3h-1z M40,86h1v1h-1z M45,86h1v1h-1z M48,86h1v1h-1z M51,86h2v1h-2z M57,86h3v1h-3z M61,86h1v3h-1z M67,86h1v3h-1z M72,86h1v1h-1z M79,86h1v3h-1z M80,86h1v1h-1z M82,86h1v1h-1z M87,86h2v1h-2z M21,87h1v2h-1z M23,87h1v1h-1z M28,87h1v1h-1z M31,87h1v1h-1z M37,87h2v2h-2z M44,87h1v2h-1z M49,87h3v1h-3z M55,87h1v1h-1z M59,87h1v2h-1z M64,87h1v2h-1z M66,87h1v1h-1z M70,87h1v2h-1z M75,87h1v2h-1z M85,87h1v1h-1z M5,88h5v1h-5z M12,88h1v1h-1z M15,88h1v1h-1z M17,88h3v1h-3z M22,88h1v1h-1z M30,88h1v1h-1z M32,88h2v1h-2z M35,88h1v1h-1z M40,88h1v1h-1z M42,88h2v1h-2z M45,88h2v1h-2z M50,88h1v1h-1z M54,88h1v1h-1z M58,88h1v1h-1z M62,88h1v1h-1z M68,88h2v1h-2z M73,88h2v1h-2z M77,88h1v1h-1z M81,88h4v1h-4z M88,88h1v1h-1z" fill="#000000"/>
</svg>
