<?xml version="1.0" encoding="UTF-8"?>
<!DOCTYPE svg PUBLIC "-//W3C//DTD SVG 1.1//EN" "http://www.w3.org/Graphics/SVG/1.1/DTD/svg11.dtd">
<svg xmlns="http://www.w3.org/2000/svg" version="1.1" viewBox="0 0 93 93" stroke="none">
	<rect width="100%" height="100%" fill="#ffffff"/>
	<path d="M4,4h7v1h-7z M12,4h1v3h-1z M14,4h7v1h-7z M23,4h1v2h-1z M25,4h3v1h-3z M29,4h1v2h-1z M32,4h3v1h-3z M36,4h6v1h-6z M44,4h6v1h-6z M52,4h1v2h-1z M54,4h3v1h-3z M58,4h1v1h-1z M60,4h1v2h-1z M62,4h2v2h-2z M64,4h1v1h-1z M66,4h1v1h-1z M68,4h1v2h-1z M70,4h5v1h-5z M76,4h3v1h-3z M80,4h1v1h-1z M82,4h7v1h-7z M4,5h1v6h-1z M10,5h1v6h-1z M13,5h1v4h-1z M14,5h2v1h-2z M19,5h2v2h-2z M22,5h1v3h-1z M24,5h1v1h-1z M27,5h1v2h-1z M37,5h2v3h-2z M40,5h3v1h-3z M47,5h1v1h-1z M59,5h1v2h-1z M65,5h1v2h-1z M69,5h3v1h-3z M73,5h1v2h-1z M78,5h2v1h-2z M82,5h1v6h-1z M88,5h1v6h-1z M6,6h3v3h-3z M17,6h1v3h-1z M18,6h1v1h-1z M25,6h1v3h-1z M28,6h1v2h-1z M35,6h1v3h-1z M36,6h1v1h-1z M41,6h1v1h-1z M44,6h2v1h-2z M48,6h3v1h-3z M53,6h1v1h-1z M56,6h1v1h-1z M58,6h1v3h-1z M67,6h1v2h-1z M75,6h2v3h-2z M78,6h1v1h-1z M84,6h3v3h-3z M20,7h2v2h-2z M24,7h1v2h-1z M26,7h1v1h-1z M32,7h1v7h-1z M39,7h2v1h-2z M42,7h1v1h-1z M44,7h1v1h-1z M51,7h2v1h-2z M54,7h2v1h-2z M57,7h1v2h-1z M62,7h1v4h-1z M66,7h1v2h-1z M68,7h1v1h-1z M70,7h1v4h-1z M72,7h1v4h-1z M74,7h1v1h-1z M79,7h1v1h-1z M12,8h1v1h-1z M15,8h1v2h-1z M18,8h2v2h-2z M27,8h1v1h-1z M29,8h1v2h-1z M33,8h2v1h-2z M36,8h1v8h-1z M37,8h1v2h-1z M48,8h1v1h-1z M50,8h1v12h-1z M52,8h1v1h-1z M55,8h2v1h-2z M59,8h3v1h-3z M63,8h2v1h-2z M71,8h1v1h-1z M73,8h1v2h-1z M77,8h2v1h-2z M21,9h1v1h-1z M23,9h1v1h-1z M26,9h1v3h-1z M30,9h1v4h-1z M31,9h1v1h-1z M38,9h1v2h-1z M41,9h1v1h-1z M44,9h1v5h-1z M46,9h1v4h-1z M49,9h1v1h-1z M53,9h2v1h-2z M56,9h1v4h-1z M60,9h1v5h-1z M61,9h1v1h-1z M63,9h1v1h-1z M65,9h1v1h-1z M67,9h1v1h-1z M74,9h1v3h-1z M75,9h1v1h-1z M77,9h1v1h-1z M79,9h1v1h-1z M5,10h5v1h-5z M12,10h1v1h-1z M14,10h1v3h-1z M16,10h1v4h-1z M18,10h1v1h-1z M20,10h1v2h-1z M22,10h1v1h-1z M24,10h1v3h-1z M28,10h1v1h-1z M34,10h1v1h-1z M40,10h1v1h-1z M42,10h1v2h-1z M48,10h1v3h-1z M52,10h1v1h-1z M54,10h1v1h-1z M58,10h1v1h-1z M64,10h1v4h-1z M66,10h1v1h-1z M68,10h1v7h-1z M76,10h1v4h-1z M78,10h1v2h-1z M80,10h1v2h-1z M83,10h5v1h-5z M27,11h1v1h-1z M39,11h1v1h-1z M43,11h1v2h-1z M51,11h1v1h-1z M63,11h1v1h-1z M65,11h1v3h-1z M71,11h1v1h-1z M75,11h1v2h-1z M4,12h1v2h-1z M7,12h6v1h-6z M17,12h3v1h-3z M22,12h2v1h-2z M25,12h1v2h-1z M28,12h2v2h-2z M31,12h1v1h-1z M33,12h3v1h-3z M37,12h2v1h-2z M52,12h2v1h-2z M55,12h1v1h-1z M57,12h2v2h-2z M59,12h1v1h-1z M61,12h2v2h-2z M70,12h1v3h-1z M73,12h1v1h-1z M79,12h1v4h-1z M81,12h1v1h-1z M84,12h1v2h-1z M86,12h2v3h-2z M88,12h1v1h-1z M12,13h1v1h-1z M19,13h1v3h-1z M20,13h1v1h-1z M26,13h2v1h-2z M40,13h2v2h-2z M42,13h1v1h-1z M49,13h1v2h-1z M54,13h1v1h-1z M72,13h1v1h-1z M82,13h2v2h-2z M6,14h1v4h-1z M8,14h1v2h-1z M10,14h1v1h-1z M14,14h2v1h-2z M22,14h1v1h-1z M24,14h1v3h-1z M30,14h1v1h-1z M33,14h1v1h-1z M38,14h1v5h-1z M39,14h1v1h-1z M43,14h1v1h-1z M48,14h1v1h-1z M51,14h2v2h-2z M55,14h3v1h-3z M63,14h1v1h-1z M71,14h1v1h-1z M75,14h1v1h-1z M80,14h2v1h-2z M88,14h1v3h-1z M9,15h1v1h-1z M12,15h2v2h-2z M15,15h2v1h-2z M18,15h1v1h-1z M20,15h2v1h-2z M27,15h1v1h-1z M31,15h1v4h-1z M34,15h2v1h-2z M41,15h1v2h-1z M45,15h3v2h-3z M56,15h1v4h-1z M58,15h2v1h-2z M64,15h1v4h-1z M66,15h2v2h-2z M69,15h1v2h-1z M72,15h1v2h-1z M74,15h1v1h-1z M76,15h1v2h-1z M78,15h1v2h-1z M84,15h1v3h-1z M85,15h1v1h-1z M87,15h1v3h-1z M4,16h2v1h-2z M7,16h1v4h-1z M10,16h2v1h-2z M17,16h1v2h-1z M22,16h1v2h-1z M28,16h2v1h-2z M37,16h1v1h-1z M39,16h2v1h-2z M42,16h3v1h-3z M48,16h1v2h-1z M51,16h1v2h-1z M55,16h1v1h-1z M57,16h1v3h-1z M59,16h2v1h-2z M62,16h1v1h-1z M65,16h1v1h-1z M70,16h1v3h-1z M73,16h1v1h-1z M75,16h1v2h-1z M77,16h1v2h-1z M80,16h4v1h-4z M86,16h1v1h-1z M4,17h1v1h-1z M8,17h1v3h-1z M11,17h2v1h-2z M15,17h2v1h-2z M18,17h1v1h-1z M21,17h1v3h-1z M23,17h1v2h-1z M25,17h1v1h-1z M27,17h1v1h-1z M29,17h1v2h-1z M34,17h1v2h-1z M36,17h1v2h-1z M40,17h1v3h-1z M44,17h1v2h-1z M52,17h3v1h-3z M66,17h1v1h-1z M71,17h1v1h-1z M82,17h2v2h-2z M5,18h1v2h-1z M9,18h2v1h-2z M13,18h1v9h-1z M16,18h1v1h-1z M20,18h1v7h-1z M26,18h1v4h-1z M30,18h1v1h-1z M32,18h2v1h-2z M35,18h1v1h-1z M45,18h1v3h-1z M47,18h1v2h-1z M49,18h1v1h-1z M52,18h1v2h-1z M54,18h1v1h-1z M58,18h2v1h-2z M62,18h1v1h-1z M67,18h3v1h-3z M72,18h2v1h-2z M79,18h3v1h-3z M85,18h1v3h-1z M4,19h1v5h-1z M6,19h1v5h-1z M11,19h2v1h-2z M15,19h1v2h-1z M19,19h1v2h-1z M27,19h2v1h-2z M33,19h1v1h-1z M37,19h1v4h-1z M39,19h1v1h-1z M41,19h1v2h-1z M51,19h1v1h-1z M53,19h1v2h-1z M61,19h1v5h-1z M63,19h1v5h-1z M65,19h1v2h-1z M67,19h1v2h-1z M73,19h2v2h-2z M77,19h1v8h-1z M81,19h1v5h-1z M83,19h2v1h-2z M86,19h1v4h-1z M88,19h1v3h-1z M9,20h2v1h-2z M24,20h1v2h-1z M30,20h1v1h-1z M32,20h1v1h-1z M34,20h2v1h-2z M38,20h1v2h-1z M43,20h1v2h-1z M48,20h2v1h-2z M54,20h1v1h-1z M56,20h1v1h-1z M62,20h1v1h-1z M64,20h1v2h-1z M68,20h4v1h-4z M76,20h1v2h-1z M82,20h1v3h-1z M84,20h1v6h-1z M87,20h1v1h-1z M8,21h1v1h-1z M14,21h1v1h-1z M18,21h1v2h-1z M21,21h1v1h-1z M23,21h1v1h-1z M25,21h1v2h-1z M27,21h1v4h-1z M28,21h1v1h-1z M31,21h1v1h-1z M39,21h2v1h-2z M44,21h1v5h-1z M46,21h1v4h-1z M52,21h1v6h-1z M55,21h1v2h-1z M57,21h1v2h-1z M59,21h1v1h-1z M66,21h1v1h-1z M70,21h1v2h-1z M72,21h1v1h-1z M75,21h1v2h-1z M83,21h1v2h-1z M7,22h1v1h-1z M10,22h3v1h-3z M15,22h1v1h-1z M19,22h1v2h-1z M22,22h1v1h-1z M30,22h1v1h-1z M32,22h1v2h-1z M34,22h2v3h-2z M41,22h1v3h-1z M45,22h1v1h-1z M47,22h1v3h-1z M48,22h1v1h-1z M51,22h1v2h-1z M56,22h1v1h-1z M67,22h1v2h-1z M74,22h1v3h-1z M79,22h1v2h-1z M85,22h1v1h-1z M87,22h1v1h-1z M5,23h1v1h-1z M9,23h1v1h-1z M11,23h1v1h-1z M14,23h1v1h-1z M17,23h1v1h-1z M21,23h1v1h-1z M28,23h1v1h-1z M31,23h1v2h-1z M33,23h1v1h-1z M38,23h3v1h-3z M42,23h2v1h-2z M53,23h2v1h-2z M60,23h1v1h-1z M62,23h1v1h-1z M65,23h1v2h-1z M69,23h1v1h-1z M72,23h1v2h-1z M88,23h1v3h-1z M7,24h2v1h-2z M10,24h1v1h-1z M22,24h1v1h-1z M24,24h2v1h-2z M39,24h1v3h-1z M43,24h1v2h-1z M49,24h2v1h-2z M55,24h5v1h-5z M68,24h1v3h-1z M71,24h1v2h-1z M73,24h1v1h-1z M75,24h2v1h-2z M80,24h1v6h-1z M82,24h2v1h-2z M5,25h1v1h-1z M14,25h1v1h-1z M21,25h1v1h-1z M23,25h1v1h-1z M26,25h1v1h-1z M28,25h1v3h-1z M30,25h1v2h-1z M33,25h2v1h-2z M36,25h2v1h-2z M48,25h1v2h-1z M50,25h2v2h-2z M55,25h1v2h-1z M58,25h2v1h-2z M61,25h2v2h-2z M66,25h1v1h-1z M76,25h1v2h-1z M78,25h1v5h-1z M81,25h1v8h-1z M82,25h1v1h-1z M87,25h1v1h-1z M6,26h1v2h-1z M8,26h3v1h-3z M12,26h1v1h-1z M16,26h1v2h-1z M18,26h1v2h-1z M20,26h1v1h-1z M27,26h1v3h-1z M31,26h2v2h-2z M35,26h2v1h-2z M40,26h3v1h-3z M54,26h1v2h-1z M56,26h1v3h-1z M60,26h1v1h-1z M63,26h1v1h-1z M65,26h1v1h-1z M67,26h1v1h-1z M74,26h1v3h-1z M75,26h1v1h-1z M83,26h1v1h-1z M85,26h1v2h-1z M7,27h1v1h-1z M17,27h1v1h-1z M22,27h1v6h-1z M23,27h2v1h-2z M29,27h1v3h-1z M38,27h1v3h-1z M41,27h1v1h-1z M43,27h2v1h-2z M47,27h1v1h-1z M49,27h1v4h-1z M57,27h1v2h-1z M64,27h1v3h-1z M66,27h1v1h-1z M69,27h1v2h-1z M71,27h1v2h-1z M79,27h1v1h-1z M82,27h1v1h-1z M84,27h1v4h-1z M86,27h1v2h-1z M88,27h1v5h-1z M4,28h1v2h-1z M8,28h3v1h-3z M15,28h1v1h-1z M19,28h2v2h-2z M26,28h1v1h-1z M30,28h1v2h-1z M35,28h1v1h-1z M37,28h1v1h-1z M39,28h1v1h-1z M42,28h1v8h-1z M45,28h1v2h-1z M51,28h2v2h-2z M55,28h1v2h-1z M58,28h2v1h-2z M62,28h1v2h-1z M65,28h1v1h-1z M67,28h2v1h-2z M70,28h1v3h-1z M73,28h1v3h-1z M75,28h1v5h-1z M76,28h1v1h-1z M83,28h1v2h-1z M5,29h1v1h-1z M8,29h1v2h-1z M13,29h1v3h-1z M16,29h1v1h-1z M18,29h1v2h-1z M31,29h1v3h-1z M34,29h1v2h-1z M36,29h1v8h-1z M40,29h2v1h-2z M48,29h1v4h-1z M50,29h1v3h-1z M59,29h1v1h-1z M66,29h1v2h-1z M68,29h1v2h-1z M77,29h1v1h-1z M6,30h2v1h-2z M10,30h1v1h-1z M15,30h1v4h-1z M27,30h2v1h-2z M37,30h1v1h-1z M40,30h1v1h-1z M43,30h2v1h-2z M52,30h1v2h-1z M57,30h1v3h-1z M58,30h1v1h-1z M60,30h1v1h-1z M65,30h1v2h-1z M69,30h1v1h-1z M72,30h1v1h-1z M74,30h1v1h-1z M79,30h1v1h-1z M85,30h3v1h-3z M5,31h1v2h-1z M12,31h1v6h-1z M19,31h1v1h-1z M23,31h1v1h-1z M25,31h1v1h-1z M28,31h1v2h-1z M32,31h1v6h-1z M33,31h1v2h-1z M35,31h1v2h-1z M38,31h1v1h-1z M46,31h1v3h-1z M51,31h1v1h-1z M54,31h3v1h-3z M61,31h1v1h-1z M63,31h2v1h-2z M67,31h1v4h-1z M76,31h1v1h-1z M82,31h1v2h-1z M85,31h1v1h-1z M6,32h1v1h-1z M8,32h1v6h-1z M9,32h3v1h-3z M16,32h3v1h-3z M26,32h1v4h-1z M30,32h1v1h-1z M34,32h1v1h-1z M40,32h1v1h-1z M43,32h1v1h-1z M45,32h1v2h-1z M47,32h1v3h-1z M53,32h2v1h-2z M56,32h1v5h-1z M58,32h3v1h-3z M62,32h1v1h-1z M64,32h1v2h-1z M68,32h4v1h-4z M73,32h1v2h-1z M78,32h1v1h-1z M80,32h1v6h-1z M83,32h2v1h-2z M7,33h1v3h-1z M17,33h1v2h-1z M19,33h1v10h-1z M21,33h1v1h-1z M24,33h1v1h-1z M29,33h1v1h-1z M41,33h1v1h-1z M44,33h1v1h-1z M51,33h2v3h-2z M60,33h1v4h-1z M63,33h1v3h-1z M66,33h1v2h-1z M68,33h1v1h-1z M70,33h3v1h-3z M74,33h1v3h-1z M77,33h1v5h-1z M84,33h1v8h-1z M86,33h2v1h-2z M5,34h2v2h-2z M10,34h1v1h-1z M13,34h1v6h-1z M14,34h1v1h-1z M20,34h1v1h-1z M23,34h1v2h-1z M25,34h1v4h-1z M27,34h1v1h-1z M30,34h1v1h-1z M34,34h1v1h-1z M37,34h2v1h-2z M43,34h1v3h-1z M49,34h2v1h-2z M58,34h1v1h-1z M69,34h2v1h-2z M76,34h1v1h-1z M79,34h1v2h-1z M82,34h1v1h-1z M87,34h1v1h-1z M15,35h1v2h-1z M21,35h1v4h-1z M31,35h1v2h-1z M39,35h3v1h-3z M44,35h2v1h-2z M48,35h1v4h-1z M53,35h1v1h-1z M55,35h1v2h-1z M62,35h1v2h-1z M64,35h2v1h-2z M68,35h1v2h-1z M72,35h1v3h-1z M75,35h1v1h-1z M88,35h1v2h-1z M4,36h1v5h-1z M5,36h1v2h-1z M9,36h3v1h-3z M14,36h1v2h-1z M16,36h1v3h-1z M24,36h1v1h-1z M27,36h1v2h-1z M29,36h1v4h-1z M30,36h1v1h-1z M33,36h3v1h-3z M37,36h3v1h-3z M41,36h1v3h-1z M50,36h2v1h-2z M54,36h1v3h-1z M57,36h3v1h-3z M65,36h1v1h-1z M70,36h2v1h-2z M73,36h1v1h-1z M76,36h1v1h-1z M81,36h3v1h-3z M85,36h1v1h-1z M7,37h1v2h-1z M11,37h1v1h-1z M17,37h2v7h-2z M22,37h1v2h-1z M28,37h1v2h-1z M35,37h1v1h-1z M38,37h1v6h-1z M39,37h1v1h-1z M42,37h1v1h-1z M44,37h2v1h-2z M49,37h1v1h-1z M52,37h2v1h-2z M59,37h1v1h-1z M66,37h2v1h-2z M69,37h1v6h-1z M74,37h1v1h-1z M78,37h1v1h-1z M81,37h1v1h-1z M86,37h2v1h-2z M10,38h1v1h-1z M12,38h1v3h-1z M24,38h1v3h-1z M26,38h1v3h-1z M31,38h1v2h-1z M33,38h2v1h-2z M43,38h1v1h-1z M45,38h2v3h-2z M51,38h2v1h-2z M55,38h1v3h-1z M57,38h1v2h-1z M60,38h1v1h-1z M63,38h1v2h-1z M65,38h1v1h-1z M68,38h1v3h-1z M70,38h1v5h-1z M82,38h1v2h-1z M87,38h1v3h-1z M5,39h1v4h-1z M14,39h2v1h-2z M23,39h1v2h-1z M30,39h1v13h-1z M32,39h1v5h-1z M35,39h2v1h-2z M40,39h1v1h-1z M47,39h1v1h-1z M50,39h1v2h-1z M56,39h1v1h-1z M62,39h1v2h-1z M66,39h1v3h-1z M71,39h1v4h-1z M73,39h1v8h-1z M76,39h1v3h-1z M78,39h2v3h-2z M81,39h1v1h-1z M83,39h1v2h-1z M85,39h2v1h-2z M88,39h1v2h-1z M6,40h1v1h-1z M10,40h1v1h-1z M15,40h1v2h-1z M20,40h2v2h-2z M25,40h1v2h-1z M28,40h1v1h-1z M33,40h1v4h-1z M41,40h2v2h-2z M44,40h1v1h-1z M49,40h1v1h-1z M52,40h1v4h-1z M53,40h2v1h-2z M58,40h3v2h-3z M61,40h1v1h-1z M64,40h2v1h-2z M72,40h1v3h-1z M77,40h1v2h-1z M85,40h1v1h-1z M7,41h1v1h-1z M11,41h1v1h-1z M14,41h1v1h-1z M16,41h1v1h-1z M27,41h1v4h-1z M31,41h1v2h-1z M34,41h1v6h-1z M35,41h3v1h-3z M40,41h1v1h-1z M48,41h1v1h-1z M51,41h1v1h-1z M57,41h1v1h-1z M64,41h1v1h-1z M80,41h1v1h-1z M6,42h1v4h-1z M8,42h2v3h-2z M10,42h1v1h-1z M20,42h1v2h-1z M23,42h1v1h-1z M26,42h1v3h-1z M29,42h1v1h-1z M42,42h4v1h-4z M47,42h1v2h-1z M56,42h1v2h-1z M62,42h1v1h-1z M67,42h1v3h-1z M82,42h2v1h-2z M85,42h3v1h-3z M7,43h1v1h-1z M12,43h1v1h-1z M14,43h1v8h-1z M15,43h1v2h-1z M21,43h1v1h-1z M24,43h1v2h-1z M35,43h3v1h-3z M40,43h2v1h-2z M43,43h2v1h-2z M48,43h3v1h-3z M54,43h1v4h-1z M59,43h2v1h-2z M63,43h2v1h-2z M68,43h1v1h-1z M75,43h1v5h-1z M76,43h2v1h-2z M81,43h1v1h-1z M87,43h2v2h-2z M4,44h2v1h-2z M10,44h2v1h-2z M16,44h1v4h-1z M19,44h1v1h-1z M22,44h2v2h-2z M29,44h1v2h-1z M31,44h1v2h-1z M36,44h3v2h-3z M44,44h3v2h-3z M51,44h1v1h-1z M53,44h1v1h-1z M57,44h2v1h-2z M61,44h2v1h-2z M64,44h1v2h-1z M66,44h1v1h-1z M69,44h2v2h-2z M71,44h1v1h-1z M74,44h1v2h-1z M79,44h1v1h-1z M82,44h1v1h-1z M86,44h1v1h-1z M5,45h1v3h-1z M7,45h2v1h-2z M12,45h2v1h-2z M18,45h1v2h-1z M33,45h1v1h-1z M35,45h1v4h-1z M39,45h1v1h-1z M41,45h2v2h-2z M50,45h1v1h-1z M52,45h1v3h-1z M56,45h1v3h-1z M58,45h2v2h-2z M62,45h2v1h-2z M65,45h1v1h-1z M68,45h1v2h-1z M78,45h1v2h-1z M80,45h1v1h-1z M84,45h1v5h-1z M9,46h4v1h-4z M17,46h1v2h-1z M24,46h1v4h-1z M27,46h2v1h-2z M32,46h1v1h-1z M36,46h1v2h-1z M43,46h1v2h-1z M45,46h1v1h-1z M47,46h2v1h-2z M51,46h1v3h-1z M53,46h1v1h-1z M55,46h1v1h-1z M61,46h1v1h-1z M63,46h1v3h-1z M66,46h2v1h-2z M70,46h2v1h-2z M83,46h1v1h-1z M85,46h1v1h-1z M87,46h2v1h-2z M6,47h1v2h-1z M8,47h2v1h-2z M11,47h1v2h-1z M13,47h1v1h-1z M20,47h3v1h-3z M25,47h1v2h-1z M31,47h1v5h-1z M33,47h1v2h-1z M39,47h1v1h-1z M42,47h1v1h-1z M59,47h1v3h-1z M64,47h1v4h-1z M65,47h1v1h-1z M69,47h1v2h-1z M71,47h1v1h-1z M74,47h1v3h-1z M76,47h2v1h-2z M81,47h1v2h-1z M88,47h1v2h-1z M4,48h1v1h-1z M7,48h1v1h-1z M10,48h1v1h-1z M18,48h2v2h-2z M22,48h1v1h-1z M28,48h2v1h-2z M37,48h2v1h-2z M40,48h2v3h-2z M45,48h2v2h-2z M47,48h1v1h-1z M50,48h1v1h-1z M53,48h1v3h-1z M55,48h1v2h-1z M58,48h1v1h-1z M61,48h1v3h-1z M62,48h1v1h-1z M70,48h1v6h-1z M72,48h2v1h-2z M77,48h1v6h-1z M79,48h2v1h-2z M82,48h1v1h-1z M85,48h1v1h-1z M8,49h1v2h-1z M12,49h2v1h-2z M17,49h1v1h-1z M21,49h1v1h-1z M23,49h1v1h-1z M29,49h1v1h-1z M38,49h1v2h-1z M44,49h1v1h-1z M48,49h2v1h-2z M54,49h1v3h-1z M65,49h2v2h-2z M68,49h1v4h-1z M72,49h1v1h-1z M78,49h1v7h-1z M80,49h1v1h-1z M83,49h1v5h-1z M87,49h1v1h-1z M5,50h1v1h-1z M7,50h1v5h-1z M9,50h3v1h-3z M13,50h1v2h-1z M15,50h2v1h-2z M20,50h1v1h-1z M26,50h2v1h-2z M34,50h3v1h-3z M39,50h1v2h-1z M42,50h2v1h-2z M48,50h1v1h-1z M56,50h1v1h-1z M58,50h1v4h-1z M63,50h1v4h-1z M67,50h1v2h-1z M75,50h1v2h-1z M79,50h1v2h-1z M82,50h1v3h-1z M85,50h2v2h-2z M88,50h1v4h-1z M6,51h1v1h-1z M9,51h1v1h-1z M11,51h2v2h-2z M16,51h4v1h-4z M21,51h6v1h-6z M28,51h2v2h-2z M32,51h2v1h-2z M35,51h3v2h-3z M44,51h4v1h-4z M50,51h1v3h-1z M51,51h1v1h-1z M55,51h1v1h-1z M57,51h1v1h-1z M62,51h1v2h-1z M66,51h1v3h-1z M71,51h1v6h-1z M80,51h1v1h-1z M84,51h1v3h-1z M87,51h1v1h-1z M4,52h1v2h-1z M10,52h1v1h-1z M15,52h2v1h-2z M24,52h1v1h-1z M33,52h1v1h-1z M40,52h1v1h-1z M42,52h1v1h-1z M46,52h1v1h-1z M49,52h1v1h-1z M52,52h1v3h-1z M56,52h1v2h-1z M59,52h1v2h-1z M61,52h1v4h-1z M65,52h1v2h-1z M73,52h1v1h-1z M76,52h1v1h-1z M81,52h1v1h-1z M5,53h1v1h-1z M8,53h2v2h-2z M12,53h2v1h-2z M16,53h1v1h-1z M18,53h1v1h-1z M21,53h3v2h-3z M28,53h1v1h-1z M30,53h1v1h-1z M34,53h2v1h-2z M37,53h2v2h-2z M39,53h1v1h-1z M44,53h1v1h-1z M47,53h1v3h-1z M51,53h1v1h-1z M64,53h1v1h-1z M69,53h1v1h-1z M75,53h1v2h-1z M79,53h2v4h-2z M85,53h1v1h-1z M6,54h1v4h-1z M10,54h1v1h-1z M13,54h3v1h-3z M19,54h2v1h-2z M26,54h1v4h-1z M27,54h1v1h-1z M29,54h1v1h-1z M31,54h1v1h-1z M40,54h1v2h-1z M46,54h1v1h-1z M55,54h1v2h-1z M57,54h1v1h-1z M60,54h1v7h-1z M67,54h1v2h-1z M72,54h1v3h-1z M74,54h1v1h-1z M81,54h1v3h-1z M86,54h1v8h-1z M12,55h1v6h-1z M13,55h1v1h-1z M15,55h3v1h-3z M20,55h1v1h-1z M22,55h2v2h-2z M28,55h1v2h-1z M33,55h1v2h-1z M35,55h1v2h-1z M38,55h2v1h-2z M42,55h2v1h-2z M49,55h3v1h-3z M54,55h1v2h-1z M58,55h1v2h-1z M63,55h1v4h-1z M64,55h1v1h-1z M68,55h1v1h-1z M82,55h2v2h-2z M87,55h2v2h-2z M5,56h1v8h-1z M7,56h5v1h-5z M14,56h1v1h-1z M16,56h2v3h-2z M18,56h1v1h-1z M21,56h1v1h-1z M25,56h1v1h-1z M32,56h1v5h-1z M34,56h1v1h-1z M36,56h1v6h-1z M43,56h1v1h-1z M45,56h2v1h-2z M51,56h1v5h-1z M52,56h1v1h-1z M56,56h1v6h-1z M57,56h1v1h-1z M59,56h1v1h-1z M66,56h1v1h-1z M69,56h2v1h-2z M73,56h1v3h-1z M76,56h1v1h-1z M84,56h1v6h-1z M4,57h1v1h-1z M7,57h2v1h-2z M13,57h1v2h-1z M24,57h1v1h-1z M27,57h1v1h-1z M29,57h2v3h-2z M38,57h1v3h-1z M39,57h1v1h-1z M41,57h1v1h-1z M44,57h1v2h-1z M49,57h2v1h-2z M64,57h2v1h-2z M68,57h2v1h-2z M74,57h1v1h-1z M80,57h1v5h-1z M8,58h1v4h-1z M10,58h1v1h-1z M14,58h1v2h-1z M18,58h6v1h-6z M34,58h1v1h-1z M43,58h1v3h-1z M46,58h3v2h-3z M49,58h1v1h-1z M52,58h2v1h-2z M58,58h1v1h-1z M62,58h1v1h-1z M66,58h2v1h-2z M71,58h1v1h-1z M77,58h1v2h-1z M82,58h1v1h-1z M87,58h2v1h-2z M15,59h1v3h-1z M17,59h1v1h-1z M21,59h1v3h-1z M22,59h1v1h-1z M26,59h1v2h-1z M28,59h1v1h-1z M39,59h1v1h-1z M41,59h2v1h-2z M52,59h1v1h-1z M67,59h1v2h-1z M72,59h1v1h-1z M74,59h3v1h-3z M78,59h2v1h-2z M88,59h1v3h-1z M4,60h1v3h-1z M9,60h3v1h-3z M13,60h1v1h-1z M16,60h1v1h-1z M19,60h2v2h-2z M23,60h3v1h-3z M33,60h3v1h-3z M40,60h1v3h-1z M41,60h1v1h-1z M45,60h1v1h-1z M48,60h2v1h-2z M55,60h1v1h-1z M57,60h3v1h-3z M61,60h5v1h-5z M68,60h1v3h-1z M70,60h1v3h-1z M76,60h1v1h-1z M81,60h2v2h-2z M83,60h1v1h-1z M85,60h1v1h-1z M6,61h1v4h-1z M7,61h1v1h-1z M11,61h1v1h-1z M14,61h1v5h-1z M17,61h1v2h-1z M24,61h1v1h-1z M29,61h2v1h-2z M35,61h1v1h-1z M38,61h1v2h-1z M44,61h1v1h-1z M46,61h1v1h-1z M49,61h1v1h-1z M52,61h1v3h-1z M54,61h1v1h-1z M58,61h1v5h-1z M62,61h2v1h-2z M72,61h1v1h-1z M74,61h1v3h-1z M78,61h2v1h-2z M87,61h1v1h-1z M9,62h1v4h-1z M10,62h1v1h-1z M12,62h2v2h-2z M16,62h1v2h-1z M18,62h1v4h-1z M19,62h1v1h-1z M22,62h1v3h-1z M23,62h1v1h-1z M28,62h1v3h-1z M29,62h1v1h-1z M31,62h1v5h-1z M33,62h1v1h-1z M37,62h1v1h-1z M41,62h1v2h-1z M45,62h1v1h-1z M47,62h1v5h-1z M51,62h1v4h-1z M53,62h1v1h-1z M57,62h1v1h-1z M65,62h3v1h-3z M75,62h1v1h-1z M77,62h1v1h-1z M82,62h2v1h-2z M7,63h1v1h-1z M11,63h1v1h-1z M15,63h1v5h-1z M21,63h1v1h-1z M25,63h2v1h-2z M34,63h1v4h-1z M35,63h2v1h-2z M42,63h2v1h-2z M48,63h1v3h-1z M50,63h1v1h-1z M55,63h1v2h-1z M59,63h1v1h-1z M67,63h1v4h-1z M71,63h1v5h-1z M76,63h1v8h-1z M78,63h1v3h-1z M80,63h1v1h-1z M82,63h1v1h-1z M85,63h2v1h-2z M88,63h1v3h-1z M4,64h1v1h-1z M8,64h1v1h-1z M10,64h1v1h-1z M19,64h2v3h-2z M30,64h1v1h-1z M33,64h1v1h-1z M36,64h1v1h-1z M38,64h2v1h-2z M43,64h1v1h-1z M45,64h1v1h-1z M54,64h1v2h-1z M56,64h1v1h-1z M60,64h5v1h-5z M66,64h1v3h-1z M73,64h1v1h-1z M77,64h1v1h-1z M79,64h1v1h-1z M85,64h1v1h-1z M87,64h1v3h-1z M5,65h1v1h-1z M7,65h1v1h-1z M11,65h1v1h-1z M13,65h1v3h-1z M17,65h1v1h-1z M24,65h4v1h-4z M29,65h1v2h-1z M35,65h1v2h-1z M37,65h2v1h-2z M40,65h1v2h-1z M46,65h1v1h-1z M49,65h2v1h-2z M52,65h2v2h-2z M57,65h1v2h-1z M61,65h1v1h-1z M63,65h3v1h-3z M70,65h1v3h-1z M74,65h1v2h-1z M80,65h2v3h-2z M82,65h1v1h-1z M84,65h1v5h-1z M4,66h1v2h-1z M6,66h1v1h-1z M8,66h1v1h-1z M10,66h1v1h-1z M12,66h1v3h-1z M21,66h2v1h-2z M26,66h1v1h-1z M28,66h1v1h-1z M30,66h1v2h-1z M33,66h1v5h-1z M36,66h1v1h-1z M43,66h1v4h-1z M44,66h2v1h-2z M50,66h1v2h-1z M55,66h1v2h-1z M60,66h1v1h-1z M62,66h1v1h-1z M64,66h1v1h-1z M69,66h1v5h-1z M72,66h1v3h-1z M79,66h1v1h-1z M86,66h1v4h-1z M7,67h1v3h-1z M9,67h1v1h-1z M14,67h1v5h-1z M17,67h2v1h-2z M22,67h1v1h-1z M24,67h1v5h-1z M32,67h1v2h-1z M41,67h1v1h-1z M45,67h1v2h-1z M48,67h1v1h-1z M52,67h1v1h-1z M54,67h1v5h-1z M56,67h1v1h-1z M63,67h1v2h-1z M73,67h1v2h-1z M75,67h1v2h-1z M77,67h1v1h-1z M82,67h1v2h-1z M88,67h1v2h-1z M5,68h2v2h-2z M8,68h1v2h-1z M10,68h1v1h-1z M16,68h1v3h-1z M18,68h4v1h-4z M27,68h2v1h-2z M31,68h1v1h-1z M34,68h1v2h-1z M36,68h1v2h-1z M38,68h2v4h-2z M49,68h1v1h-1z M57,68h1v1h-1z M60,68h2v2h-2z M64,68h1v2h-1z M74,68h1v1h-1z M79,68h1v6h-1z M80,68h1v2h-1z M83,68h1v2h-1z M9,69h1v1h-1z M13,69h1v1h-1z M17,69h2v3h-2z M22,69h2v1h-2z M25,69h2v1h-2z M35,69h1v2h-1z M37,69h1v3h-1z M40,69h3v1h-3z M44,69h1v1h-1z M47,69h1v2h-1z M50,69h2v1h-2z M53,69h1v1h-1z M56,69h1v1h-1z M58,69h1v1h-1z M62,69h1v9h-1z M66,69h1v1h-1z M68,69h1v1h-1z M70,69h2v1h-2z M77,69h1v3h-1z M4,70h2v1h-2z M10,70h1v1h-1z M12,70h1v1h-1z M19,70h1v3h-1z M26,70h1v2h-1z M29,70h1v1h-1z M31,70h2v1h-2z M40,70h1v2h-1z M42,70h1v2h-1z M46,70h1v2h-1z M48,70h1v1h-1z M57,70h1v2h-1z M59,70h1v1h-1z M63,70h1v1h-1z M67,70h1v3h-1z M71,70h2v1h-2z M75,70h1v1h-1z M87,70h1v1h-1z M6,71h1v1h-1z M9,71h1v1h-1z M11,71h1v1h-1z M20,71h2v3h-2z M22,71h2v1h-2z M25,71h1v2h-1z M28,71h1v2h-1z M41,71h1v2h-1z M44,71h1v2h-1z M51,71h1v1h-1z M53,71h1v2h-1z M58,71h1v1h-1z M65,71h1v7h-1z M68,71h1v1h-1z M73,71h1v1h-1z M82,71h1v6h-1z M84,71h1v4h-1z M85,71h1v1h-1z M88,71h1v2h-1z M5,72h1v4h-1z M8,72h1v1h-1z M10,72h1v1h-1z M12,72h1v4h-1z M13,72h1v1h-1z M17,72h1v1h-1z M27,72h1v1h-1z M34,72h1v1h-1z M39,72h1v2h-1z M43,72h1v1h-1z M47,72h2v1h-2z M50,72h1v2h-1z M52,72h1v3h-1z M55,72h2v1h-2z M60,72h2v1h-2z M63,72h2v1h-2z M70,72h3v1h-3z M76,72h1v1h-1z M81,72h1v1h-1z M86,72h1v2h-1z M6,73h1v6h-1z M11,73h1v4h-1z M14,73h1v2h-1z M16,73h1v2h-1z M18,73h1v7h-1z M22,73h3v1h-3z M30,73h2v2h-2z M35,73h1v3h-1z M37,73h1v4h-1z M38,73h1v1h-1z M40,73h1v2h-1z M42,73h1v1h-1z M48,73h1v2h-1z M56,73h1v1h-1z M58,73h2v3h-2z M64,73h1v1h-1z M66,73h1v3h-1z M68,73h1v1h-1z M72,73h3v1h-3z M78,73h1v5h-1z M80,73h1v1h-1z M83,73h1v4h-1z M7,74h1v4h-1z M9,74h2v1h-2z M13,74h1v1h-1z M15,74h1v4h-1z M23,74h2v1h-2z M27,74h3v1h-3z M41,74h1v1h-1z M44,74h3v1h-3z M51,74h1v3h-1z M53,74h1v1h-1z M60,74h2v1h-2z M63,74h1v2h-1z M67,74h1v1h-1z M70,74h2v1h-2z M73,74h2v1h-2z M76,74h2v1h-2z M81,74h1v4h-1z M85,74h1v1h-1z M88,74h1v4h-1z M8,75h1v2h-1z M21,75h2v2h-2z M26,75h1v1h-1z M28,75h1v5h-1z M29,75h1v1h-1z M31,75h1v1h-1z M33,75h1v4h-1z M38,75h2v1h-2z M43,75h1v2h-1z M45,75h2v2h-2z M50,75h1v1h-1z M55,75h1v1h-1z M57,75h1v3h-1z M71,75h1v1h-1z M75,75h1v2h-1z M80,75h1v1h-1z M4,76h1v3h-1z M10,76h1v1h-1z M13,76h2v1h-2z M16,76h1v1h-1z M19,76h2v1h-2z M24,76h2v1h-2z M30,76h1v1h-1z M32,76h1v1h-1z M34,76h1v5h-1z M40,76h3v1h-3z M48,76h2v2h-2z M52,76h3v2h-3z M56,76h1v1h-1z M59,76h1v5h-1z M60,76h1v1h-1z M64,76h1v2h-1z M67,76h3v1h-3z M72,76h1v5h-1z M74,76h1v1h-1z M77,76h1v1h-1z M79,76h1v2h-1z M84,76h1v2h-1z M87,76h1v3h-1z M5,77h1v3h-1z M12,77h1v3h-1z M14,77h1v2h-1z M17,77h1v1h-1z M19,77h1v1h-1z M23,77h1v1h-1z M26,77h2v3h-2z M29,77h1v1h-1z M31,77h1v1h-1z M36,77h1v2h-1z M39,77h1v1h-1z M41,77h1v1h-1z M46,77h1v1h-1z M50,77h1v3h-1z M68,77h4v1h-4z M73,77h1v2h-1z M8,78h1v1h-1z M10,78h1v1h-1z M21,78h2v2h-2z M24,78h1v1h-1z M30,78h1v1h-1z M37,78h1v1h-1z M40,78h1v2h-1z M42,78h4v1h-4z M51,78h1v5h-1z M54,78h1v1h-1z M58,78h1v3h-1z M60,78h1v1h-1z M71,78h1v2h-1z M75,78h1v4h-1z M76,78h2v1h-2z M80,78h1v8h-1z M82,78h2v3h-2z M85,78h1v3h-1z M86,78h1v1h-1z M7,79h1v1h-1z M9,79h1v1h-1z M16,79h1v2h-1z M19,79h1v1h-1z M23,79h1v1h-1z M25,79h1v2h-1z M29,79h1v3h-1z M38,79h2v1h-2z M41,79h1v1h-1z M43,79h2v1h-2z M46,79h1v4h-1z M53,79h1v1h-1z M57,79h1v2h-1z M61,79h5v1h-5z M67,79h2v1h-2z M81,79h1v2h-1z M4,80h1v1h-1z M10,80h1v1h-1z M13,80h3v1h-3z M20,80h1v3h-1z M22,80h1v1h-1z M27,80h1v4h-1z M31,80h3v1h-3z M35,80h2v1h-2z M39,80h1v4h-1z M42,80h1v1h-1z M44,80h1v1h-1z M48,80h1v1h-1z M55,80h2v1h-2z M60,80h1v8h-1z M62,80h3v2h-3z M69,80h2v1h-2z M78,80h2v1h-2z M84,80h1v6h-1z M12,81h1v5h-1z M15,81h1v1h-1z M17,81h2v1h-2z M21,81h1v3h-1z M23,81h1v1h-1z M32,81h1v8h-1z M36,81h2v2h-2z M40,81h2v2h-2z M45,81h1v1h-1z M52,81h2v2h-2z M56,81h1v4h-1z M61,81h1v1h-1z M68,81h1v1h-1z M76,81h2v1h-2z M79,81h1v1h-1z M86,81h1v1h-1z M88,81h1v1h-1z M4,82h7v1h-7z M13,82h1v1h-1z M18,82h1v2h-1z M24,82h2v1h-2z M28,82h1v1h-1z M30,82h2v1h-2z M34,82h1v1h-1z M38,82h1v1h-1z M42,82h2v2h-2z M44,82h1v1h-1z M47,82h1v4h-1z M49,82h1v3h-1z M50,82h1v1h-1z M55,82h1v1h-1z M58,82h1v1h-1z M63,82h2v2h-2z M65,82h1v1h-1z M67,82h1v1h-1z M69,82h1v1h-1z M71,82h1v1h-1z M74,82h1v3h-1z M77,82h1v3h-1z M78,82h1v1h-1z M82,82h1v1h-1z M4,83h1v6h-1z M10,83h1v6h-1z M14,83h2v1h-2z M19,83h1v2h-1z M22,83h2v1h-2z M26,83h1v1h-1z M29,83h2v1h-2z M36,83h1v2h-1z M41,83h1v2h-1z M45,83h1v1h-1z M48,83h1v4h-1z M53,83h2v1h-2z M66,83h1v2h-1z M68,83h1v6h-1z M72,83h1v4h-1z M85,83h1v3h-1z M87,83h2v1h-2z M6,84h3v3h-3z M13,84h1v4h-1z M15,84h3v3h-3z M20,84h1v1h-1z M23,84h1v1h-1z M25,84h1v5h-1z M28,84h2v1h-2z M31,84h1v1h-1z M33,84h2v3h-2z M35,84h1v1h-1z M37,84h1v2h-1z M44,84h1v3h-1z M51,84h3v1h-3z M57,84h3v1h-3z M61,84h2v1h-2z M65,84h1v2h-1z M70,84h2v1h-2z M73,84h1v3h-1z M75,84h2v1h-2z M79,84h1v1h-1z M81,84h3v1h-3z M87,84h1v1h-1z M14,85h1v3h-1z M21,85h2v1h-2z M28,85h1v1h-1z M40,85h1v4h-1z M42,85h1v1h-1z M46,85h1v1h-1z M50,85h1v2h-1z M52,85h1v3h-1z M58,85h1v2h-1z M62,85h3v1h-3z M69,85h1v4h-1z M70,85h1v1h-1z M76,85h1v1h-1z M81,85h1v1h-1z M83,85h1v2h-1z M88,85h1v4h-1z M19,86h2v1h-2z M23,86h1v2h-1z M27,86h1v2h-1z M29,86h1v1h-1z M35,86h2v1h-2z M38,86h2v1h-2z M41,86h1v1h-1z M45,86h1v3h-1z M51,86h1v1h-1z M53,86h1v1h-1z M55,86h1v3h-1z M67,86h1v3h-1z M71,86h1v1h-1z M77,86h3v1h-3z M82,86h1v3h-1z M87,86h1v2h-1z M15,87h1v2h-1z M20,87h2v2h-2z M24,87h1v1h-1z M31,87h1v1h-1z M33,87h1v2h-1z M37,87h1v2h-1z M46,87h2v1h-2z M49,87h1v1h-1z M56,87h2v2h-2z M63,87h1v1h-1z M65,87h2v1h-2z M74,87h1v2h-1z M76,87h1v1h-1z M78,87h4v1h-4z M85,87h1v1h-1z M5,88h5v1h-5z M12,88h1v1h-1z M16,88h4v1h-4z M26,88h1v1h-1z M30,88h1v1h-1z M34,88h2v1h-2z M38,88h2v1h-2z M42,88h3v1h-3z M46,88h1v1h-1z M50,88h1v1h-1z M54,88h1v1h-1z M59,88h1v1h-1z M61,88h1v1h-1z M64,88h1v1h-1z M70,88h1v1h-1z M73,88h1v1h-1z M75,88h1v1h-1z M77,88h1v1h-1z M79,88h1v1h-1z M81,88h1v1h-1z M83,88h2v1h-2z M86,88h1v1h-1z" fill="#000000"/>
</svg>
