<?xml version="1.0" encoding="utf-8"?>
<!-- Generator: Adobe Illustrator 25.0.0, SVG Export Plug-In . SVG Version: 6.00 Build 0)  -->
<svg version="1.1" id="Слой_1" xmlns="http://www.w3.org/2000/svg" xmlns:xlink="http://www.w3.org/1999/xlink" x="0px"
	 y="0px"
	 viewBox="0 0 800 800" style="enable-background:new 0 0 800 800;" xml:space="preserve">
<style type="text/css">
	.st0{fill:none;}
	.st1{fill:#FFFFFF;}
</style>
	<g id="SVGRepo_bgCarrier">
</g>
	<g id="SVGRepo_tracerCarrier">
</g>
	<g id="SVGRepo_iconCarrier">
	<g id="页面-1">
		<g id="User" transform="translate(-528.000000, -48.000000)">
			<g id="contacts_fill" transform="translate(528.000000, 48.000000)">
				<path id="MingCute" class="st0" d="M868.5-68.5v937.1H-68.5V-68.5H868.5z"/>
				<path id="形状" class="st1" d="M517.1,478.1c105,0,190.6,82.9,195,186.8l0.2,8.5v39c0,41.2-31.9,74.9-72.3,77.9l-5.8,0.2H87.6
					c-41.2,0-74.9-31.9-77.9-72.3l-0.2-5.8v-39c0-105,82.9-190.6,186.8-195l8.5-0.2H517.1z M751.4,439c21.6,0,39,17.5,39,39
					c0,21.6-17.5,39-39,39h-39c-21.6,0-39-17.5-39-39c0-21.6,17.5-39,39-39H751.4z M361,9.5c107.8,0,195.2,87.4,195.2,195.2
					S468.8,400,361,400c-107.8,0-195.2-87.4-195.2-195.2S253.1,9.5,361,9.5z M751.4,321.9c21.6,0,39,17.5,39,39s-17.5,39-39,39
					h-78.1c-21.6,0-39-17.5-39-39s17.5-39,39-39H751.4z M751.4,204.8c21.6,0,39,17.5,39,39c0,20-15.1,36.5-34.5,38.8l-4.6,0.3H634.3
					c-21.6,0-39-17.5-39-39c0-20,15.1-36.5,34.5-38.8l4.6-0.3H751.4z"/>
			</g>
		</g>
	</g>
</g>
</svg>
