<?xml version="1.0" encoding="utf-8"?>
<!-- Generator: Adobe Illustrator 27.2.0, SVG Export Plug-In . SVG Version: 6.00 Build 0)  -->
<svg version="1.1" id="Слой_1" xmlns="http://www.w3.org/2000/svg" xmlns:xlink="http://www.w3.org/1999/xlink" x="0px" y="0px"
	 viewBox="0 0 800 800" style="enable-background:new 0 0 800 800;" xml:space="preserve">
<style type="text/css">
	.st0{fill-rule:evenodd;clip-rule:evenodd;}
</style>
<path class="st0" d="M515.4,694.5c17.6-27.1,35.2-61.9,47.8-106.6c29.2,11.2,49.3,24.6,61.6,35.2c-31.5,31.3-69.3,55.6-110.8,71.4
	L515.4,694.5L515.4,694.5L515.4,694.5z M174.8,622.7c13-10.6,32.7-23.6,61.9-35.2c13,45,29.9,79.9,47.8,107
	c-40.9-16.1-78.1-40.5-109.1-71.7L174.8,622.7L174.8,622.7z M586.5,364.8c-1.1-31.3-4.3-62.7-9.5-93.6c38.7-14.1,66.8-31,86.5-46.4
	c27.5,42,44.5,90.1,49.6,140H586.5L586.5,364.8z M239.2,202.3c-20.5-7.5-39.8-18-57.3-31c29.7-28.4,64.5-50.7,102.7-65.8
	c-16.5,24.6-32.7,56.3-45.7,96.8H239.2L239.2,202.3L239.2,202.3z M515.4,105.5c38.2,15,73.1,37.4,102.7,65.8
	c-17.6,13-36.9,23.4-57.3,31c-10.5-34.3-25.9-66.9-45.7-96.8H515.4L515.4,105.5z M508.4,288.5c3.5,23.2,7,48.2,7.7,76.4H283.9
	c1-28.1,3.5-53.5,7-76.4c71.8,12.9,145.3,12.9,217.1,0H508.4z M400,227.6c-35.2,0-66.2-2.8-92.5-7C335.6,134,379.3,99.2,400,86.9
	c20,12.3,64,47.5,92.2,133.7C461.7,225.4,430.9,227.7,400,227.6z M136.1,224.8c26.3,20,55.6,35.7,86.9,46.4
	c-5.2,30.9-8.4,62.2-9.5,93.6H85.4c5.6-50.1,23.1-98.1,51-140L136.1,224.8L136.1,224.8L136.1,224.8z M85.8,435.2h127.7
	c1.4,30.3,3.5,58,7.7,83.4c-32.4,11.1-62.7,27.8-89.4,49.2c-25.3-40.1-41.2-85.5-46.4-132.6C85.4,435.2,85.8,435.2,85.8,435.2z
	 M400,491.5c-42.2,0-78.4,3.5-110.1,9.1c-3.1-21.7-5.1-43.5-6-65.4h232.2c-1,23.5-2.8,45.7-5.6,65.4C474,494,437,490.9,400,491.1
	V491.5L400,491.5z M400,713.1c-21.1-12.7-67.5-50.3-95.7-144.2c31.6-5.2,63.7-7.5,95.7-7c37,0,68.6,2.4,96.1,7
	c-28.1,95-74.6,131.6-95.7,144.2L400,713.1L400,713.1z M668.1,567.5c-26.7-21.5-56.9-38.1-89.4-49.2c4.2-27.5,6.8-55.2,7.7-83.1
	h128.1C709.2,482.2,693.4,527.4,668.1,567.5L668.1,567.5z M400,13C186.3,13,13,186.3,13,400s173.3,387,387,387s387-173.3,387-387
	S613.7,13,400,13z"/>
</svg>
